<svg width="440" height="483" viewBox="0 0 440 483" fill="none" xmlns="http://www.w3.org/2000/svg">
<path d="M219.994 482.942L0.765137 356.496V127.414L219.994 253.861V482.942Z" fill="#DB4534"/>
<path d="M202.093 454.908L17.6606 348.382V155.39L202.093 261.916V454.908Z" fill="#DB4534"/>
<path d="M0.765137 127.414V356.496L219.994 482.942L7.33378 353.211L0.765137 127.414Z" fill="#F56C5D"/>
<path d="M219.992 482.942L439.221 356.496V127.414L219.992 253.861V482.942Z" fill="#BF1300"/>
<path d="M219.992 482.941L439.221 356.495V352.389L219.992 478.836V482.941Z" fill="#DB4534"/>
<path d="M219.994 253.86L0.765137 127.414L219.994 0.967529L439.222 127.414L219.994 253.86Z" fill="#A6CADC"/>
<path d="M421.157 127.415L235.593 234.976L219.992 243.187L205.213 234.976L19.6487 127.415L219.992 11.6423L421.157 127.415Z" fill="#4B6470"/>
<path d="M219.992 11.6423V243.187L19.6487 127.415L219.992 11.6423Z" fill="#647D89"/>
<path d="M235.592 234.975L219.991 243.185L205.212 234.975L219.991 225.943L235.592 234.975Z" fill="#587481"/>
</svg>
