<svg width="266" height="266" fill="none" xmlns="http://www.w3.org/2000/svg"><path d="M112.072 122.772v23.256a.934.934 0 01-.288.684.934.934 0 01-.684.288h-7.056a.934.934 0 01-.684-.288.934.934 0 01-.288-.684v-14.544l-4.032 3.096a1.053 1.053 0 01-.648.216c-.215 0-.456-.168-.72-.504l-3.168-4.104a.954.954 0 01-.144-.468c0-.432.156-.744.469-.936l8.675-6.732c.24-.168.504-.252.792-.252h6.804c.264 0 .492.096.684.288.192.192.288.42.288.684zm13.519 16.452c.336.432.648.744.936.936.288.168.72.252 1.296.252.6 0 1.104-.192 1.512-.576.432-.408.648-.936.648-1.584s-.204-1.188-.612-1.62c-.384-.432-.888-.648-1.512-.648s-1.152.144-1.584.432c-.408.288-.672.432-.792.432h-7.164a.86.86 0 01-.576-.216.86.86 0 01-.216-.576v-.18l1.44-12.852c.096-.816.564-1.224 1.404-1.224h16.092c.264 0 .492.096.684.288.192.192.288.42.288.684v5.076a.934.934 0 01-.288.684.934.934 0 01-.684.288h-10.512l-.288 2.556c1.2-.816 2.868-1.224 5.004-1.224 2.16 0 4.128.804 5.904 2.412 1.8 1.584 2.7 3.6 2.7 6.048 0 2.424-1.008 4.5-3.024 6.228-2.016 1.728-4.848 2.592-8.496 2.592-3.648 0-6.492-.768-8.532-2.304-2.016-1.56-3.024-3.48-3.024-5.76 0-.216.072-.396.216-.54a.793.793 0 01.576-.252h7.272c.552 0 .996.216 1.332.648zm37.007-.216v3.348c0 .72.3 1.08.9 1.08.624 0 .936-.36.936-1.08v-3.348c0-.72-.312-1.08-.936-1.08-.6 0-.9.36-.9 1.08zm6.732 0v3.384c0 1.584-.528 2.808-1.584 3.672-1.032.864-2.448 1.296-4.248 1.296-1.8 0-3.228-.432-4.284-1.296-1.032-.864-1.548-2.1-1.548-3.708v-3.312c0-1.584.54-2.808 1.62-3.672 1.08-.888 2.484-1.332 4.212-1.332 1.728 0 3.132.444 4.212 1.332 1.08.864 1.62 2.076 1.62 3.636zm-21.708-12.6v3.348c0 .72.3 1.08.9 1.08.624 0 .936-.36.936-1.08v-3.348c0-.72-.312-1.08-.936-1.08-.6 0-.9.36-.9 1.08zm6.732 0v3.384c0 1.584-.528 2.808-1.584 3.672-1.032.864-2.448 1.296-4.248 1.296-1.8 0-3.228-.432-4.284-1.296-1.032-.864-1.548-2.1-1.548-3.708v-3.312c0-1.584.54-2.808 1.62-3.672 1.08-.888 2.484-1.332 4.212-1.332 1.728 0 3.132.444 4.212 1.332 1.08.864 1.62 2.076 1.62 3.636zm9.432-4.608h2.304c.576 0 .864.24.864.72a.62.62 0 01-.144.396l-17.424 23.4c-.336.456-.768.684-1.296.684h-2.304c-.576 0-.864-.24-.864-.72a.62.62 0 01.144-.396l17.424-23.4c.336-.456.768-.684 1.296-.684z" fill="#fff"/><path d="M266.001 133c0 73.454-59.547 133-133 133-73.454 0-133-59.546-133-133C0 59.546 59.547 0 133 0s133 59.546 133 133zm-205.833 0c0 40.224 32.608 72.832 72.833 72.832 40.224 0 72.832-32.608 72.832-72.832s-32.608-72.832-72.832-72.832c-40.225 0-72.833 32.608-72.833 72.832z" fill="#1D8CCA" fill-opacity=".13"/><path d="M249.325 197.48a133.003 133.003 0 01-100.116 67.529l-7.171-58.401a74.151 74.151 0 0055.825-37.654l51.462 28.526z" fill="#37FB63"/></svg>