<svg width="266" height="267" fill="none" xmlns="http://www.w3.org/2000/svg"><path d="M102.376 139.224c.336.432.648.744.936.936.288.168.72.252 1.296.252.6 0 1.104-.192 1.512-.576.432-.408.648-.936.648-1.584s-.204-1.188-.612-1.62c-.384-.432-.888-.648-1.512-.648s-1.152.144-1.584.432c-.408.288-.672.432-.792.432h-7.164a.86.86 0 01-.576-.216.86.86 0 01-.216-.576v-.18l1.44-12.852c.096-.816.564-1.224 1.404-1.224h16.092c.264 0 .492.096.684.288.192.192.288.42.288.684v5.076a.934.934 0 01-.288.684.934.934 0 01-.684.288h-10.512l-.288 2.556c1.2-.816 2.868-1.224 5.004-1.224 2.16 0 4.128.804 5.904 2.412 1.8 1.584 2.7 3.6 2.7 6.048 0 2.424-1.008 4.5-3.024 6.228-2.016 1.728-4.848 2.592-8.496 2.592-3.648 0-6.492-.768-8.532-2.304-2.016-1.56-3.024-3.48-3.024-5.76 0-.216.072-.396.216-.54a.793.793 0 01.576-.252h7.272c.552 0 .996.216 1.332.648zm26.819-8.496v7.236c0 .696.168 1.26.504 1.692.336.432.828.648 1.476.648s1.14-.216 1.476-.648c.336-.432.504-.996.504-1.692v-7.236c0-1.56-.66-2.34-1.98-2.34-1.32 0-1.98.78-1.98 2.34zm13.32.36v6.588c0 3.096-1.02 5.484-3.06 7.164-2.016 1.68-4.776 2.52-8.28 2.52-3.504 0-6.276-.84-8.316-2.52-2.016-1.704-3.024-4.116-3.024-7.236v-6.444c0-3.096 1.044-5.484 3.132-7.164 2.112-1.704 4.848-2.556 8.208-2.556 3.36 0 6.084.852 8.172 2.556 2.112 1.68 3.168 4.044 3.168 7.092zm23.165 7.92v3.348c0 .72.3 1.08.9 1.08.624 0 .936-.36.936-1.08v-3.348c0-.72-.312-1.08-.936-1.08-.6 0-.9.36-.9 1.08zm6.732 0v3.384c0 1.584-.528 2.808-1.584 3.672-1.032.864-2.448 1.296-4.248 1.296-1.8 0-3.228-.432-4.284-1.296-1.032-.864-1.548-2.1-1.548-3.708v-3.312c0-1.584.54-2.808 1.62-3.672 1.08-.888 2.484-1.332 4.212-1.332 1.728 0 3.132.444 4.212 1.332 1.08.864 1.62 2.076 1.62 3.636zm-21.708-12.6v3.348c0 .72.3 1.08.9 1.08.624 0 .936-.36.936-1.08v-3.348c0-.72-.312-1.08-.936-1.08-.6 0-.9.36-.9 1.08zm6.732 0v3.384c0 1.584-.528 2.808-1.584 3.672-1.032.864-2.448 1.296-4.248 1.296-1.8 0-3.228-.432-4.284-1.296-1.032-.864-1.548-2.1-1.548-3.708v-3.312c0-1.584.54-2.808 1.62-3.672 1.08-.888 2.484-1.332 4.212-1.332 1.728 0 3.132.444 4.212 1.332 1.08.864 1.62 2.076 1.62 3.636zm9.432-4.608h2.304c.576 0 .864.24.864.72a.62.62 0 01-.144.396l-17.424 23.4c-.336.456-.768.684-1.296.684h-2.304c-.576 0-.864-.24-.864-.72a.62.62 0 01.144-.396l17.424-23.4c.336-.456.768-.684 1.296-.684z" fill="#fff"/><path d="M266 133c0 73.454-59.546 133-133 133C59.546 266 0 206.454 0 133 0 59.546 59.546 0 133 0c73.454 0 133 59.546 133 133zm-205.832 0c0 40.224 32.608 72.832 72.832 72.832s72.832-32.608 72.832-72.832S173.224 60.168 133 60.168 60.168 92.776 60.168 133z" fill="#1D8CCA" fill-opacity=".13"/><path d="M249.324 198.48a132.992 132.992 0 01-79.664 63.368 133.008 133.008 0 01-101.14-11.524A132.99 132.99 0 015.152 170.66 133.002 133.002 0 0116.676 69.52l51.462 28.526a74.16 74.16 0 0085.303 107.242 74.165 74.165 0 0044.422-35.334l51.461 28.526z" fill="#37FB63"/></svg>