<svg width="266" height="266" fill="none" xmlns="http://www.w3.org/2000/svg"><path d="M93.88 129.928c0-2.112.852-3.888 2.556-5.328 1.704-1.44 4.368-2.16 7.992-2.16 3.648 0 6.312.72 7.992 2.16 1.68 1.416 2.52 3.18 2.52 5.292 0 2.088-.708 3.684-2.124 4.788.984.48 1.764 1.224 2.34 2.232a6.36 6.36 0 01.864 3.204c0 1.128-.216 2.16-.648 3.096-.432.936-1.092 1.8-1.98 2.592-.864.792-2.064 1.416-3.6 1.872-1.536.456-3.312.684-5.328.684-3.912 0-6.804-.792-8.676-2.376-1.872-1.584-2.808-3.528-2.808-5.832 0-1.152.288-2.22.864-3.204.576-.984 1.332-1.74 2.268-2.268-1.488-1.08-2.232-2.664-2.232-4.752zm12.384 11.808c.48-.384.72-.9.72-1.548s-.24-1.164-.72-1.548c-.456-.384-1.056-.576-1.8-.576s-1.356.192-1.836.576c-.456.384-.684.9-.684 1.548s.228 1.164.684 1.548c.48.384 1.092.576 1.836.576s1.344-.192 1.8-.576zm-.144-9.864c.432-.384.648-.852.648-1.404 0-.552-.216-1.008-.648-1.368-.408-.384-.96-.576-1.656-.576s-1.248.192-1.656.576c-.408.36-.612.816-.612 1.368 0 .552.204 1.02.612 1.404.408.36.96.54 1.656.54s1.248-.18 1.656-.54zm23.04-.144v7.236c0 .696.168 1.26.504 1.692.336.432.828.648 1.476.648s1.14-.216 1.476-.648c.336-.432.504-.996.504-1.692v-7.236c0-1.56-.66-2.34-1.98-2.34-1.32 0-1.98.78-1.98 2.34zm13.32.36v6.588c0 3.096-1.02 5.484-3.06 7.164-2.016 1.68-4.776 2.52-8.28 2.52-3.504 0-6.276-.84-8.316-2.52-2.016-1.704-3.024-4.116-3.024-7.236v-6.444c0-3.096 1.044-5.484 3.132-7.164 2.112-1.704 4.848-2.556 8.208-2.556 3.36 0 6.084.852 8.172 2.556 2.112 1.68 3.168 4.044 3.168 7.092zm23.165 7.92v3.348c0 .72.3 1.08.9 1.08.624 0 .936-.36.936-1.08v-3.348c0-.72-.312-1.08-.936-1.08-.6 0-.9.36-.9 1.08zm6.732 0v3.384c0 1.584-.528 2.808-1.584 3.672-1.032.864-2.448 1.296-4.248 1.296-1.8 0-3.228-.432-4.284-1.296-1.032-.864-1.548-2.1-1.548-3.708v-3.312c0-1.584.54-2.808 1.62-3.672 1.08-.888 2.484-1.332 4.212-1.332 1.728 0 3.132.444 4.212 1.332 1.08.864 1.62 2.076 1.62 3.636zm-21.708-12.6v3.348c0 .72.3 1.08.9 1.08.624 0 .936-.36.936-1.08v-3.348c0-.72-.312-1.08-.936-1.08-.6 0-.9.36-.9 1.08zm6.732 0v3.384c0 1.584-.528 2.808-1.584 3.672-1.032.864-2.448 1.296-4.248 1.296-1.8 0-3.228-.432-4.284-1.296-1.032-.864-1.548-2.1-1.548-3.708v-3.312c0-1.584.54-2.808 1.62-3.672 1.08-.888 2.484-1.332 4.212-1.332 1.728 0 3.132.444 4.212 1.332 1.08.864 1.62 2.076 1.62 3.636zm9.432-4.608h2.304c.576 0 .864.24.864.72a.62.62 0 01-.144.396l-17.424 23.4c-.336.456-.768.684-1.296.684h-2.304c-.576 0-.864-.24-.864-.72a.62.62 0 01.144-.396l17.424-23.4c.336-.456.768-.684 1.296-.684z" fill="#fff"/><path d="M266 133c0 73.454-59.546 133-133 133C59.546 266 0 206.454 0 133 0 59.546 59.546 0 133 0c73.454 0 133 59.546 133 133zm-205.832 0c0 40.224 32.608 72.832 72.832 72.832s72.832-32.608 72.832-72.832S173.224 60.168 133 60.168 60.168 92.776 60.168 133z" fill="#1D8CCA" fill-opacity=".13"/><path d="M249.324 197.48A132.998 132.998 0 0135.73 223.706 133.003 133.003 0 0116.676 68.52 133 133 0 01230.27 42.294l-43.032 40.129a74.161 74.161 0 1010.624 86.531l51.462 28.526z" fill="#37FB63"/></svg>