<svg width="26" height="26" fill="none" xmlns="http://www.w3.org/2000/svg"><path d="M13 0C5.82 0 0 5.82 0 13s5.82 13 13 13 13-5.82 13-13C25.992 5.824 20.176.008 13 0zm.464 3.748l4.52-1.807c.512.232 1.008.5 1.484.8l.012.008c.468.296.915.624 1.338.981l.036.032c.19.161.375.329.554.502l.069.066c.188.183.37.373.546.567l.044.05a11.812 11.812 0 01.55.666c.157.203.308.409.451.622l-.9 3.83-4.433 1.477-4.27-3.416-.001-4.378zM3.382 5.616l.103-.13c.142-.181.29-.358.442-.53l.048-.055c.176-.195.357-.384.545-.568.021-.02.043-.043.066-.063.177-.171.36-.337.549-.498l.043-.037c.42-.354.862-.68 1.325-.975l.017-.01c.473-.3.966-.568 1.476-.8l4.54 1.798v4.377l-4.27 3.415-4.433-1.474-.9-3.83c.144-.213.294-.419.45-.62zM2.86 19.65a12.07 12.07 0 01-.365-.594l-.029-.049a11.37 11.37 0 01-.327-.612l-.004-.006a12.07 12.07 0 01-.57-1.343v-.005a11.938 11.938 0 01-.213-.662l-.023-.082c-.06-.21-.114-.421-.162-.636l-.014-.061a12.061 12.061 0 01-.229-1.468l2.646-3.175 4.402 1.467 1.277 5.11-2.099 2.793-4.29-.677zm13.026 5.134c-.217.053-.44.1-.662.141l-.094.017a10.8 10.8 0 01-.573.087l-.152.02c-.179.02-.358.036-.539.049-.056.004-.112.01-.17.013a11.328 11.328 0 01-1.335.005c-.026 0-.05-.004-.076-.006-.188-.01-.376-.025-.563-.043l-.022-.004c-.41-.044-.818-.11-1.222-.195l-2.563-4.013L9.98 18.1h6.038l2.1 2.773-2.233 3.91zM24.85 15.6l-.014.062c-.048.214-.102.426-.162.636l-.023.082c-.065.223-.135.444-.212.662v.004c-.163.459-.354.907-.571 1.343l-.004.007c-.103.207-.212.411-.328.612l-.028.048c-.115.203-.237.4-.364.593l-4.276.674-2.114-2.79 1.277-5.109 4.402-1.467 2.646 3.174c-.046.494-.123.985-.229 1.469z" fill="#00FFA3"/></svg>