<svg width="1461" height="73" fill="none" xmlns="http://www.w3.org/2000/svg"><path fill="#284899" d="M10 20h1440v46H10z"/><path d="M17.5 1C13.5 5 4.167 15.666 0 20.5h22c.167-8.167-.5-23.5-4.5-19.5zM465 1c-4 4-13.333 14.666-17.5 19.5h22C469.667 12.333 469-3 465 1zm448 0c-4 4-13.333 14.666-17.5 19.5h22C917.667 12.333 917-3 913 1zM241 1c-4 4-13.333 14.666-17.5 19.5h22C245.667 12.333 245-3 241 1zm448 0c-4 4-13.333 14.666-17.5 19.5h22C693.667 12.333 693-3 689 1zm448 0c-4 4-13.33 14.666-17.5 19.5h22c.17-8.167-.5-23.5-4.5-19.5zM129 1c-4 4-13.333 14.666-17.5 19.5h22C133.667 12.333 133-3 129 1zm448 0c-4 4-13.333 14.666-17.5 19.5h22C581.667 12.333 581-3 577 1zm448 0c-4 4-13.33 14.666-17.5 19.5h22c.17-8.167-.5-23.5-4.5-19.5zM353 1c-4 4-13.333 14.666-17.5 19.5h22C357.667 12.333 357-3 353 1zm448 0c-4 4-13.333 14.666-17.5 19.5h22C805.667 12.333 805-3 801 1zm448 0c-4 4-13.33 14.666-17.5 19.5h22c.17-8.167-.5-23.5-4.5-19.5zM73 1c-4 4-13.333 14.666-17.5 19.5h22C77.667 12.333 77-3 73 1zm448 0c-4 4-13.333 14.666-17.5 19.5h22C525.667 12.333 525-3 521 1zm448 0c-4 4-13.333 14.666-17.5 19.5h22C973.667 12.333 973-3 969 1zM297 1c-4 4-13.333 14.666-17.5 19.5h22C301.667 12.333 301-3 297 1zm448 0c-4 4-13.333 14.666-17.5 19.5h22C749.667 12.333 749-3 745 1zm448 0c-4 4-13.33 14.666-17.5 19.5h22c.17-8.167-.5-23.5-4.5-19.5zM185 1c-4 4-13.333 14.666-17.5 19.5h22C189.667 12.333 189-3 185 1zm448 0c-4 4-13.333 14.666-17.5 19.5h22C637.667 12.333 637-3 633 1zm448 0c-4 4-13.33 14.666-17.5 19.5h22c.17-8.167-.5-23.5-4.5-19.5zM409 1c-4 4-13.333 14.666-17.5 19.5h22C413.667 12.333 413-3 409 1zm448 0c-4 4-13.333 14.666-17.5 19.5h22C861.667 12.333 861-3 857 1zm448 0c-4 4-13.33 14.666-17.5 19.5h22c.17-8.167-.5-23.5-4.5-19.5zm56-.346c-4 4-13.33 14.666-17.5 19.5h22c.17-8.167-.5-23.5-4.5-19.5zM45 1c-4 4-13.333 14.666-17.5 19.5h22C49.667 12.333 49-3 45 1zm448 0c-4 4-13.333 14.666-17.5 19.5h22C497.667 12.333 497-3 493 1zm448 0c-4 4-13.333 14.666-17.5 19.5h22C945.667 12.333 945-3 941 1zM269 1c-4 4-13.333 14.666-17.5 19.5h22C273.667 12.333 273-3 269 1zm448 0c-4 4-13.333 14.666-17.5 19.5h22C721.667 12.333 721-3 717 1zm448 0c-4 4-13.33 14.666-17.5 19.5h22c.17-8.167-.5-23.5-4.5-19.5zM157 1c-4 4-13.333 14.666-17.5 19.5h22C161.667 12.333 161-3 157 1zm448 0c-4 4-13.333 14.666-17.5 19.5h22C609.667 12.333 609-3 605 1zm448 0c-4 4-13.33 14.666-17.5 19.5h22c.17-8.167-.5-23.5-4.5-19.5zM381 1c-4 4-13.333 14.666-17.5 19.5h22C385.667 12.333 385-3 381 1zm448 0c-4 4-13.333 14.666-17.5 19.5h22C833.667 12.333 833-3 829 1zm448 0c-4 4-13.33 14.666-17.5 19.5h22c.17-8.167-.5-23.5-4.5-19.5zM101 1c-4 4-13.333 14.666-17.5 19.5h22C105.667 12.333 105-3 101 1zm448 0c-4 4-13.333 14.666-17.5 19.5h22C553.667 12.333 553-3 549 1zm448 0c-4 4-13.333 14.666-17.5 19.5h22c.17-8.167-.5-23.5-4.5-19.5zM325 1c-4 4-13.333 14.666-17.5 19.5h22C329.667 12.333 329-3 325 1zm448 0c-4 4-13.333 14.666-17.5 19.5h22C777.667 12.333 777-3 773 1zm448 0c-4 4-13.33 14.666-17.5 19.5h22c.17-8.167-.5-23.5-4.5-19.5zM213 1c-4 4-13.333 14.666-17.5 19.5h22C217.667 12.333 217-3 213 1zm448 0c-4 4-13.333 14.666-17.5 19.5h22C665.667 12.333 665-3 661 1zm448 0c-4 4-13.33 14.666-17.5 19.5h22c.17-8.167-.5-23.5-4.5-19.5zM437 1c-4 4-13.333 14.666-17.5 19.5h22C441.667 12.333 441-3 437 1zm448 0c-4 4-13.333 14.666-17.5 19.5h22C889.667 12.333 889-3 885 1zm448 0c-4 4-13.33 14.666-17.5 19.5h22c.17-8.167-.5-23.5-4.5-19.5zm56-.346c-4 4-13.33 14.666-17.5 19.5h22c.17-8.167-.5-23.5-4.5-19.5zm28 0c-4 4-13.33 14.666-17.5 19.5h22c.17-8.167-.5-23.5-4.5-19.5zM1445 1c-4 4-13.33 14.666-17.5 19.5h22c.17-8.167-.5-23.5-4.5-19.5z" fill="#284899"/><path d="M28.5 8c-4 4-13.333 14.666-17.5 19.5h22c.167-8.167-.5-23.5-4.5-19.5zM476 8c-4 4-13.333 14.666-17.5 19.5h22C480.667 19.333 480 4 476 8zm448 0c-4 4-13.333 14.666-17.5 19.5h22C928.667 19.333 928 4 924 8zM252 8c-4 4-13.333 14.666-17.5 19.5h22C256.667 19.333 256 4 252 8zm448 0c-4 4-13.333 14.666-17.5 19.5h22C704.667 19.333 704 4 700 8zm448 0c-4 4-13.33 14.666-17.5 19.5h22c.17-8.167-.5-23.5-4.5-19.5zM140 8c-4 4-13.333 14.666-17.5 19.5h22C144.667 19.333 144 4 140 8zm448 0c-4 4-13.333 14.666-17.5 19.5h22C592.667 19.333 592 4 588 8zm448 0c-4 4-13.33 14.666-17.5 19.5h22c.17-8.167-.5-23.5-4.5-19.5zM364 8c-4 4-13.333 14.666-17.5 19.5h22C368.667 19.333 368 4 364 8zm448 0c-4 4-13.333 14.666-17.5 19.5h22C816.667 19.333 816 4 812 8zm448 0c-4 4-13.33 14.666-17.5 19.5h22c.17-8.167-.5-23.5-4.5-19.5zM84 8c-4 4-13.333 14.666-17.5 19.5h22C88.667 19.333 88 4 84 8zm448 0c-4 4-13.333 14.666-17.5 19.5h22C536.667 19.333 536 4 532 8zm448 0c-4 4-13.333 14.666-17.5 19.5h22C984.667 19.333 984 4 980 8zM308 8c-4 4-13.333 14.666-17.5 19.5h22C312.667 19.333 312 4 308 8zm448 0c-4 4-13.333 14.666-17.5 19.5h22C760.667 19.333 760 4 756 8zm448 0c-4 4-13.33 14.666-17.5 19.5h22c.17-8.167-.5-23.5-4.5-19.5zM196 8c-4 4-13.333 14.666-17.5 19.5h22C200.667 19.333 200 4 196 8zm448 0c-4 4-13.333 14.666-17.5 19.5h22C648.667 19.333 648 4 644 8zm448 0c-4 4-13.33 14.666-17.5 19.5h22c.17-8.167-.5-23.5-4.5-19.5zM420 8c-4 4-13.333 14.666-17.5 19.5h22C424.667 19.333 424 4 420 8zm448 0c-4 4-13.333 14.666-17.5 19.5h22C872.667 19.333 872 4 868 8zm448 0c-4 4-13.33 14.666-17.5 19.5h22c.17-8.167-.5-23.5-4.5-19.5zm56-.346c-4 4-13.33 14.666-17.5 19.5h22c.17-8.167-.5-23.5-4.5-19.5zM56 8c-4 4-13.333 14.666-17.5 19.5h22C60.667 19.333 60 4 56 8zm448 0c-4 4-13.333 14.666-17.5 19.5h22C508.667 19.333 508 4 504 8zm448 0c-4 4-13.333 14.666-17.5 19.5h22C956.667 19.333 956 4 952 8zM280 8c-4 4-13.333 14.666-17.5 19.5h22C284.667 19.333 284 4 280 8zm448 0c-4 4-13.333 14.666-17.5 19.5h22C732.667 19.333 732 4 728 8zm448 0c-4 4-13.33 14.666-17.5 19.5h22c.17-8.167-.5-23.5-4.5-19.5zM168 8c-4 4-13.333 14.666-17.5 19.5h22C172.667 19.333 172 4 168 8zm448 0c-4 4-13.333 14.666-17.5 19.5h22C620.667 19.333 620 4 616 8zm448 0c-4 4-13.33 14.666-17.5 19.5h22c.17-8.167-.5-23.5-4.5-19.5zM392 8c-4 4-13.333 14.666-17.5 19.5h22C396.667 19.333 396 4 392 8zm448 0c-4 4-13.333 14.666-17.5 19.5h22C844.667 19.333 844 4 840 8zm448 0c-4 4-13.33 14.666-17.5 19.5h22c.17-8.167-.5-23.5-4.5-19.5zM112 8c-4 4-13.333 14.666-17.5 19.5h22C116.667 19.333 116 4 112 8zm448 0c-4 4-13.333 14.666-17.5 19.5h22C564.667 19.333 564 4 560 8zm448 0c-4 4-13.333 14.666-17.5 19.5h22c.17-8.167-.5-23.5-4.5-19.5zM336 8c-4 4-13.333 14.666-17.5 19.5h22C340.667 19.333 340 4 336 8zm448 0c-4 4-13.333 14.666-17.5 19.5h22C788.667 19.333 788 4 784 8zm448 0c-4 4-13.33 14.666-17.5 19.5h22c.17-8.167-.5-23.5-4.5-19.5zM224 8c-4 4-13.333 14.666-17.5 19.5h22C228.667 19.333 228 4 224 8zm448 0c-4 4-13.333 14.666-17.5 19.5h22C676.667 19.333 676 4 672 8zm448 0c-4 4-13.33 14.666-17.5 19.5h22c.17-8.167-.5-23.5-4.5-19.5zM448 8c-4 4-13.333 14.666-17.5 19.5h22C452.667 19.333 452 4 448 8zm448 0c-4 4-13.333 14.666-17.5 19.5h22C900.667 19.333 900 4 896 8zm448 0c-4 4-13.33 14.666-17.5 19.5h22c.17-8.167-.5-23.5-4.5-19.5zm56-.346c-4 4-13.33 14.666-17.5 19.5h22c.17-8.167-.5-23.5-4.5-19.5zm28 0c-4 4-13.33 14.666-17.5 19.5h22c.17-8.167-.5-23.5-4.5-19.5zM1456 8c-4 4-13.33 14.666-17.5 19.5h22c.17-8.167-.5-23.5-4.5-19.5z" fill="#2F4FA4"/><path fill="#2F4FA4" d="M10.5 27h1440v46H10.5z"/></svg>