<svg width="65" height="70" fill="none" xmlns="http://www.w3.org/2000/svg"><g filter="url(#filter0_d)"><path d="M59.713 21.28L33.067 5.913 6.422 21.281v27.843L17.2 55.34v.007l4.291 2.51v-.041l.16.092.372.218v-.003l11.044 6.37 13.467-7.768 3-1.713.2-.114v-.018l9.979-5.756V21.281z" fill="#F7DDC4"/></g><g filter="url(#filter1_f)"><path d="M60.782 20.57L32.892 4.486 5 20.57v29.14l11.282 6.505v.007l4.492 2.627v-.043l.168.096.39.229v-.004l11.56 6.666 14.095-8.128 3.14-1.794.21-.118v-.02l10.445-6.024V20.57z" fill="url(#paint0_linear)"/></g><path d="M33.067 63.682L7.213 48.77V21.753l25.854 14.913v27.016z" fill="#DB4534"/><path d="M30.956 60.376L9.206 47.813v-22.76l21.75 12.563v22.76z" fill="#DB4534"/><path d="M7.213 21.753V48.77l25.854 14.912-25.08-15.3-.774-26.629z" fill="#F56C5D"/><path d="M33.067 63.682L58.921 48.77V21.753L33.067 36.666v27.016z" fill="#BF1300"/><path d="M33.067 63.682L58.921 48.77v-.484L33.067 63.198v.484z" fill="#DB4534"/><path d="M33.067 36.666L7.213 21.754 33.067 6.84l25.855 14.912-25.855 14.913z" fill="#54A8D2"/><path d="M51.05 42.59v-1.04l.591-.342v1.57l-.47-.023c-.074-.004-.12-.067-.12-.166zm2.232-1.29v-1.04l-.59.342v1.57l.469-.566a.51.51 0 00.121-.306z" fill="#516069"/><path d="M51.565 41.072l1.262-.73v1.852l-.57.664c-.044.05-.095.08-.138.08l-.554-.009v-1.857z" fill="#84A0B3"/><path d="M52.145 37.666l-1.08.755a.62.62 0 00-.25.463v3.374c0 .135.074.213.184.196l1.08-.172a.365.365 0 00.19-.11l1.08-1.076a.62.62 0 00.184-.407v-3.374c0-.164-.107-.24-.249-.175l-1.08.493a.373.373 0 00-.059.033z" fill="#91B0C5"/><path d="M54.811 40.912v-.929a.33.33 0 01.151-.26l.573-.332c.083-.048.15-.009.15.087v.664a.336.336 0 01-.094.216l-.573.596c-.099.103-.207.081-.207-.042z" fill="#8C7A79"/><path d="M54.811 40.912v-.929a.33.33 0 01.151-.26l.573-.332c.083-.048.15-.009.15.087v.664a.336.336 0 01-.094.216l-.573.596c-.099.103-.207.081-.207-.042z" fill="#516069"/><path d="M56.807 39.76v-.93c0-.095-.067-.134-.15-.086l-.574.33a.333.333 0 00-.15.262v.663c0 .072.037.114.094.107l.573-.065c.1-.011.207-.158.207-.281z" fill="#8C7A79"/><path d="M56.807 39.76v-.93c0-.095-.067-.134-.15-.086l-.574.33a.333.333 0 00-.15.262v.663c0 .072.037.114.094.107l.573-.065c.1-.011.207-.158.207-.281z" fill="#8C685C"/><path d="M56.807 39.76v-.93c0-.095-.067-.134-.15-.086l-.574.33a.333.333 0 00-.15.262v.663c0 .072.037.114.094.107l.573-.065c.1-.011.207-.158.207-.281z" fill="#516069"/><path d="M55.306 35.445c-.096.06-.206.13-.315.202-.312.205-.55.644-.55 1.005v3.204c0 .357.232.522.54.383l.753-.34a.801.801 0 00.13-.076l.754-.53c.307-.215.54-.65.54-1.006v-3.204c0-.36-.238-.526-.55-.37a14.79 14.79 0 00-1.303.732z" fill="#91B0C5"/><path fill-rule="evenodd" clip-rule="evenodd" d="M55.044 47.086v-.811l-.293.169v.63c0 .01.006.017.014.017l.28-.005zm1.066-.616v-.811l.294-.17v.63a.055.055 0 01-.015.034l-.278.317z" fill="#516069"/><path d="M55.034 44.398l1.1-.635v2.901c0 .027-.022.059-.044.063l-.498.109a.034.034 0 00-.015.008l-.499.468c-.022.02-.044.014-.044-.012v-2.902z" fill="#84A0B3"/><path d="M55.58 41.728l-1.001.577a.792.792 0 00-.358.62v3.684c0 .21.137.309.32.226l1-.452a.477.477 0 00.077-.045l1-.702a.8.8 0 00.32-.596v-3.683c0-.228-.16-.321-.358-.207l-1 .578z" fill="url(#paint1_linear)"/><path d="M55.58 41.728l-1.001.577a.792.792 0 00-.358.62v3.684c0 .21.137.309.32.226l1-.452a.477.477 0 00.077-.045l1-.702a.8.8 0 00.32-.596v-3.683c0-.228-.16-.321-.358-.207l-1 .578z" fill="#91B0C5"/><path d="M51.321 49.356v-.86l1.483-.856v.851a.414.414 0 01-.096.245l-.56.695c-.059.073-.131.114-.19.109l-.542-.05c-.059-.005-.095-.056-.095-.134z" fill="#84A0B3"/><path fill-rule="evenodd" clip-rule="evenodd" d="M51.752 48.247v1.274l-.336-.03c-.059-.006-.095-.057-.095-.135v-.86l.431-.249z" fill="#516069"/><path fill-rule="evenodd" clip-rule="evenodd" d="M51.737 49.52v-1.264l.015-.008v1.273h-.015z" fill="#B0D2DD"/><path fill-rule="evenodd" clip-rule="evenodd" d="M52.373 47.88v1.274l.336-.418a.414.414 0 00.095-.244v-.86l-.431.249z" fill="#516069"/><path fill-rule="evenodd" clip-rule="evenodd" d="M52.387 49.136v-1.264l-.014.009v1.274l.014-.019z" fill="#B0D2DD"/><path d="M52.063 44.18l-.754.436c-.334.193-.605.662-.605 1.048v2.978c0 .315.183.486.446.417l.754-.199a.8.8 0 00.317-.183l.754-.672c.264-.235.446-.617.446-.932v-2.978c0-.386-.27-.542-.605-.35l-.753.436z" fill="#91B0C5"/><path d="M48.583 54.656V27.64l-4.402 2.632-.28 27.058 4.682-2.674z" fill="#4D6775"/><path d="M48.777 54.546V27.543l-4.614 2.73v26.883l4.614-2.61z" fill="#8FBACE"/><path d="M17.597 54.464V27.7l4.164 2.324.13 26.96-4.294-2.519z" fill="#4D6775"/><path d="M17.21 54.285l.07-26.97 4.524 2.61-.43 26.796-4.164-2.436z" fill="#AACCE1"/><defs><linearGradient id="paint0_linear" x1="2.304" y1="10.451" x2="59.711" y2="10.62" gradientUnits="userSpaceOnUse"><stop stop-color="#00C5FF"/><stop offset=".208" stop-color="#3CE457"/><stop offset=".572" stop-color="#F15B5B"/><stop offset=".813" stop-color="#D660E9"/><stop offset="1" stop-color="#184ED9"/></linearGradient><linearGradient id="paint1_linear" x1="55.009" y1="42.647" x2="57.262" y2="44.307" gradientUnits="userSpaceOnUse"><stop stop-color="#D8ECF1"/><stop offset="1" stop-color="#82B3BF"/></linearGradient><filter id="filter0_d" x="2.412" y="2.374" width="61.311" height="66.6" filterUnits="userSpaceOnUse" color-interpolation-filters="sRGB"><feFlood flood-opacity="0" result="BackgroundImageFix"/><feColorMatrix in="SourceAlpha" values="0 0 0 0 0 0 0 0 0 0 0 0 0 0 0 0 0 0 127 0" result="hardAlpha"/><feOffset dy=".472"/><feGaussianBlur stdDeviation="2.005"/><feComposite in2="hardAlpha" operator="out"/><feColorMatrix values="0 0 0 0 1 0 0 0 0 0.568627 0 0 0 0 0.0313726 0 0 0 0.4 0"/><feBlend in2="BackgroundImageFix" result="effect1_dropShadow"/><feBlend in="SourceGraphic" in2="effect1_dropShadow" result="shape"/></filter><filter id="filter1_f" x=".99" y=".477" width="63.802" height="69.326" filterUnits="userSpaceOnUse" color-interpolation-filters="sRGB"><feFlood flood-opacity="0" result="BackgroundImageFix"/><feBlend in="SourceGraphic" in2="BackgroundImageFix" result="shape"/><feGaussianBlur stdDeviation="2.005" result="effect1_foregroundBlur"/></filter></defs></svg>