<svg width="180" height="33" fill="none" xmlns="http://www.w3.org/2000/svg"><path fill="url(#paint0_linear)" d="M0 0h180v33H0z"/><path fill="url(#paint1_radial)" fill-opacity=".8" d="M0 0h180v33H0z"/><path opacity=".5" fill="#fff" d="M180 12h-4v10h4z"/><g opacity=".5"><path fill="#fff" d="M0 12h4v10H0z"/><path d="M0 32c8.837 0 16-6.94 16-15.5C16 7.94 8.837 1 0 1" stroke="#fff" stroke-width="2"/></g><path opacity=".5" d="M180 32c-8.837 0-16-6.94-16-15.5C164 7.94 171.163 1 180 1" stroke="#fff" stroke-width="2"/><g opacity=".5" stroke="#fff" stroke-width="2"><path d="M90 1v31" stroke-linecap="square" stroke-linejoin="round"/><circle cx="90" cy="17" r="9"/></g><defs><radialGradient id="paint1_radial" cx="0" cy="0" r="1" gradientUnits="userSpaceOnUse" gradientTransform="matrix(0 84 -458.182 0 90 16.5)"><stop stop-color="#fff" stop-opacity="0"/><stop offset="1" stop-color="#fff"/></radialGradient><linearGradient id="paint0_linear" x1="90" y1="0" x2="90" y2="33" gradientUnits="userSpaceOnUse"><stop stop-color="#5CFF79"/><stop offset="1" stop-color="#3CCF56"/></linearGradient></defs></svg>