<svg width="332" height="428" fill="none" xmlns="http://www.w3.org/2000/svg"><path fill="#202552" stroke="#264B76" d="M.5.5h331v427H.5z"/><path opacity=".6" d="M58.382 119.299v5.6h-1.04v-4.728h-1.184v-.872h2.224zm3.447 5.68c-.448 0-.848-.112-1.2-.336-.352-.229-.63-.56-.832-.992-.203-.437-.304-.955-.304-1.552 0-.597.101-1.112.304-1.544.202-.437.48-.768.832-.992a2.152 2.152 0 011.2-.344c.448 0 .848.115 1.2.344.357.224.637.555.84.992.202.432.304.947.304 1.544 0 .597-.102 1.115-.304 1.552-.203.432-.483.763-.84.992a2.187 2.187 0 01-1.2.336zm0-.904c.4 0 .714-.165.944-.496.234-.331.352-.824.352-1.48s-.118-1.149-.352-1.48a1.088 1.088 0 00-.944-.496 1.1 1.1 0 00-.944.496c-.23.331-.344.824-.344 1.48s.114 1.149.344 1.48a1.1 1.1 0 00.944.496zm5.382.904c-.448 0-.848-.112-1.2-.336-.352-.229-.629-.56-.832-.992-.202-.437-.304-.955-.304-1.552 0-.597.102-1.112.304-1.544.203-.437.48-.768.832-.992a2.152 2.152 0 011.2-.344c.448 0 .848.115 1.2.344.358.224.638.555.84.992.203.432.304.947.304 1.544 0 .597-.1 1.115-.304 1.552-.202.432-.482.763-.84.992a2.187 2.187 0 01-1.2.336zm0-.904c.4 0 .715-.165.944-.496.235-.331.352-.824.352-1.48s-.117-1.149-.352-1.48a1.088 1.088 0 00-.944-.496 1.1 1.1 0 00-.944.496c-.229.331-.344.824-.344 1.48s.115 1.149.344 1.48a1.1 1.1 0 00.944.496zm61.949-2.12c.294.133.518.315.672.544.16.224.24.488.24.792 0 .341-.096.64-.288.896-.186.256-.453.453-.8.592-.346.133-.749.2-1.208.2-.458 0-.861-.067-1.208-.2a1.785 1.785 0 01-.792-.592 1.485 1.485 0 01-.28-.896c0-.304.078-.568.232-.792.155-.229.376-.411.664-.544a1.38 1.38 0 01-.52-.48 1.369 1.369 0 01-.176-.696c0-.315.086-.589.256-.824a1.69 1.69 0 01.736-.544 2.874 2.874 0 011.088-.192c.416 0 .782.064 1.096.192.315.128.56.309.736.544.176.235.264.509.264.824 0 .261-.061.491-.184.688-.122.197-.298.36-.528.488zm-1.384-1.92c-.325 0-.584.069-.776.208a.687.687 0 00-.28.584c0 .24.094.432.28.576.192.139.451.208.776.208.331 0 .592-.069.784-.208a.684.684 0 00.288-.576.671.671 0 00-.296-.584c-.192-.139-.45-.208-.776-.208zm0 4.128c.384 0 .688-.08.912-.24a.77.77 0 00.336-.664.764.764 0 00-.336-.656c-.224-.16-.528-.24-.912-.24s-.685.08-.904.24a.771.771 0 00-.328.656c0 .283.11.504.328.664.219.16.52.24.904.24zm5.307.816c-.448 0-.848-.112-1.2-.336-.352-.229-.629-.56-.832-.992-.203-.437-.304-.955-.304-1.552 0-.597.101-1.112.304-1.544.203-.437.48-.768.832-.992a2.152 2.152 0 011.2-.344c.448 0 .848.115 1.2.344.357.224.637.555.84.992.203.432.304.947.304 1.544 0 .597-.101 1.115-.304 1.552-.203.432-.483.763-.84.992a2.187 2.187 0 01-1.2.336zm0-.904c.4 0 .715-.165.944-.496.235-.331.352-.824.352-1.48s-.117-1.149-.352-1.48a1.087 1.087 0 00-.944-.496 1.1 1.1 0 00-.944.496c-.229.331-.344.824-.344 1.48s.115 1.149.344 1.48a1.1 1.1 0 00.944.496zm5.383.904c-.448 0-.848-.112-1.2-.336-.352-.229-.629-.56-.832-.992-.203-.437-.304-.955-.304-1.552 0-.597.101-1.112.304-1.544.203-.437.48-.768.832-.992a2.152 2.152 0 011.2-.344c.448 0 .848.115 1.2.344.357.224.637.555.84.992.203.432.304.947.304 1.544 0 .597-.101 1.115-.304 1.552-.203.432-.483.763-.84.992a2.187 2.187 0 01-1.2.336zm0-.904c.4 0 .715-.165.944-.496.235-.331.352-.824.352-1.48s-.117-1.149-.352-1.48a1.087 1.087 0 00-.944-.496 1.1 1.1 0 00-.944.496c-.229.331-.344.824-.344 1.48s.115 1.149.344 1.48a1.1 1.1 0 00.944.496z" fill="#fff"/><path d="M76.513 47.8h2.592c.875 0 1.531.235 1.968.704.438.47.656 1.157.656 2.064v1.104c0 .907-.218 1.595-.656 2.064-.437.47-1.093.704-1.968.704h-.832V59h-1.76V47.8zm2.592 5.04c.288 0 .502-.08.64-.24.15-.16.224-.432.224-.816v-1.328c0-.384-.074-.656-.224-.816-.138-.16-.352-.24-.64-.24h-.832v3.44h.832zm3.58-5.04h1.76v4.56h1.888V47.8h1.76V59h-1.76v-5.04h-1.888V59h-1.76V47.8zm8.335 6.432L88.892 47.8h1.872l1.2 4.112h.032l1.2-4.112h1.712l-2.128 6.432V59h-1.76v-4.768zm6.719 4.928c-.854 0-1.499-.24-1.936-.72-.438-.49-.656-1.19-.656-2.096v-.64h1.664v.768c0 .725.304 1.088.912 1.088.299 0 .523-.085.672-.256.16-.181.24-.47.24-.864 0-.47-.107-.88-.32-1.232-.213-.363-.608-.795-1.184-1.296-.725-.64-1.232-1.216-1.52-1.728a3.585 3.585 0 01-.432-1.76c0-.885.224-1.568.672-2.048.448-.49 1.099-.736 1.952-.736.843 0 1.477.245 1.904.736.437.48.656 1.173.656 2.08v.464h-1.664v-.576c0-.384-.075-.661-.224-.832-.15-.181-.368-.272-.656-.272-.587 0-.88.357-.88 1.072 0 .405.107.784.32 1.136.224.352.624.779 1.2 1.28.736.64 1.242 1.221 1.52 1.744.277.523.416 1.136.416 1.84 0 .917-.229 1.621-.688 2.112-.448.49-1.104.736-1.968.736zm3.665-11.36h1.76V59h-1.76V47.8zm5.558 11.36c-.843 0-1.488-.24-1.936-.72-.437-.48-.656-1.157-.656-2.032v-6.016c0-.875.219-1.552.656-2.032.448-.48 1.093-.72 1.936-.72s1.483.24 1.92.72c.448.48.672 1.157.672 2.032v1.184h-1.664V50.28c0-.693-.293-1.04-.88-1.04s-.88.347-.88 1.04v6.256c0 .683.293 1.024.88 1.024s.88-.341.88-1.024v-1.712h1.664v1.584c0 .875-.224 1.552-.672 2.032-.437.48-1.077.72-1.92.72zm5.005-11.36h2.384l1.824 11.2h-1.76l-.32-2.224v.032h-2l-.32 2.192h-1.632l1.824-11.2zm1.92 7.488l-.784-5.536h-.032l-.768 5.536h1.584zm3.142-7.488h1.76v9.6h2.896V59h-4.656V47.8zm-27.471 59.623a3.33 3.33 0 011.487.324c.44.208.784.508 1.032.9.249.392.373.844.373 1.356 0 .544-.136 1.024-.409 1.44a2.72 2.72 0 01-1.103.948 3.542 3.542 0 01-1.56.336c-1.153 0-2.049-.36-2.689-1.08-.631-.72-.947-1.752-.947-3.096 0-.944.171-1.748.515-2.412.344-.672.825-1.18 1.44-1.524.624-.352 1.344-.528 2.16-.528.433 0 .837.048 1.213.144.384.088.716.22.996.396l-.576 1.176c-.416-.272-.948-.408-1.596-.408-.809 0-1.44.248-1.897.744-.456.496-.683 1.212-.683 2.148v.012c.248-.288.564-.504.948-.648a3.496 3.496 0 011.296-.228zm-.265 4.08c.488 0 .884-.128 1.188-.384.305-.264.457-.612.457-1.044 0-.44-.153-.788-.457-1.044-.303-.256-.712-.384-1.224-.384-.504 0-.916.136-1.236.408a1.31 1.31 0 00-.468 1.032c0 .408.153.748.457 1.02.311.264.74.396 1.283.396zm9.42-3.312c.44.2.776.472 1.008.816.24.336.36.732.36 1.188 0 .512-.144.96-.432 1.344-.28.384-.68.68-1.2.888-.52.2-1.124.3-1.812.3s-1.292-.1-1.812-.3c-.512-.208-.908-.504-1.188-.888a2.22 2.22 0 01-.42-1.344c0-.456.116-.852.348-1.188.232-.344.564-.616.996-.816a2.06 2.06 0 01-.78-.72 2.045 2.045 0 01-.264-1.044c0-.472.128-.884.384-1.236.264-.352.632-.624 1.104-.816.472-.192 1.016-.288 1.632-.288.624 0 1.172.096 1.644.288.472.192.84.464 1.104.816.264.352.396.764.396 1.236 0 .392-.092.736-.276 1.032-.184.296-.448.54-.792.732zm-2.076-2.88c-.488 0-.876.104-1.164.312-.28.208-.42.5-.42.876 0 .36.14.648.42.864.288.208.676.312 1.164.312.496 0 .888-.104 1.176-.312.288-.216.432-.504.432-.864 0-.376-.148-.668-.444-.876-.288-.208-.676-.312-1.164-.312zm0 6.192c.576 0 1.032-.12 1.368-.36.336-.24.504-.572.504-.996 0-.416-.168-.744-.504-.984-.336-.24-.792-.36-1.368-.36-.576 0-1.028.12-1.356.36-.328.24-.492.568-.492.984 0 .424.164.756.492.996.328.24.78.36 1.356.36zm9.904-3.312c.44.2.776.472 1.008.816.24.336.36.732.36 1.188 0 .512-.144.96-.432 1.344-.28.384-.68.68-1.2.888-.52.2-1.124.3-1.812.3s-1.292-.1-1.812-.3c-.512-.208-.908-.504-1.188-.888a2.22 2.22 0 01-.42-1.344c0-.456.116-.852.348-1.188.232-.344.564-.616.996-.816a2.06 2.06 0 01-.78-.72 2.045 2.045 0 01-.264-1.044c0-.472.128-.884.384-1.236.264-.352.632-.624 1.104-.816.472-.192 1.016-.288 1.632-.288.624 0 1.172.096 1.644.288.472.192.84.464 1.104.816.264.352.396.764.396 1.236 0 .392-.092.736-.276 1.032-.184.296-.448.54-.792.732zm-2.076-2.88c-.488 0-.876.104-1.164.312-.28.208-.42.5-.42.876 0 .36.14.648.42.864.288.208.676.312 1.164.312.496 0 .888-.104 1.176-.312.288-.216.432-.504.432-.864 0-.376-.148-.668-.444-.876-.288-.208-.676-.312-1.164-.312zm0 6.192c.576 0 1.032-.12 1.368-.36.336-.24.504-.572.504-.996 0-.416-.168-.744-.504-.984-.336-.24-.792-.36-1.368-.36-.576 0-1.028.12-1.356.36-.328.24-.492.568-.492.984 0 .424.164.756.492.996.328.24.78.36 1.356.36z" fill="#fff"/><path d="M139.82 112.893a41.41 41.41 0 00-82.82 0h11.658a29.751 29.751 0 1159.504 0h11.658z" fill="#5E5EAA"/><g filter="url(#filter0_d)"><path d="M57 112.893a41.41 41.41 0 0166.437-32.992l-7.046 9.288a29.752 29.752 0 00-47.733 23.704H57z" fill="#3CCF5D"/></g><path opacity=".6" d="M192.112 119.299v5.6h-1.04v-4.728h-1.184v-.872h2.224zm3.447 5.68c-.448 0-.848-.112-1.2-.336-.352-.229-.629-.56-.832-.992-.203-.437-.304-.955-.304-1.552 0-.597.101-1.112.304-1.544.203-.437.48-.768.832-.992a2.152 2.152 0 011.2-.344c.448 0 .848.115 1.2.344.357.224.637.555.84.992.203.432.304.947.304 1.544 0 .597-.101 1.115-.304 1.552-.203.432-.483.763-.84.992a2.187 2.187 0 01-1.2.336zm0-.904c.4 0 .715-.165.944-.496.235-.331.352-.824.352-1.48s-.117-1.149-.352-1.48a1.087 1.087 0 00-.944-.496 1.1 1.1 0 00-.944.496c-.229.331-.344.824-.344 1.48s.115 1.149.344 1.48a1.1 1.1 0 00.944.496zm5.383.904c-.448 0-.848-.112-1.2-.336-.352-.229-.63-.56-.832-.992-.203-.437-.304-.955-.304-1.552 0-.597.101-1.112.304-1.544.202-.437.48-.768.832-.992a2.152 2.152 0 011.2-.344c.448 0 .848.115 1.2.344.357.224.637.555.84.992.202.432.304.947.304 1.544 0 .597-.102 1.115-.304 1.552-.203.432-.483.763-.84.992a2.187 2.187 0 01-1.2.336zm0-.904c.4 0 .714-.165.944-.496.234-.331.352-.824.352-1.48s-.118-1.149-.352-1.48a1.088 1.088 0 00-.944-.496 1.1 1.1 0 00-.944.496c-.23.331-.344.824-.344 1.48s.114 1.149.344 1.48a1.1 1.1 0 00.944.496zm60.342-2.608c.789 0 1.373.155 1.752.464.379.304.568.72.568 1.248 0 .336-.083.64-.248.912a1.71 1.71 0 01-.744.648c-.331.16-.739.24-1.224.24-.4 0-.787-.056-1.16-.168a2.9 2.9 0 01-.944-.48l.44-.808c.208.171.456.307.744.408.293.096.595.144.904.144.368 0 .656-.075.864-.224a.74.74 0 00.32-.632c0-.288-.115-.504-.344-.648-.224-.149-.611-.224-1.16-.224H259.7l.288-3.048h3.288v.872h-2.408l-.12 1.296h.536zm5.256 3.512c-.448 0-.848-.112-1.2-.336-.352-.229-.629-.56-.832-.992-.203-.437-.304-.955-.304-1.552 0-.597.101-1.112.304-1.544.203-.437.48-.768.832-.992a2.152 2.152 0 011.2-.344c.448 0 .848.115 1.2.344.357.224.637.555.84.992.203.432.304.947.304 1.544 0 .597-.101 1.115-.304 1.552-.203.432-.483.763-.84.992a2.187 2.187 0 01-1.2.336zm0-.904c.4 0 .715-.165.944-.496.235-.331.352-.824.352-1.48s-.117-1.149-.352-1.48a1.087 1.087 0 00-.944-.496 1.1 1.1 0 00-.944.496c-.229.331-.344.824-.344 1.48s.115 1.149.344 1.48a1.1 1.1 0 00.944.496zm5.383.904c-.448 0-.848-.112-1.2-.336-.352-.229-.63-.56-.832-.992-.203-.437-.304-.955-.304-1.552 0-.597.101-1.112.304-1.544.202-.437.48-.768.832-.992a2.152 2.152 0 011.2-.344c.448 0 .848.115 1.2.344.357.224.637.555.84.992.202.432.304.947.304 1.544 0 .597-.102 1.115-.304 1.552-.203.432-.483.763-.84.992a2.187 2.187 0 01-1.2.336zm0-.904c.4 0 .714-.165.944-.496.234-.331.352-.824.352-1.48s-.118-1.149-.352-1.48a1.088 1.088 0 00-.944-.496 1.1 1.1 0 00-.944.496c-.23.331-.344.824-.344 1.48s.114 1.149.344 1.48a1.1 1.1 0 00.944.496z" fill="#fff"/><path d="M214.574 47.8h2.512l1.12 8.016h.032l1.12-8.016h2.512V59h-1.664v-8.48h-.032l-1.28 8.48h-1.472l-1.28-8.48h-.032V59h-1.536V47.8zm8.609 0h4.8v1.6h-3.04v2.96h2.416v1.6h-2.416v3.44h3.04V59h-4.8V47.8zm5.813 0h2.208l1.712 6.704h.032V47.8h1.568V59h-1.808l-2.112-8.176h-.032V59h-1.568V47.8zm8.204 1.6h-1.84v-1.6h5.44v1.6h-1.84V59h-1.76v-9.6zm5.078-1.6h2.384l1.824 11.2h-1.76l-.32-2.224v.032h-2l-.32 2.192h-1.632l1.824-11.2zm1.92 7.488l-.784-5.536h-.032l-.768 5.536h1.584zm3.141-7.488h1.76v9.6h2.896V59h-4.656V47.8zm-23.331 59.875c.776.096 1.368.36 1.776.792.408.432.612.972.612 1.62 0 .488-.124.932-.372 1.332s-.624.72-1.128.96c-.496.232-1.104.348-1.824.348-.6 0-1.18-.084-1.74-.252a4.535 4.535 0 01-1.416-.72l.672-1.212c.304.256.672.46 1.104.612.44.144.892.216 1.356.216.552 0 .984-.112 1.296-.336.32-.232.48-.544.48-.936s-.152-.696-.456-.912c-.296-.224-.752-.336-1.368-.336h-.768v-1.068l1.908-2.268h-3.816v-1.308h5.724v1.044l-2.04 2.424zm7.225-.252c.552 0 1.048.108 1.488.324.44.208.784.508 1.032.9s.372.844.372 1.356c0 .544-.136 1.024-.408 1.44-.272.408-.64.724-1.104.948a3.542 3.542 0 01-1.56.336c-1.152 0-2.048-.36-2.688-1.08-.632-.72-.948-1.752-.948-3.096 0-.944.172-1.748.516-2.412.344-.672.824-1.18 1.44-1.524.624-.352 1.344-.528 2.16-.528.432 0 .836.048 1.212.144.384.088.716.22.996.396l-.576 1.176c-.416-.272-.948-.408-1.596-.408-.808 0-1.44.248-1.896.744-.456.496-.684 1.212-.684 2.148v.012c.248-.288.564-.504.948-.648a3.496 3.496 0 011.296-.228zm-.264 4.08c.488 0 .884-.128 1.188-.384.304-.264.456-.612.456-1.044 0-.44-.152-.788-.456-1.044-.304-.256-.712-.384-1.224-.384-.504 0-.916.136-1.236.408a1.31 1.31 0 00-.468 1.032c0 .408.152.748.456 1.02.312.264.74.396 1.284.396zm11.459-.804h-1.488v1.908h-1.512v-1.908h-4.608v-1.08l4.14-5.412h1.668l-3.9 5.172h2.748v-1.692h1.464v1.692h1.488v1.32z" fill="#fff"/><path d="M273.551 112.893a41.41 41.41 0 00-82.821 0h11.658a29.754 29.754 0 0159.505 0h11.658z" fill="#5E5EAA"/><g filter="url(#filter1_d)"><path d="M190.73 112.893a41.41 41.41 0 0165.388-33.762l-6.75 9.505a29.75 29.75 0 00-46.98 24.257H190.73z" fill="#3CCF5D"/></g><path fill="#5758A0" d="M57 224h211v2H57z"/><path d="M57 224h95.757a1 1 0 010 2H57v-2z" fill="#E8EC16"/><path d="M57.984 195.2h4.032c1.312 0 2.296.352 2.952 1.056.656.704.984 1.736.984 3.096v8.496c0 1.36-.328 2.392-.984 3.096-.656.704-1.64 1.056-2.952 1.056h-4.032v-16.8zm3.984 14.4c.432 0 .76-.128.984-.384.24-.256.36-.672.36-1.248v-8.736c0-.576-.12-.992-.36-1.248-.224-.256-.552-.384-.984-.384h-1.344v12h1.344zm5.766-14.4h7.2v2.4h-4.56v4.44h3.624v2.4h-3.624v5.16h4.56v2.4h-7.2v-16.8zm8.719 0h6.984v2.4h-4.344v4.68H82.5v2.4h-3.408V212h-2.64v-16.8zm8.25 0h7.2v2.4h-4.56v4.44h3.624v2.4h-3.624v5.16h4.56v2.4h-7.2v-16.8zm8.718 0h3.313l2.568 10.056h.047V195.2h2.353V212H98.99l-3.168-12.264h-.049V212h-2.352v-16.8zm13.963 17.04c-1.264 0-2.232-.36-2.904-1.08-.656-.72-.984-1.736-.984-3.048v-9.024c0-1.312.328-2.328.984-3.048.672-.72 1.64-1.08 2.904-1.08s2.224.36 2.88 1.08c.672.72 1.008 1.736 1.008 3.048v1.776h-2.496v-1.944c0-1.04-.44-1.56-1.32-1.56-.88 0-1.32.52-1.32 1.56v9.384c0 1.024.44 1.536 1.32 1.536.88 0 1.32-.512 1.32-1.536v-2.568h2.496v2.376c0 1.312-.336 2.328-1.008 3.048-.656.72-1.616 1.08-2.88 1.08zm5.467-17.04h7.2v2.4h-4.56v4.44h3.624v2.4h-3.624v5.16h4.56v2.4h-7.2v-16.8z" fill="#fff"/><path d="M255.144 197.6h-5.328v-2.4h7.92v2.304L253.608 212h-2.688l4.224-14.4zm8.865 11.352h-5.04v-2.4l4.8-11.352h2.88v11.352h1.248v2.4h-1.248V212h-2.64v-3.048zm0-2.4V200h-.048l-2.592 6.552h2.64z" fill="#E8EC16"/><path opacity=".6" d="M62.894 264.112c-.99 0-1.88-.215-2.674-.644a4.919 4.919 0 01-1.876-1.806c-.448-.765-.672-1.619-.672-2.562 0-.943.224-1.797.672-2.562a4.812 4.812 0 011.876-1.792c.793-.439 1.685-.658 2.674-.658.98 0 1.867.219 2.66.658a4.713 4.713 0 011.862 1.792c.448.756.672 1.61.672 2.562 0 .952-.224 1.811-.672 2.576a4.846 4.846 0 01-1.862 1.792c-.793.429-1.68.644-2.66.644zm0-1.246c.719 0 1.363-.163 1.932-.49a3.55 3.55 0 001.358-1.344 3.779 3.779 0 00.504-1.932c0-.709-.168-1.349-.504-1.918a3.517 3.517 0 00-1.358-1.358c-.57-.327-1.213-.49-1.932-.49-.719 0-1.372.163-1.96.49a3.616 3.616 0 00-1.372 1.358 3.784 3.784 0 00-.49 1.918c0 .709.163 1.353.49 1.932a3.652 3.652 0 001.372 1.344c.588.327 1.241.49 1.96.49zm9.854-8.232c-.803 0-1.204.434-1.204 1.302v.644H73.7v1.106h-2.128V264h-1.344v-6.314h-1.26v-1.106h1.26v-.658c0-.737.215-1.321.644-1.75.43-.429 1.031-.644 1.806-.644.299 0 .579.037.84.112.261.075.485.182.672.322l-.406 1.022a1.675 1.675 0 00-1.036-.35zm4.935 0c-.802 0-1.204.434-1.204 1.302v.644h2.156v1.106h-2.128V264h-1.344v-6.314h-1.26v-1.106h1.26v-.658c0-.737.215-1.321.644-1.75.43-.429 1.032-.644 1.806-.644.299 0 .579.037.84.112.262.075.486.182.672.322l-.406 1.022a1.675 1.675 0 00-1.036-.35zm4.348 9.45c-.607 0-1.19-.079-1.75-.238-.56-.168-.999-.378-1.316-.63l.56-1.064c.327.233.723.42 1.19.56.467.14.938.21 1.414.21 1.176 0 1.764-.336 1.764-1.008a.653.653 0 00-.238-.532 1.437 1.437 0 00-.602-.28c-.233-.065-.57-.135-1.008-.21a10.21 10.21 0 01-1.47-.322 2.26 2.26 0 01-.966-.616c-.27-.289-.406-.695-.406-1.218 0-.672.28-1.209.84-1.61.56-.411 1.311-.616 2.254-.616.495 0 .99.061 1.484.182.495.121.9.285 1.218.49l-.574 1.064c-.607-.392-1.32-.588-2.142-.588-.57 0-1.003.093-1.302.28-.299.187-.448.434-.448.742 0 .243.084.434.252.574.168.14.373.243.616.308.252.065.602.14 1.05.224a10.25 10.25 0 011.442.336c.373.112.69.308.952.588.261.28.392.672.392 1.176 0 .672-.29 1.209-.868 1.61-.57.392-1.349.588-2.338.588zm4.886-7.504h1.344V264h-1.344v-7.42zm.672-1.428a.92.92 0 01-.658-.252.837.837 0 01-.252-.616c0-.243.084-.448.252-.616a.895.895 0 01.658-.266c.26 0 .476.084.644.252a.773.773 0 01.266.602.877.877 0 01-.266.644.872.872 0 01-.644.252zm10.238-1.54V264h-1.288v-1.176a2.91 2.91 0 01-1.134.938 3.509 3.509 0 01-1.512.322c-.719 0-1.363-.159-1.932-.476a3.473 3.473 0 01-1.344-1.33c-.318-.579-.476-1.241-.476-1.988 0-.747.158-1.405.476-1.974a3.473 3.473 0 011.344-1.33c.57-.317 1.213-.476 1.932-.476a3.49 3.49 0 011.47.308c.448.196.821.49 1.12.882v-4.088h1.344zm-3.822 9.296c.466 0 .891-.107 1.274-.322.382-.224.681-.532.896-.924.214-.401.322-.859.322-1.372 0-.513-.108-.966-.322-1.358a2.254 2.254 0 00-.896-.924 2.555 2.555 0 00-1.274-.322c-.476 0-.906.107-1.288.322a2.377 2.377 0 00-.896.924c-.215.392-.322.845-.322 1.358 0 .513.107.971.322 1.372.224.392.522.7.896.924.382.215.812.322 1.288.322zm13.071-2.576c0 .103-.01.238-.028.406h-6.02c.084.653.368 1.181.854 1.582.494.392 1.106.588 1.834.588.886 0 1.6-.299 2.142-.896l.742.868a3.237 3.237 0 01-1.26.896 4.316 4.316 0 01-1.666.308c-.784 0-1.48-.159-2.086-.476a3.537 3.537 0 01-1.414-1.358c-.327-.579-.49-1.232-.49-1.96 0-.719.158-1.367.476-1.946a3.464 3.464 0 011.33-1.344c.569-.327 1.208-.49 1.918-.49.709 0 1.339.163 1.89.49.56.317.994.765 1.302 1.344.317.579.476 1.241.476 1.988zm-3.668-2.688c-.644 0-1.186.196-1.624.588-.43.392-.682.905-.756 1.54h4.76c-.075-.625-.332-1.134-.77-1.526-.43-.401-.966-.602-1.61-.602zm13.466 5.922a2.086 2.086 0 01-.728.392 3.2 3.2 0 01-.896.126c-.747 0-1.326-.201-1.736-.602-.411-.401-.616-.975-.616-1.722v-4.074h-1.26v-1.106h1.26v-1.624h1.344v1.624h2.128v1.106h-2.128v4.018c0 .401.098.709.294.924.205.215.494.322.868.322.41 0 .76-.117 1.05-.35l.42.966zm2.913-5.74a2.29 2.29 0 011.036-.98c.457-.224 1.012-.336 1.666-.336v1.302a2.712 2.712 0 00-.308-.014c-.728 0-1.302.219-1.722.658-.411.429-.616 1.045-.616 1.848V264h-1.344v-7.42h1.288v1.246zm7.046-1.316c1.027 0 1.811.252 2.352.756.551.504.826 1.255.826 2.254V264h-1.274v-.98a2.166 2.166 0 01-.966.798c-.41.177-.9.266-1.47.266-.83 0-1.498-.201-2.002-.602-.494-.401-.742-.929-.742-1.582s.238-1.176.714-1.568c.476-.401 1.232-.602 2.268-.602h2.128v-.266c0-.579-.168-1.022-.504-1.33-.336-.308-.83-.462-1.484-.462a3.83 3.83 0 00-1.288.224 3.22 3.22 0 00-1.064.574l-.56-1.008c.383-.308.84-.541 1.372-.7a5.595 5.595 0 011.694-.252zm-.308 6.538c.514 0 .957-.112 1.33-.336.374-.233.644-.56.812-.98v-1.036h-2.072c-1.138 0-1.708.383-1.708 1.148 0 .373.145.667.434.882.29.215.691.322 1.204.322zm9.908-6.538c.718 0 1.362.159 1.932.476a3.382 3.382 0 011.33 1.33c.326.569.49 1.227.49 1.974 0 .747-.164 1.409-.49 1.988a3.382 3.382 0 01-1.33 1.33c-.57.317-1.214.476-1.932.476a3.49 3.49 0 01-1.47-.308 3.052 3.052 0 01-1.12-.896v3.836h-1.344V256.58h1.288v1.176a2.784 2.784 0 011.134-.924 3.507 3.507 0 011.512-.322zm-.112 6.398c.476 0 .9-.107 1.274-.322.382-.224.681-.532.896-.924.224-.401.336-.859.336-1.372 0-.513-.112-.966-.336-1.358a2.26 2.26 0 00-.896-.924 2.508 2.508 0 00-1.274-.322c-.467 0-.892.112-1.274.336a2.396 2.396 0 00-.896.91c-.215.392-.322.845-.322 1.358 0 .513.107.971.322 1.372.214.392.513.7.896.924.382.215.807.322 1.274.322z" fill="#fff"/><path d="M258.008 254.2v1.218L254.2 264h-1.946l3.682-8.26h-3.85v1.666h-1.694V254.2h7.616zm4.94 9.94c-.784 0-1.484-.196-2.1-.588-.616-.401-1.101-.98-1.456-1.736-.355-.765-.532-1.671-.532-2.716 0-1.045.177-1.946.532-2.702.355-.765.84-1.344 1.456-1.736.616-.401 1.316-.602 2.1-.602s1.484.201 2.1.602c.625.392 1.115.971 1.47 1.736.355.756.532 1.657.532 2.702s-.177 1.951-.532 2.716c-.355.756-.845 1.335-1.47 1.736-.616.392-1.316.588-2.1.588zm0-1.582c.7 0 1.251-.289 1.652-.868.411-.579.616-1.442.616-2.59s-.205-2.011-.616-2.59c-.401-.579-.952-.868-1.652-.868-.691 0-1.241.289-1.652.868-.401.579-.602 1.442-.602 2.59s.201 2.011.602 2.59c.411.579.961.868 1.652.868z" fill="#fff"/><path opacity=".6" d="M60.416 280.418h-3.36V279.2h8.106v1.218h-3.36V289h-1.386v-8.582zm8.38 1.092c1.027 0 1.811.252 2.352.756.551.504.826 1.255.826 2.254V289H70.7v-.98a2.166 2.166 0 01-.966.798c-.41.177-.9.266-1.47.266-.83 0-1.498-.201-2.002-.602-.494-.401-.742-.929-.742-1.582s.238-1.176.714-1.568c.476-.401 1.232-.602 2.268-.602h2.128v-.266c0-.579-.168-1.022-.504-1.33-.336-.308-.83-.462-1.484-.462a3.83 3.83 0 00-1.288.224 3.22 3.22 0 00-1.064.574l-.56-1.008c.383-.308.84-.541 1.372-.7a5.593 5.593 0 011.694-.252zm-.308 6.538c.514 0 .957-.112 1.33-.336.374-.233.644-.56.812-.98v-1.036h-2.072c-1.138 0-1.708.383-1.708 1.148 0 .373.145.667.434.882.29.215.691.322 1.204.322zm9.249 1.036c-.756 0-1.433-.163-2.03-.49a3.624 3.624 0 01-1.386-1.344c-.337-.579-.504-1.232-.504-1.96s.168-1.377.504-1.946A3.486 3.486 0 0175.706 282c.597-.327 1.274-.49 2.03-.49.672 0 1.269.135 1.791.406.532.271.943.663 1.232 1.176l-1.022.658a2.278 2.278 0 00-.867-.798 2.48 2.48 0 00-1.148-.266 2.69 2.69 0 00-1.317.322 2.347 2.347 0 00-.91.924c-.214.392-.322.845-.322 1.358 0 .523.108.985.322 1.386.225.392.528.695.91.91.392.215.831.322 1.316.322.42 0 .803-.089 1.149-.266.345-.177.634-.443.868-.798l1.021.644c-.289.513-.7.91-1.232 1.19-.522.271-1.12.406-1.791.406zm7.552-3.542l-1.54 1.428V289h-1.344v-10.388h1.344v6.664l4.046-3.696h1.624l-3.122 3.066 3.43 4.354h-1.652l-2.786-3.458zm5.743-6.93h1.344V289h-1.344v-10.388zm10.616 6.72c0 .103-.009.238-.028.406H95.6c.084.653.369 1.181.854 1.582.495.392 1.106.588 1.834.588.887 0 1.6-.299 2.142-.896l.742.868a3.237 3.237 0 01-1.26.896 4.315 4.315 0 01-1.666.308c-.784 0-1.48-.159-2.086-.476a3.539 3.539 0 01-1.414-1.358c-.327-.579-.49-1.232-.49-1.96 0-.719.159-1.367.476-1.946a3.469 3.469 0 011.33-1.344 3.784 3.784 0 011.918-.49c.71 0 1.34.163 1.89.49.56.317.994.765 1.302 1.344.317.579.476 1.241.476 1.988zm-3.668-2.688c-.644 0-1.185.196-1.624.588-.43.392-.681.905-.756 1.54h4.76c-.075-.625-.331-1.134-.77-1.526-.43-.401-.966-.602-1.61-.602zm7.662 6.44a6.38 6.38 0 01-1.75-.238c-.56-.168-.998-.378-1.316-.63l.56-1.064c.327.233.724.42 1.19.56.467.14.938.21 1.414.21 1.176 0 1.764-.336 1.764-1.008a.652.652 0 00-.238-.532 1.43 1.43 0 00-.602-.28 10.731 10.731 0 00-1.008-.21 10.229 10.229 0 01-1.47-.322 2.264 2.264 0 01-.966-.616c-.27-.289-.406-.695-.406-1.218 0-.672.28-1.209.84-1.61.56-.411 1.312-.616 2.254-.616.495 0 .99.061 1.484.182.495.121.901.285 1.218.49l-.574 1.064c-.606-.392-1.32-.588-2.142-.588-.569 0-1.003.093-1.302.28-.298.187-.448.434-.448.742 0 .243.084.434.252.574.168.14.374.243.616.308.252.065.602.14 1.05.224.598.103 1.078.215 1.442.336a2.1 2.1 0 01.952.588c.262.28.392.672.392 1.176 0 .672-.289 1.209-.868 1.61-.569.392-1.348.588-2.338.588z" fill="#fff"/><path d="M258.008 279.2v1.218L254.2 289h-1.946l3.682-8.26h-3.85v1.666h-1.694V279.2h7.616zm4.94 9.94c-.784 0-1.484-.196-2.1-.588-.616-.401-1.101-.98-1.456-1.736-.355-.765-.532-1.671-.532-2.716 0-1.045.177-1.946.532-2.702.355-.765.84-1.344 1.456-1.736.616-.401 1.316-.602 2.1-.602s1.484.201 2.1.602c.625.392 1.115.971 1.47 1.736.355.756.532 1.657.532 2.702s-.177 1.951-.532 2.716c-.355.756-.845 1.335-1.47 1.736-.616.392-1.316.588-2.1.588zm0-1.582c.7 0 1.251-.289 1.652-.868.411-.579.616-1.442.616-2.59s-.205-2.011-.616-2.59c-.401-.579-.952-.868-1.652-.868-.691 0-1.241.289-1.652.868-.401.579-.602 1.442-.602 2.59s.201 2.011.602 2.59c.411.579.961.868 1.652.868z" fill="#fff"/><path opacity=".6" d="M65.064 308.918c.57.159 1.017.448 1.344.868.327.411.49.933.49 1.568 0 .849-.322 1.503-.966 1.96-.635.457-1.563.686-2.786.686H58.47v-9.8h4.396c1.12 0 1.983.224 2.59.672.616.448.924 1.069.924 1.862 0 .513-.121.957-.364 1.33a2.28 2.28 0 01-.952.854zm-5.194-3.584v3.136h2.87c.719 0 1.27-.131 1.652-.392.392-.271.588-.663.588-1.176 0-.513-.196-.901-.588-1.162-.383-.271-.933-.406-1.652-.406h-2.87zm3.22 7.532c.793 0 1.39-.131 1.792-.392.401-.261.602-.672.602-1.232 0-1.092-.798-1.638-2.394-1.638h-3.22v3.262h3.22zm8.482-6.356c1.026 0 1.81.252 2.352.756.55.504.826 1.255.826 2.254V314h-1.274v-.98a2.166 2.166 0 01-.966.798c-.411.177-.901.266-1.47.266-.831 0-1.498-.201-2.002-.602-.495-.401-.742-.929-.742-1.582s.238-1.176.714-1.568c.476-.401 1.232-.602 2.268-.602h2.128v-.266c0-.579-.168-1.022-.504-1.33-.336-.308-.831-.462-1.484-.462-.439 0-.868.075-1.288.224a3.21 3.21 0 00-1.064.574l-.56-1.008a3.97 3.97 0 011.372-.7 5.593 5.593 0 011.694-.252zm-.308 6.538c.513 0 .956-.112 1.33-.336a2 2 0 00.812-.98v-1.036h-2.072c-1.139 0-1.708.383-1.708 1.148 0 .373.144.667.434.882.289.215.69.322 1.204.322zm5.973-9.436h1.344V314h-1.344v-10.388zm3.91 0h1.344V314h-1.344v-10.388zm10.386 1.022c-.803 0-1.204.434-1.204 1.302v.644h2.156v1.106h-2.128V314h-1.344v-6.314h-1.26v-1.106h1.26v-.658c0-.737.215-1.321.644-1.75.43-.429 1.031-.644 1.806-.644.299 0 .579.037.84.112.261.075.485.182.672.322l-.406 1.022a1.675 1.675 0 00-1.036-.35zm5.288 9.45c-.737 0-1.4-.163-1.988-.49a3.624 3.624 0 01-1.386-1.344c-.326-.579-.49-1.232-.49-1.96s.164-1.377.49-1.946A3.486 3.486 0 0194.833 307c.588-.327 1.25-.49 1.988-.49.737 0 1.395.163 1.974.49a3.39 3.39 0 011.372 1.344c.336.569.504 1.218.504 1.946s-.168 1.381-.504 1.96a3.521 3.521 0 01-1.372 1.344c-.579.327-1.237.49-1.974.49zm0-1.176c.476 0 .9-.107 1.274-.322.383-.224.681-.532.896-.924a2.86 2.86 0 00.322-1.372c0-.513-.107-.966-.322-1.358a2.254 2.254 0 00-.896-.924 2.506 2.506 0 00-1.274-.322c-.476 0-.905.107-1.288.322a2.377 2.377 0 00-.896.924c-.215.392-.322.845-.322 1.358 0 .513.108.971.322 1.372.224.392.523.7.896.924.383.215.812.322 1.288.322zm8.943 1.176c-.756 0-1.433-.163-2.03-.49a3.624 3.624 0 01-1.386-1.344c-.336-.579-.504-1.232-.504-1.96s.168-1.377.504-1.946a3.486 3.486 0 011.386-1.344c.597-.327 1.274-.49 2.03-.49.672 0 1.269.135 1.792.406.532.271.943.663 1.232 1.176l-1.022.658a2.278 2.278 0 00-.868-.798 2.479 2.479 0 00-1.148-.266c-.485 0-.924.107-1.316.322a2.345 2.345 0 00-.91.924c-.215.392-.322.845-.322 1.358 0 .523.107.985.322 1.386.224.392.527.695.91.91.392.215.831.322 1.316.322.42 0 .803-.089 1.148-.266.345-.177.635-.443.868-.798l1.022.644c-.289.513-.7.91-1.232 1.19-.523.271-1.12.406-1.792.406zm11.68-7.504V314h-1.274v-1.12c-.271.383-.63.681-1.078.896a3.364 3.364 0 01-1.442.308c-.989 0-1.769-.271-2.338-.812-.569-.551-.854-1.358-.854-2.422v-4.27h1.344v4.116c0 .719.173 1.265.518 1.638.345.364.84.546 1.484.546.709 0 1.269-.215 1.68-.644.411-.429.616-1.036.616-1.82v-3.836h1.344zm4.687 7.504c-.607 0-1.19-.079-1.75-.238-.56-.168-.999-.378-1.316-.63l.56-1.064c.326.233.723.42 1.19.56.466.14.938.21 1.414.21 1.176 0 1.764-.336 1.764-1.008a.655.655 0 00-.238-.532 1.442 1.442 0 00-.602-.28c-.234-.065-.57-.135-1.008-.21a10.167 10.167 0 01-1.47-.322 2.252 2.252 0 01-.966-.616c-.271-.289-.406-.695-.406-1.218 0-.672.28-1.209.84-1.61.56-.411 1.311-.616 2.254-.616.494 0 .989.061 1.484.182.494.121.9.285 1.218.49l-.574 1.064c-.607-.392-1.321-.588-2.142-.588-.57 0-1.004.093-1.302.28-.299.187-.448.434-.448.742 0 .243.084.434.252.574.168.14.373.243.616.308.252.065.602.14 1.05.224a10.26 10.26 0 011.442.336c.373.112.69.308.952.588.261.28.392.672.392 1.176 0 .672-.29 1.209-.868 1.61-.57.392-1.349.588-2.338.588z" fill="#fff"/><path d="M258.008 304.2v1.218L254.2 314h-1.946l3.682-8.26h-3.85v1.666h-1.694V304.2h7.616zm4.94 9.94c-.784 0-1.484-.196-2.1-.588-.616-.401-1.101-.98-1.456-1.736-.355-.765-.532-1.671-.532-2.716 0-1.045.177-1.946.532-2.702.355-.765.84-1.344 1.456-1.736.616-.401 1.316-.602 2.1-.602s1.484.201 2.1.602c.625.392 1.115.971 1.47 1.736.355.756.532 1.657.532 2.702s-.177 1.951-.532 2.716c-.355.756-.845 1.335-1.47 1.736-.616.392-1.316.588-2.1.588zm0-1.582c.7 0 1.251-.289 1.652-.868.411-.579.616-1.442.616-2.59s-.205-2.011-.616-2.59c-.401-.579-.952-.868-1.652-.868-.691 0-1.241.289-1.652.868-.401.579-.602 1.442-.602 2.59s.201 2.011.602 2.59c.411.579.961.868 1.652.868z" fill="#fff"/><path opacity=".6" d="M58.47 329.2h1.4v9.8h-1.4v-9.8zm8.1 2.31c.943 0 1.69.275 2.24.826.56.541.84 1.339.84 2.394V339h-1.344v-4.116c0-.719-.173-1.26-.518-1.624-.345-.364-.84-.546-1.484-.546-.728 0-1.302.215-1.722.644-.42.42-.63 1.027-.63 1.82V339h-1.344v-7.42h1.288v1.12c.27-.383.635-.677 1.092-.882a3.895 3.895 0 011.582-.308zm9.74 7.056a2.084 2.084 0 01-.729.392 3.2 3.2 0 01-.896.126c-.746 0-1.325-.201-1.736-.602-.41-.401-.616-.975-.616-1.722v-4.074h-1.26v-1.106h1.26v-1.624h1.344v1.624h2.128v1.106h-2.128v4.018c0 .401.098.709.294.924.206.215.495.322.868.322.41 0 .76-.117 1.05-.35l.42.966zm8.084-3.234c0 .103-.01.238-.028.406h-6.02c.084.653.369 1.181.854 1.582.495.392 1.106.588 1.834.588.887 0 1.6-.299 2.142-.896l.742.868a3.237 3.237 0 01-1.26.896 4.315 4.315 0 01-1.666.308c-.784 0-1.48-.159-2.086-.476a3.539 3.539 0 01-1.414-1.358c-.327-.579-.49-1.232-.49-1.96 0-.719.159-1.367.476-1.946a3.469 3.469 0 011.33-1.344 3.784 3.784 0 011.918-.49c.71 0 1.34.163 1.89.49.56.317.994.765 1.302 1.344.317.579.476 1.241.476 1.988zm-3.668-2.688c-.644 0-1.185.196-1.624.588-.43.392-.681.905-.756 1.54h4.76c-.075-.625-.331-1.134-.77-1.526-.43-.401-.966-.602-1.61-.602zm6.822.182a2.295 2.295 0 011.036-.98c.458-.224 1.013-.336 1.666-.336v1.302a2.698 2.698 0 00-.308-.014c-.728 0-1.302.219-1.722.658-.41.429-.616 1.045-.616 1.848V339H86.26v-7.42h1.288v1.246zm7.525 6.258c-.756 0-1.433-.163-2.03-.49a3.624 3.624 0 01-1.387-1.344c-.336-.579-.504-1.232-.504-1.96s.168-1.377.504-1.946A3.486 3.486 0 0193.042 332c.598-.327 1.275-.49 2.03-.49.672 0 1.27.135 1.793.406a2.89 2.89 0 011.232 1.176l-1.022.658a2.279 2.279 0 00-.868-.798 2.48 2.48 0 00-1.148-.266 2.69 2.69 0 00-1.316.322 2.347 2.347 0 00-.91.924c-.215.392-.323.845-.323 1.358 0 .523.108.985.322 1.386.225.392.528.695.91.91.392.215.831.322 1.316.322.42 0 .803-.089 1.148-.266a2.27 2.27 0 00.868-.798l1.023.644c-.29.513-.7.91-1.232 1.19-.523.271-1.12.406-1.792.406zm11.36-3.752c0 .103-.009.238-.028.406h-6.02c.084.653.369 1.181.854 1.582.495.392 1.106.588 1.834.588.887 0 1.601-.299 2.142-.896l.742.868a3.237 3.237 0 01-1.26.896 4.316 4.316 0 01-1.666.308c-.784 0-1.479-.159-2.086-.476a3.536 3.536 0 01-1.414-1.358c-.327-.579-.49-1.232-.49-1.96 0-.719.159-1.367.476-1.946a3.469 3.469 0 011.33-1.344c.569-.327 1.209-.49 1.918-.49.709 0 1.339.163 1.89.49.56.317.994.765 1.302 1.344.317.579.476 1.241.476 1.988zm-3.668-2.688c-.644 0-1.185.196-1.624.588-.429.392-.681.905-.756 1.54h4.76c-.075-.625-.331-1.134-.77-1.526-.429-.401-.966-.602-1.61-.602zm9.468-1.134c.719 0 1.363.159 1.932.476a3.37 3.37 0 011.33 1.33c.327.569.49 1.227.49 1.974 0 .747-.163 1.409-.49 1.988a3.37 3.37 0 01-1.33 1.33c-.569.317-1.213.476-1.932.476a3.49 3.49 0 01-1.47-.308 3.06 3.06 0 01-1.12-.896v3.836h-1.344V331.58h1.288v1.176a2.797 2.797 0 011.134-.924 3.513 3.513 0 011.512-.322zm-.112 6.398c.476 0 .901-.107 1.274-.322.383-.224.682-.532.896-.924.224-.401.336-.859.336-1.372 0-.513-.112-.966-.336-1.358a2.249 2.249 0 00-.896-.924 2.505 2.505 0 00-1.274-.322c-.466 0-.891.112-1.274.336a2.403 2.403 0 00-.896.91c-.214.392-.322.845-.322 1.358 0 .513.108.971.322 1.372.215.392.514.7.896.924.383.215.808.322 1.274.322zm9.893.658a2.077 2.077 0 01-.728.392 3.196 3.196 0 01-.896.126c-.746 0-1.325-.201-1.736-.602-.41-.401-.616-.975-.616-1.722v-4.074h-1.26v-1.106h1.26v-1.624h1.344v1.624h2.128v1.106h-2.128v4.018c0 .401.098.709.294.924.206.215.495.322.868.322.411 0 .761-.117 1.05-.35l.42.966zm1.625-6.986h1.344V339h-1.344v-7.42zm.672-1.428a.922.922 0 01-.658-.252.837.837 0 01-.252-.616c0-.243.084-.448.252-.616a.897.897 0 01.658-.266c.262 0 .476.084.644.252a.77.77 0 01.266.602.874.874 0 01-.266.644.871.871 0 01-.644.252zm6.416 8.932c-.737 0-1.4-.163-1.988-.49a3.624 3.624 0 01-1.386-1.344c-.326-.579-.49-1.232-.49-1.96s.164-1.377.49-1.946a3.486 3.486 0 011.386-1.344c.588-.327 1.251-.49 1.988-.49.738 0 1.396.163 1.974.49a3.388 3.388 0 011.372 1.344c.336.569.504 1.218.504 1.946s-.168 1.381-.504 1.96a3.518 3.518 0 01-1.372 1.344c-.578.327-1.236.49-1.974.49zm0-1.176c.476 0 .901-.107 1.274-.322.383-.224.682-.532.896-.924a2.86 2.86 0 00.322-1.372c0-.513-.107-.966-.322-1.358a2.249 2.249 0 00-.896-.924 2.505 2.505 0 00-1.274-.322c-.476 0-.905.107-1.288.322a2.379 2.379 0 00-.896.924c-.214.392-.322.845-.322 1.358 0 .513.108.971.322 1.372.224.392.523.7.896.924.383.215.812.322 1.288.322zm9.671-6.398c.943 0 1.689.275 2.24.826.56.541.84 1.339.84 2.394V339h-1.344v-4.116c0-.719-.173-1.26-.518-1.624-.345-.364-.84-.546-1.484-.546-.728 0-1.302.215-1.722.644-.42.42-.63 1.027-.63 1.82V339h-1.344v-7.42h1.288v1.12a2.62 2.62 0 011.092-.882 3.896 3.896 0 011.582-.308zm7.695 7.574a6.38 6.38 0 01-1.75-.238c-.56-.168-.998-.378-1.316-.63l.56-1.064c.327.233.724.42 1.19.56.467.14.938.21 1.414.21 1.176 0 1.764-.336 1.764-1.008a.652.652 0 00-.238-.532 1.43 1.43 0 00-.602-.28 10.731 10.731 0 00-1.008-.21 10.229 10.229 0 01-1.47-.322 2.264 2.264 0 01-.966-.616c-.27-.289-.406-.695-.406-1.218 0-.672.28-1.209.84-1.61.56-.411 1.312-.616 2.254-.616.495 0 .99.061 1.484.182.495.121.901.285 1.218.49l-.574 1.064c-.606-.392-1.32-.588-2.142-.588-.569 0-1.003.093-1.302.28-.298.187-.448.434-.448.742 0 .243.084.434.252.574.168.14.374.243.616.308.252.065.602.14 1.05.224.598.103 1.078.215 1.442.336a2.1 2.1 0 01.952.588c.262.28.392.672.392 1.176 0 .672-.289 1.209-.868 1.61-.569.392-1.348.588-2.338.588z" fill="#fff"/><path d="M258.008 329.2v1.218L254.2 339h-1.946l3.682-8.26h-3.85v1.666h-1.694V329.2h7.616zm4.94 9.94c-.784 0-1.484-.196-2.1-.588-.616-.401-1.101-.98-1.456-1.736-.355-.765-.532-1.671-.532-2.716 0-1.045.177-1.946.532-2.702.355-.765.84-1.344 1.456-1.736.616-.401 1.316-.602 2.1-.602s1.484.201 2.1.602c.625.392 1.115.971 1.47 1.736.355.756.532 1.657.532 2.702s-.177 1.951-.532 2.716c-.355.756-.845 1.335-1.47 1.736-.616.392-1.316.588-2.1.588zm0-1.582c.7 0 1.251-.289 1.652-.868.411-.579.616-1.442.616-2.59s-.205-2.011-.616-2.59c-.401-.579-.952-.868-1.652-.868-.691 0-1.241.289-1.652.868-.401.579-.602 1.442-.602 2.59s.201 2.011.602 2.59c.411.579.961.868 1.652.868z" fill="#fff"/><path opacity=".6" d="M66.982 354.2l-4.298 9.8h-1.386l-4.312-9.8h1.512l3.528 8.05 3.556-8.05h1.4zm1.067 2.38h1.344V364H68.05v-7.42zm.672-1.428a.92.92 0 01-.658-.252.837.837 0 01-.252-.616c0-.243.084-.448.252-.616a.895.895 0 01.658-.266c.262 0 .476.084.644.252a.773.773 0 01.266.602.877.877 0 01-.266.644.872.872 0 01-.644.252zm10.337 1.428v6.412c0 1.297-.323 2.254-.967 2.87-.643.625-1.605.938-2.883.938-.7 0-1.368-.098-2.002-.294-.635-.187-1.148-.457-1.54-.812l.644-1.036c.345.299.77.532 1.273.7a4.825 4.825 0 001.582.266c.868 0 1.508-.205 1.918-.616.42-.411.63-1.036.63-1.876v-.588a3.022 3.022 0 01-1.175.868 3.92 3.92 0 01-1.498.28c-.71 0-1.354-.149-1.933-.448a3.465 3.465 0 01-1.344-1.274c-.326-.551-.49-1.176-.49-1.876s.164-1.321.49-1.862a3.334 3.334 0 011.344-1.274 4.145 4.145 0 011.933-.448c.56 0 1.078.103 1.553.308.486.205.882.509 1.19.91v-1.148h1.275zm-3.865 5.936c.486 0 .92-.103 1.303-.308.392-.205.695-.49.91-.854a2.4 2.4 0 00.335-1.26c0-.719-.237-1.297-.713-1.736-.477-.448-1.088-.672-1.835-.672-.755 0-1.371.224-1.847.672-.477.439-.715 1.017-.715 1.736 0 .467.108.887.323 1.26.224.364.527.649.91.854.391.205.835.308 1.33.308zm6.433-5.936h1.344V364h-1.344v-7.42zm.672-1.428a.92.92 0 01-.658-.252.837.837 0 01-.252-.616c0-.243.084-.448.252-.616a.895.895 0 01.658-.266c.26 0 .476.084.644.252a.773.773 0 01.266.602.877.877 0 01-.266.644.872.872 0 01-.644.252zm3.238-1.54h1.344V364h-1.344v-10.388zm6.612 2.898c1.026 0 1.81.252 2.352.756.55.504.826 1.255.826 2.254V364h-1.274v-.98a2.166 2.166 0 01-.966.798c-.41.177-.9.266-1.47.266-.83 0-1.498-.201-2.002-.602-.495-.401-.742-.929-.742-1.582s.238-1.176.714-1.568c.476-.401 1.232-.602 2.268-.602h2.128v-.266c0-.579-.168-1.022-.504-1.33-.336-.308-.83-.462-1.484-.462-.439 0-.868.075-1.288.224a3.21 3.21 0 00-1.064.574l-.56-1.008c.383-.308.84-.541 1.372-.7a5.593 5.593 0 011.694-.252zm-.308 6.538c.513 0 .956-.112 1.33-.336a2 2 0 00.812-.98v-1.036H91.91c-1.139 0-1.708.383-1.708 1.148 0 .373.145.667.434.882.29.215.69.322 1.204.322zm9.935-6.538c.943 0 1.689.275 2.24.826.56.541.84 1.339.84 2.394V364h-1.344v-4.116c0-.719-.173-1.26-.518-1.624-.345-.364-.84-.546-1.484-.546-.728 0-1.302.215-1.722.644-.42.42-.63 1.027-.63 1.82V364h-1.344v-7.42h1.288v1.12c.27-.383.635-.677 1.092-.882a3.896 3.896 0 011.582-.308zm8.842 7.574c-.756 0-1.432-.163-2.03-.49a3.624 3.624 0 01-1.386-1.344c-.336-.579-.504-1.232-.504-1.96s.168-1.377.504-1.946a3.486 3.486 0 011.386-1.344c.598-.327 1.274-.49 2.03-.49.672 0 1.27.135 1.792.406.532.271.943.663 1.232 1.176l-1.022.658a2.27 2.27 0 00-.868-.798 2.479 2.479 0 00-1.148-.266c-.485 0-.924.107-1.316.322a2.352 2.352 0 00-.91.924c-.214.392-.322.845-.322 1.358 0 .523.108.985.322 1.386.224.392.528.695.91.91.392.215.831.322 1.316.322.42 0 .803-.089 1.148-.266a2.27 2.27 0 00.868-.798l1.022.644c-.289.513-.7.91-1.232 1.19-.522.271-1.12.406-1.792.406zm11.361-3.752c0 .103-.009.238-.028.406h-6.02c.084.653.369 1.181.854 1.582.495.392 1.106.588 1.834.588.887 0 1.601-.299 2.142-.896l.742.868a3.237 3.237 0 01-1.26.896 4.316 4.316 0 01-1.666.308c-.784 0-1.479-.159-2.086-.476a3.537 3.537 0 01-1.414-1.358c-.327-.579-.49-1.232-.49-1.96 0-.719.159-1.367.476-1.946a3.471 3.471 0 011.33-1.344c.569-.327 1.209-.49 1.918-.49.709 0 1.339.163 1.89.49.56.317.994.765 1.302 1.344.317.579.476 1.241.476 1.988zm-3.668-2.688c-.644 0-1.185.196-1.624.588-.429.392-.681.905-.756 1.54h4.76c-.075-.625-.331-1.134-.77-1.526-.429-.401-.966-.602-1.61-.602z" fill="#fff"/><path d="M258.008 354.2v1.218L254.2 364h-1.946l3.682-8.26h-3.85v1.666h-1.694V354.2h7.616zm4.94 9.94c-.784 0-1.484-.196-2.1-.588-.616-.401-1.101-.98-1.456-1.736-.355-.765-.532-1.671-.532-2.716 0-1.045.177-1.946.532-2.702.355-.765.84-1.344 1.456-1.736.616-.401 1.316-.602 2.1-.602s1.484.201 2.1.602c.625.392 1.115.971 1.47 1.736.355.756.532 1.657.532 2.702s-.177 1.951-.532 2.716c-.355.756-.845 1.335-1.47 1.736-.616.392-1.316.588-2.1.588zm0-1.582c.7 0 1.251-.289 1.652-.868.411-.579.616-1.442.616-2.59s-.205-2.011-.616-2.59c-.401-.579-.952-.868-1.652-.868-.691 0-1.241.289-1.652.868-.401.579-.602 1.442-.602 2.59s.201 2.011.602 2.59c.411.579.961.868 1.652.868z" fill="#fff"/><defs><filter id="filter0_d" x="28.787" y="46.91" width="122.864" height="97.837" filterUnits="userSpaceOnUse" color-interpolation-filters="sRGB"><feFlood flood-opacity="0" result="BackgroundImageFix"/><feColorMatrix in="SourceAlpha" values="0 0 0 0 0 0 0 0 0 0 0 0 0 0 0 0 0 0 127 0" result="hardAlpha"/><feOffset dy="3.64"/><feGaussianBlur stdDeviation="14.107"/><feColorMatrix values="0 0 0 0 0.235294 0 0 0 0 0.811765 0 0 0 0 0.364706 0 0 0 0.5 0"/><feBlend in2="BackgroundImageFix" result="effect1_dropShadow"/><feBlend in="SourceGraphic" in2="effect1_dropShadow" result="shape"/></filter><filter id="filter1_d" x="162.517" y="46.91" width="121.815" height="97.837" filterUnits="userSpaceOnUse" color-interpolation-filters="sRGB"><feFlood flood-opacity="0" result="BackgroundImageFix"/><feColorMatrix in="SourceAlpha" values="0 0 0 0 0 0 0 0 0 0 0 0 0 0 0 0 0 0 127 0" result="hardAlpha"/><feOffset dy="3.64"/><feGaussianBlur stdDeviation="14.107"/><feColorMatrix values="0 0 0 0 0.235294 0 0 0 0 0.811765 0 0 0 0 0.364706 0 0 0 0.5 0"/><feBlend in2="BackgroundImageFix" result="effect1_dropShadow"/><feBlend in="SourceGraphic" in2="effect1_dropShadow" result="shape"/></filter></defs></svg>