<svg width="16" height="16" fill="none" xmlns="http://www.w3.org/2000/svg"><path d="M7.997 16a7.999 7.999 0 007.998-8A7.999 7.999 0 100 8c0 4.418 3.58 8 7.997 8z" fill="#60E077"/><path d="M7.998 0h-.011v16h.01a7.999 7.999 0 007.998-8c0-4.418-3.58-8-7.997-8z" fill="#60E177"/><path d="M3.476 8.159l3.235 3.235c.141.14.37.14.511 0l5.31-5.31a.361.361 0 000-.512l-.966-.966a.361.361 0 00-.51 0L7.192 8.468a.361.361 0 01-.511 0L4.95 6.738a.361.361 0 00-.504-.008l-.963.91a.361.361 0 00-.008.519z" fill="#fff"/><path d="M11.566 4.606a.361.361 0 00-.511 0L7.987 7.674v2.955l4.545-4.546a.361.361 0 000-.51l-.966-.967z" fill="#fff"/></svg>