<svg id="Layer_1" data-name="Layer 1" xmlns="http://www.w3.org/2000/svg" width="200" height="200"><defs><clipPath id="clip-path"><path class="cls-1" d="M14 14h172v172H14z"/></clipPath><style>.cls-1{fill:none}</style></defs><g clip-path="url(#clip-path)"><path d="M14 99.76a85.76 85.76 0 1185.76 85.75A85.75 85.75 0 0114 99.76z" fill="#00ffa3"/><path d="M138.39 64.9a90.87 90.87 0 00-22.82-7.05c-1 1.75-2.13 4.1-2.92 6a85.74 85.74 0 00-25.29 0 64.77 64.77 0 00-3-6 90.14 90.14 0 00-22.84 7.08C47.12 86.4 43.21 107.36 45.16 128a91.76 91.76 0 0028 14.13 68.87 68.87 0 006-9.73 59.33 59.33 0 01-9.44-4.51Q70.9 127 72 126.1a65.49 65.49 0 0056 0c.75.62 1.53 1.22 2.31 1.8a59.17 59.17 0 01-9.46 4.53 68 68 0 006 9.71 91.24 91.24 0 0028-14.13c2.28-23.93-3.94-44.7-16.46-63.11zm-56.77 50.42c-5.46 0-9.94-5-9.94-11.14S76.06 93 81.62 93s10 5 9.95 11.15-4.39 11.17-9.95 11.17zm36.75 0c-5.46 0-9.94-5-9.94-11.14S112.81 93 118.37 93s10 5 9.94 11.15-4.38 11.17-9.94 11.17z" fill="#001b4f"/></g><path class="cls-1" d="M0 0h200v200H0z"/></svg>