<svg width="37" height="29" fill="none" xmlns="http://www.w3.org/2000/svg"><path d="M31.322 2.538A30.674 30.674 0 0023.791.22a.115.115 0 00-.121.057 21.027 21.027 0 00-.938 1.912 28.37 28.37 0 00-8.459 0 19.29 19.29 0 00-.952-1.912A.12.12 0 0013.2.22a30.587 30.587 0 00-7.531 2.32.108.108 0 00-.05.042C.822 9.695-.491 16.635.153 23.489a.126.126 0 00.048.086 30.77 30.77 0 009.24 4.637.12.12 0 00.129-.042 21.739 21.739 0 001.89-3.052.116.116 0 00-.064-.162A20.276 20.276 0 018.51 23.59a.117.117 0 01-.012-.195c.194-.145.388-.295.573-.446a.115.115 0 01.12-.017c6.055 2.745 12.61 2.745 18.594 0a.115.115 0 01.121.015c.186.152.38.303.575.448a.117.117 0 01-.01.195c-.922.535-1.88.987-2.888 1.364a.117.117 0 00-.063.164 24.427 24.427 0 001.89 3.05c.028.041.08.059.129.044a30.667 30.667 0 009.253-4.637.117.117 0 00.049-.084c.771-7.924-1.293-14.807-5.47-20.909a.094.094 0 00-.049-.044zM12.364 19.316c-1.823 0-3.325-1.662-3.325-3.702 0-2.041 1.473-3.703 3.325-3.703 1.867 0 3.354 1.676 3.325 3.703 0 2.04-1.473 3.702-3.325 3.702zm12.295 0c-1.823 0-3.326-1.662-3.326-3.702 0-2.041 1.473-3.703 3.326-3.703 1.866 0 3.354 1.676 3.325 3.703 0 2.04-1.459 3.702-3.325 3.702z" fill="#fff"/></svg>