<svg width="24" height="24" fill="none" xmlns="http://www.w3.org/2000/svg"><circle cx="12" cy="12" r="12" fill="#8c8c8c"/><path d="M8.281 12c0-.694.191-1.343.523-1.9V7.74h-2.36A6.947 6.947 0 005 12c0 1.56.508 3.043 1.444 4.26h2.36V13.9a3.696 3.696 0 01-.523-1.9zM12 15.719l-1.64 1.64L12 19c1.56 0 3.043-.508 4.26-1.444v-2.358h-2.358a3.719 3.719 0 01-1.902.52z" fill="#fff"/><path d="M8.804 13.9l-2.36 2.36c.186.24.388.471.606.69A6.954 6.954 0 0012 19v-3.281a3.72 3.72 0 01-3.196-1.82zM19 12a7.07 7.07 0 00-.115-1.268l-.061-.336H12v3.28h3.321a3.702 3.702 0 01-1.419 1.522l2.358 2.358c.24-.186.471-.388.69-.606A6.954 6.954 0 0019 12zm-4.37-2.63l.29.29 2.32-2.32-.29-.29A6.954 6.954 0 0012 5l-1.64 1.64L12 8.282c.993 0 1.927.387 2.63 1.09z" fill="#fff"/><path d="M12 8.281V5c-1.87 0-3.628.728-4.95 2.05-.218.219-.42.45-.606.69l2.36 2.36A3.72 3.72 0 0112 8.281z" fill="#fff"/></svg>