<svg width="36" height="28" fill="none" xmlns="http://www.w3.org/2000/svg"><path fill-rule="evenodd" clip-rule="evenodd" d="M35.99 3.317a14.58 14.58 0 01-4.125 1.11A7.092 7.092 0 0035.019.515a14.523 14.523 0 01-4.559 1.718A7.227 7.227 0 0025.218 0c-3.963 0-7.18 3.168-7.18 7.07 0 .556.063 1.096.188 1.61A20.477 20.477 0 013.428 1.29a6.967 6.967 0 00-.97 3.554c0 2.453 1.268 4.618 3.195 5.883A7.248 7.248 0 012.4 9.842v.088c0 3.425 2.475 6.284 5.76 6.932a7.304 7.304 0 01-3.243.118c.913 2.808 3.566 4.854 6.704 4.91a14.543 14.543 0 01-8.918 3.03c-.58 0-1.15-.036-1.713-.098A20.547 20.547 0 0011.997 28c13.205 0 20.427-10.773 20.427-20.117 0-.308-.005-.612-.021-.915a14.402 14.402 0 003.582-3.661l.005.01z" fill="#fff"/></svg>