<svg width="31" height="25" fill="none" xmlns="http://www.w3.org/2000/svg"><path fill-rule="evenodd" clip-rule="evenodd" d="M30.919 2.894a12.33 12.33 0 01-3.53.965 6.144 6.144 0 002.699-3.4 12.316 12.316 0 01-3.901 1.492A6.141 6.141 0 0021.7.012a6.146 6.146 0 00-5.983 7.541C10.609 7.3 6.082 4.851 3.053 1.133a6.123 6.123 0 00-.832 3.088 6.133 6.133 0 002.735 5.11 6.132 6.132 0 01-2.784-.768v.076a6.145 6.145 0 004.93 6.022 6.16 6.16 0 01-2.775.103 6.152 6.152 0 005.737 4.267 12.326 12.326 0 01-7.633 2.63c-.496 0-.983-.03-1.465-.084a17.393 17.393 0 009.42 2.76c11.3 0 17.48-9.359 17.48-17.476 0-.268-.004-.532-.017-.795a12.427 12.427 0 003.066-3.181l.004.009z" fill="#00FFA3"/></svg>