<svg width="66" height="71" viewBox="0 0 66 71" fill="none" xmlns="http://www.w3.org/2000/svg">
<g filter="url(#filter0_d_659:101)">
<path d="M59.9266 21.7104L33.1768 6.41864L6.4272 21.7103L6.42712 49.4141L17.2473 55.5996L17.2473 55.6058L21.5553 58.1038L21.556 58.0626L21.7163 58.1543L22.0899 58.3715L22.0899 58.3679L33.1768 64.7058L46.696 56.9775L49.7076 55.2726V55.272L49.908 55.1597V55.1413L59.9266 49.4141V21.7104Z" fill="#F7DDC4"/>
</g>
<g filter="url(#filter1_f_659:101)">
<path d="M61 21.0034L33 5L5.00008 21.0034L5 49.9966L16.3259 56.4699L16.3259 56.4764L20.8353 59.0907L20.8359 59.0476L21.0038 59.1436L21.3949 59.3708L21.3948 59.3671L33 66L47.151 57.912L50.3034 56.1277V56.1271L50.5131 56.0096V55.9903L61 49.9966V21.0034Z" fill="url(#paint0_linear_659:101)"/>
</g>
<path d="M33.1769 63.8991L7.22168 49.0616V22.1806L33.1769 37.0181V63.8991Z" fill="#2764FF"/>
<path d="M31.0575 60.6096L9.22192 48.1096V25.4634L31.0575 37.9635V60.6096Z" fill="#3481DB"/>
<path d="M7.22168 22.1806V49.0616L33.1769 63.8991L7.99936 48.6762L7.22168 22.1806Z" fill="#F56C5D"/>
<path d="M33.1768 63.8991L59.1319 49.0616V22.1806L33.1768 37.0181V63.8991Z" fill="#0C45D9"/>
<path d="M33.1768 63.8991L59.1319 49.0616V48.5799L33.1768 63.4174V63.8991Z" fill="#DB4534"/>
<path d="M51.2298 42.9118L51.2299 41.8777L51.8232 41.5382L51.8231 43.1006L51.352 43.0771C51.2767 43.0733 51.2298 43.0099 51.2298 42.9118Z" fill="#516069"/>
<path d="M53.4707 41.6291L53.4707 40.595L52.8774 40.9346L52.8773 42.497L53.3485 41.9342C53.4238 41.8443 53.4707 41.7272 53.4707 41.6291Z" fill="#516069"/>
<path d="M51.7465 41.4022L53.0137 40.677L53.0136 42.5187L52.4408 43.1798C52.3975 43.2297 52.3464 43.2589 52.3032 43.2583L51.7464 43.2503L51.7465 41.4022Z" fill="#84A0B3"/>
<path d="M52.3294 38.0141L51.2443 38.7651C51.1023 38.8634 50.9945 39.0621 50.9945 39.2254L50.9944 42.5825C50.9944 42.7168 51.0678 42.7947 51.1781 42.7773L52.2632 42.6067C52.3246 42.597 52.3919 42.5585 52.4533 42.4979L53.5384 41.4266C53.6487 41.3177 53.7222 41.1557 53.7222 41.0215L53.7223 37.6644C53.7223 37.501 53.6145 37.4257 53.4726 37.4899L52.3875 37.9808C52.3682 37.9896 52.3487 38.0007 52.3294 38.0141Z" fill="#49DDFE"/>
<path d="M55.0056 41.2436L55.0056 40.3191C55.0056 40.2235 55.0733 40.1072 55.1569 40.0594L55.7322 39.7302C55.8157 39.6824 55.8835 39.7211 55.8835 39.8167L55.8834 40.4771C55.8834 40.5478 55.8458 40.6329 55.7885 40.6921L55.2132 41.2855C55.1138 41.388 55.0056 41.3661 55.0056 41.2436Z" fill="#8C7A79"/>
<path d="M55.0056 41.2436L55.0056 40.3191C55.0056 40.2235 55.0733 40.1072 55.1569 40.0594L55.7322 39.7302C55.8157 39.6824 55.8835 39.7211 55.8835 39.8167L55.8834 40.4771C55.8834 40.5478 55.8458 40.6329 55.7885 40.6921L55.2132 41.2855C55.1138 41.388 55.0056 41.3661 55.0056 41.2436Z" fill="#516069"/>
<path d="M57.0092 40.0971L57.0093 39.1726C57.0093 39.077 56.9415 39.0382 56.858 39.0861L56.2827 39.4153C56.1992 39.4631 56.1314 39.5794 56.1314 39.675L56.1314 40.3353C56.1314 40.406 56.169 40.4481 56.2263 40.4416L56.8016 40.3766C56.901 40.3653 57.0092 40.2196 57.0092 40.0971Z" fill="#8C7A79"/>
<path d="M57.0092 40.0971L57.0093 39.1726C57.0093 39.077 56.9415 39.0382 56.858 39.0861L56.2827 39.4153C56.1992 39.4631 56.1314 39.5794 56.1314 39.675L56.1314 40.3353C56.1314 40.406 56.169 40.4481 56.2263 40.4416L56.8016 40.3766C56.901 40.3653 57.0092 40.2196 57.0092 40.0971Z" fill="#8C685C"/>
<path d="M57.0092 40.0971L57.0093 39.1726C57.0093 39.077 56.9415 39.0382 56.858 39.0861L56.2827 39.4153C56.1992 39.4631 56.1314 39.5794 56.1314 39.675L56.1314 40.3353C56.1314 40.406 56.169 40.4481 56.2263 40.4416L56.8016 40.3766C56.901 40.3653 57.0092 40.2196 57.0092 40.0971Z" fill="#516069"/>
<path d="M55.5017 35.8035C55.406 35.8624 55.2953 35.9332 55.1856 36.0045C54.8726 36.2081 54.6338 36.6457 54.6338 37.0047L54.6336 40.1926C54.6336 40.5475 54.8673 40.7118 55.1756 40.5735L55.9321 40.2344C55.9756 40.2149 56.0195 40.1898 56.063 40.1595L56.8194 39.6328C57.1278 39.4181 57.3615 38.9865 57.3615 38.6315L57.3616 35.4437C57.3616 35.0846 57.1228 34.9204 56.8098 35.0751C56.7002 35.1292 56.5896 35.1851 56.4939 35.2357C56.1067 35.4404 55.8889 35.565 55.5017 35.8035Z" fill="#49DDFE"/>
<path fill-rule="evenodd" clip-rule="evenodd" d="M55.2393 47.3863L55.2394 46.5791L54.9455 46.7473L54.9455 47.3739C54.9455 47.3849 54.9509 47.3917 54.9595 47.3916L55.2393 47.3863Z" fill="#516069"/>
<path fill-rule="evenodd" clip-rule="evenodd" d="M56.3102 46.7734L56.3102 45.9662L56.6041 45.798L56.604 46.4247C56.604 46.4356 56.5986 46.4487 56.59 46.4584L56.3102 46.7734Z" fill="#516069"/>
<path d="M55.2292 44.7122L56.3338 44.0801L56.3337 46.9667C56.3337 46.9931 56.3113 47.0248 56.2892 47.0295L55.7891 47.1372C55.7841 47.1383 55.7787 47.1414 55.7738 47.146L55.2736 47.6108C55.2515 47.6313 55.2291 47.6252 55.2291 47.5988L55.2292 44.7122Z" fill="#84A0B3"/>
<path d="M55.7766 42.0549L54.7723 42.6297C54.5737 42.7433 54.4127 43.0197 54.4127 43.247L54.4126 46.9115C54.4126 47.1216 54.5509 47.2188 54.7334 47.137L55.7377 46.6868C55.7635 46.6752 55.7894 46.6604 55.8152 46.6424L56.8195 45.9431C57.0021 45.8161 57.1404 45.5605 57.1404 45.3504L57.1405 41.6859C57.1405 41.4586 56.9796 41.3665 56.781 41.4801L55.7766 42.0549Z" fill="url(#paint1_linear_659:101)"/>
<path d="M55.7766 42.0549L54.7723 42.6297C54.5737 42.7433 54.4127 43.0197 54.4127 43.247L54.4126 46.9115C54.4126 47.1216 54.5509 47.2188 54.7334 47.137L55.7377 46.6868C55.7635 46.6752 55.7894 46.6604 55.8152 46.6424L56.8195 45.9431C57.0021 45.8161 57.1404 45.5605 57.1404 45.3504L57.1405 41.6859C57.1405 41.4586 56.9796 41.3665 56.781 41.4801L55.7766 42.0549Z" fill="#49DDFE"/>
<path d="M51.502 49.6446L51.5021 48.7892L52.99 47.9377L52.99 48.7842C52.9899 48.8623 52.9534 48.9553 52.8942 49.0281L52.3317 49.7193C52.2728 49.7917 52.2003 49.833 52.1415 49.8277L51.5972 49.7789C51.5383 49.7736 51.502 49.7224 51.502 49.6446Z" fill="#84A0B3"/>
<path fill-rule="evenodd" clip-rule="evenodd" d="M51.9345 48.5417L51.9345 49.8092L51.5972 49.7789C51.5383 49.7736 51.502 49.7224 51.502 49.6446L51.5021 48.7892L51.9345 48.5417Z" fill="#516069"/>
<path fill-rule="evenodd" clip-rule="evenodd" d="M51.9198 49.8078L51.9198 48.5506L51.9345 48.5422L51.9344 49.8091L51.9198 49.8078Z" fill="#B0D2DD"/>
<path fill-rule="evenodd" clip-rule="evenodd" d="M52.5577 48.177L52.5576 49.4445L52.8949 49.0281C52.9538 48.9554 52.9901 48.8628 52.9901 48.7849L52.9901 47.9295L52.5577 48.177Z" fill="#516069"/>
<path fill-rule="evenodd" clip-rule="evenodd" d="M52.5719 49.4261L52.5719 48.1686L52.5572 48.177L52.5572 49.4442L52.5719 49.4261Z" fill="#B0D2DD"/>
<path d="M52.2465 44.4955L51.49 44.9284C51.1545 45.1204 50.8826 45.5873 50.8825 45.9712L50.8824 48.9346C50.8824 49.2483 51.066 49.4181 51.3304 49.3491L52.0869 49.1516C52.1913 49.1244 52.3013 49.0614 52.4057 48.9692L53.1622 48.3008C53.4267 48.0671 53.6103 47.6872 53.6103 47.3735L53.6104 44.4102C53.6104 44.0262 53.3384 43.8706 53.003 44.0626L52.2465 44.4955Z" fill="#49DDFE"/>
<path d="M48.7536 54.9186V28.0377L44.3334 30.657L44.0537 57.5792L48.7536 54.9186Z" fill="#4D6775"/>
<path d="M48.9481 54.8088V27.9412L44.3159 30.6567V57.4058L48.9481 54.8088Z" fill="#49DDFE"/>
<path d="M17.6462 54.7277V28.0967L21.8263 30.409L21.9562 57.2331L17.6462 54.7277Z" fill="#4D6775"/>
<path d="M17.2576 54.5495L17.3272 27.7138L21.869 30.3108L21.4376 56.9734L17.2576 54.5495Z" fill="#49DDFE"/>
<defs>
<filter id="filter0_d_659:101" x="2.41741" y="2.88065" width="61.5188" height="66.3066" filterUnits="userSpaceOnUse" color-interpolation-filters="sRGB">
<feFlood flood-opacity="0" result="BackgroundImageFix"/>
<feColorMatrix in="SourceAlpha" type="matrix" values="0 0 0 0 0 0 0 0 0 0 0 0 0 0 0 0 0 0 127 0" result="hardAlpha"/>
<feOffset dy="0.471731"/>
<feGaussianBlur stdDeviation="2.00486"/>
<feComposite in2="hardAlpha" operator="out"/>
<feColorMatrix type="matrix" values="0 0 0 0 1 0 0 0 0 0.568627 0 0 0 0 0.0313726 0 0 0 0.4 0"/>
<feBlend mode="normal" in2="BackgroundImageFix" result="effect1_dropShadow_659:101"/>
<feBlend mode="normal" in="SourceGraphic" in2="effect1_dropShadow_659:101" result="shape"/>
</filter>
<filter id="filter1_f_659:101" x="0.990283" y="0.990283" width="64.0194" height="69.0194" filterUnits="userSpaceOnUse" color-interpolation-filters="sRGB">
<feFlood flood-opacity="0" result="BackgroundImageFix"/>
<feBlend mode="normal" in="SourceGraphic" in2="BackgroundImageFix" result="shape"/>
<feGaussianBlur stdDeviation="2.00486" result="effect1_foregroundBlur_659:101"/>
</filter>
<linearGradient id="paint0_linear_659:101" x1="2.29343" y1="10.9352" x2="59.9243" y2="11.1062" gradientUnits="userSpaceOnUse">
<stop stop-color="#00C5FF"/>
<stop offset="0.208333" stop-color="#3CE457"/>
<stop offset="0.571698" stop-color="#5BD6F1"/>
<stop offset="0.8125" stop-color="#D660E9"/>
<stop offset="1" stop-color="#184ED9"/>
</linearGradient>
<linearGradient id="paint1_linear_659:101" x1="55.2038" y1="42.9695" x2="57.4519" y2="44.6402" gradientUnits="userSpaceOnUse">
<stop stop-color="#D8ECF1"/>
<stop offset="1" stop-color="#82B3BF"/>
</linearGradient>
</defs>
</svg>
