<svg xmlns="http://www.w3.org/2000/svg" viewBox="0 0 161.15 117.76"><defs><style>.cls-1{fill:#1555ba;}.cls-2{fill:#191296;}</style></defs><title>shorts</title><g id="Layer_2" data-name="Layer 2"><g id="shorts"><path class="cls-1" d="M2,0S36.66,23.41,108.39,21.28c21.33,34.54,48.73,42,52.68,71.7.4-.39.59,25.31-39.18,16.61-21-3.18-26.32,1.81-26.32,1.81S76.76,48.89,31.08,28.52C-2.11,12.92,2,0,2,0Z"/><path class="cls-1" d="M83.34,92.51S41.59,84.1,27.6,112.43C27.74,112.7-4.47,73,1.18,9.07,1.21,9.07,63.37,33.67,83.34,92.51Z"/><path class="cls-2" d="M122.5,108.53S100.93,71,70.66,59,19.43,38.84,2.14,22.1c0,0,.47,5.83,8.54,13.5,20.4,13.74,66.22,31.94,85.48,74.34C96.21,109.91,116.66,107.68,122.5,108.53Z"/><path class="cls-2" d="M55.43,92.69c-3.74-4.24-8.17-8.91-13.37-14C.41,37.57,1.1,10.24,1.18,9.07c-1.3,10.72-5.09,41.76,14.3,89.75,2.76,6.85,7.83,14.17,11,18.94C24.87,104.26,55.43,92.69,55.43,92.69Z"/><path class="cls-1" d="M69.91,20s-5.43,42.75,2,56.74S-10,50.75,2,0C2,0,22.24,12.83,69.91,20Z"/></g></g></svg>