<svg width="157" height="58" viewBox="0 0 157 58" fill="none" xmlns="http://www.w3.org/2000/svg">
<g clip-path="url(#clip0_216_44)">
<path fill-rule="evenodd" clip-rule="evenodd" d="M15.586 22.6864C15.586 21.0086 14.4811 19.8805 12.6875 19.8805H8.33973V25.5068H12.6875C14.4811 25.5068 15.586 24.3642 15.586 22.6864ZM16.0738 34.9949C16.0738 33.2738 14.8542 32.0733 13.0032 32.0733H8.33973V37.9455H13.0032C14.8685 37.9455 16.0738 36.7306 16.0738 34.9949ZM19.7902 28.197C22.7318 29.6434 24.5685 32.5361 24.5685 36.0508C24.5685 41.2866 20.2064 45.2496 14.4524 45.2496H0.0890503V12.9524H14.1654C19.6898 12.9524 23.7219 16.4526 23.7219 21.2111C23.7362 24.1038 22.1722 26.6928 19.7902 28.197Z" fill="white"/>
<path fill-rule="evenodd" clip-rule="evenodd" d="M40.7541 38.3503C43.7817 38.3503 45.9484 36.0795 45.9484 32.7818C45.9484 29.513 43.7817 27.2133 40.7541 27.2133C37.7265 27.2133 35.5741 29.4841 35.5741 32.7818C35.5741 36.0795 37.7408 38.3503 40.7541 38.3503ZM27.2804 32.7963C27.2804 25.0727 32.9196 19.5187 40.7685 19.5187C48.5887 19.5187 54.2565 25.0727 54.2565 32.7963C54.2565 40.4909 48.5887 46.0739 40.7685 46.0739C32.9196 46.0594 27.2804 40.4909 27.2804 32.7963Z" fill="white"/>
<path fill-rule="evenodd" clip-rule="evenodd" d="M70.1552 38.3503C73.1829 38.3503 75.3496 36.0795 75.3496 32.7818C75.3496 29.513 73.1829 27.2133 70.1552 27.2133C67.1276 27.2133 64.9609 29.4841 64.9609 32.7818C64.9609 36.0795 67.1419 38.3503 70.1552 38.3503ZM56.6671 32.7963C56.6671 25.0727 62.3063 19.5187 70.1552 19.5187C77.9754 19.5187 83.6433 25.0727 83.6433 32.7963C83.6433 40.4909 77.9754 46.0739 70.1552 46.0739C62.3207 46.0594 56.6671 40.4909 56.6671 32.7963Z" fill="white"/>
<path fill-rule="evenodd" clip-rule="evenodd" d="M96.7439 46.0594C90.1864 46.0594 86.1974 42.4724 86.1256 37.0775H94.1037C94.1037 38.8999 95.3234 39.7388 96.9017 39.7388C98.1071 39.7388 99.2693 39.1024 99.2693 37.8151C99.2693 36.3832 97.447 35.9638 95.1368 35.5733C91.4061 34.9513 86.47 33.7798 86.47 27.734C86.47 22.7441 90.5738 19.5187 96.7439 19.5187C102.871 19.5187 106.831 22.8887 106.932 27.9365H99.1689C99.1689 26.3455 98.1358 25.6079 96.6291 25.6079C95.2947 25.6079 94.405 26.2876 94.405 27.4447C94.405 28.8622 96.2417 29.1948 98.5232 29.6143C102.326 30.3085 107.377 31.133 107.377 37.4535C107.377 42.6604 103.144 46.0594 96.7439 46.0594Z" fill="white"/>
<path fill-rule="evenodd" clip-rule="evenodd" d="M127.25 37.7281V45.2492H121.554C116.23 45.2492 113.002 41.8792 113.002 36.3396V26.9383H108.596V24.9423L119.372 13.0532H121.08V20.3284H127.121V26.9383H121.281V34.8643C121.281 36.6434 122.314 37.7281 124.065 37.7281H127.25Z" fill="white"/>
<path fill-rule="evenodd" clip-rule="evenodd" d="M156.608 20.3297L146.521 44.1368C143.278 51.7591 140.293 54.5217 134.094 54.5217H131.253V47.1452H133.535C136.706 47.1452 137.667 46.2919 138.786 43.1967L128.843 20.3297H137.839L142.948 34.0557L147.712 20.3297H156.608Z" fill="white"/>
</g>
<defs>
<clipPath id="clip0_216_44">
<rect width="156.636" height="56.4915" fill="white" transform="translate(0.0890503 0.881348)"/>
</clipPath>
</defs>
</svg>
