<svg width="239" height="65" viewBox="0 0 239 65" fill="none" xmlns="http://www.w3.org/2000/svg">
<path d="M101.561 36.3395C101.561 35.7168 101.493 35.2239 101.358 34.8606C101.223 34.4974 101 34.2224 100.689 34.0356C100.378 33.8488 99.9678 33.7294 99.4592 33.6776C98.9559 33.6257 98.3306 33.5997 97.5834 33.5997H94.0887C93.4245 33.5997 92.8641 33.6205 92.4074 33.662C91.956 33.6983 91.5824 33.7761 91.2866 33.8955C90.9908 34.0148 90.7625 34.1861 90.6017 34.4092C90.4408 34.6323 90.3241 34.9281 90.2514 35.2965C90.1788 35.6649 90.1373 36.119 90.1269 36.6586C90.1165 37.1931 90.1113 37.8339 90.1113 38.5811C90.1113 39.3284 90.1165 39.9718 90.1269 40.5114C90.1424 41.0459 90.1865 41.4973 90.2592 41.8658C90.3318 42.2342 90.446 42.5299 90.6017 42.7531C90.7625 42.9762 90.9908 43.1474 91.2866 43.2668C91.5824 43.3861 91.956 43.4666 92.4074 43.5081C92.8641 43.5444 93.4245 43.5626 94.0887 43.5626H97.5834C98.1646 43.5626 98.6653 43.547 99.0856 43.5159C99.5059 43.4847 99.864 43.4276 100.16 43.3446C100.456 43.2616 100.694 43.1474 100.876 43.0021C101.057 42.8569 101.198 42.6752 101.296 42.4573C101.4 42.2342 101.47 41.9695 101.506 41.6634C101.543 41.352 101.561 40.9888 101.561 40.5737H103.055C103.055 41.0718 103.024 41.5233 102.962 41.928C102.9 42.3276 102.788 42.6856 102.627 43.0021C102.471 43.3135 102.261 43.5833 101.997 43.8116C101.732 44.0399 101.397 44.2293 100.993 44.3798C100.588 44.5251 100.105 44.6315 99.5449 44.6989C98.9844 44.7716 98.3306 44.8079 97.5834 44.8079H94.0887C93.1754 44.8079 92.4048 44.7508 91.777 44.6367C91.1543 44.5277 90.6406 44.3617 90.2358 44.1385C89.8311 43.9102 89.5172 43.6248 89.294 43.2823C89.0761 42.9399 88.9152 42.5377 88.8115 42.0759C88.7129 41.6141 88.6558 41.0926 88.6402 40.5114C88.6247 39.9303 88.6169 39.2868 88.6169 38.5811C88.6169 37.8754 88.6247 37.232 88.6402 36.6508C88.6558 36.0697 88.7129 35.5482 88.8115 35.0864C88.9152 34.6245 89.0761 34.2224 89.294 33.8799C89.5172 33.5375 89.8311 33.2547 90.2358 33.0315C90.6406 32.8032 91.1543 32.6346 91.777 32.5256C92.4048 32.4114 93.1754 32.3544 94.0887 32.3544H97.5834C98.3306 32.3544 98.9844 32.3907 99.5449 32.4633C100.105 32.5308 100.588 32.6372 100.993 32.7825C101.397 32.9226 101.732 33.1016 101.997 33.3195C102.261 33.5375 102.471 33.7943 102.627 34.0901C102.788 34.3859 102.9 34.7205 102.962 35.0941C103.024 35.4678 103.055 35.8829 103.055 36.3395H101.561Z" fill="white"/>
<path d="M118.007 32.6034H119.502V44.5588H118.007V39.0793H107.048V44.5588H105.554V32.6034H107.048V37.8339H118.007V32.6034Z" fill="white"/>
<path d="M122.49 32.6034H123.985V44.5588H122.49V32.6034Z" fill="white"/>
<path d="M139.42 36.3395C139.42 35.7168 139.352 35.2239 139.217 34.8606C139.082 34.4974 138.859 34.2224 138.548 34.0356C138.236 33.8488 137.827 33.7294 137.318 33.6776C136.815 33.6257 136.189 33.5997 135.442 33.5997H131.947C131.283 33.5997 130.723 33.6205 130.266 33.662C129.815 33.6983 129.441 33.7761 129.145 33.8955C128.85 34.0148 128.621 34.1861 128.46 34.4092C128.3 34.6323 128.183 34.9281 128.11 35.2965C128.038 35.6649 127.996 36.119 127.986 36.6586C127.975 37.1931 127.97 37.8339 127.97 38.5811C127.97 39.3284 127.975 39.9718 127.986 40.5114C128.001 41.0459 128.045 41.4973 128.118 41.8658C128.191 42.2342 128.305 42.5299 128.46 42.7531C128.621 42.9762 128.85 43.1474 129.145 43.2668C129.441 43.3861 129.815 43.4666 130.266 43.5081C130.723 43.5444 131.283 43.5626 131.947 43.5626H135.442C136.023 43.5626 136.524 43.547 136.944 43.5159C137.365 43.4847 137.723 43.4276 138.018 43.3446C138.314 43.2616 138.553 43.1474 138.735 43.0021C138.916 42.8569 139.056 42.6752 139.155 42.4573C139.259 42.2342 139.329 41.9695 139.365 41.6634C139.401 41.352 139.42 40.9888 139.42 40.5737H140.914C140.914 41.0718 140.883 41.5233 140.821 41.928C140.758 42.3276 140.647 42.6856 140.486 43.0021C140.33 43.3135 140.12 43.5833 139.855 43.8116C139.591 44.0399 139.256 44.2293 138.851 44.3798C138.447 44.5251 137.964 44.6315 137.404 44.6989C136.843 44.7716 136.189 44.8079 135.442 44.8079H131.947C131.034 44.8079 130.264 44.7508 129.636 44.6367C129.013 44.5277 128.499 44.3617 128.095 44.1385C127.69 43.9102 127.376 43.6248 127.153 43.2823C126.935 42.9399 126.774 42.5377 126.67 42.0759C126.572 41.6141 126.515 41.0926 126.499 40.5114C126.483 39.9303 126.476 39.2868 126.476 38.5811C126.476 37.8754 126.483 37.232 126.499 36.6508C126.515 36.0697 126.572 35.5482 126.67 35.0864C126.774 34.6245 126.935 34.2224 127.153 33.8799C127.376 33.5375 127.69 33.2547 128.095 33.0315C128.499 32.8032 129.013 32.6346 129.636 32.5256C130.264 32.4114 131.034 32.3544 131.947 32.3544H135.442C136.189 32.3544 136.843 32.3907 137.404 32.4633C137.964 32.5308 138.447 32.6372 138.851 32.7825C139.256 32.9226 139.591 33.1016 139.855 33.3195C140.12 33.5375 140.33 33.7943 140.486 34.0901C140.647 34.3859 140.758 34.7205 140.821 35.0941C140.883 35.4678 140.914 35.8829 140.914 36.3395H139.42Z" fill="white"/>
<path d="M154.621 32.6034H156.862L148.394 38.4566L157.111 44.5588H154.87L146.899 39.0793H144.907V44.5588H143.412V32.6034H144.907V37.8339H146.899L154.621 32.6034Z" fill="white"/>
<path d="M159.104 44.5588V32.6034H171.059V33.8488H160.598V37.8339H170.561V39.0793H160.598V43.3135H171.059V44.5588H159.104Z" fill="white"/>
<path d="M174.546 44.5588H173.052V32.6034H175.675L186.634 43.0644V32.6034H188.128V44.5588H186.136L174.546 33.8488V44.5588Z" fill="white"/>
<path d="M191.125 44.5588V32.6034H202.582V33.8488H192.619V37.8339H202.084V39.0793H192.619V44.5588H191.125Z" fill="white"/>
<path d="M204.575 32.6034H206.069V44.5588H204.575V32.6034Z" fill="white"/>
<path d="M216.593 37.8339C217.412 37.8339 218.115 37.8677 218.702 37.9351C219.288 38.0026 219.781 38.1038 220.181 38.2387C220.585 38.3684 220.907 38.5318 221.146 38.729C221.385 38.9262 221.569 39.1519 221.698 39.4062C221.828 39.6553 221.911 39.9355 221.948 40.2468C221.989 40.5581 222.01 40.8954 222.01 41.2586C222.01 41.6219 221.976 41.9643 221.909 42.2861C221.846 42.6026 221.732 42.8932 221.566 43.1578C221.4 43.4225 221.174 43.6585 220.889 43.8661C220.604 44.0737 220.24 44.2501 219.799 44.3954C219.358 44.5407 218.826 44.6496 218.204 44.7223C217.586 44.8001 216.862 44.839 216.032 44.839H214.04C213.292 44.839 212.639 44.8105 212.078 44.7534C211.518 44.6963 211.035 44.6107 210.63 44.4966C210.226 44.3772 209.891 44.2293 209.626 44.0529C209.362 43.8713 209.149 43.6611 208.988 43.4225C208.832 43.1786 208.723 42.9036 208.661 42.5974C208.599 42.2861 208.568 41.9436 208.568 41.57H210.062C210.062 42.037 210.13 42.4028 210.265 42.6675C210.399 42.9321 210.623 43.1319 210.934 43.2668C211.245 43.3965 211.653 43.4795 212.156 43.5159C212.664 43.547 213.292 43.5626 214.04 43.5626H216.032C216.904 43.5626 217.628 43.521 218.204 43.438C218.78 43.355 219.239 43.2227 219.581 43.0411C219.924 42.8594 220.165 42.6233 220.305 42.3328C220.445 42.037 220.515 41.679 220.515 41.2586C220.515 40.8383 220.466 40.4881 220.367 40.2079C220.274 39.9277 220.085 39.7046 219.799 39.5385C219.519 39.3725 219.122 39.2557 218.608 39.1882C218.095 39.1156 217.423 39.0793 216.593 39.0793H214.538C213.624 39.0793 212.841 39.0456 212.187 38.9781C211.538 38.9106 210.994 38.8146 210.553 38.6901C210.111 38.5604 209.759 38.4021 209.494 38.2153C209.229 38.0233 209.027 37.8054 208.887 37.5615C208.752 37.3176 208.664 37.0478 208.622 36.752C208.581 36.4511 208.56 36.1268 208.56 35.7791C208.56 35.4159 208.591 35.0786 208.653 34.7672C208.721 34.4559 208.843 34.1757 209.019 33.9266C209.196 33.6724 209.437 33.4466 209.743 33.2495C210.049 33.0523 210.441 32.8888 210.918 32.7591C211.401 32.6242 211.98 32.523 212.654 32.4556C213.329 32.3881 214.123 32.3544 215.036 32.3544H216.53C217.277 32.3544 217.931 32.3829 218.492 32.44C219.052 32.4919 219.535 32.5775 219.939 32.6968C220.344 32.811 220.679 32.9563 220.943 33.1327C221.213 33.304 221.426 33.5115 221.582 33.7554C221.743 33.9941 221.854 34.2665 221.916 34.5727C221.979 34.8788 222.01 35.2187 222.01 35.5923H220.515C220.515 35.1253 220.448 34.7595 220.313 34.4948C220.178 34.2302 219.955 34.033 219.644 33.9033C219.332 33.7684 218.922 33.6853 218.414 33.6542C217.905 33.6179 217.277 33.5997 216.53 33.5997H215.036C214.04 33.5997 213.22 33.636 212.576 33.7087C211.933 33.7761 211.424 33.8929 211.051 34.0589C210.677 34.225 210.418 34.4481 210.272 34.7283C210.127 35.0085 210.054 35.3588 210.054 35.7791C210.054 36.0385 210.073 36.2695 210.109 36.4718C210.145 36.6742 210.218 36.8532 210.327 37.0089C210.441 37.1594 210.599 37.2865 210.802 37.3903C211.004 37.494 211.271 37.5797 211.603 37.6471C211.935 37.7146 212.34 37.7639 212.818 37.795C213.3 37.821 213.873 37.8339 214.538 37.8339H216.593Z" fill="white"/>
<path d="M236.954 32.6034H238.448V44.5588H236.954V39.0793H225.995V44.5588H224.501V32.6034H225.995V37.8339H236.954V32.6034Z" fill="white"/>
<path d="M32.7581 62.8043C31.4538 57.7545 32.2147 53.5101 32.7581 49.1266L35.4755 50.1797V53.3359C35.6567 54.7386 35.9103 57.6492 35.4755 58.0701C35.0407 58.4909 34.2074 56.8427 33.8451 55.966C34.0262 60.3495 34.0625 67.8541 32.7581 62.8043Z" fill="white"/>
<path fill-rule="evenodd" clip-rule="evenodd" d="M64.949 10.5046L63.9923 12.5376C63.1163 14.3991 62.7922 15.7275 62.712 16.7694C62.632 17.8091 62.7872 18.6354 62.9849 19.5673C62.9971 19.6248 63.0095 19.6828 63.022 19.7414C63.211 20.6263 63.4284 21.6438 63.39 22.8798C63.3586 23.8902 63.1601 25.0111 62.6947 26.3422C63.6816 26.6926 64.5173 27.3458 65.2252 28.0966C66.2747 29.2097 67.1665 30.6678 67.9675 32.041C68.1097 32.2847 68.2489 32.5255 68.386 32.7626C69.0488 33.9092 69.6612 34.9687 70.3105 35.8418C71.1093 36.9161 71.7866 37.4539 72.3958 37.5893L76.4462 38.4893L72.5099 39.8014C68.4867 41.1425 65.0754 39.3342 62.3833 37.0609C61.0301 35.9181 59.795 34.6063 58.6955 33.4133C58.5646 33.2713 58.4361 33.1315 58.3097 32.994C57.3506 31.9507 56.5198 31.0469 55.7599 30.382L55.4701 30.1284L55.3916 29.7515C54.9778 27.7653 54.7448 23.5824 55.5643 19.6843C56.3695 15.8548 58.329 11.7459 62.7406 10.9187L64.949 10.5046ZM57.5744 28.9231C58.3489 29.6389 59.1688 30.5314 60.0014 31.4377C60.1292 31.5768 60.2573 31.7163 60.3857 31.8556C61.4841 33.0473 62.6337 34.2639 63.8663 35.3047C65.5256 36.7059 67.2231 37.6977 69.0254 37.9137C68.8285 37.6861 68.6424 37.4505 68.466 37.2133C67.7297 36.2231 67.036 35.0219 66.3738 33.8752C66.242 33.647 66.1115 33.4209 65.9821 33.1991C65.1742 31.8142 64.3996 30.5715 63.5528 29.6734C62.7151 28.7849 61.9336 28.3678 61.1136 28.3678H59.3564L60.0607 26.7579C60.8192 25.0242 61.0621 23.7897 61.0926 22.8085C61.1221 21.8582 60.9582 21.0874 60.7639 20.1739C60.7548 20.131 60.7456 20.0878 60.7364 20.0443C60.5318 19.0799 60.3135 17.9812 60.4203 16.5931C60.4757 15.8729 60.6164 15.0944 60.874 14.2255C59.3225 15.4612 58.3517 17.5982 57.8137 20.1572C57.1118 23.4953 57.2639 27.0865 57.5744 28.9231Z" fill="white"/>
<path fill-rule="evenodd" clip-rule="evenodd" d="M25.0768 50.0288L25.3718 50.3977C26.0328 51.2245 27.6572 53.3669 28.889 55.3547C29.2944 56.0088 29.3652 56.6832 29.1622 57.3144C28.9701 57.912 28.5534 58.4091 28.0985 58.8051C27.2232 59.5671 26.0149 60.1203 25.1445 60.4158C24.9497 60.536 24.7282 60.5978 24.5534 60.6341C24.3118 60.6842 24.038 60.7087 23.7598 60.7117C23.2093 60.7175 22.5614 60.6396 22.0098 60.4418C20.938 60.0574 20.2444 59.3924 19.8931 58.5368C19.5541 57.7111 19.5666 56.7878 19.7275 55.9184C20.0479 54.1881 21.0133 52.3867 21.6464 51.2969L21.7807 51.0657L25.0768 50.0288ZM24.9301 59.0284C25.6711 58.7532 26.5692 58.308 27.1929 57.765C27.5493 57.4547 27.7642 57.1572 27.8493 56.8923C27.9237 56.661 27.9175 56.4051 27.7168 56.0812C26.6776 54.4043 25.3379 52.5972 24.5858 51.629L22.7063 52.2203C22.0951 53.295 21.338 54.7957 21.0836 56.1695C20.9478 56.9028 20.9698 57.5279 21.1689 58.0129C21.3557 58.468 21.729 58.876 22.4753 59.1436C22.6783 59.2164 22.9186 59.2686 23.1669 59.2995C22.5728 58.6344 22.2394 57.9031 22.1126 57.1487C21.9177 55.9898 22.2259 54.8715 22.6378 53.9854C22.7984 53.6401 23.2085 53.4903 23.5538 53.6508C23.8992 53.8113 24.049 54.2214 23.8884 54.5668C23.5427 55.3106 23.3407 56.1356 23.4726 56.92C23.5889 57.6117 23.9777 58.3518 24.9301 59.0284Z" fill="white"/>
<path fill-rule="evenodd" clip-rule="evenodd" d="M13.6943 44.7371C16.9948 44.7371 19.6705 42.0615 19.6705 38.7609C19.6705 35.4604 16.9948 32.7848 13.6943 32.7848C10.3938 32.7848 7.71813 35.4604 7.71813 38.7609C7.71813 42.0615 10.3938 44.7371 13.6943 44.7371ZM13.6943 46.1162C17.7565 46.1162 21.0496 42.8231 21.0496 38.7609C21.0496 34.6987 17.7565 31.4056 13.6943 31.4056C9.63209 31.4056 6.33902 34.6987 6.33902 38.7609C6.33902 42.8231 9.63209 46.1162 13.6943 46.1162Z" fill="white"/>
<path d="M12.3813 35.6682C12.3813 36.2934 11.8744 36.8003 11.2492 36.8003C10.6239 36.8003 10.117 36.2934 10.117 35.6682C10.117 35.0429 10.6239 34.536 11.2492 34.536C11.8744 34.536 12.3813 35.0429 12.3813 35.6682Z" fill="white"/>
<path d="M42.871 60.9645C41.5667 55.9147 42.3275 45.8852 42.871 41.5017L44.909 44.7196L45.5884 51.4961C45.7695 52.8988 46.0232 55.8095 45.5884 56.2303C45.1536 56.6511 44.3203 55.0029 43.958 54.1262C44.1391 58.5097 44.1753 66.0143 42.871 60.9645Z" fill="white"/>
<path fill-rule="evenodd" clip-rule="evenodd" d="M23.2374 46.1051L15.4889 44.3309L14.7074 53.3637L26.7648 50.8965L26.7643 50.8959L26.8568 50.877L26.1046 49.9998L23.2374 46.1051ZM21.7424 47.1776L16.7262 46.0291L16.2899 51.0722L21.7424 47.1776ZM24.2844 49.9957L18.518 51.1756L22.7215 48.173L24.2844 49.9957Z" fill="white"/>
<path fill-rule="evenodd" clip-rule="evenodd" d="M15.9749 13.9547C20.5052 13.8432 24.9268 15.2465 27.1396 16.3918L26.7679 17.9541C26.7483 17.9543 26.7282 17.9545 26.7076 17.9547C25.9534 17.9623 24.5254 17.9766 23.1439 18.3959C21.7355 18.8234 20.5177 19.6241 20.0408 21.1476C18.8242 25.034 17.4234 27.2549 15.9479 28.6092C14.616 29.8318 13.2707 30.2932 12.2049 30.6587C12.0877 30.6989 11.974 30.7379 11.8639 30.7766C9.29774 31.6805 6.69636 30.255 5.11429 28.2662C3.52405 26.2671 2.68287 23.3631 3.95773 20.8838C3.95777 20.8837 3.95776 20.8837 3.9578 20.8837M15.9749 13.9547C11.4188 14.067 6.60718 15.7279 3.9578 20.8837L15.9749 13.9547ZM16.0157 15.6092C11.8232 15.7124 7.70694 17.2085 5.42966 21.6403L5.42954 21.6405C4.55457 23.342 5.06337 25.5438 6.40943 27.2359C7.76369 28.9384 9.68497 29.7895 11.3142 29.2157C11.4304 29.1748 11.5461 29.1348 11.6615 29.0949C12.7262 28.7271 13.7621 28.3691 14.8288 27.39C16.0139 26.3022 17.2948 24.3799 18.4614 20.6532C19.1658 18.403 20.976 17.3244 22.6633 16.8123C22.8668 16.7505 23.0707 16.6962 23.273 16.6486C21.2096 16.0269 18.6261 15.5449 16.0157 15.6092Z" fill="white"/>
<path fill-rule="evenodd" clip-rule="evenodd" d="M8.65899 15.7347C11.1545 13.8129 14.8425 13.6475 18.1179 13.9986C20.889 14.2956 23.5504 14.9845 25.3312 15.5066C25.3115 15.071 25.309 14.5914 25.3163 14.0955C25.3331 12.9475 25.4063 11.5986 25.4955 10.2606C25.5418 9.56489 25.4016 9.0987 25.2125 8.79174C25.0238 8.48539 24.7522 8.28151 24.4366 8.16419C23.7464 7.90762 22.9921 8.10306 22.683 8.41219C22.07 9.02521 21.7943 10.0606 22.3068 11.598L23.1186 14.0335L21.0374 12.5306C18.355 10.5935 16.7371 10.2678 16.116 10.1427C16.0784 10.1352 16.0445 10.1284 16.0143 10.122C15.282 9.96706 13.9194 9.75338 12.5281 9.89574C11.1312 10.0387 9.83932 10.5235 9.04289 11.6336C7.96914 13.1303 7.82835 14.1866 7.9675 14.8078C8.06828 15.2577 8.33225 15.5662 8.65899 15.7347ZM6.35258 15.1695C6.07192 13.9165 6.47176 12.3784 7.69821 10.6689C8.88563 9.01376 10.7305 8.41609 12.3596 8.2494C13.9944 8.08213 15.5474 8.33166 16.3567 8.50284C16.3879 8.50943 16.4217 8.51639 16.4583 8.52391C17.0539 8.64641 18.366 8.91626 20.3856 10.119C20.3841 8.99995 20.7498 8.00496 21.5128 7.24197C22.3559 6.39891 23.8243 6.17103 25.0132 6.61297C25.6372 6.8449 26.2192 7.27074 26.6215 7.92369C27.0234 8.57602 27.2115 9.3987 27.1468 10.3706C27.0582 11.7007 26.9872 13.0155 26.971 14.1198C26.9543 15.2599 26.9994 16.0704 27.1003 16.4568L27.4772 17.9015L26.0524 17.4554C24.4743 16.9614 21.275 16.0014 17.9415 15.6441C14.5481 15.2804 11.3014 15.5749 9.38101 17.2841L9.06871 17.562L8.65967 17.4755C7.59428 17.2502 6.63811 16.4443 6.35258 15.1695Z" fill="white"/>
<path fill-rule="evenodd" clip-rule="evenodd" d="M30.0559 43.8004C33.6902 43.8004 36.4917 41.0472 36.4917 37.8243C36.4917 34.6013 33.6902 31.8481 30.0559 31.8481C26.4215 31.8481 23.62 34.6013 23.62 37.8243C23.62 41.0472 26.4215 43.8004 30.0559 43.8004ZM30.0559 45.1795C34.372 45.1795 37.8708 41.8865 37.8708 37.8243C37.8708 33.7621 34.372 30.469 30.0559 30.469C25.7398 30.469 22.2409 33.7621 22.2409 37.8243C22.2409 41.8865 25.7398 45.1795 30.0559 45.1795Z" fill="white"/>
<path d="M34.3903 40.6502C34.3903 41.5756 33.6401 42.3257 32.7147 42.3257C31.7893 42.3257 31.0392 41.5756 31.0392 40.6502C31.0392 39.7248 31.7893 38.9746 32.7147 38.9746C33.6401 38.9746 34.3903 39.7248 34.3903 40.6502Z" fill="white"/>
<path fill-rule="evenodd" clip-rule="evenodd" d="M41.3879 24.4959C40.4947 23.5248 39.4051 23.1324 38.5909 22.9179L38.9892 21.4065C39.9195 21.6516 41.3488 22.1446 42.5383 23.4378C43.6835 24.6829 44.5267 26.581 44.6035 29.4732C46.8019 30.9127 47.7456 32.6493 48.1022 34.293C48.3734 35.5428 48.2941 36.7926 48.2416 37.6212C48.2255 37.8755 48.2118 38.09 48.2116 38.2528L46.6487 38.2509C46.649 37.9537 46.6684 37.6458 46.6886 37.3244C46.739 36.5234 46.7947 35.6382 46.5748 34.6244C46.2884 33.3044 45.5155 31.8355 43.425 30.5787L43.0462 30.3509L43.0462 29.9089C43.0462 27.0716 42.2688 25.4537 41.3879 24.4959Z" fill="white"/>
<path fill-rule="evenodd" clip-rule="evenodd" d="M46.7527 28.3212C47.1801 26.781 46.5741 25.8084 46.1374 25.4706L47.0936 24.2343C47.9653 24.9084 48.6958 26.3137 48.3903 28.1476C49.1772 28.6854 49.7057 29.3952 50.0458 30.072C50.4509 30.8782 50.6136 31.6864 50.615 32.2056L49.052 32.2099C49.0513 31.9531 48.955 31.3823 48.6492 30.7737C48.3497 30.1777 47.8743 29.594 47.1517 29.2268L46.5818 28.9371L46.7527 28.3212Z" fill="white"/>
<path fill-rule="evenodd" clip-rule="evenodd" d="M34.1472 7.48108L37.8387 12.2272L42.9085 11.7663L45.8067 15.6305L49.668 16.5959L52.1809 23.1295L50.3352 24.3925C48.8171 23.0124 45.241 21.0158 40.8916 19.5939C36.555 18.1761 31.6668 17.4023 27.5323 18.2637L24.2003 18.9578L34.1472 7.48108ZM30.1247 15.6318C33.9827 15.4426 38.0462 16.2454 41.6059 17.4091C44.2841 18.2848 46.7537 19.3904 48.7057 20.497L47.9515 18.536L44.4575 17.6625L41.8393 14.1715L36.7956 14.63L34.0512 11.1014L30.1247 15.6318Z" fill="white"/>
<path fill-rule="evenodd" clip-rule="evenodd" d="M14.5822 30.3441C15.0618 27.1505 16.1506 24.0842 18.197 21.5507C20.2844 18.9664 23.3057 17.0146 27.4909 16.0184L27.5423 16.0062L27.5946 15.9987C34.328 15.0376 40.7246 16.8058 45.8849 19.3807C51.0344 21.9501 55.0565 25.3742 57.0617 27.8798L57.4803 28.4029L57.2314 29.0249C55.3111 33.824 51.9564 40.2991 45.742 44.9627C44.872 45.6156 43.9487 46.231 42.9686 46.8003C42.2952 47.5656 41.4519 48.1476 40.4646 48.5292C38.3959 49.5906 34.7334 50.7542 30.8936 51.261C28.3501 51.5967 25.6021 51.6617 23.1361 51.1422C23.0187 51.1175 22.902 51.0914 22.786 51.064L24.9435 50.6325L23.6976 48.4967C23.9135 48.5114 24.1279 48.5245 24.3409 48.5359C31.5752 48.9243 37.1432 47.4308 41.4582 45.0155C41.9 44.4202 42.2193 43.6562 42.3839 42.6989C42.7413 40.6209 42.3577 37.6319 40.7666 33.6543C38.9779 29.1825 37.039 26.7978 34.8131 25.4825C32.564 24.1535 29.8409 23.8035 26.2037 23.8035C25.0439 23.8035 23.6548 23.8065 22.2834 24.0702C20.9611 24.3245 19.7509 24.8049 18.8331 25.6763C17.8908 27.2231 17.2417 28.9561 16.8438 30.7621L16.8366 30.8121C16.7387 31.4893 16.6698 32.1774 16.6267 32.8725C16.0226 32.669 15.3756 32.5588 14.7029 32.5588C14.5384 32.5588 14.3753 32.5654 14.2141 32.5783C14.3005 31.8304 14.4222 31.0835 14.5822 30.3441ZM15.407 44.5663C15.4528 44.7827 15.4994 44.9973 15.5467 45.2101C15.7821 46.2697 16.0346 47.2833 16.2896 48.2347L16.5097 45.8132L19.2531 46.3358C18.8058 45.7447 18.372 45.0443 18.0156 44.3065C17.9225 44.1138 17.8462 43.9357 17.7803 43.7628C17.0704 44.1854 16.2663 44.4663 15.407 44.5663ZM20.8287 22.0537C22.5111 20.3606 24.8199 19.0254 27.9718 18.2668C34.0914 17.4071 39.991 19.0086 44.8587 21.4374C49.3865 23.6967 52.9322 26.6276 54.8388 28.8054C52.99 33.2565 49.9511 38.7989 44.6828 42.88C45.0788 40.2455 44.5283 36.8694 42.9007 32.8007C41.0118 28.0783 38.8134 25.1765 35.9825 23.5037C33.1748 21.8446 29.9218 21.505 26.2037 21.505L26.1723 21.505H26.1723C25.0357 21.505 23.4512 21.505 21.8494 21.813C21.5128 21.8777 21.1711 21.9568 20.8287 22.0537Z" fill="white"/>
</svg>
