<svg width="213" height="46" viewBox="0 0 213 46" fill="none" xmlns="http://www.w3.org/2000/svg">
<g clip-path="url(#clip0_204_11)">
<path d="M38.2376 14.5162C37.325 13.9461 36.1385 13.9461 35.1347 14.5162L28.0161 18.8862L23.1791 21.7363L16.0606 26.1065C15.148 26.6765 13.9616 26.6765 12.9577 26.1065L7.29935 22.6864C6.38672 22.1164 5.74787 21.0714 5.74787 19.9313V13.1861C5.74787 12.0461 6.29545 11.001 7.29935 10.431L12.8664 7.10591C13.779 6.53589 14.9654 6.53589 15.9694 7.10591L21.5364 10.431C22.449 11.001 23.0879 12.0461 23.0879 13.1861V17.5562L27.9248 14.6111V10.241C27.9248 9.10097 27.3773 8.05595 26.3734 7.48593L16.0606 1.21572C15.148 0.645703 13.9616 0.645703 12.9577 1.21572L2.4624 7.48593C1.4585 8.05595 0.910919 9.10097 0.910919 10.241V22.8764C0.910919 24.0164 1.4585 25.0615 2.4624 25.6315L12.9577 31.9016C13.8703 32.4718 15.0568 32.4718 16.0606 31.9016L23.1791 27.6265L28.0161 24.6815L35.1347 20.4063C36.0473 19.8363 37.2337 19.8363 38.2376 20.4063L43.8046 23.7315C44.7173 24.3015 45.3562 25.3465 45.3562 26.4865V33.2318C45.3562 34.3717 44.8086 35.4168 43.8046 35.9868L38.2376 39.407C37.325 39.977 36.1385 39.977 35.1347 39.407L29.5676 36.0819C28.6549 35.5119 28.0161 34.4668 28.0161 33.3267V28.9566L23.1791 31.9016V36.2718C23.1791 37.4118 23.7267 38.4569 24.7307 39.0269L35.2259 45.2972C36.1385 45.8672 37.325 45.8672 38.3288 45.2972L48.8242 39.0269C49.7368 38.4569 50.3756 37.4118 50.3756 36.2718V23.6364C50.3756 22.4964 49.828 21.4514 48.8242 20.8814L38.2376 14.5162Z" fill="white"/>
<path d="M69.6452 41.6838V31.194C70.7581 32.6263 72.7779 33.4268 75.1275 33.4268C81.1044 33.4268 85.1441 29.0876 85.1441 22.4735C85.1441 15.8594 81.4342 11.5203 75.6221 11.5203C72.9428 11.5203 70.8818 12.5313 69.6452 14.1743V11.8573H63.9155V41.6838H69.6452ZM74.4268 28.3714C71.3352 28.3714 69.3154 26.0123 69.3154 22.4735C69.3154 18.8926 71.3352 16.5335 74.4268 16.5335C77.4358 16.5335 79.4969 18.8926 79.4969 22.4735C79.4969 26.0123 77.4358 28.3714 74.4268 28.3714Z" fill="white"/>
<path d="M98.1546 33.4268C104.544 33.4268 109.119 28.7927 109.119 22.4735C109.119 16.1543 104.544 11.5203 98.1546 11.5203C91.7655 11.5203 87.19 16.1543 87.19 22.4735C87.19 28.7927 91.7655 33.4268 98.1546 33.4268ZM98.1546 28.3714C95.0631 28.3714 92.9609 25.9701 92.9609 22.4735C92.9609 18.9348 95.0631 16.5335 98.1546 16.5335C101.246 16.5335 103.349 18.9348 103.349 22.4735C103.349 25.9701 101.246 28.3714 98.1546 28.3714Z" fill="white"/>
<path d="M118.313 33.0897V2.63123H112.583V33.0897H118.313Z" fill="white"/>
<path d="M135.536 11.8572L131.208 25.5487L126.839 11.8572H120.985L128.529 32.9211L125.478 41.6837H130.961L133.887 33.0054L141.431 11.8572H135.536Z" fill="white"/>
<path d="M157.523 13.9637C156.368 12.4892 154.308 11.5203 151.793 11.5203C145.733 11.5203 142.065 15.8594 142.065 22.4735C142.065 29.0876 145.733 33.4268 151.875 33.4268C154.308 33.4268 156.491 32.5 157.564 30.9412V33.7217C157.564 35.7017 156.286 37.0919 154.554 37.0919H144.991V41.6838H155.461C160.16 41.6838 163.294 38.777 163.294 34.3536V11.8573H157.523V13.9637ZM152.782 28.3714C149.731 28.3714 147.711 26.0544 147.711 22.4735C147.711 18.8926 149.731 16.5335 152.782 16.5335C155.874 16.5335 157.894 18.8926 157.894 22.4735C157.894 26.0544 155.874 28.3714 152.782 28.3714Z" fill="white"/>
<path d="M177.738 33.4268C184.128 33.4268 188.702 28.7927 188.702 22.4735C188.702 16.1543 184.128 11.5203 177.738 11.5203C171.349 11.5203 166.773 16.1543 166.773 22.4735C166.773 28.7927 171.349 33.4268 177.738 33.4268ZM177.738 28.3714C174.646 28.3714 172.544 25.9701 172.544 22.4735C172.544 18.9348 174.646 16.5335 177.738 16.5335C180.83 16.5335 182.931 18.9348 182.931 22.4735C182.931 25.9701 180.83 28.3714 177.738 28.3714Z" fill="white"/>
<path d="M197.608 33.0898V21.4625C197.608 18.7241 199.38 16.7441 201.895 16.7441C204.285 16.7441 205.892 18.5978 205.892 21.1676V33.0898H211.663V19.8616C211.663 14.9748 208.613 11.5203 203.914 11.5203C201.07 11.5203 198.761 12.742 197.608 14.8062V11.8573H191.837V33.0898H197.608Z" fill="white"/>
</g>
<defs>
<clipPath id="clip0_204_11">
<rect width="211.843" height="44.9364" fill="white" transform="translate(0.910919 0.788208)"/>
</clipPath>
</defs>
</svg>
