<svg width="161" height="65" viewBox="0 0 161 65" fill="none" xmlns="http://www.w3.org/2000/svg">
<g clip-path="url(#clip0_0_374)">
<path d="M22.8957 41.1089C22.9222 41.1089 22.9222 41.1089 22.9488 41.1089H27.1223C27.1223 41.4019 27.1223 41.5884 27.1223 41.6417C27.1223 45.9039 27.1223 50.1394 27.1223 54.4016C27.1223 54.6946 27.0161 54.8811 26.7502 55.0143C25.3147 55.7069 24.2513 57.4917 24.5438 59.3829C24.8894 61.594 27.149 63.2722 29.3553 62.8461C31.2959 62.4731 32.5453 61.1412 32.8377 59.1166C33.0238 57.7313 32.3592 55.9199 30.5782 55.0143C30.3389 54.8811 30.206 54.7478 30.206 54.4548C30.206 50.3259 30.206 46.1969 30.206 42.0679C30.206 41.988 30.206 41.6683 30.206 41.1356H35.3631C35.5226 41.1356 35.6821 41.1356 35.8416 41.1089C37.0113 40.9758 38.1012 40.5761 39.0316 39.9635L46.342 44.199C46.5812 44.3588 46.7673 44.492 46.9002 44.5453C47.2724 44.7584 47.4053 44.9716 47.4053 45.3977C47.3521 47.8751 49.5053 49.8997 52.0041 49.6332C54.4764 49.3669 56.2043 46.996 55.646 44.5986C54.9548 41.7216 51.8446 40.4163 49.3458 41.988C49.08 42.1479 48.8939 42.2011 48.6015 42.0412C46.4749 40.7893 44.3483 39.5639 42.195 38.3386C42.1152 38.2852 41.7962 38.0988 41.2115 37.7258C41.8228 36.687 42.195 35.4882 42.195 34.2096C42.195 31.6522 40.8127 29.4412 38.7392 28.2425L38.7657 28.2159C38.7923 28.1892 38.8455 28.1626 38.8987 28.1359C39.8025 27.6298 40.7064 27.0971 41.6101 26.5643L47.618 23.1013C47.9636 22.9148 48.2826 22.7283 48.6281 22.5152C48.8939 22.3553 49.0534 22.3553 49.3193 22.5418C50.2231 23.1545 51.2599 23.341 52.3231 23.1545C54.4233 22.7816 55.9385 20.8902 55.7524 18.6526C55.5397 16.2285 53.1738 14.417 50.808 14.9498C48.7344 15.4027 47.4319 17.0276 47.4319 19.1853C47.4319 19.5583 47.3256 19.7448 47.0066 19.9313C46.1559 20.4107 45.3318 20.8902 44.4812 21.3697L36.7986 25.8183C35.4429 23.4476 33.0238 21.7427 30.206 21.2899C30.206 17.6936 30.206 14.0974 30.206 10.4746C30.206 9.94178 30.3389 9.62211 30.8439 9.32909C32.6516 8.29019 33.3428 6.05255 32.5187 4.13457C31.6946 2.21659 29.5414 1.17769 27.5476 1.79038C25.7135 2.34979 24.7033 3.62844 24.5172 5.51977C24.3843 6.95825 25.0754 8.58321 26.7236 9.48892C26.9895 9.62211 27.149 9.75531 27.149 10.1016C27.149 11.1672 27.149 12.2327 27.149 13.2716L27.202 21.3164C24.7033 21.7427 22.4703 23.1545 21.088 25.179C20.7424 25.259 20.3702 25.3655 20.0513 25.472C16.8878 23.6606 13.751 21.8225 10.5876 20.0378C10.1091 19.7714 9.89647 19.4784 9.97622 18.9456C10.0028 18.7325 9.94964 18.4928 9.89647 18.2797C9.57747 16.2285 7.58374 14.5237 5.16467 14.9232C2.79878 15.3228 1.31012 17.4539 1.68228 19.7448C2.18736 22.675 5.51025 24.1668 8.03566 22.5418C8.32807 22.3553 8.51415 22.3553 8.80656 22.5152C9.41798 22.8615 10.3218 23.3676 11.5446 24.0336L17.1536 27.2834C15.6119 28.7487 14.6548 30.7998 14.6548 33.0641C14.6548 34.8222 15.2397 36.4472 16.1967 37.7524L9.60406 41.5084C9.17872 41.7216 8.85973 41.9081 8.64707 42.0146C8.51415 42.0946 8.22173 42.0679 8.08881 41.988C7.39765 41.5884 6.67991 41.2954 5.909 41.2954C3.27727 41.2155 1.68228 43.3732 1.60253 45.2379C1.4962 47.4223 3.14436 49.6599 5.82925 49.6332C8.16857 49.6067 9.94964 47.742 9.92305 45.3977C9.92305 44.9716 10.0294 44.7318 10.4015 44.5186C12.2092 43.4798 14.8941 41.9347 18.4828 39.8569C19.7589 40.6561 21.274 41.1089 22.8957 41.1089ZM54.1043 23.4209C53.8118 23.6074 53.7055 23.7939 53.7055 24.1401C53.7055 29.5212 53.7055 34.9287 53.7055 40.3098C53.7055 40.6295 53.7853 40.8159 54.0777 41.0024C55.9916 42.1212 56.9486 44.1457 56.6031 46.3034C56.284 48.3546 54.6359 50.0595 52.5092 50.459C51.2865 50.6988 50.0902 50.5123 49.0003 49.8464C48.6812 49.6332 48.442 49.6865 48.1231 49.8464C43.4976 52.5369 38.8721 55.2008 34.22 57.8646C33.9011 58.051 33.7948 58.2375 33.7948 58.6105C33.7948 61.1944 31.801 63.4587 29.3022 63.7251C26.6439 63.9915 24.2779 62.3133 23.7198 59.7293C23.6399 59.3297 23.6133 58.9035 23.5867 58.5039C23.5867 58.2375 23.5071 58.051 23.2678 57.9178C18.5626 55.2008 13.8573 52.4836 9.17872 49.7665C8.91289 49.6066 8.72682 49.6066 8.46098 49.7665C5.40392 51.6045 1.46961 49.8464 0.831619 46.3834C0.432872 44.199 1.31011 42.1479 3.25068 41.0024C3.56968 40.8159 3.7026 40.6295 3.7026 40.2565C3.67602 34.8755 3.7026 29.4678 3.7026 24.0869C3.7026 23.7672 3.62285 23.5808 3.33044 23.3943C1.36328 22.2488 0.459455 20.2776 0.831619 18.0399C1.20378 15.8289 2.9051 14.2039 5.13809 13.8842C6.33433 13.7244 7.4774 13.9376 8.51415 14.5769C8.75339 14.7367 8.93948 14.7367 9.17872 14.5769C13.8573 11.8598 18.5626 9.16926 23.2412 6.45213C23.5337 6.2923 23.6399 6.10583 23.6399 5.75952C23.6399 2.80263 25.9793 0.51172 28.9566 0.564998C31.2693 0.618275 33.4492 2.53626 33.7682 4.80054C33.7948 5.01364 33.8479 5.14684 33.8479 5.43986C33.8479 6.07918 34.0872 6.34557 34.5656 6.61195C39.1113 9.22253 43.6571 11.8598 48.2027 14.4704C48.5217 14.6568 48.7344 14.6568 49.0534 14.4704C52.137 12.7121 55.8587 14.3904 56.6296 17.8801C56.7094 18.1997 56.6828 18.546 56.7094 18.839C56.6296 20.9435 55.7789 22.4087 54.1043 23.4209ZM50.4624 45.4244C50.4624 44.7318 50.9409 44.2523 51.6321 44.2523C52.27 44.2523 52.8282 44.7851 52.8282 45.4244C52.8282 46.037 52.2434 46.6232 51.6321 46.6232C50.9675 46.6232 50.4624 46.0904 50.4624 45.4244ZM27.4679 5.81279C27.4679 5.14684 27.973 4.6407 28.6642 4.6407C29.3288 4.6407 29.8339 5.14684 29.8339 5.81279C29.8339 6.45213 29.2756 7.01153 28.6642 7.01153C28.0262 7.01153 27.4679 6.45213 27.4679 5.81279ZM6.97233 45.4244C6.97233 46.0904 6.44066 46.6232 5.80267 46.6232C5.19126 46.6232 4.60642 46.037 4.60642 45.4244C4.60642 44.8117 5.16467 44.2523 5.80267 44.2523C6.46725 44.2523 6.97233 44.7318 6.97233 45.4244ZM28.6642 57.5183C29.3288 57.5183 29.8339 58.0511 29.8339 58.717C29.8339 59.3829 29.3288 59.8891 28.6376 59.8891C27.973 59.8891 27.4679 59.3564 27.4679 58.6904C27.4945 57.9978 27.9996 57.4917 28.6642 57.5183ZM5.82925 20.1709C5.16467 20.1709 4.63301 19.6648 4.60642 18.9988C4.57984 18.3595 5.11151 17.8002 5.77608 17.8002C6.46725 17.8002 6.94575 18.253 6.97233 18.9723C6.97233 19.6915 6.49383 20.1709 5.82925 20.1709ZM51.6055 20.1709C50.9143 20.1709 50.4624 19.6648 50.4624 18.9723C50.4624 18.2797 50.9409 17.8002 51.6585 17.8002C52.3231 17.8002 52.8548 18.3595 52.8282 18.9988C52.8016 19.6648 52.27 20.1976 51.6055 20.1709ZM22.9488 38.1787C19.9714 38.1787 17.5524 35.8612 17.5524 32.9842C17.5524 30.1338 19.9448 27.8162 22.8957 27.7896C23.8526 25.552 26.1122 23.9803 28.7439 23.9803C32.1997 23.9803 35.0175 26.6975 35.0707 30.0539C37.3835 30.0539 39.2708 31.8654 39.2708 34.1296C39.2708 36.2873 37.5696 38.0454 35.3897 38.1787C35.3631 38.1787 35.3631 38.1787 35.3365 38.1787H22.9754H22.9488ZM155.679 26.6441H149.086V22.1423H155.679H160.224V35.3284C160.224 40.2298 157.353 42.574 153.1 42.574C149.963 42.574 147.916 41.1888 146.533 39.5639L149.326 36.4472C150.468 37.7258 151.584 38.4717 152.993 38.4717C154.668 38.4717 155.679 37.4594 155.679 35.1419V26.6441ZM81.1925 36.314C81.1925 40.3098 78.162 42.5474 73.8289 42.5474C70.7985 42.5474 67.7148 41.4819 65.2958 39.3242L67.9009 36.1808C69.7085 37.6726 71.596 38.6315 73.9087 38.6315C75.7164 38.6315 76.8062 37.9123 76.8062 36.7402V36.687C76.8062 35.5681 76.115 34.9821 72.7657 34.1296C68.725 33.0907 66.1198 31.9719 66.1198 27.9761V27.9229C66.1198 24.2734 69.044 21.8492 73.1643 21.8492C76.0884 21.8492 78.5873 22.7816 80.6342 24.4066L78.3481 27.7364C76.567 26.511 74.8125 25.7651 73.1377 25.7651C71.4365 25.7651 70.5592 26.5376 70.5592 27.5232V27.5766C70.5592 28.9085 71.4099 29.3347 74.8923 30.2138C78.9595 31.2793 81.2722 32.7444 81.2722 36.2607V36.314H81.1925ZM99.9868 26.218H93.8727V42.3077H89.4598V26.218H83.3457V22.1157H99.9868V26.218ZM123.193 32.2117C123.193 37.9389 118.675 42.6274 112.454 42.6274C106.234 42.6274 101.794 37.9922 101.794 32.2649V32.2117C101.794 26.4843 106.314 21.796 112.534 21.796C118.754 21.796 123.193 26.4311 123.193 32.1584V32.2117ZM118.568 32.2649V32.2117C118.568 28.7752 116.043 25.8983 112.481 25.8983C108.919 25.8983 106.446 28.722 106.446 32.1584V32.2117C106.446 35.648 108.972 38.525 112.534 38.525C116.096 38.525 118.568 35.7279 118.568 32.2649ZM144.328 42.3077H139.171L134.863 35.8612H131.381V42.3077H126.968V22.1423H136.14C140.872 22.1423 143.716 24.6462 143.716 28.8019V28.8552C143.716 32.105 141.961 34.1563 139.41 35.1152L144.328 42.3077ZM139.224 29.0949V29.0417C139.224 27.1503 137.895 26.1647 135.768 26.1647H131.381V31.9452H135.848C138 31.9452 139.224 30.7998 139.224 29.0949Z" fill="white"/>
</g>
<defs>
<clipPath id="clip0_0_374">
<rect width="159.611" height="63.7456" fill="white" transform="translate(0.737335 0.564087)"/>
</clipPath>
</defs>
</svg>
