<svg width="209" height="64" viewBox="0 0 209 64" fill="none" xmlns="http://www.w3.org/2000/svg">
<g clip-path="url(#clip0_216_58)">
<path d="M41.3973 25.4235L30.0811 45.1911L18.7649 25.2803H41.3973V25.4235ZM52.7135 18.6911H7.44865L30.0811 58.5127L52.7135 18.6911ZM0 5.5127L3.72432 12.1019H56.2946L60.1622 5.5127H0Z" fill="white"/>
</g>
<path d="M95.533 36.5327L101.993 17.9127H109.403L99.333 44.5127H91.733L81.663 17.9127H89.073L95.533 36.5327ZM132.391 44.5127H111.301V17.9127H132.391V23.2327H118.141V28.3627H129.351V33.6827H118.141V39.1927H132.391V44.5127ZM142.263 39.1927H156.133V44.5127H135.423V17.9127H142.263V39.1927ZM163.551 44.5127H156.141L166.211 17.9127H173.811L183.881 44.5127H176.471L174.761 39.7627H165.261L163.551 44.5127ZM166.971 34.8227H173.051L170.011 25.8927L166.971 34.8227ZM184.982 39.0027C191.923 39.3827 196.623 39.5727 199.08 39.5727C199.663 39.5727 200.119 39.408 200.448 39.0787C200.803 38.724 200.98 38.2554 200.98 37.6727V34.2527H192.24C189.58 34.2527 187.642 33.6574 186.426 32.4667C185.235 31.2507 184.64 29.3127 184.64 26.6527V25.5127C184.64 22.8527 185.235 20.9274 186.426 19.7367C187.642 18.5207 189.58 17.9127 192.24 17.9127H205.578V23.2327H193.76C192.24 23.2327 191.48 23.9927 191.48 25.5127V26.2727C191.48 27.7927 192.24 28.5527 193.76 28.5527H200.6C203.083 28.5527 204.907 29.1354 206.072 30.3007C207.237 31.466 207.82 33.29 207.82 35.7727V37.6727C207.82 40.1554 207.237 41.9794 206.072 43.1447C204.907 44.31 203.083 44.8927 200.6 44.8927C199.308 44.8927 197.94 44.8674 196.496 44.8167L193 44.6647C190.416 44.538 187.743 44.3607 184.982 44.1327V39.0027Z" fill="white"/>
<defs>
<clipPath id="clip0_216_58">
<rect width="60.1622" height="53" fill="white" transform="translate(0 5.5127)"/>
</clipPath>
</defs>
</svg>
