<svg width="378" height="371" fill="none" xmlns="http://www.w3.org/2000/svg"><g filter="url(#filter0_f)"><path fill-rule="evenodd" clip-rule="evenodd" d="M187.476 17.588c-92.652 0-167.76 75.109-167.76 167.76 0 92.652 75.108 167.76 167.76 167.76v2.588c-94.08 0-170.348-76.267-170.348-170.348C17.128 91.268 93.395 15 187.476 15v2.588z" fill="url(#paint0_linear)"/></g><g filter="url(#filter1_f)"><path fill-rule="evenodd" clip-rule="evenodd" d="M188.523 17.588c-92.652 0-164.62 75.108-164.62 167.76 0 92.651 71.968 167.76 164.62 167.76v2.588c-94.08 0-173.488-76.268-173.488-170.348C15.035 91.268 94.442 15 188.523 15v2.588z" fill="url(#paint1_linear)"/></g><g filter="url(#filter2_f)"><path fill-rule="evenodd" clip-rule="evenodd" d="M189.832 17.588c92.651 0 167.76 75.109 167.76 167.76 0 92.652-75.109 167.761-167.76 167.761v2.587c94.08 0 170.348-76.267 170.348-170.348C360.18 91.268 283.912 15 189.832 15v2.588z" fill="url(#paint2_linear)"/></g><g filter="url(#filter3_f)"><path fill-rule="evenodd" clip-rule="evenodd" d="M188.785 17.588c92.651 0 164.62 75.109 164.62 167.76 0 92.652-71.969 167.76-164.62 167.76v2.588c94.08 0 173.487-76.267 173.487-170.348C362.272 91.268 282.865 15 188.785 15v2.588z" fill="url(#paint3_linear)"/></g><defs><linearGradient id="paint0_linear" x1="-.554" y1="185.348" x2="106.399" y2="185.348" gradientUnits="userSpaceOnUse"><stop stop-color="#FFF0DA"/><stop offset=".322" stop-color="#FFE6C0" stop-opacity=".22"/><stop offset="1" stop-color="#FFE6C0" stop-opacity="0"/></linearGradient><linearGradient id="paint1_linear" x1="17.913" y1="185.61" x2="107.446" y2="185.348" gradientUnits="userSpaceOnUse"><stop stop-color="#FFC164"/><stop offset=".322" stop-color="#FFE6C0" stop-opacity="0"/><stop offset="1" stop-color="#FFE6C0" stop-opacity="0"/></linearGradient><linearGradient id="paint2_linear" x1="377.861" y1="185.348" x2="270.909" y2="185.348" gradientUnits="userSpaceOnUse"><stop stop-color="#FFF0DA"/><stop offset=".322" stop-color="#FFE6C0" stop-opacity=".22"/><stop offset="1" stop-color="#FFE6C0" stop-opacity="0"/></linearGradient><linearGradient id="paint3_linear" x1="359.394" y1="185.61" x2="269.862" y2="185.348" gradientUnits="userSpaceOnUse"><stop stop-color="#FFC164"/><stop offset=".322" stop-color="#FFE6C0" stop-opacity="0"/><stop offset="1" stop-color="#FFE6C0" stop-opacity="0"/></linearGradient><filter id="filter0_f" x="12.22" y="10.092" width="180.165" height="350.512" filterUnits="userSpaceOnUse" color-interpolation-filters="sRGB"><feFlood flood-opacity="0" result="BackgroundImageFix"/><feBlend in="SourceGraphic" in2="BackgroundImageFix" result="shape"/><feGaussianBlur stdDeviation="2.454" result="effect1_foregroundBlur"/></filter><filter id="filter1_f" x=".144" y=".109" width="203.27" height="370.477" filterUnits="userSpaceOnUse" color-interpolation-filters="sRGB"><feFlood flood-opacity="0" result="BackgroundImageFix"/><feBlend in="SourceGraphic" in2="BackgroundImageFix" result="shape"/><feGaussianBlur stdDeviation="7.445" result="effect1_foregroundBlur"/></filter><filter id="filter2_f" x="184.924" y="10.092" width="180.165" height="350.512" filterUnits="userSpaceOnUse" color-interpolation-filters="sRGB"><feFlood flood-opacity="0" result="BackgroundImageFix"/><feBlend in="SourceGraphic" in2="BackgroundImageFix" result="shape"/><feGaussianBlur stdDeviation="2.454" result="effect1_foregroundBlur"/></filter><filter id="filter3_f" x="173.893" y=".109" width="203.27" height="370.477" filterUnits="userSpaceOnUse" color-interpolation-filters="sRGB"><feFlood flood-opacity="0" result="BackgroundImageFix"/><feBlend in="SourceGraphic" in2="BackgroundImageFix" result="shape"/><feGaussianBlur stdDeviation="7.445" result="effect1_foregroundBlur"/></filter></defs></svg>