<svg width="442" height="479" fill="none" xmlns="http://www.w3.org/2000/svg"><g opacity=".5"><path d="M196.634 189.035L188.307.489h66.616l-8.327 188.546h-49.962z" fill="url(#paint0_linear)"/><path d="M274.55 242.937L442 329.999l-33.308 57.691-159.123-101.485 24.981-43.268z" fill="url(#paint1_linear)"/><path d="M245.404 289.554l8.327 188.547h-66.615l8.327-188.547h49.961z" fill="url(#paint2_linear)"/><path d="M192.785 286.804L33.663 388.288.355 330.597l167.449-87.062 24.981 43.269z" fill="url(#paint3_linear)"/><path d="M274.55 235.95L442 148.888l-33.308-57.691L249.569 192.68l24.981 43.269z" fill="url(#paint4_linear)"/><path d="M192.785 192.083L33.663 90.598.355 148.29l167.449 87.062 24.981-43.268z" fill="url(#paint5_linear)"/></g><defs><linearGradient id="paint0_linear" x1="221.615" y1=".489" x2="221.615" y2="189.035" gradientUnits="userSpaceOnUse"><stop stop-color="#987B57" stop-opacity="0"/><stop offset="1" stop-color="#987B57" stop-opacity=".75"/></linearGradient><linearGradient id="paint1_linear" x1="425.346" y1="358.844" x2="262.06" y2="264.571" gradientUnits="userSpaceOnUse"><stop stop-color="#987B57" stop-opacity="0"/><stop offset="1" stop-color="#987B57" stop-opacity=".75"/></linearGradient><linearGradient id="paint2_linear" x1="220.424" y1="478.101" x2="220.424" y2="289.554" gradientUnits="userSpaceOnUse"><stop stop-color="#987B57" stop-opacity="0"/><stop offset="1" stop-color="#987B57" stop-opacity=".75"/></linearGradient><linearGradient id="paint3_linear" x1="17.009" y1="359.443" x2="180.295" y2="265.169" gradientUnits="userSpaceOnUse"><stop stop-color="#987B57" stop-opacity="0"/><stop offset="1" stop-color="#987B57" stop-opacity=".75"/></linearGradient><linearGradient id="paint4_linear" x1="425.346" y1="120.042" x2="262.06" y2="214.316" gradientUnits="userSpaceOnUse"><stop stop-color="#987B57" stop-opacity="0"/><stop offset="1" stop-color="#987B57" stop-opacity=".75"/></linearGradient><linearGradient id="paint5_linear" x1="17.009" y1="119.444" x2="180.295" y2="213.717" gradientUnits="userSpaceOnUse"><stop stop-color="#987B57" stop-opacity="0"/><stop offset="1" stop-color="#987B57" stop-opacity=".75"/></linearGradient></defs></svg>