<svg width="127" height="33" fill="none" xmlns="http://www.w3.org/2000/svg"><path d="M.488 6.707A.451.451 0 01.859 6h28.016v26.168H.86a.451.451 0 01-.371-.707l7.476-10.84a2.707 2.707 0 000-3.074L.488 6.707z" fill="#B371D1"/><path d="M28.875 31.868l-15.34-5.415h15.34v5.415z" fill="#9D53BE"/><path d="M125.841 6.707A.45.45 0 00125.47 6H97.454v26.168h28.016a.45.45 0 00.371-.707l-7.475-10.84a2.707 2.707 0 010-3.074l7.475-10.84z" fill="#B371D1"/><path d="M97.454 31.868l15.34-5.415h-15.34v5.415z" fill="#9D53BE"/><path d="M14 1.805C14 .808 14.808 0 15.805 0h95.649c.996 0 1.804.808 1.804 1.805v24.363H14V1.805z" fill="url(#paint0_linear)"/><path d="M37.275 7.688c-1.712 0-2.512 1.12-2.512 2.816v5.792c0 1.696.8 2.816 2.512 2.816 1.728 0 2.528-1.12 2.528-2.816v-1.392h-1.184v1.456c0 1.008-.4 1.616-1.312 1.616-.896 0-1.312-.608-1.312-1.616v-5.92c0-1.008.416-1.616 1.312-1.616.912 0 1.312.608 1.312 1.616v1.072h1.184v-1.008c0-1.696-.8-2.816-2.528-2.816zm4.846.112h-1.232v8.496c0 1.696.784 2.832 2.496 2.832 1.728 0 2.512-1.136 2.512-2.832V7.8h-1.168v8.56c0 1.008-.4 1.616-1.296 1.616-.912 0-1.312-.608-1.312-1.616V7.8zm5.003 0V19h1.248v-4.784h.88c1.04 0 1.632.4 1.632 1.664v1.76c0 .752.064 1.04.208 1.36h1.264c-.208-.384-.224-.848-.224-1.344v-1.744c0-1.2-.384-2.032-1.408-2.336.96-.304 1.392-1.072 1.392-2.304v-.912c0-1.664-.736-2.56-2.496-2.56h-2.496zm1.248 5.28V8.936h1.216c.928 0 1.296.528 1.296 1.536v1.072c0 1.216-.592 1.536-1.584 1.536h-.928zm5.05-5.28V19h1.247v-4.784h.88c1.04 0 1.632.4 1.632 1.664v1.76c0 .752.064 1.04.208 1.36h1.264c-.208-.384-.224-.848-.224-1.344v-1.744c0-1.2-.384-2.032-1.408-2.336.96-.304 1.392-1.072 1.392-2.304v-.912c0-1.664-.736-2.56-2.496-2.56h-2.496zm1.247 5.28V8.936h1.216c.928 0 1.296.528 1.296 1.536v1.072c0 1.216-.592 1.536-1.584 1.536h-.928zm6.297-.32V8.936h3.36V7.8h-4.608V19h4.608v-1.136h-3.36V13.88h2.736v-1.12h-2.736zm5.622-2.816L69.452 19h1.296V7.8h-1.104v8.096L67.052 7.8h-1.584V19h1.12V9.944zM74.878 19V8.936h2.065V7.8h-5.36v1.136h2.064V19h1.232zm5.403-11.2V19h2.576c1.744 0 2.56-.944 2.56-2.624v-.944c0-1.232-.416-2.096-1.504-2.4.976-.304 1.312-1.04 1.312-2.224v-.528c0-1.648-.688-2.48-2.432-2.48H80.28zm1.248 4.752V8.936h1.232c.896 0 1.232.48 1.232 1.472v.656c0 1.168-.512 1.488-1.504 1.488h-.96zm0 5.312v-4.176h1.088c1.072 0 1.568.416 1.568 1.664v.992c0 1.04-.416 1.52-1.328 1.52h-1.328zM86.546 7.8V19h1.248V7.8h-1.248zm2.531 0V19h2.624c1.745 0 2.545-1.056 2.545-2.768v-5.648c0-1.728-.8-2.784-2.544-2.784h-2.624zm1.249 10.064V8.936h1.344c.912 0 1.343.56 1.343 1.584v5.76c0 1.024-.431 1.584-1.328 1.584h-1.36z" fill="#536074"/><defs><linearGradient id="paint0_linear" x1="14" y1="0" x2="30.54" y2="52.152" gradientUnits="userSpaceOnUse"><stop stop-color="#C495DB"/><stop offset=".5" stop-color="#EBC4FF"/><stop offset="1" stop-color="#C495DB"/></linearGradient></defs></svg>