<svg width="200" height="223" fill="none" xmlns="http://www.w3.org/2000/svg"><path d="M100.056 218.729L.669 161.405V57.551l99.387 57.324v103.854z" fill="#87A2B4"/><path d="M.669 57.551v103.854l99.387 57.324-96.41-58.813L.67 57.551z" fill="#647D89"/><path d="M100.055 218.729l99.387-57.324V57.551l-99.387 57.325v103.853z" fill="#647D89"/><path d="M100.055 218.729l99.387-57.325v-1.861l-99.387 57.325v1.861z" fill="#536A76"/><path d="M100.056 114.876L.669 57.551 100.056.227l99.387 57.324-99.387 57.325z" fill="#A6CADC"/><path d="M191.254 57.551l-84.126 48.763-7.072 3.723-6.7-3.723L9.23 57.552l90.825-52.486 91.198 52.485z" fill="#4B6470"/><path d="M100.056 5.066v104.971L9.231 57.551l90.825-52.485z" fill="#647D89"/><path d="M107.128 106.314l-7.073 3.722-6.7-3.722 6.7-4.095 7.073 4.095z" fill="#587481"/><path d="M100 0L0 57.525l101.003 57.525L200 57.525 100 0z" fill="#A6CADC"/><path d="M101.003 128.428V115.05L200 57.525v13.378l-98.997 57.525z" fill="#536A76"/><path d="M101.003 128.428V115.05L0 57.525v13.378l101.003 57.525z" fill="#9FBED2"/><path d="M192.742 57.993l-92.314 52.858L0 57.525l101.003 57.525L200 57.525 100 0l92.742 57.993z" fill="#BEDFEF"/><path d="M44.147 32.107l100.669 57.525 15.385-9.03-115.72-48.83-.334.335z" fill="#647D89"/><path d="M60.535 22.742l42.126 23.34-16.379 9.678-41.8-23.987 16.053-9.03zm101.672 56.522l-17.391 10.368-42.155-24.566 17.122-9.306 42.424 23.504z" fill="#C5EAFA"/><path d="M56.187 89.632L159.177 34l.689.45L58.863 90.97l-2.676-1.337z" fill="#647D89"/><path d="M119.784 55.76l-17.123 9.305-16.379-9.306 16.379-9.678 17.123 9.678z" fill="#D8F2FF"/><path d="M86.283 55.76l16.378 9.306-44.133 26.238-17.39-10.368L86.282 55.76zm73.583-21.312L119.783 55.76l-17.122-9.678 39.145-22.002 18.06 10.368z" fill="#C5EAFA"/><path d="M141.2 184.167l-.001 9.159-33.434 19.305.001-9.545c0-6.069 2.77-10.813 7.929-13.792l2.722-1.572c3.535-2.041 6.066-2.233 7.164.388 1.099-3.338 3.296-5.821 6.735-7.806l1.194-.69c5.158-2.978 7.69-1.736 7.69 4.553zm-18.389 11.004c0-2.758-.955-3.366-4.06-1.573l-2.913 1.682c-2.484 1.434-3.296 3.007-3.296 5.048v3.476l10.269-5.929v-2.704zm13.612-8.08c0-2.152-1.05-2.483-3.438-1.104l-1.863 1.075c-2.675 1.545-3.535 3.42-3.535 5.682v2.373l8.836-5.102v-2.924zm-2.913-17.311c2.389-1.379 3.296-3.117 3.296-5.048s-.907-2.621-3.295-1.242l-18.054 10.425c-2.389 1.379-3.296 3.116-3.296 5.047 0 1.932.907 2.621 3.295 1.242l18.054-10.424zm-17.72 16.3c-5.349 3.089-8.406 1.599-8.405-4.36 0-5.958 3.057-10.978 8.406-14.067l17.386-10.039c5.349-3.088 8.406-1.598 8.405 4.36 0 5.959-3.057 10.979-8.406 14.068L115.79 186.08zm25.411-50.855l-12.323 11.805 12.323-2.536v6.289l-16.239 3.032-17.195 16.714v-5.682l13.231-12.66-13.23 2.674v-6.4l17.194-3.142 16.24-15.722-.001 5.628z" fill="#536A76"/><path d="M161.475 183.366V79.513l-17.123 10.453-.874 103.679 17.997-10.279z" fill="#4D6775"/><path d="M162.219 182.943V79.141l-17.737 10.491v103.345l17.737-10.034z" fill="#8FBACE"/><path d="M42.36 185.304V82.415l16.005 8.934.498 103.634-16.504-9.679z" fill="#4D6775"/><path d="M40.87 184.615l.267-103.679L58.53 90.97l-1.652 103.01-16.007-9.365z" fill="#AACCE1"/></svg>