<svg width="541" height="585" fill="none" xmlns="http://www.w3.org/2000/svg"><g filter="url(#filter0_d)"><path d="M497.934 176.407L271.994 46.09 46.055 176.407v236.094l91.391 52.712v.053l36.387 21.289.006-.351 1.354.781 3.156 1.851v-.031l93.645 54.013 114.188-65.862 25.438-14.529v-.005l1.692-.957v-.157l84.622-48.808V176.407z" fill="#F7DDC4"/></g><g filter="url(#filter1_f)"><path d="M507 170.382L270.5 34 34 170.382v247.082l95.663 55.166v.056l38.088 22.279.006-.367 1.418.818 3.303 1.936v-.032l98.022 56.527 119.526-68.927 26.626-15.206v-.005l1.772-1.002v-.163L507 417.464V170.382z" fill="url(#paint0_linear)"/></g><path d="M271.994 535.942L52.765 409.496V180.414l219.229 126.447v229.081z" fill="#DB4534"/><path d="M254.093 507.908L69.661 401.382V208.39l184.432 106.526v192.992z" fill="#DB4534"/><path d="M52.765 180.414v229.082l219.229 126.446-212.66-129.731-6.569-225.797z" fill="#F56C5D"/><path d="M271.992 535.942l219.229-126.446V180.414L271.992 306.861v229.081z" fill="#BF1300"/><path d="M271.992 535.941l219.229-126.446v-4.106L271.992 531.836v4.105z" fill="#DB4534"/><path d="M271.994 306.86L52.765 180.414 271.994 53.968l219.228 126.446L271.994 306.86z" fill="#A6CADC"/><path d="M473.157 180.415L287.593 287.976l-15.601 8.211-14.779-8.211L71.649 180.415 271.992 64.642l201.165 115.773z" fill="#4B6470"/><path d="M271.992 64.642v231.545L71.649 180.415 271.992 64.642z" fill="#647D89"/><path d="M287.592 287.975l-15.601 8.21-14.779-8.21 14.779-9.032 15.601 9.032z" fill="#587481"/><path d="M424.477 357.094l.001-8.814 5.011-2.894-.001 13.315-3.981-.201c-.635-.032-1.03-.571-1.03-1.406zm18.926-10.928l.001-8.815-5.011 2.894-.001 13.315 3.981-4.798c.635-.766 1.03-1.762 1.03-2.596z" fill="#516069"/><path d="M428.84 344.23l10.704-6.18-.001 15.695-4.838 5.634c-.365.425-.797.674-1.162.669l-4.703-.069V344.23z" fill="#84A0B3"/><path d="M433.765 315.355l-9.166 6.4c-1.199.837-2.109 2.531-2.109 3.923l-.001 28.609c-.001 1.145.62 1.808 1.552 1.661l9.165-1.455c.518-.082 1.087-.41 1.605-.927l9.166-9.13c.931-.928 1.552-2.308 1.552-3.452l.001-28.61c0-1.392-.91-2.034-2.11-1.486l-9.165 4.183c-.163.075-.327.17-.49.284z" fill="#91B0C5"/><path d="M456.369 342.876v-7.878c0-.815.572-1.806 1.278-2.213l4.859-2.806c.706-.407 1.278-.077 1.278.738v5.627c0 .603-.318 1.328-.802 1.832l-4.86 5.057c-.839.874-1.753.688-1.753-.357z" fill="#8C7A79"/><path d="M456.369 342.876v-7.878c0-.815.572-1.806 1.278-2.213l4.859-2.806c.706-.407 1.278-.077 1.278.738v5.627c0 .603-.318 1.328-.802 1.832l-4.86 5.057c-.839.874-1.753.688-1.753-.357z" fill="#516069"/><path d="M473.292 333.105v-7.879c0-.814-.572-1.145-1.278-.737l-4.859 2.805c-.706.408-1.278 1.399-1.278 2.214v5.627c0 .603.318.961.802.906l4.859-.554c.84-.096 1.754-1.338 1.754-2.382z" fill="#8C7A79"/><path d="M473.292 333.105v-7.879c0-.814-.572-1.145-1.278-.737l-4.859 2.805c-.706.408-1.278 1.399-1.278 2.214v5.627c0 .603.318.961.802.906l4.859-.554c.84-.096 1.754-1.338 1.754-2.382z" fill="#8C685C"/><path d="M473.292 333.105v-7.879c0-.814-.572-1.145-1.278-.737l-4.859 2.805c-.706.408-1.278 1.399-1.278 2.214v5.627c0 .603.318.961.802.906l4.859-.554c.84-.096 1.754-1.338 1.754-2.382z" fill="#516069"/><path d="M460.56 296.516c-.809.502-1.744 1.106-2.67 1.714-2.644 1.734-4.662 5.464-4.662 8.523l-.001 27.167c0 3.025 1.974 4.425 4.578 3.247l6.39-2.89c.367-.166.738-.38 1.105-.638l6.389-4.489c2.605-1.829 4.579-5.508 4.579-8.533l.001-27.167c0-3.06-2.017-4.46-4.661-3.141-.926.461-1.86.937-2.668 1.368-3.27 1.745-5.11 2.807-8.38 4.839z" fill="#91B0C5"/><path fill-rule="evenodd" clip-rule="evenodd" d="M458.344 395.22l.001-6.879-2.483 1.433v5.34c0 .094.046.152.119.151l2.363-.045zm9.045-5.222v-6.88l2.482-1.433v5.341a.462.462 0 01-.119.287l-2.363 2.685z" fill="#516069"/><path d="M458.259 372.433l9.33-5.387-.001 24.599c0 .225-.189.495-.376.536l-4.224.918a.287.287 0 00-.129.074l-4.225 3.961c-.186.175-.376.123-.376-.102l.001-24.599z" fill="#84A0B3"/><path d="M462.882 349.785l-8.483 4.898c-1.677.969-3.037 3.324-3.037 5.261l-.001 31.229c-.001 1.791 1.168 2.62 2.709 1.922l8.483-3.837c.218-.098.437-.225.655-.377l8.483-5.96c1.542-1.083 2.71-3.261 2.71-5.051l.001-31.229c0-1.937-1.36-2.722-3.037-1.754l-8.483 4.898z" fill="url(#paint1_linear)"/><path d="M462.882 349.785l-8.483 4.898c-1.677.969-3.037 3.324-3.037 5.261l-.001 31.229c-.001 1.791 1.168 2.62 2.709 1.922l8.483-3.837c.218-.098.437-.225.655-.377l8.483-5.96c1.542-1.083 2.71-3.261 2.71-5.051l.001-31.229c0-1.937-1.36-2.722-3.037-1.754l-8.483 4.898z" fill="#91B0C5"/><path d="M426.777 414.467v-7.291l12.567-7.257v7.216c0 .665-.308 1.456-.807 2.075l-4.754 5.894c-.497.616-1.108.968-1.604.923l-4.6-.417c-.497-.045-.802-.48-.802-1.143z" fill="#84A0B3"/><path fill-rule="evenodd" clip-rule="evenodd" d="M430.429 405.067v10.801l-2.85-.258c-.497-.045-.802-.48-.802-1.143v-7.291l3.652-2.109z" fill="#516069"/><path fill-rule="evenodd" clip-rule="evenodd" d="M430.304 415.857l.001-10.718.124-.071-.001 10.8-.124-.011z" fill="#B0D2DD"/><path fill-rule="evenodd" clip-rule="evenodd" d="M435.692 401.957l-.001 10.801 2.851-3.549c.496-.619.802-1.407.802-2.069v-7.292l-3.652 2.109z" fill="#516069"/><path fill-rule="evenodd" clip-rule="evenodd" d="M435.813 412.607v-10.72l-.124.072v10.803l.124-.155z" fill="#B0D2DD"/><path d="M433.064 370.583l-6.39 3.689c-2.833 1.636-5.131 5.615-5.131 8.887l-.001 25.254c0 2.674 1.55 4.12 3.784 3.532l6.39-1.682c.881-.232 1.811-.769 2.693-1.555l6.389-5.696c2.234-1.992 3.785-5.229 3.785-7.902l.001-25.254c0-3.272-2.297-4.599-5.131-2.962l-6.389 3.689z" fill="#91B0C5"/><path d="M403.562 459.413V230.331l-37.334 22.322-2.363 229.433 39.697-22.673z" fill="#4D6775"/><path d="M405.205 458.48V229.511l-39.125 23.142v227.958l39.125-22.131z" fill="#8FBACE"/><path d="M140.816 457.785V230.833l35.307 19.706 1.098 228.597-36.405-21.351z" fill="#4D6775"/><path d="M137.534 456.266l.588-228.696 38.362 22.132-3.643 227.221-35.307-20.657z" fill="#AACCE1"/><defs><linearGradient id="paint0_linear" x1="11.139" y1="84.58" x2="497.915" y2="86.012" gradientUnits="userSpaceOnUse"><stop stop-color="#00C5FF"/><stop offset=".208" stop-color="#3CE457"/><stop offset=".572" stop-color="#F15B5B"/><stop offset=".813" stop-color="#D660E9"/><stop offset="1" stop-color="#184ED9"/></linearGradient><linearGradient id="paint1_linear" x1="458.043" y1="357.579" x2="477.152" y2="371.654" gradientUnits="userSpaceOnUse"><stop stop-color="#D8ECF1"/><stop offset="1" stop-color="#82B3BF"/></linearGradient><filter id="filter0_d" x="12.054" y="16.09" width="519.879" height="564.728" filterUnits="userSpaceOnUse" color-interpolation-filters="sRGB"><feFlood flood-opacity="0" result="BackgroundImageFix"/><feColorMatrix in="SourceAlpha" values="0 0 0 0 0 0 0 0 0 0 0 0 0 0 0 0 0 0 127 0" result="hardAlpha"/><feOffset dy="4"/><feGaussianBlur stdDeviation="17"/><feComposite in2="hardAlpha" operator="out"/><feColorMatrix values="0 0 0 0 1 0 0 0 0 0.568627 0 0 0 0 0.0313726 0 0 0 0.4 0"/><feBlend in2="BackgroundImageFix" result="effect1_dropShadow"/><feBlend in="SourceGraphic" in2="effect1_dropShadow" result="shape"/></filter><filter id="filter1_f" x="0" y="0" width="541" height="587.847" filterUnits="userSpaceOnUse" color-interpolation-filters="sRGB"><feFlood flood-opacity="0" result="BackgroundImageFix"/><feBlend in="SourceGraphic" in2="BackgroundImageFix" result="shape"/><feGaussianBlur stdDeviation="17" result="effect1_foregroundBlur"/></filter></defs></svg>