<svg width="442" height="314" fill="none" xmlns="http://www.w3.org/2000/svg"><path d="M220.87.468L.29 127.357l222.793 126.889 218.368-126.889L220.87.467z" fill="#FF8375"/><path d="M223.083 313.264v-59.018l218.368-126.89v59.019L223.083 313.264z" fill="#E3311C"/><path d="M223.083 313.264v-59.018L.289 127.356v59.019l222.794 126.889z" fill="#FF5845"/><path d="M425.442 128.39L221.814 244.983.289 127.357l222.794 126.889 218.368-126.889L220.87.467 425.442 128.39z" fill="#FFA197"/><path d="M100.134 70.142l215.681 123.61 33.935-19.919L100.871 69.404l-.737.738z" fill="#647D89"/><path d="M134.874 49.758l87.955 47.929-36.127 21.348-85.83-49.632 34.002-19.645zm219.121 126.941l-38.535 22.668-93.186-60.336 37.77-20.527 93.951 58.195z" fill="#C5EAFA"/><path d="M120.318 193.752L347.495 71.037l1.519.99L126.22 196.703l-5.902-2.951z" fill="#647D89"/><path d="M260.6 119.035l-37.77 20.527-36.127-20.527 36.127-21.349 37.77 21.349z" fill="#D8F2FF"/><path d="M186.702 119.037l36.127 20.527-97.348 57.877-38.361-22.87 99.582-55.534zm162.312-47.011l-88.415 47.01-37.77-21.348 86.347-48.532 39.838 22.87z" fill="#C5EAFA"/><path d="M273.052 128.031l-41.349 23.371-40.451-23.371 39.552-23.371 42.248 23.371z" fill="#FFDF31"/><path opacity=".3" d="M171.376 123.656s-43.104-17.544-41.541 3.657c1.563 21.2 47.011 15.479 47.011 15.479h14.067s-18.755 50.748 23.444 50.748c42.2 0 46.889-18.06 39.856-27.483-7.034-9.422-9.378-25.127-9.378-25.127s26.57 2.221 46.888 1.436c20.319-1.57 51.578-3.926 50.015-13.348-1.563-9.423 8.596-24.993-20.319-17.14-28.914 7.852-77.366 2.355-77.366 2.355l-26.57-33.764-18.755 3.14v21.202l-27.352 18.845z" fill="#000"/><path d="M251.48 41.739c0 44.046-14.383 74.608-14.383 74.608l-27.865-4.494.898-7.192s-19.775-62.922-5.393-76.406c1.798-1.798 3.596-2.697 6.292-2.697 23.372 0 40.451-.898 40.451 16.18z" fill="#FFDF52"/><path d="M211.927 45.332s3.595 32.36 2.696 38.653c-.899 7.191 0 15.281 0 15.281l29.664-5.393s5.393-22.473 6.292-35.956V44.433l-3.596 24.27c0 2.697-3.595 3.596-4.494.9-2.697-2.697-5.393-4.495-8.989-4.495-3.596 0-7.191 1.798-10.787 3.596-3.595 1.797-7.191 0-8.09-3.596-.899-6.292-1.798-15.281-2.696-19.776z" fill="#FAC22A"/><path d="M212.825 111.851h-2.697l.899-7.192s-19.776-62.922-5.393-76.406c1.797 1.798 3.595 4.495 4.494 8.99 4.495 33.258 3.596 61.124 2.697 74.608z" fill="#FAB01B"/><path d="M202.937 32.748s-5.393 2.696 0 34.158c5.393 32.36 9.888 41.349 9.888 41.349s-1.798-89.89-9.888-75.507zm34.159 80.903s34.158 8.989 65.619 0c31.462-8.989 59.328-27.866 59.328-27.866l8.989 25.169s-36.855 41.35-134.835 20.675l.899-17.978z" fill="#D85E00"/><path d="M237.096 113.65s72.811-66.518 103.373-55.732c30.563 10.787 30.563 50.339 30.563 53.036 0 0-17.079-36.855-74.609-2.697-25.169 15.281-60.226 23.371-60.226 23.371l.899-17.978z" fill="url(#paint0_linear)"/><path d="M232.601 113.651s-34.158 8.989-65.62 0c-31.461-8.989-59.327-27.866-59.327-27.866l-8.989 25.169s39.551 41.35 137.531 20.675l-3.595-17.978z" fill="#D85E00"/><path d="M236.2 132.526s-37.754-7.191-62.923-23.371c-38.653-23.371-59.328-13.483-68.317-5.393-4.494 3.595-6.292 8.09-6.292 8.09-.899-2.697-.899-25.17 12.585-41.35 4.494-5.393 9.888-8.989 17.079-11.685 30.562-10.787 103.373 55.731 103.373 55.731l4.495 17.978z" fill="url(#paint1_linear)"/><path d="M239.795 99.268s5.393-18.877-9.888-17.978c-16.18 0-19.776 0-19.776 11.686s13.483 24.27 13.483 24.27l16.181-17.978z" fill="#FADD4A"/><path d="M229.905 90.278s12.584-14.382 20.674-1.797c8.09 13.483 10.787 16.18.899 22.472-9.888 6.292-27.866 2.697-27.866 2.697l6.293-23.372zm-12.586 2.697s-12.585-14.382-20.675-1.798c-8.09 13.484-10.786 16.18-.899 22.473 9.888 6.292 27.866 2.696 27.866 2.696l-6.292-23.371z" fill="#FEC200"/><path d="M242.491 104.662c5.393 3.596 6.292 20.675-15.282 20.675-21.573 0-30.562 0-26.966-11.686 4.494-15.281 25.169-8.989 25.169-8.989s13.483-1.798 17.079 0z" fill="#FAB01B"/><path d="M211.03 114.549s-8.091-2.697-17.08 17.079c-14.382 31.461-2.696 55.731 4.495 58.428 14.382 4.495 47.641 6.292 52.136-9.888 4.494-17.079-10.787-64.72-10.787-64.72l-11.685 1.797-17.079-2.696z" fill="#FADD4A"/><path d="M211.03 114.549s-8.091-2.697-17.08 17.079c-14.382 31.461-2.696 55.731 4.495 58.428 14.382 4.495 47.641 6.292 52.136-9.888 4.494-17.079-10.787-64.72-10.787-64.72l-11.685 1.797-17.079-2.696z" fill="#FFE45C"/><path d="M239.794 114.55l-1.798.898c2.697 10.787 11.686 40.451 8.09 53.035-4.494 14.383-33.259 12.585-45.844 8.989-12.584-3.595-17.978-20.674-4.494-51.237 0-.899.899-1.798.899-2.696-1.798 1.797-2.697 4.494-4.495 8.09-14.382 31.461-2.697 55.731 4.495 58.428 14.382 4.494 47.641 6.292 52.136-9.888 6.292-17.978-8.989-65.619-8.989-65.619z" fill="#FAB01B"/><path d="M198.444 160.392c-5.394-1.798-6.292-5.394-8.989-10.787-6.292 23.371-2.697 36.855 8.989 40.45 14.382 4.495 47.641 6.292 52.136-9.888 1.798-6.292.899-16.18-.899-26.967-7.191 13.484-37.754 11.686-51.237 7.192z" fill="#FFD13B"/><path d="M251.476 164.887c0 .898 0 1.797-.899 2.696-4.494 17.079-37.753 14.383-52.136 9.888-7.191-2.697-8.989-8.989-10.787-18.877-1.797 16.18.899 26.967 10.787 29.664 14.383 4.494 47.642 6.292 52.136-9.888.899-2.697.899-8.09.899-13.483z" fill="#FAB01B"/><defs><linearGradient id="paint0_linear" x1="361.224" y1="81.926" x2="270.467" y2="100.377" gradientUnits="userSpaceOnUse"><stop stop-color="#FEDE31"/><stop offset=".427" stop-color="#FDD62E"/><stop offset=".471" stop-color="#FBBC21"/><stop offset=".788" stop-color="#FAB01B"/></linearGradient><linearGradient id="paint1_linear" x1="115.435" y1="82.792" x2="261.977" y2="124.711" gradientUnits="userSpaceOnUse"><stop stop-color="#FEDE31"/><stop offset=".427" stop-color="#FDD62E"/><stop offset=".471" stop-color="#FBBC21"/><stop offset=".788" stop-color="#FAB01B"/></linearGradient></defs></svg>