<svg width="268" height="288" fill="none" xmlns="http://www.w3.org/2000/svg"><g filter="url(#filter0_d)"><path d="M230.166 94.214l-95.535-55.102-95.534 55.102v99.828l38.643 22.289v.022l15.386 9.002.002-.148.573.33 1.334.782v-.013l39.596 22.839 48.283-27.849 10.756-6.143v-.002l.715-.405v-.066l35.781-20.638V94.214z" fill="#F7DDC4"/></g><g filter="url(#filter1_f)"><path d="M234 91.667L134 34 34 91.667V196.14l40.45 23.326v.024l16.105 9.42.002-.155.6.346 1.396.819v-.014L134 253.808l50.539-29.144 11.259-6.43v-.002l.749-.423v-.07L234 196.141V91.667z" fill="url(#paint0_linear)"/></g><path d="M134.631 246.237l-92.697-53.465V95.909l92.697 53.465v96.863z" fill="#DB4534"/><path d="M127.063 234.384l-77.984-45.043v-81.603l77.984 45.043v81.603z" fill="#DB4534"/><path d="M41.934 95.909v96.863l92.697 53.465-89.92-54.854-2.777-95.474z" fill="#F56C5D"/><path d="M134.631 246.238l92.697-53.466V95.909l-92.697 53.465v96.864z" fill="#BF1300"/><path d="M134.631 246.237l92.697-53.466v-1.736l-92.697 53.466v1.736z" fill="#DB4534"/><path d="M134.631 149.375L41.934 95.909l92.697-53.466 92.697 53.466-92.697 53.466z" fill="#A6CADC"/><path d="M219.691 95.909l-78.463 45.48-6.596 3.472-6.25-3.472-78.462-45.48 84.712-48.952 85.059 48.952z" fill="#4B6470"/><path d="M134.632 46.957v97.904L49.92 95.909l84.712-48.952z" fill="#647D89"/><path d="M141.228 141.389l-6.597 3.472-6.249-3.472 6.249-3.819 6.597 3.819z" fill="#587481"/><path d="M134.579 42.231L41.31 95.884l94.205 53.653 92.333-53.653-93.269-53.653z" fill="#FF8375"/><path d="M135.515 174.492v-24.955l92.333-53.653v24.955l-92.333 53.653z" fill="#E3311C"/><path d="M135.515 174.492v-24.955L41.311 95.884v24.955l94.204 53.653z" fill="#FF5845"/><path d="M221.079 96.32l-86.1 49.3L41.31 95.884l94.205 53.653 92.333-53.653-93.269-53.653 86.5 54.09z" fill="#FFA197"/><path d="M80.833 70.305l93.893 53.653 14.349-8.422-107.93-45.543-.312.312z" fill="#647D89"/><path d="M96.118 61.571l39.29 21.769-15.276 9.026-38.987-22.372 14.973-8.423zm94.594 54.988l-16.47 9.669-39.069-25.408 15.97-8.68 39.569 24.419z" fill="#C5EAFA"/><path d="M92.063 123.958L188.12 72.07l.643.419-94.205 52.717-2.495-1.248z" fill="#647D89"/><path d="M151.378 92.366l-15.97 8.679-15.276-8.68 15.276-9.026 15.97 9.027z" fill="#D8F2FF"/><path d="M120.132 92.366l15.276 8.68-41.162 24.472-16.22-9.67 42.106-23.482zm68.631-19.877l-37.385 19.877-15.97-9.026 36.51-20.521 16.845 9.67z" fill="#C5EAFA"/><path d="M156.643 96.17l-17.484 9.882-17.103-9.883 16.723-9.882 17.864 9.882z" fill="#FFDF31"/><path opacity=".3" d="M113.651 94.32s-18.226-7.418-17.565 1.546c.661 8.964 19.878 6.546 19.878 6.546h5.948s-7.931 21.457 9.913 21.457c17.843 0 19.826-7.636 16.852-11.62-2.974-3.985-3.965-10.625-3.965-10.625s11.235.939 19.826.607c8.591-.664 21.808-1.66 21.148-5.644-.661-3.984 3.634-10.568-8.592-7.247-12.226 3.32-32.713.996-32.713.996l-11.234-14.277-7.931 1.328v8.965l-11.565 7.968z" fill="#000"/><path d="M147.521 59.682c0 18.624-6.081 31.547-6.081 31.547l-11.783-1.9.38-3.041s-8.361-26.606-2.28-32.307c.76-.76 1.52-1.14 2.661-1.14 9.882 0 17.103-.38 17.103 6.841z" fill="#FFDF52"/><path d="M130.798 61.202s1.52 13.683 1.14 16.344c-.38 3.04 0 6.461 0 6.461l12.543-2.28s2.28-9.503 2.661-15.204v-5.701l-1.521 10.262c0 1.14-1.52 1.52-1.9.38-1.14-1.14-2.281-1.9-3.801-1.9s-3.041.76-4.561 1.52-3.041 0-3.421-1.52c-.38-2.66-.76-6.462-1.14-8.362z" fill="#FAC22A"/><path d="M131.178 89.328h-1.14l.38-3.04s-8.362-26.607-2.28-32.308c.76.76 1.52 1.9 1.9 3.801 1.9 14.063 1.52 25.846 1.14 31.547z" fill="#FAB01B"/><path d="M126.997 55.881s-2.281 1.14 0 14.443c2.28 13.683 4.181 17.484 4.181 17.484s-.76-38.008-4.181-31.927zM141.44 90.09s14.443 3.8 27.746 0c13.303-3.802 25.085-11.783 25.085-11.783l3.801 10.642s-15.583 17.484-57.013 8.742l.381-7.602z" fill="#D85E00"/><path d="M141.44 90.089s30.786-28.127 43.709-23.566c12.923 4.562 12.923 21.285 12.923 22.425 0 0-7.222-15.583-31.547-1.14-10.642 6.462-25.466 9.882-25.466 9.882l.381-7.601z" fill="url(#paint1_linear)"/><path d="M139.54 90.09s-14.443 3.8-27.746 0c-13.303-3.802-25.086-11.783-25.086-11.783l-3.8 10.642s16.723 17.484 58.152 8.742l-1.52-7.602z" fill="#D85E00"/><path d="M141.06 98.07s-15.963-3.04-26.605-9.881c-16.344-9.883-25.086-5.702-28.887-2.28-1.9 1.52-2.66 3.42-2.66 3.42-.38-1.14-.38-10.642 5.32-17.484 1.901-2.28 4.182-3.8 7.222-4.941 12.923-4.561 43.71 23.565 43.71 23.565l1.9 7.602z" fill="url(#paint2_linear)"/><path d="M142.58 84.008s2.281-7.982-4.181-7.602c-6.841 0-8.361 0-8.361 4.941s5.701 10.263 5.701 10.263l6.841-7.602z" fill="#FADD4A"/><path d="M138.4 80.206s5.321-6.081 8.741-.76c3.421 5.701 4.561 6.842.381 9.502-4.181 2.66-11.783 1.14-11.783 1.14l2.661-9.882zm-5.322 1.141s-5.321-6.082-8.742-.76c-3.42 5.7-4.561 6.84-.38 9.501 4.181 2.661 11.783 1.14 11.783 1.14l-2.661-9.881z" fill="#FEC200"/><path d="M143.72 86.288c2.281 1.52 2.661 8.742-6.461 8.742s-12.923 0-11.403-4.94c1.901-6.462 10.643-3.802 10.643-3.802s5.701-.76 7.221 0z" fill="#FAB01B"/><path d="M130.418 90.469s-3.421-1.14-7.222 7.222c-6.081 13.303-1.14 23.565 1.901 24.705 6.081 1.9 20.144 2.661 22.045-4.181 1.9-7.221-4.562-27.366-4.562-27.366l-4.941.76-7.221-1.14z" fill="#FADD4A"/><path d="M130.418 90.469s-3.421-1.14-7.222 7.222c-6.081 13.303-1.14 23.565 1.901 24.705 6.081 1.9 20.144 2.661 22.045-4.181 1.9-7.221-4.562-27.366-4.562-27.366l-4.941.76-7.221-1.14z" fill="#FFE45C"/><path d="M142.581 90.469l-.76.38c1.14 4.561 4.941 17.104 3.421 22.425-1.901 6.081-14.064 5.321-19.385 3.801-5.321-1.521-7.601-8.742-1.9-21.665 0-.38.38-.76.38-1.14-.76.76-1.14 1.9-1.9 3.42-6.082 13.303-1.141 23.566 1.9 24.706 6.081 1.9 20.144 2.66 22.045-4.181 2.66-7.602-3.801-27.746-3.801-27.746z" fill="#FAB01B"/><path d="M125.097 109.853c-2.281-.76-2.661-2.281-3.801-4.561-2.661 9.882-1.141 15.583 3.801 17.104 6.081 1.9 20.144 2.66 22.044-4.181.761-2.661.38-6.842-.38-11.403-3.04 5.701-15.963 4.941-21.664 3.041z" fill="#FFD13B"/><path d="M147.521 111.753c0 .38 0 .76-.38 1.14-1.9 7.222-15.963 6.082-22.045 4.181-3.04-1.14-3.801-3.8-4.561-7.981-.76 6.841.38 11.402 4.561 12.542 6.082 1.901 20.145 2.661 22.045-4.181.38-1.14.38-3.42.38-5.701z" fill="#FAB01B"/><path d="M199.107 169.832v-2.945l2.119-1.224v5.63l-1.089-.054c-.635-.032-1.03-.572-1.03-1.407zm8.002-4.62v-2.946l-2.118 1.224-.001 5.63 1.089-1.312c.635-.766 1.03-1.762 1.03-2.596z" fill="#516069"/><path d="M200.951 165.175l4.526-2.613v6.637l-2.046 2.382c-.154.18-.337.285-.491.283l-1.989-.029v-6.66z" fill="#84A0B3"/><path d="M203.033 152.966l-3.875 2.706c-.507.354-.892 1.07-.892 1.659l-.001 12.097c0 .484.263.765.657.702l3.875-.615c.219-.035.46-.173.679-.392l3.875-3.86c.394-.393.657-.976.657-1.46v-12.097c0-.589-.385-.86-.892-.629l-3.875 1.769a1.389 1.389 0 00-.208.12z" fill="#91B0C5"/><path d="M212.591 164.603l.001-3.331c0-.345.241-.764.54-.936l2.054-1.186c.299-.173.541-.033.541.312v2.379c0 .255-.135.562-.34.775l-2.054 2.138c-.355.369-.742.291-.742-.151z" fill="#8C7A79"/><path d="M212.591 164.603l.001-3.331c0-.345.241-.764.54-.936l2.054-1.186c.299-.173.541-.033.541.312v2.379c0 .255-.135.562-.34.775l-2.054 2.138c-.355.369-.742.291-.742-.151z" fill="#516069"/><path d="M219.747 160.471l.001-3.331c0-.345-.242-.484-.541-.312l-2.054 1.186c-.299.173-.541.592-.541.936v2.38c0 .254.135.406.339.383l2.055-.235c.355-.04.741-.565.741-1.007z" fill="#8C7A79"/><path d="M219.747 160.471l.001-3.331c0-.345-.242-.484-.541-.312l-2.054 1.186c-.299.173-.541.592-.541.936v2.38c0 .254.135.406.339.383l2.055-.235c.355-.04.741-.565.741-1.007z" fill="#8C685C"/><path d="M219.747 160.471l.001-3.331c0-.345-.242-.484-.541-.312l-2.054 1.186c-.299.173-.541.592-.541.936v2.38c0 .254.135.406.339.383l2.055-.235c.355-.04.741-.565.741-1.007z" fill="#516069"/><path d="M214.363 145c-.341.213-.737.468-1.128.725-1.118.734-1.971 2.31-1.971 3.604l-.001 11.487c0 1.279.835 1.871 1.936 1.373l2.701-1.222c.156-.07.313-.161.468-.27l2.702-1.898c1.101-.773 1.935-2.329 1.935-3.608l.001-11.487c0-1.294-.853-1.886-1.971-1.328a53.281 53.281 0 00-4.672 2.624z" fill="#91B0C5"/><path fill-rule="evenodd" clip-rule="evenodd" d="M213.426 186.736v-2.909l-1.049.607v2.258c0 .039.019.064.05.063l.999-.019zm3.825-2.208v-2.909l1.05-.606v2.258c0 .039-.02.087-.05.122l-1 1.135z" fill="#516069"/><path d="M213.392 177.101l3.945-2.278-.001 10.402c0 .095-.08.209-.159.226l-1.786.388a.122.122 0 00-.055.032l-1.786 1.675c-.079.074-.159.052-.159-.044l.001-10.401z" fill="#84A0B3"/><path d="M215.346 167.524l-3.587 2.072c-.709.409-1.284 1.405-1.284 2.224l-.001 13.205c0 .757.494 1.107 1.146.812l3.587-1.622c.092-.042.184-.095.276-.16l3.587-2.52c.652-.458 1.146-1.378 1.146-2.135l.001-13.205c0-.819-.575-1.151-1.284-.742l-3.587 2.071z" fill="url(#paint3_linear)"/><path d="M215.346 167.524l-3.587 2.072c-.709.409-1.284 1.405-1.284 2.224l-.001 13.205c0 .757.494 1.107 1.146.812l3.587-1.622c.092-.042.184-.095.276-.16l3.587-2.52c.652-.458 1.146-1.378 1.146-2.135l.001-13.205c0-.819-.575-1.151-1.284-.742l-3.587 2.071z" fill="#91B0C5"/><path d="M200.079 194.257v-2.466l5.314-3.068v2.431c0 .664-.308 1.456-.807 2.075l-1.081 1.34c-.497.616-1.108.968-1.604.923l-1.02-.093c-.496-.045-.802-.48-.802-1.142z" fill="#84A0B3"/><path fill-rule="evenodd" clip-rule="evenodd" d="M201.624 190.899l-.001 4.568-.742-.068c-.496-.045-.802-.48-.802-1.142v-2.466l1.545-.892z" fill="#516069"/><path fill-rule="evenodd" clip-rule="evenodd" d="M201.571 195.462v-4.532l.053-.03-.001 4.567-.052-.005z" fill="#B0D2DD"/><path fill-rule="evenodd" clip-rule="evenodd" d="M203.849 189.584l-.001 4.568.743-.925c.496-.618.802-1.406.802-2.069v-2.465l-1.544.891z" fill="#516069"/><path fill-rule="evenodd" clip-rule="evenodd" d="M203.901 194.087v-4.533l-.052.031-.001 4.567.053-.065z" fill="#B0D2DD"/><path d="M202.737 176.318l-2.702 1.56c-1.198.692-2.169 2.374-2.169 3.758l-.001 10.678c0 1.131.656 1.742 1.6 1.494l2.702-.712c.373-.098.766-.325 1.139-.657l2.701-2.409c.945-.842 1.6-2.211 1.6-3.341l.001-10.678c0-1.384-.971-1.944-2.169-1.253l-2.702 1.56z" fill="#91B0C5"/><path d="M190.263 213.879v-96.864l-15.786 9.439-.999 97.012 16.785-9.587z" fill="#4D6775"/><path d="M190.957 213.484v-96.815l-16.543 9.785v96.388l16.543-9.358z" fill="#8FBACE"/><path d="M79.165 213.19v-95.963l14.929 8.333.464 96.658-15.393-9.028z" fill="#4D6775"/><path d="M77.777 212.548l.249-96.7 16.22 9.358-1.54 96.076-14.93-8.734z" fill="#AACCE1"/><defs><linearGradient id="paint0_linear" x1="24.334" y1="55.387" x2="230.158" y2="55.992" gradientUnits="userSpaceOnUse"><stop stop-color="#00C5FF"/><stop offset=".208" stop-color="#3CE457"/><stop offset=".572" stop-color="#F15B5B"/><stop offset=".813" stop-color="#D660E9"/><stop offset="1" stop-color="#184ED9"/></linearGradient><linearGradient id="paint1_linear" x1="193.925" y1="76.675" x2="155.55" y2="84.476" gradientUnits="userSpaceOnUse"><stop stop-color="#FEDE31"/><stop offset=".427" stop-color="#FDD62E"/><stop offset=".471" stop-color="#FBBC21"/><stop offset=".788" stop-color="#FAB01B"/></linearGradient><linearGradient id="paint2_linear" x1="89.997" y1="77.041" x2="151.96" y2="94.766" gradientUnits="userSpaceOnUse"><stop stop-color="#FEDE31"/><stop offset=".427" stop-color="#FDD62E"/><stop offset=".471" stop-color="#FBBC21"/><stop offset=".788" stop-color="#FAB01B"/></linearGradient><linearGradient id="paint3_linear" x1="213.3" y1="170.82" x2="221.38" y2="176.771" gradientUnits="userSpaceOnUse"><stop stop-color="#D8ECF1"/><stop offset="1" stop-color="#82B3BF"/></linearGradient><filter id="filter0_d" x="5.097" y="9.112" width="259.069" height="278.033" filterUnits="userSpaceOnUse" color-interpolation-filters="sRGB"><feFlood flood-opacity="0" result="BackgroundImageFix"/><feColorMatrix in="SourceAlpha" values="0 0 0 0 0 0 0 0 0 0 0 0 0 0 0 0 0 0 127 0" result="hardAlpha"/><feOffset dy="4"/><feGaussianBlur stdDeviation="17"/><feComposite in2="hardAlpha" operator="out"/><feColorMatrix values="0 0 0 0 1 0 0 0 0 0.568627 0 0 0 0 0.0313726 0 0 0 0.4 0"/><feBlend in2="BackgroundImageFix" result="effect1_dropShadow"/><feBlend in="SourceGraphic" in2="effect1_dropShadow" result="shape"/></filter><filter id="filter1_f" x="0" y="0" width="268" height="287.808" filterUnits="userSpaceOnUse" color-interpolation-filters="sRGB"><feFlood flood-opacity="0" result="BackgroundImageFix"/><feBlend in="SourceGraphic" in2="BackgroundImageFix" result="shape"/><feGaussianBlur stdDeviation="17" result="effect1_foregroundBlur"/></filter></defs></svg>