<svg width="24" height="25" fill="none" xmlns="http://www.w3.org/2000/svg"><path d="M12 24.5c6.627 0 12-5.373 12-12S18.627.5 12 .5 0 5.873 0 12.5s5.373 12 12 12z" fill="url(#paint0_linear)"/><path d="M12 24.072c6.391 0 11.572-5.18 11.572-11.572C23.572 6.109 18.392.928 12 .928 5.609.928.428 6.108.428 12.5c0 6.391 5.18 11.572 11.572 11.572z" fill="url(#paint1_linear)"/><path d="M12 21.783a9.283 9.283 0 100-18.566 9.283 9.283 0 000 18.566z" fill="url(#paint2_linear)"/><path d="M12 21.607a9.107 9.107 0 100-18.214 9.107 9.107 0 000 18.214z" fill="url(#paint3_linear)"/><path d="M12 20.601A8.1 8.1 0 1012 4.4a8.1 8.1 0 000 16.201z" fill="url(#paint4_linear)"/><path d="M10.02 7.34v7.803c0 1.64.82 2.577 2.4 2.577 1.582 0 2.402-.937 2.402-2.577V7.34h-1.523v7.906c0 .732-.322.995-.834.995s-.835-.263-.835-.995V7.34h-1.61z" fill="#0C8427"/><path d="M9.18 7.34v7.803c0 1.64.82 2.577 2.401 2.577s2.4-.937 2.4-2.577V7.34H12.46v7.906c0 .732-.322.995-.834.995s-.835-.263-.835-.995V7.34H9.18z" fill="#E2FFE9"/><defs><linearGradient id="paint0_linear" x1="12.008" y1="23.512" x2="12.008" y2="-.501" gradientUnits="userSpaceOnUse"><stop stop-color="#3CCF5D"/><stop offset=".219" stop-color="#34B952"/><stop offset=".557" stop-color="#2BA346"/><stop offset=".714" stop-color="#21943B"/><stop offset="1" stop-color="#3CCF5D"/></linearGradient><linearGradient id="paint1_linear" x1="12.008" y1="23.109" x2="12.008" y2="-.025" gradientUnits="userSpaceOnUse"><stop stop-color="#219C3C"/><stop offset=".182" stop-color="#2B8C41"/><stop offset=".484" stop-color="#78FF96"/><stop offset=".771" stop-color="#31C251"/><stop offset="1" stop-color="#57FF7D"/></linearGradient><linearGradient id="paint2_linear" x1="12.008" y1="21.346" x2="12.008" y2="3.728" gradientUnits="userSpaceOnUse"><stop stop-color="#3CCF5D"/><stop offset=".099" stop-color="#379B4D"/><stop offset=".255" stop-color="#9EFFB4"/><stop offset=".75" stop-color="#47BE61"/><stop offset="1" stop-color="#49D268"/></linearGradient><linearGradient id="paint3_linear" x1="12.008" y1="4.159" x2="12.008" y2="22.37" gradientUnits="userSpaceOnUse"><stop stop-color="#1D7E33"/><stop offset=".417" stop-color="#31AE4D"/><stop offset=".991" stop-color="#4DEF71"/></linearGradient><linearGradient id="paint4_linear" x1="12.009" y1="19.936" x2="12.009" y2="3.726" gradientUnits="userSpaceOnUse"><stop stop-color="#1C8433"/><stop offset=".427" stop-color="#7CFF9A"/><stop offset=".818" stop-color="#3CCF5D"/><stop offset="1" stop-color="#1C8433"/></linearGradient></defs></svg>