<svg width="24" height="24" fill="none" xmlns="http://www.w3.org/2000/svg"><path d="M12 0l5.19 3.011L22.392 6l-.012 6 .012 6-5.202 2.989L12 24l-5.19-3.011L1.608 18l.012-6-.012-6L6.81 3.011 12 0z" fill="url(#paint0_linear)"/><path d="M12 12.05v-12l3.65 5.65 6.75.3L12 12.05z" fill="url(#paint1_linear)"/><path d="M12 12l10.4 6-3.1-6 3.1-6L12 12z" fill="url(#paint2_linear)"/><path d="M12 12v12l3.65-5.7 6.75-.3L12 12z" fill="url(#paint3_linear)"/><path d="M12 12.05v-12L8.35 5.7 1.6 6 12 12.05z" fill="url(#paint4_linear)"/><path d="M12 12L1.6 18l3.1-6-3.1-6L12 12z" fill="url(#paint5_linear)"/><path d="M12 12v12l-3.65-5.7L1.6 18 12 12z" fill="url(#paint6_linear)"/><path d="M8.377 5.68l3.607.92 3.597-.878L16.63 9.32l2.59 2.707-2.558 2.675-1.006 3.585-3.607-.921-3.597.878-1.049-3.597-2.59-2.707L7.37 9.264 8.377 5.68z" fill="url(#paint7_linear)" style="mix-blend-mode:hard-light" opacity=".3"/><path d="M8.384 5.703l3.629 3.513 3.628-3.513-1.228 4.899 4.856 1.386-4.856 1.386 1.228 4.898-3.628-3.512-3.629 3.512 1.228-4.898-4.856-1.386 4.856-1.386-1.228-4.899z" fill="url(#paint8_linear)" style="mix-blend-mode:hard-light" opacity=".6"/><path d="M12 6.6l2.336 1.355 2.34 1.345-.005 2.7.006 2.7-2.341 1.345L12 17.4l-2.335-1.355L7.324 14.7l.005-2.7-.005-2.7 2.34-1.345L12 6.6z" fill="url(#paint9_linear)" style="mix-blend-mode:hard-light"/><path d="M8.9 9.5l.303.175.303.175v.7l-.303.175-.303.175-.303-.175-.303-.175v-.7l.303-.175L8.9 9.5z" fill="#F1F8FA" style="mix-blend-mode:hard-light" opacity=".8"/><defs><linearGradient id="paint0_linear" x1="3.829" y1="3.782" x2="18.537" y2="22.599" gradientUnits="userSpaceOnUse"><stop stop-color="#466CC6"/><stop offset="1" stop-color="#75D2F4"/></linearGradient><linearGradient id="paint1_linear" x1="11.45" y1="3.8" x2="19.351" y2="7.494" gradientUnits="userSpaceOnUse"><stop offset=".153" stop-color="#2251BD"/><stop offset="1" stop-color="#3383E8"/></linearGradient><linearGradient id="paint2_linear" x1="18.2" y1="4.75" x2="21.262" y2="16.733" gradientUnits="userSpaceOnUse"><stop offset=".153" stop-color="#2E35AC"/><stop offset=".721" stop-color="#59A5EC"/></linearGradient><linearGradient id="paint3_linear" x1="14.399" y1="17.631" x2="23.135" y2="18.12" gradientUnits="userSpaceOnUse"><stop offset=".153" stop-color="#5DB9ED"/><stop offset="1" stop-color="#579BEB"/></linearGradient><linearGradient id="paint4_linear" x1="3.25" y1="8.65" x2="12.889" y2="4.564" gradientUnits="userSpaceOnUse"><stop offset=".153" stop-color="#3A79F8"/><stop offset="1" stop-color="#3C57F7"/></linearGradient><linearGradient id="paint5_linear" x1="6.8" y1="6" x2="3.628" y2="18.832" gradientUnits="userSpaceOnUse"><stop offset=".031" stop-color="#2E35AC"/><stop offset=".901" stop-color="#3061C2"/></linearGradient><linearGradient id="paint6_linear" x1="6.8" y1="13.05" x2="11.702" y2="22.28" gradientUnits="userSpaceOnUse"><stop offset=".153" stop-color="#2E35AC"/><stop offset=".827" stop-color="#3380E5"/></linearGradient><linearGradient id="paint7_linear" x1="8.444" y1="13.529" x2="19.263" y2="8.169" gradientUnits="userSpaceOnUse"><stop offset=".153" stop-color="#5DB9ED"/><stop offset="1" stop-color="#579BEB"/></linearGradient><linearGradient id="paint8_linear" x1="5.249" y1="10.155" x2="18.641" y2="15.562" gradientUnits="userSpaceOnUse"><stop stop-color="#2A58C6"/><stop offset="1" stop-color="#4FF4FF"/></linearGradient><linearGradient id="paint9_linear" x1="8.816" y1="8.302" x2="15.601" y2="15.819" gradientUnits="userSpaceOnUse"><stop stop-color="#166CFD"/><stop offset="1" stop-color="#89DFFF"/></linearGradient></defs></svg>