<svg width="133" height="226" fill="none" xmlns="http://www.w3.org/2000/svg"><g filter="url(#filter0_f)"><path d="M17.665 1h97.199c9.61 0 17.4 7.81 17.4 17.444V173.78c0 8.906-6.693 16.383-15.525 17.342l-7.263.789v14.403c0 .463-.265.886-.681 1.088l-13.54 6.565v-20.511l-2.012.219v29.213a1.658 1.658 0 01-2.163 1.582l-12.754-4.097V225H54.71v-4.627l-12.753 4.096a1.658 1.658 0 01-2.163-1.582v-29.158l-1.896-.206v20.443l-13.54-6.565a1.209 1.209 0 01-.681-1.088v-14.335l-7.886-.857C6.958 190.162.264 182.685.264 173.779V18.444C.264 8.81 8.054 1 17.664 1z" fill="url(#paint0_linear)" fill-opacity=".3"/><path d="M109.368 190.916l-.892.097v4.498h1v7.201h-1v3.601a.22.22 0 01-.008.058l.961.276a1.221 1.221 0 01-.354.566l-.669-.744a.186.186 0 01-.047.032l-3.385 1.641.436.9-6.77 3.283-.437-.9-1.948.945v-3.532h-1v-10.255h1v-6.243l-1.108.121-.503.054.102.94h-.491v.109l-.51.055-.108-.994-.502.054-.892.097v8.201h1v14.606h-1v7.304a.656.656 0 01-.07.3l.891.452a1.67 1.67 0 01-1.214.889l-.16-.987a.643.643 0 01-.305-.024l-3.188-1.024-.306.952-6.377-2.049.306-.952-3.188-1.024-1.306-.419v2.528h1v2.314h-1V224h-4.904v1H60.613v-1H55.71v-.157h-1v-2.314h1v-2.528l-1.306.419-3.188 1.025.306.952-6.377 2.048-.305-.952-3.188 1.024a.643.643 0 01-.304.024l-.162.987a1.67 1.67 0 01-1.213-.889l.891-.452a.656.656 0 01-.07-.3v-.026h-1v-.051h1v-.055l-1 .018v-.021l1-.006v-7.258h-1v-14.506h1v-8.151l-.892-.097-.474-.051-.108.994-.422-.046v-.108h-.52l.102-.943-.474-.052-1.108-.12v6.225h1v10.222h-1v3.515l-1.949-.945-.436.9-6.77-3.283.436-.899-3.385-1.642a.177.177 0 01-.048-.032l-.668.744a1.208 1.208 0 01-.354-.566l.961-.276a.208.208 0 01-.008-.058v-3.584h-1v-7.167h1v-4.481l-.892-.097-1.971-.214-.108.994-3.943-.429.108-.994-1.972-.214a16.332 16.332 0 01-5.72-1.714l-.458.889a17.474 17.474 0 01-8.31-9.29l.934-.357a16.443 16.443 0 01-1.08-5.876v-5.548h-1v-11.095h1V146.04h-1v-11.095h1V123.85h-1v-11.096h1v-11.095h-1V90.564h1V79.468h-1V68.373h1V57.278h-1V46.182h1V35.087h-1V23.992h1v-5.548c0-2.23.442-4.352 1.242-6.288l-.924-.382a17.482 17.482 0 019.415-9.447l.384.923A16.31 16.31 0 0117.665 2h6.075V1h12.15v1h12.15V1h12.15v1h12.15V1h12.15v1h12.15V1h12.149v1h6.075c2.228 0 4.35.445 6.284 1.25l.384-.923a17.484 17.484 0 019.415 9.447l-.924.382a16.424 16.424 0 011.241 6.288v5.548h1v11.095h-1v11.095h1v11.096h-1v11.095h1v11.095h-1v11.096h1v11.095h-1v11.095h1v11.096h-1v11.095h1v11.095h-1v11.096h1v11.095h-1v5.548a16.45 16.45 0 01-1.079 5.876l.934.357a17.473 17.473 0 01-8.31 9.29l-.458-.889a16.329 16.329 0 01-5.72 1.714l-1.816.197.108.994-3.632.395-.108-.994-1.815.197z" stroke="#fff" stroke-width="2" stroke-dasharray="11 11"/></g><defs><linearGradient id="paint0_linear" x1="132.425" y1="1" x2="-27.214" y2="220.313" gradientUnits="userSpaceOnUse"><stop stop-color="#35355E"/><stop offset=".5" stop-color="#181829"/><stop offset=".958" stop-color="#181829"/></linearGradient><filter id="filter0_f" x=".084" y=".819" width="132.362" height="224.362" filterUnits="userSpaceOnUse" color-interpolation-filters="sRGB"><feFlood flood-opacity="0" result="BackgroundImageFix"/><feBlend in="SourceGraphic" in2="BackgroundImageFix" result="shape"/><feGaussianBlur stdDeviation=".09" result="effect1_foregroundBlur"/></filter></defs></svg>