<svg width="135" height="200" fill="none" xmlns="http://www.w3.org/2000/svg"><path d="M16.194 1.5h102.612c8.115 0 14.694 6.579 14.694 14.694v161.945c0 7.501-5.65 13.798-13.108 14.608l-51.306 5.572a14.76 14.76 0 01-3.172 0l-51.306-5.572C7.15 191.937 1.5 185.64 1.5 178.139V16.194C1.5 8.079 8.079 1.5 16.194 1.5z" fill="url(#paint0_linear)" stroke="url(#paint1_radial)" stroke-width="3" stroke-miterlimit="5.759"/><circle cx="68" cy="82" r="11" stroke="#fff" stroke-width="2"/><path d="M68 78v8m4-4h-8" stroke="#fff" stroke-width="2" stroke-linejoin="round"/><path d="M42.066 107.2V124h1.871v-6.624h1.657c2.663 0 3.911-1.392 3.911-4.056v-2.016c0-2.544-1.128-4.104-3.768-4.104h-3.672zm1.871 8.496v-6.792h1.8c1.368 0 1.92.768 1.92 2.304v2.232c0 1.608-.671 2.256-2.063 2.256h-1.657zM57.645 124v-1.704h-4.8V107.2h-1.872V124h6.672zm7.558-3.384L65.85 124h1.872l-3.216-16.8h-2.712L58.578 124h1.728l.648-3.384h4.248zm-2.16-11.304l1.896 9.696h-3.744l1.848-9.696zM70.987 124h1.848v-6.024L76.41 107.2h-1.776l-2.64 8.256-2.616-8.256h-1.944l3.552 10.776V124zm8.646-9.36v-5.736h5.04V107.2H77.76V124h6.912v-1.704h-5.04v-5.976h4.104v-1.68h-4.104zm6.776-7.44V124h1.872v-7.176h1.32c1.56 0 2.448.6 2.448 2.496v2.64c0 1.128.096 1.56.312 2.04h1.896c-.312-.576-.336-1.272-.336-2.016v-2.616c0-1.8-.576-3.048-2.112-3.504 1.44-.456 2.088-1.608 2.088-3.456v-1.368c0-2.496-1.104-3.84-3.744-3.84H86.41zm1.872 7.92v-6.216h1.824c1.392 0 1.944.792 1.944 2.304v1.608c0 1.824-.888 2.304-2.376 2.304h-1.392z" fill="#fff"/><defs><radialGradient id="paint1_radial" cx="0" cy="0" r="1" gradientUnits="userSpaceOnUse" gradientTransform="matrix(-.46943 242.31055 -174.98467 -.339 67.5 0)"><stop stop-color="#898DED"/><stop offset="1" stop-color="#282B62" stop-opacity=".9"/></radialGradient><linearGradient id="paint0_linear" x1="135.164" y1="0" x2="-.442" y2="213.393" gradientUnits="userSpaceOnUse"><stop stop-color="#35355E"/><stop offset=".5" stop-color="#181829"/><stop offset=".958" stop-color="#181829"/></linearGradient></defs></svg>