<svg width="36" height="16" fill="none" xmlns="http://www.w3.org/2000/svg"><path d="M8 3.878C2.343 3.978 0 8 0 8s2.343 4.022 8 4.122C13.657 12.022 16 8 16 8s-2.343-4.022-8-4.122z" fill="#D8ECFE"/><path d="M15.005 6.767c.073.108.11.17.11.17s-2.344 4.022-8 4.122C3.532 10.996 1.28 9.361.108 8.17c.522.766 2.934 3.865 7.89 3.953C13.658 12.022 16 8 16 8s-.315-.542-.995-1.233z" fill="#C4E2FF"/><path d="M8 12.122a4.122 4.122 0 100-8.244 4.122 4.122 0 000 8.244z" fill="#0182FC"/><path d="M8 10.303A2.306 2.306 0 015.697 8 2.306 2.306 0 018 5.697 2.306 2.306 0 0110.303 8 2.306 2.306 0 018 10.303z" fill="#465A61"/><path d="M9.376 7.739a1.115 1.115 0 111.114-1.114c0 .614-.5 1.114-1.114 1.114z" fill="#D8ECFE"/><path d="M10.335 4.602a4.122 4.122 0 01-5.732 5.732 4.122 4.122 0 105.732-5.732z" fill="#0172FB"/><path d="M22 5.172h11.314l-5.657 5.656L22 5.172z" fill="#8A7FE0"/></svg>