<svg width="24" height="24" fill="none" xmlns="http://www.w3.org/2000/svg"><path d="M20.46 15.54A9.17 9.17 0 103.54 8.46a9.17 9.17 0 0016.92 7.08z" fill="#fff"/><path fill-rule="evenodd" clip-rule="evenodd" d="M17.708 5a9.204 9.204 0 013.61 7.344 9.225 9.225 0 01-9.235 9.236c-3.12 0-5.87-1.547-7.565-3.905a9.152 9.152 0 005.625 1.915c5.109 0 9.235-4.15 9.235-9.235A9.066 9.066 0 0017.708 5z" fill="#DADADA"/><path fill-rule="evenodd" clip-rule="evenodd" d="M20.042 7.397a9.466 9.466 0 00-2.383-2.555 8.744 8.744 0 00-1.007-.638 9.188 9.188 0 00-3.144-1.081A8.789 8.789 0 0012.083 3c-.344 0-.663.025-.982.05a7.725 7.725 0 00-1.548.294c-.147.049-.27.074-.393.123-1.228.393-2.333 1.056-3.291 1.891a10.026 10.026 0 00-1.99 2.432 9.29 9.29 0 00-1.228 4.642 9.29 9.29 0 001.228 4.643 9.492 9.492 0 001.99 2.431 9.764 9.764 0 003.291 1.892c.123.049.27.073.393.123a7.84 7.84 0 001.548.294c.32.025.663.05.982.05.492 0 .983-.05 1.45-.123a9.189 9.189 0 003.144-1.081c.343-.197.687-.418 1.007-.639a9.84 9.84 0 002.382-2.554 9.437 9.437 0 001.45-5.036c0-1.867-.54-3.586-1.474-5.035zm-3.365-2.58c.343.222.687.443 1.007.713.245.196.466.393.687.614.197.197.393.393.565.614-.024 0-.049-.024-.073-.024a8.535 8.535 0 00-1.155-1.155c-.147-.098-.27-.221-.417-.295-.197-.122-.393-.245-.59-.344a6.322 6.322 0 00-1.277-.515 2.235 2.235 0 00-.516-.443c.59.222 1.204.516 1.769.836zm-3.144.197c.393-.245 1.056-.442 1.694-.467.516.123.983.32 1.45.565.172.099.343.197.49.295.173.123.345.246.492.369a9.22 9.22 0 011.351 1.4c.344.712.467 1.572.27 2.186-.54.147-1.056.295-1.62.417-.271.074-.566.148-.836.197-.05-.05-.098-.123-.172-.172a7.455 7.455 0 00-2.751-1.769 11.48 11.48 0 00-.246-1.596c-.049-.197-.098-.369-.147-.565a4.165 4.165 0 00-.246-.663c.098-.074.172-.148.27-.197zM11.1 4.621c.786.074 1.498.27 2.038.614.172.369.295.786.394 1.228v.025c.122.516.196 1.056.245 1.572-.074.05-.172.074-.245.123-.885.491-1.843 1.228-2.432 1.867-.025.024-.05.073-.099.098a15.508 15.508 0 00-1.449-.344 1.233 1.233 0 00-.295-.05L9.16 9.73a20.001 20.001 0 00-1.695-.22c-.368-.836-.49-1.671-.515-2.604a6.516 6.516 0 011.277-1.327c.295-.221.59-.417.909-.614.123-.074.27-.147.393-.196.147-.074.294-.123.442-.197.393 0 .761 0 1.13.05zm1.031 9.015a15.089 15.089 0 01-1.031 1.523l-.025.024c-.368.492-.761.983-1.179 1.45H9.53c-.148 0-.27 0-.393-.025a8.417 8.417 0 01-2.629-.639 9.945 9.945 0 01-.638-1.375c-.05-.123-.098-.27-.148-.393-.196-.565-.319-1.155-.417-1.769.172-.417.344-.786.565-1.13a5.63 5.63 0 011.572-1.72c.59.05 1.154.124 1.72.222l.073.025c.098.024.221.049.32.049.466.098.908.196 1.375.319.049.172.123.368.172.54a45.29 45.29 0 001.031 2.899zM5.795 6.144l.05-.05c.933-.908 2.038-1.62 3.29-2.038.123-.049.27-.098.394-.123.147-.049.319-.098.466-.122-.172.171-.196.417-.22.712-.074.024-.148.074-.222.098-.147.074-.27.123-.393.197a7.877 7.877 0 00-1.007.638 6.15 6.15 0 00-1.302 1.351 6.492 6.492 0 00-.982.295 3.253 3.253 0 00-1.204.81c0-.073-.024-.147-.024-.22v-.099a8.086 8.086 0 011.154-1.449zM3.88 9.018a9.22 9.22 0 01.614-1.204c0 .099.025.172.05.27l-.025.05a4.412 4.412 0 00-.614 1.277c-.197.639-.32 1.302-.27 1.94-.148.148-.27.32-.393.54.049-1.03.27-1.989.638-2.873zm1.376 9.04c-.025 0-.05-.025-.05-.025a8.584 8.584 0 01-1.301-2.187 8.828 8.828 0 01-.688-3.414v-.245a.996.996 0 01.123-.221c.098-.172.22-.344.344-.492l.22.221c.37.32.787.565 1.278.737.098.639.246 1.253.442 1.867.074.246.172.491.27.737.172.393.344.761.565 1.13-.27.688-.442 1.375-.393 2.112-.049 0-.098 0-.147-.024-.27-.05-.467-.099-.663-.197zm3.88 2.75a8.953 8.953 0 01-3.29-2.038l-.05-.05c-.147-.147-.27-.27-.393-.417.147.049.295.098.467.123.073 0 .123.024.196.024.344.737 1.892 1.793 2.923 1.99.025.098.074.245.148.368zm6.731-.344a9.24 9.24 0 01-2.333.737 9.352 9.352 0 01-1.45.123c-.344 0-.663-.025-.982-.049a7.861 7.861 0 01-1.548-.32c-.049-.024-.098-.024-.123-.048-.122-.123-.196-.27-.27-.443v-.024c.148 0 .27-.025.393-.05a3.494 3.494 0 001.548-.663c.098-.073.196-.147.294-.245.418.172 1.032.245 1.67.245.148 0 .296 0 .468-.024a9.789 9.789 0 001.694-.295c.221.295.492.565.81.737a1.287 1.287 0 01-.171.32zm.81-.442a6.56 6.56 0 01-.564.32c.024-.05.049-.123.073-.172.148-.05.32-.099.492-.148.024-.024.049-.024.073-.049l-.073.05zm0-2.161c-.392.565-.835 1.056-1.252 1.326-.565.197-1.253.32-1.891.368-.148 0-.32.025-.467.025-.663 0-1.253-.074-1.646-.245-.123-.148-.221-.295-.32-.443-.441-.638-.834-1.35-1.056-2.137.369-.442.713-.86 1.057-1.301.049-.074.098-.123.147-.197a14.52 14.52 0 001.007-1.498 22.18 22.18 0 003.586-.05c.32.369.59.787.86 1.229.025.049.05.073.074.122.245.443.466.91.639 1.425-.222.491-.467.958-.737 1.376zm.983-1.376h-.147a11.984 11.984 0 00-.663-1.498c-.074-.123-.123-.221-.197-.344-.221-.344-.442-.688-.712-.983.319-.687.54-1.35.712-2.038a7.59 7.59 0 00.221-1.523c.27-.074.516-.123.761-.197.54-.147 1.081-.27 1.622-.417.245.172.515.49.761.909.221.393.418.884.54 1.4a6.81 6.81 0 01-.22 2.26c-.099.319-.197.638-.344.957-.123.295-.295.565-.467.836a3.415 3.415 0 01-1.867.638zm1.818.835c.196-.466.27-.909.22-1.35a7.28 7.28 0 00.345-.59 6.99 6.99 0 00.491-1.253 7.272 7.272 0 00.221-2.088.854.854 0 00.172-.27c.025.221.025.418.025.639 0 1.4-.32 2.726-.91 3.905a5.05 5.05 0 01-.564 1.007z" fill="url(#paint0_linear)"/><defs><linearGradient id="paint0_linear" x1="7.76" y1="3" x2="24.41" y2="8.967" gradientUnits="userSpaceOnUse"><stop stop-color="#D2AB68"/><stop offset="1" stop-color="#B67D3F"/></linearGradient></defs></svg>