<svg width="25" height="24" fill="none" xmlns="http://www.w3.org/2000/svg"><path d="M12.73 24c6.627 0 12-5.373 12-12s-5.373-12-12-12-12 5.373-12 12 5.373 12 12 12z" fill="url(#paint0_linear)"/><path d="M12.73 23.572c6.391 0 11.572-5.18 11.572-11.572 0-6.39-5.18-11.572-11.572-11.572C6.339.428 1.158 5.608 1.158 12c0 6.391 5.18 11.572 11.572 11.572z" fill="url(#paint1_linear)"/><path d="M12.73 21.283a9.283 9.283 0 100-18.566 9.283 9.283 0 000 18.566z" fill="url(#paint2_linear)"/><path d="M12.73 21.107a9.107 9.107 0 100-18.214 9.107 9.107 0 000 18.214z" fill="url(#paint3_linear)"/><path d="M12.73 20.1a8.1 8.1 0 100-16.2 8.1 8.1 0 000 16.2z" fill="url(#paint4_linear)"/><g filter="url(#filter0_d)"><path d="M10.652 6.977v7.514c0 1.579.803 2.48 2.353 2.48 1.55 0 2.353-.901 2.353-2.48V6.977h-1.492v7.612c0 .705-.316.959-.818.959s-.818-.254-.818-.959V6.977h-1.578z" fill="#A9803D"/><path d="M10.079 6.977v7.514c0 1.579.803 2.48 2.353 2.48 1.55 0 2.353-.901 2.353-2.48V6.977h-1.492v7.612c0 .705-.316.959-.818.959s-.818-.254-.818-.959V6.977H10.08z" fill="#fff"/></g><defs><linearGradient id="paint0_linear" x1="12.738" y1="23.012" x2="12.738" y2="-1.001" gradientUnits="userSpaceOnUse"><stop stop-color="#C99B14"/><stop offset=".214" stop-color="#B78817"/><stop offset=".222" stop-color="#B98B1B"/><stop offset=".34" stop-color="#D6B74E"/><stop offset=".442" stop-color="#EBD774"/><stop offset=".524" stop-color="#F8EA8B"/><stop offset=".576" stop-color="#FDF193"/><stop offset=".578" stop-color="#F9EB8A"/><stop offset=".589" stop-color="#ECD66B"/><stop offset=".601" stop-color="#E1C34F"/><stop offset=".615" stop-color="#D8B439"/><stop offset=".63" stop-color="#D1A928"/><stop offset=".65" stop-color="#CDA11D"/><stop offset=".678" stop-color="#CA9C16"/><stop offset=".754" stop-color="#C99B14"/><stop offset=".757" stop-color="#C79814"/><stop offset=".791" stop-color="#AF7E15"/><stop offset=".828" stop-color="#9E6A16"/><stop offset=".869" stop-color="#915B17"/><stop offset=".919" stop-color="#895317"/><stop offset="1" stop-color="#875017"/></linearGradient><linearGradient id="paint1_linear" x1="12.738" y1="22.609" x2="12.738" y2="-.525" gradientUnits="userSpaceOnUse"><stop stop-color="#875017"/><stop offset=".081" stop-color="#895317"/><stop offset=".131" stop-color="#915B17"/><stop offset=".172" stop-color="#9E6A16"/><stop offset=".209" stop-color="#AF7E15"/><stop offset=".243" stop-color="#C79814"/><stop offset=".246" stop-color="#C99B14"/><stop offset=".322" stop-color="#CA9C16"/><stop offset=".35" stop-color="#CDA11D"/><stop offset=".369" stop-color="#D1A928"/><stop offset=".385" stop-color="#D8B439"/><stop offset=".399" stop-color="#E1C34F"/><stop offset=".411" stop-color="#ECD66B"/><stop offset=".422" stop-color="#F9EB8A"/><stop offset=".424" stop-color="#FDF193"/><stop offset=".476" stop-color="#F8EA8B"/><stop offset=".558" stop-color="#EBD774"/><stop offset=".66" stop-color="#D6B74E"/><stop offset=".778" stop-color="#B98B1B"/><stop offset=".786" stop-color="#B78817"/><stop offset="1" stop-color="#C99B14"/></linearGradient><linearGradient id="paint2_linear" x1="12.738" y1="20.846" x2="12.738" y2="3.228" gradientUnits="userSpaceOnUse"><stop stop-color="#C99B14"/><stop offset=".037" stop-color="#CFA523"/><stop offset=".11" stop-color="#E0C14C"/><stop offset=".209" stop-color="#FAEC8C"/><stop offset=".22" stop-color="#FDF193"/><stop offset=".251" stop-color="#FAEC8B"/><stop offset=".299" stop-color="#F1DE77"/><stop offset=".357" stop-color="#E3C754"/><stop offset=".423" stop-color="#D0A725"/><stop offset=".445" stop-color="#C99B14"/><stop offset=".61" stop-color="#EDD66C"/><stop offset=".693" stop-color="#FDF193"/><stop offset=".905" stop-color="#B78817"/><stop offset="1" stop-color="#C99B14"/></linearGradient><linearGradient id="paint3_linear" x1="12.738" y1="3.659" x2="12.738" y2="21.87" gradientUnits="userSpaceOnUse"><stop stop-color="#875017"/><stop offset=".107" stop-color="#9D6A17"/><stop offset=".247" stop-color="#B78817"/><stop offset=".668" stop-color="#FDF193"/><stop offset=".743" stop-color="#FCEF90"/><stop offset=".801" stop-color="#F8E886"/><stop offset=".853" stop-color="#F1DD76"/><stop offset=".901" stop-color="#E8CE5F"/><stop offset=".947" stop-color="#DBB941"/><stop offset=".991" stop-color="#CDA11D"/><stop offset="1" stop-color="#C99B14"/></linearGradient><linearGradient id="paint4_linear" x1="12.738" y1="19.435" x2="12.738" y2="3.225" gradientUnits="userSpaceOnUse"><stop stop-color="#875017"/><stop offset=".107" stop-color="#9D6A17"/><stop offset=".247" stop-color="#B78817"/><stop offset=".668" stop-color="#FDF193"/><stop offset=".743" stop-color="#FCEF90"/><stop offset=".801" stop-color="#F8E886"/><stop offset=".853" stop-color="#F1DD76"/><stop offset=".901" stop-color="#E8CE5F"/><stop offset=".947" stop-color="#DBB941"/><stop offset=".991" stop-color="#CDA11D"/><stop offset="1" stop-color="#C99B14"/></linearGradient><filter id="filter0_d" x="9.652" y="6.478" width="6.703" height="11.419" filterUnits="userSpaceOnUse" color-interpolation-filters="sRGB"><feFlood flood-opacity="0" result="BackgroundImageFix"/><feColorMatrix in="SourceAlpha" values="0 0 0 0 0 0 0 0 0 0 0 0 0 0 0 0 0 0 127 0"/><feOffset dx=".285" dy=".214"/><feGaussianBlur stdDeviation=".356"/><feColorMatrix values="0 0 0 0 0.404167 0 0 0 0 0.283338 0 0 0 0 0.0858854 0 0 0 0.55 0"/><feBlend in2="BackgroundImageFix" result="effect1_dropShadow"/><feBlend in="SourceGraphic" in2="effect1_dropShadow" result="shape"/></filter></defs></svg>