<svg width="133" height="223" fill="none" xmlns="http://www.w3.org/2000/svg"><mask id="a" fill="#fff"><path fill-rule="evenodd" clip-rule="evenodd" d="M9.36 5.9L65.153.056c.71-.075 1.426-.075 2.136 0L123.08 5.9a10.252 10.252 0 019.184 10.196v147.242c0 4.314-2.701 8.167-6.757 9.638l-5.422 1.966v11.478c0 .614-.336 1.179-.875 1.472l-21.256 11.556v7.814l-30.34 15.423a1.61 1.61 0 01-1.463-.003l-29.56-15.152v-6.518l-24.132-13.12a1.675 1.675 0 01-.875-1.472v-11.758l-4.65-1.686a10.253 10.253 0 01-6.758-9.638V16.096c0-5.248 3.965-9.65 9.185-10.196z"/></mask><path fill-rule="evenodd" clip-rule="evenodd" d="M9.36 5.9L65.153.056c.71-.075 1.426-.075 2.136 0L123.08 5.9a10.252 10.252 0 019.184 10.196v147.242c0 4.314-2.701 8.167-6.757 9.638l-5.422 1.966v11.478c0 .614-.336 1.179-.875 1.472l-21.256 11.556v7.814l-30.34 15.423a1.61 1.61 0 01-1.463-.003l-29.56-15.152v-6.518l-24.132-13.12a1.675 1.675 0 01-.875-1.472v-11.758l-4.65-1.686a10.253 10.253 0 01-6.758-9.638V16.096c0-5.248 3.965-9.65 9.185-10.196z" fill="url(#paint0_linear)" fill-opacity=".3"/><path d="M65.152.056l.105.994-.105-.994zM9.361 5.9l-.104-.995.104.995zM67.288.056l.105-.995-.105.995zM123.08 5.9l-.104.994.104-.994zm9.184 10.196h1-1zm0 147.242h-1 1zm-6.757 9.638l-.341-.94.341.94zm-5.422 1.966l-.341-.94-.659.239v.701h1zm-.875 12.95l-.478-.879.478.879zm-21.256 11.556l-.477-.878-.523.284v.594h1zm0 7.814l.453.891.547-.278v-.613h-1zm-30.34 15.423l.454.891-.453-.891zm-1.463-.003l-.456.89.456-.89zm-29.56-15.152h-1v.611l.544.278.456-.889zm0-6.518h1v-.595l-.522-.284-.478.879zm-24.132-13.12l.478-.879-.478.879zm-.875-13.23h1v-.701l-.66-.239-.34.94zm-4.65-1.686l.34-.94-.34.94zm-6.758-9.638h-1 1zm0-147.242h1-1zM65.048-.939l-4.65.487.21 1.99 4.649-.488-.209-1.989zM51.1.522l-9.298.974.208 1.99 9.299-.975L51.1.522zM32.503 2.47l-9.299.974.209 1.99 9.298-.975-.208-1.989zM13.906 4.418l-4.65.487.209 1.99 4.65-.488-.21-1.989zm-4.65.487a11.229 11.229 0 00-3.934 1.162L6.23 7.85a9.229 9.229 0 013.235-.955l-.208-1.989zm-9.333 7.157a11.229 11.229 0 00-.747 4.034h2c0-1.166.217-2.285.613-3.317l-1.866-.717zm-.747 4.034v5.259h2v-5.259h-2zm0 15.776V42.39h2V31.872h-2zm0 21.035v10.517h2V52.907h-2zm0 21.034v10.517h2V73.941h-2zm0 21.035v10.517h2V94.976h-2zm0 21.034v10.517h2V116.01h-2zm0 21.035v10.517h2v-10.517h-2zm0 21.034v5.259h2v-5.259h-2zm0 5.259c0 1.17.181 2.31.522 3.387l1.907-.602a9.24 9.24 0 01-.429-2.785h-2zm4.41 8.934a11.242 11.242 0 003.007 1.644l.682-1.88a9.243 9.243 0 01-2.472-1.352l-1.217 1.588zm3.007 1.644l1.163.422.681-1.88-1.162-.422-.682 1.88zm3.488 1.265l1.162.422.682-1.881-1.163-.421-.681 1.88zm.503-.519v2.94h2v-2.94h-2zm0 8.819v2.939h2v-2.939h-2zm0 2.939c0 .243.033.481.096.709l1.928-.53a.669.669 0 01-.024-.179h-2zm.82 1.928c.17.164.364.306.577.422l.956-1.757a.664.664 0 01-.146-.106l-1.387 1.441zm.577.422l6.033 3.28.956-1.757-6.033-3.28-.956 1.757zm18.1 9.841l6.032 3.28.956-1.758-6.033-3.28-.956 1.758zm5.51 2.401v1.629h2v-1.629h-2zm0 4.888v1.63h2v-1.63h-2zm.544 2.519l3.695 1.895.912-1.78-3.695-1.894-.912 1.779zm11.085 5.683l7.39 3.788.912-1.78-7.39-3.788-.912 1.78zM62 221.678l3.695 1.894.912-1.78-3.695-1.894-.912 1.78zm3.695 1.894a2.6 2.6 0 00.576.214l.47-1.944a.611.611 0 01-.134-.05l-.912 1.78zm1.796.216a2.6 2.6 0 00.577-.212l-.907-1.783a.613.613 0 01-.134.05l.464 1.945zm.577-.212l3.792-1.928-.906-1.783-3.793 1.928.907 1.783zm11.377-5.784l7.585-3.855-.906-1.783-7.585 3.856.906 1.782zm15.17-7.711l3.792-1.928-.906-1.783-3.792 1.928.906 1.783zm4.34-2.819v-1.954h-2v1.954h2zm0-5.86v-1.954h-2v1.954h2zm-.523-1.075l5.314-2.889-.955-1.757-5.314 2.889.955 1.757zm15.942-8.668l5.314-2.889-.956-1.757-5.314 2.889.956 1.757zm5.314-2.889c.213-.116.406-.258.577-.422l-1.387-1.441a.674.674 0 01-.146.106l.956 1.757zm1.301-1.641a2.66 2.66 0 00.096-.709h-2a.661.661 0 01-.024.179l1.928.53zm.096-.709v-2.869h-2v2.869h2zm0-8.608v-2.87h-2v2.87h2zm-.659-1.93l1.355-.491-.681-1.88-1.356.491.682 1.88zm4.066-1.474l1.356-.492-.682-1.88-1.355.492.681 1.88zm1.356-.492c1.1-.399 2.11-.957 3.006-1.644l-1.216-1.588a9.252 9.252 0 01-2.472 1.352l.682 1.88zm6.895-7.191c.34-1.077.521-2.217.521-3.387h-2c0 .963-.149 1.9-.428 2.785l1.907.602zm.521-3.387v-5.259h-2v5.259h2zm0-15.776v-10.517h-2v10.517h2zm0-21.035V116.01h-2v10.517h2zm0-21.034V94.976h-2v10.517h2zm0-21.034V73.94h-2v10.517h2zm0-21.035V52.907h-2v10.517h2zm0-21.035V31.872h-2V42.39h2zm0-21.034v-5.259h-2v5.259h2zm0-5.259c0-1.416-.263-2.777-.746-4.034l-1.867.717a9.215 9.215 0 01.613 3.317h2zm-6.145-10.028a11.23 11.23 0 00-3.935-1.163l-.208 1.99c1.16.12 2.25.453 3.235.955l.908-1.782zm-3.935-1.163l-4.649-.487-.208 1.99 4.649.486.208-1.989zm-13.948-1.46l-9.298-.975-.209 1.99 9.299.973.208-1.989zm-18.597-1.95L81.341.522l-.209 1.99 9.299.973.208-1.989zM72.042-.452l-4.65-.487-.208 1.99 4.65.486.208-1.989zm-4.65-.487c-.194-.02-.39-.035-.585-.046l-.104 1.998c.16.008.321.02.481.037l.209-1.989zm-1.758-.046c-.196.01-.391.026-.586.046l.209 1.99c.16-.017.32-.03.48-.038l-.103-1.998zm-.482 1.04l.209 1.99-.209-1.99zM9.361 5.9l-.209-1.99.209 1.99zM67.288.056l.209-1.99-.209 1.99zM123.08 5.9l-.208 1.989.208-1.99zm9.184 10.196h2-2zm0 147.242h-2 2zm-6.757 9.638l-.682-1.88.682 1.88zm-5.422 1.966l-.682-1.88-1.318.478v1.402h2zm-.875 12.95l-.955-1.757.955 1.757zm-21.256 11.556L97 197.691l-1.045.568v1.189h2zm0 7.814l.907 1.783 1.093-.556v-1.227h-2zm-30.34 15.423l.907 1.782-.906-1.782zm-1.463-.003l-.912 1.78.912-1.78zm-29.56-15.152h-2v1.222l1.088.557.912-1.779zm0-6.518h2v-1.189l-1.045-.568-.955 1.757zm-24.132-13.12l.955-1.757-.955 1.757zm-.875-13.23h2v-1.402l-1.318-.478-.682 1.88zm-4.65-1.686l.682-1.88-.682 1.88zm-6.758-9.638h-2 2zm0-147.242h2-2zm64.768-18.03l-4.65.488.417 3.978 4.65-.487-.417-3.978zM50.996-.471l-9.299.974.417 3.978 9.299-.974-.417-3.978zM32.4 1.476l-9.3.974.417 3.978 9.299-.974-.417-3.978zM13.802 3.424l-4.65.487.417 3.978 4.65-.487-.417-3.978zm-4.65.487c-1.532.16-2.977.6-4.284 1.266L6.684 8.74a8.229 8.229 0 012.885-.851L9.152 3.91zM-1.01 11.703a12.228 12.228 0 00-.813 4.393h4c0-1.042.194-2.04.547-2.958l-3.734-1.435zm-.813 4.393v5.259h4v-5.259h-4zm0 15.776V42.39h4V31.872h-4zm0 21.035v10.517h4V52.907h-4zm0 21.034v10.517h4V73.941h-4zm0 21.035v10.517h4V94.976h-4zm0 21.034v10.517h4V116.01h-4zm0 21.035v10.517h4v-10.517h-4zm0 21.034v5.259h4v-5.259h-4zm0 5.259c0 1.273.198 2.515.568 3.688l3.814-1.204a8.244 8.244 0 01-.382-2.484h-4zm4.802 9.727a12.217 12.217 0 003.274 1.791l1.364-3.76a8.244 8.244 0 01-2.205-1.206l-2.433 3.175zm3.274 1.791l1.163.422 1.363-3.76-1.162-.422-1.364 3.76zm3.488 1.265l1.162.422 1.364-3.761-1.163-.421-1.363 3.76zm-.156-1.459v2.94h4v-2.94h-4zm0 8.819v2.939h4v-2.939h-4zm0 2.939c0 .333.045.661.131.974l3.857-1.06a.32.32 0 01.012.086h-4zm1.127 2.648c.234.226.5.422.793.581l1.91-3.514c.026.013.05.031.07.051l-2.773 2.882zm.793.581l6.033 3.28 1.91-3.514-6.033-3.28-1.91 3.514zm18.099 9.84l6.033 3.28 1.91-3.514-6.033-3.28-1.91 3.514zm4.988 1.523v1.629h4v-1.629h-4zm0 4.888v1.63h4v-1.63h-4zm1.088 3.409l3.695 1.894 1.824-3.559-3.695-1.894-1.824 3.559zm11.085 5.683l7.39 3.788 1.824-3.56-7.39-3.788-1.824 3.56zm14.78 7.576l3.695 1.894 1.825-3.56-3.695-1.894-1.825 3.56zm3.695 1.894c.255.131.523.23.797.296l.941-3.888a.44.44 0 01.087.032l-1.825 3.56zm2.484.299a3.6 3.6 0 00.798-.294l-1.813-3.565a.382.382 0 01.087-.032l.928 3.891zm.798-.294l3.792-1.927-1.812-3.566-3.793 1.928 1.813 3.565zm11.377-5.783l7.585-3.856-1.812-3.566-7.585 3.856 1.812 3.566zm15.17-7.711l3.793-1.928-1.813-3.566-3.793 1.928 1.813 3.566zm4.886-3.711v-1.954h-4v1.954h4zm0-5.86v-1.954h-4v1.954h4zm-1.044-.197l5.313-2.889-1.91-3.514L97 197.691l1.91 3.514zm15.941-8.667l5.314-2.889-1.91-3.514-5.314 2.889 1.91 3.514zm5.314-2.889a3.64 3.64 0 00.793-.581l-2.773-2.882a.292.292 0 01.07-.051l1.91 3.514zm1.789-2.255c.086-.313.131-.641.131-.974h-4c0-.029.004-.058.012-.086l3.857 1.06zm.131-.974v-2.869h-4v2.869h4zm0-8.608v-2.87h-4v2.87h4zm-1.318-.99l1.355-.491-1.363-3.76-1.356.491 1.364 3.76zm4.066-1.474l1.356-.492-1.364-3.76-1.355.492 1.363 3.76zm1.356-.492a12.225 12.225 0 003.274-1.791l-2.433-3.175a8.25 8.25 0 01-2.205 1.206l1.364 3.76zm7.508-7.83c.37-1.173.567-2.415.567-3.688h-4c0 .859-.133 1.695-.382 2.484l3.815 1.204zm.567-3.688v-5.259h-4v5.259h4zm0-15.776v-10.517h-4v10.517h4zm0-21.035V116.01h-4v10.517h4zm0-21.034V94.976h-4v10.517h4zm0-21.034V73.94h-4v10.517h4zm0-21.035V52.907h-4v10.517h4zm0-21.035V31.872h-4V42.39h4zm0-21.034v-5.259h-4v5.259h4zm0-5.259c0-1.54-.286-3.024-.812-4.393l-3.734 1.435a8.23 8.23 0 01.546 2.958h4zm-6.691-10.92a12.228 12.228 0 00-4.285-1.265l-.416 3.978a8.23 8.23 0 012.885.852l1.816-3.564zm-4.285-1.265l-4.649-.487-.417 3.978 4.65.487.416-3.978zM109.34 2.45l-9.298-.974-.417 3.978 9.299.974.416-3.978zM90.743.502l-9.298-.974-.417 3.978 9.299.974.416-3.978zM72.146-1.446l-4.65-.487-.416 3.978 4.65.487.416-3.978zm-4.65-.487a12.244 12.244 0 00-.637-.05l-.208 3.994c.143.008.286.019.43.034l.416-3.978zm-1.915-.05a12.26 12.26 0 00-.637.05l.417 3.978c.142-.015.286-.026.429-.034l-.209-3.994z" fill="#fff" mask="url(#a)"/><defs><linearGradient id="paint0_linear" x1="132.425" y1="0" x2="-26.117" y2="219.067" gradientUnits="userSpaceOnUse"><stop stop-color="#35355E"/><stop offset=".5" stop-color="#181829"/><stop offset=".958" stop-color="#181829"/></linearGradient></defs></svg>