<svg width="127" height="32" fill="none" xmlns="http://www.w3.org/2000/svg"><path d="M.488 6.406A.451.451 0 01.859 5.7h28.016v26.168H.86a.451.451 0 01-.371-.707l7.476-10.84a2.707 2.707 0 000-3.074L.488 6.406z" fill="#73C29C"/><path d="M28.875 31.868l-15.34-5.415h15.34v5.415z" fill="#4DA379"/><path d="M125.841 6.406a.45.45 0 00-.371-.707H97.454v26.168h28.016a.45.45 0 00.371-.707l-7.475-10.84a2.707 2.707 0 010-3.074l7.475-10.84z" fill="#73C29C"/><path d="M97.454 31.868l15.34-5.415h-15.34v5.415z" fill="#4DA379"/><path d="M14 1.805C14 .808 14.808 0 15.805 0h95.649c.996 0 1.804.808 1.804 1.805v24.363H14V1.805z" fill="url(#paint0_linear)"/><path d="M14 1.805C14 .808 14.808 0 15.805 0h95.649c.996 0 1.804.808 1.804 1.805v24.363H14V1.805z" fill="url(#paint1_linear)"/><path d="M34.036 9.992V19h1.184V7.8h-1.744L31.7 16.744 29.86 7.8h-1.744V19h1.088v-8.928l1.856 8.912h1.2l1.776-8.992zM36.507 7.8V19h1.248V7.8h-1.248zm3.635 2.144L43.006 19h1.296V7.8h-1.104v8.096L40.606 7.8h-1.584V19h1.12V9.944zM45.585 7.8V19h1.248V7.8h-1.248zm8.436 2.192V19h1.184V7.8H53.46l-1.776 8.944-1.84-8.944H48.1V19h1.088v-8.928l1.856 8.912h1.2l1.776-8.992zM57.676 7.8h-1.232v8.496c0 1.696.784 2.832 2.496 2.832 1.728 0 2.512-1.136 2.512-2.832V7.8h-1.168v8.56c0 1.008-.4 1.616-1.296 1.616-.912 0-1.312-.608-1.312-1.616V7.8zm10.907 2.192V19h1.184V7.8h-1.744l-1.776 8.944-1.84-8.944h-1.744V19h1.088v-8.928l1.856 8.912h1.2l1.776-8.992zM73.538 7.8V19h1.248v-4.416h1.104c1.776 0 2.608-.928 2.608-2.704v-1.344c0-1.696-.752-2.736-2.512-2.736h-2.448zm1.248 5.664V8.936h1.2c.912 0 1.28.512 1.28 1.536v1.488c0 1.072-.448 1.504-1.376 1.504h-1.104zm4.69-5.664V19h1.248v-4.784h.88c1.04 0 1.632.4 1.632 1.664v1.76c0 .752.064 1.04.208 1.36h1.264c-.208-.384-.224-.848-.224-1.344v-1.744c0-1.2-.384-2.032-1.408-2.336.96-.304 1.392-1.072 1.392-2.304v-.912c0-1.664-.736-2.56-2.496-2.56h-2.496zm1.248 5.28V8.936h1.216c.928 0 1.296.528 1.296 1.536v1.072c0 1.216-.592 1.536-1.584 1.536h-.928zm5.049-5.28V19h1.248V7.8h-1.248zm4.947-.112c-1.712 0-2.512 1.12-2.512 2.816v5.792c0 1.696.8 2.816 2.512 2.816 1.728 0 2.528-1.12 2.528-2.816v-1.392h-1.184v1.456c0 1.008-.4 1.616-1.312 1.616-.896 0-1.312-.608-1.312-1.616v-5.92c0-1.008.416-1.616 1.312-1.616.912 0 1.312.608 1.312 1.616v1.072h1.184v-1.008c0-1.696-.8-2.816-2.528-2.816zm4.91 5.072V8.936h3.36V7.8h-4.608V19h4.608v-1.136h-3.36V13.88h2.736v-1.12H95.63z" fill="#536074"/><defs><linearGradient id="paint0_linear" x1="44.229" y1="0" x2="94.76" y2="45.569" gradientUnits="userSpaceOnUse"><stop stop-color="#CCDCF3"/><stop offset=".275" stop-color="#D3E0F4"/><stop offset=".527" stop-color="#DBE9FD"/><stop offset=".83" stop-color="#D3E0F4"/><stop offset="1" stop-color="#C6D5EC"/></linearGradient><linearGradient id="paint1_linear" x1="42.785" y1="3.153" x2="45.63" y2="28.061" gradientUnits="userSpaceOnUse"><stop stop-color="#D8F1E5"/><stop offset="1" stop-color="#82BFA2"/></linearGradient></defs></svg>