<svg width="23" height="31" fill="none" xmlns="http://www.w3.org/2000/svg"><path d="M.075.236h22.5v21.907a2 2 0 01-.946 1.7l-9.25 5.738a2 2 0 01-2.108 0l-9.25-5.738a2 2 0 01-.946-1.7V.236z" fill="url(#paint0_linear)"/><g clip-path="url(#clip0)"><path d="M10.881 21.656a.271.271 0 01-.395.02l-4.322-4.091a.287.287 0 01-.011-.405l1.377-1.455a.287.287 0 01.405-.011l2.36 2.235a.272.272 0 00.395-.02l4.614-5.36a.287.287 0 01.403-.03l1.519 1.306a.287.287 0 01.03.404l-6.375 7.407z" fill="#fff"/></g><defs><linearGradient id="paint0_linear" x1="-7.256" y1=".414" x2="22.062" y2="28.581" gradientUnits="userSpaceOnUse"><stop stop-color="#4D5168"/><stop offset=".287" stop-color="#53566D"/><stop offset=".479" stop-color="#6E7189"/><stop offset=".703" stop-color="#404353"/><stop offset="1" stop-color="#414458"/></linearGradient><clipPath id="clip0"><path fill="#fff" transform="translate(6.075 11.486)" d="M0 0h11.25v11.25H0z"/></clipPath></defs></svg>