<svg width="50" height="16" fill="none" xmlns="http://www.w3.org/2000/svg"><g clip-path="url(#clip0)" fill="#fff"><path d="M7.54 2.694A1.347 1.347 0 107.54 0a1.347 1.347 0 000 2.694zm.47.642a2.452 2.452 0 00-1.03.012c-2.24.263-2.966 2.854-2.761 4.83.089.855 1.436.864 1.346 0-.075-.72-.043-1.807.34-2.58v2.817c0 .033.003.064.005.096-.001.016-.005.029-.005.044 0 2.235-.004 4.469-.096 6.702-.041.993 1.498.989 1.539 0 .072-1.75.09-3.501.095-5.253.072.005.145.005.218 0 .005 1.752.022 3.503.094 5.253.041.989 1.58.993 1.539 0-.092-2.233-.096-4.467-.096-6.702a.844.844 0 00-.023-.193c-.002-.97-.04-1.941-.028-2.911.459.776.5 1.96.421 2.727-.09.862 1.257.854 1.346 0 .21-2.017-.552-4.676-2.904-4.842z"/></g><path d="M0 .657v14.896c0 .153.124.276.276.276h1.38a.276.276 0 00.275-.276v-.551h-.828a.276.276 0 010-.552h.828v-.552h-.552a.276.276 0 110-.551h.552v-.552h-.828a.276.276 0 010-.552h.828v-.552h-.552a.276.276 0 110-.551h.552v-.552h-.828a.276.276 0 010-.552h.828v-.552h-.552a.276.276 0 110-.551h.552V8.38h-.828a.276.276 0 110-.552h.828v-.551h-.552a.276.276 0 110-.552h.552v-.552h-.828a.276.276 0 010-.552h.828V5.07h-.552a.276.276 0 110-.552h.552v-.552h-.828a.276.276 0 010-.552h.828v-.551h-.552a.276.276 0 110-.552h.552V1.76h-.828a.276.276 0 010-.551h.828V.657A.276.276 0 001.655.38H.275A.276.276 0 000 .657z" fill="#fff"/><g clip-path="url(#clip1)"><path d="M27.984 0H14.893c-.802 0-1.455.652-1.455 1.455v13.09c0 .803.653 1.455 1.455 1.455h13.091c.802 0 1.454-.652 1.454-1.454V1.455A1.454 1.454 0 0027.985 0zm-1.917 4.613L24.01 6.67a.363.363 0 01-.514 0c-.723-.722-1.796-.96-2.76-.732l-.785-1.725a.363.363 0 10-.662.301l.764 1.68a2.709 2.709 0 00-.672.476.363.363 0 01-.514 0L16.81 4.613a.364.364 0 010-.514 6.501 6.501 0 014.629-1.917c1.748 0 3.392.68 4.628 1.917a.364.364 0 010 .514z" fill="#fff"/></g><path d="M35.438 5.172h11.314l-5.657 5.656-5.657-5.656z" fill="#8A7FE0"/><defs><clipPath id="clip0"><path fill="#fff" transform="translate(4.217)" d="M0 0h6.857v16H0z"/></clipPath><clipPath id="clip1"><path fill="#fff" transform="translate(13.438)" d="M0 0h16v16H0z"/></clipPath></defs></svg>