<svg width="24" height="24" fill="none" xmlns="http://www.w3.org/2000/svg"><path d="M12 24c6.627 0 12-5.373 12-12S18.627 0 12 0 0 5.373 0 12s5.373 12 12 12z" fill="url(#paint0_linear)"/><path d="M12 23.572c6.391 0 11.572-5.18 11.572-11.572C23.572 5.609 18.392.428 12 .428 5.609.428.428 5.608.428 12c0 6.391 5.18 11.572 11.572 11.572z" fill="url(#paint1_linear)"/><path d="M12 21.283a9.283 9.283 0 100-18.566 9.283 9.283 0 000 18.566z" fill="url(#paint2_linear)"/><path d="M12 21.107a9.107 9.107 0 100-18.214 9.107 9.107 0 000 18.214z" fill="url(#paint3_linear)"/><path d="M12 20.101A8.1 8.1 0 1012 3.9a8.1 8.1 0 000 16.2z" fill="url(#paint4_linear)"/><path d="M10.02 6.84v7.803c0 1.64.82 2.577 2.4 2.577 1.582 0 2.402-.937 2.402-2.577V6.84h-1.523v7.906c0 .732-.322.995-.834.995-.513 0-.835-.263-.835-.995V6.84h-1.61z" fill="#0C8427"/><path d="M9.18 6.84v7.803c0 1.64.82 2.577 2.401 2.577s2.4-.937 2.4-2.577V6.84H12.46v7.906c0 .732-.322.995-.834.995s-.835-.263-.835-.995V6.84H9.18z" fill="#E2FFE9"/><defs><linearGradient id="paint0_linear" x1="12.008" y1="23.012" x2="12.008" y2="-1.001" gradientUnits="userSpaceOnUse"><stop stop-color="#3CCF5D"/><stop offset=".219" stop-color="#34B952"/><stop offset=".557" stop-color="#2BA346"/><stop offset=".714" stop-color="#21943B"/><stop offset="1" stop-color="#3CCF5D"/></linearGradient><linearGradient id="paint1_linear" x1="12.008" y1="22.609" x2="12.008" y2="-.525" gradientUnits="userSpaceOnUse"><stop stop-color="#219C3C"/><stop offset=".182" stop-color="#2B8C41"/><stop offset=".484" stop-color="#78FF96"/><stop offset=".771" stop-color="#31C251"/><stop offset="1" stop-color="#57FF7D"/></linearGradient><linearGradient id="paint2_linear" x1="12.008" y1="20.846" x2="12.008" y2="3.228" gradientUnits="userSpaceOnUse"><stop stop-color="#3CCF5D"/><stop offset=".099" stop-color="#379B4D"/><stop offset=".255" stop-color="#9EFFB4"/><stop offset=".75" stop-color="#47BE61"/><stop offset="1" stop-color="#49D268"/></linearGradient><linearGradient id="paint3_linear" x1="12.008" y1="3.659" x2="12.008" y2="21.87" gradientUnits="userSpaceOnUse"><stop stop-color="#1D7E33"/><stop offset=".417" stop-color="#31AE4D"/><stop offset=".991" stop-color="#4DEF71"/></linearGradient><linearGradient id="paint4_linear" x1="12.009" y1="19.436" x2="12.009" y2="3.226" gradientUnits="userSpaceOnUse"><stop stop-color="#1C8433"/><stop offset=".427" stop-color="#7CFF9A"/><stop offset=".818" stop-color="#3CCF5D"/><stop offset="1" stop-color="#1C8433"/></linearGradient></defs></svg>