<svg width="279" height="248" fill="none" xmlns="http://www.w3.org/2000/svg"><path d="M129 92c.211 2.444.421 4 1.263 6 1.474-.667 2.316-1.556 2.737-2.222-.632-1.111-.842-2-.842-3.778-1.053.444-1.895.444-3.158 0z" fill="url(#paint0_linear)"/><path d="M106 53.31c1.101 1.38 1.321 2.483 1.101 4.69 1.761-.828 2.862-1.931 4.844-3.862.22-1.655-.22-2.759-1.321-4.138-1.541 1.931-2.863 3.035-4.624 3.31z" fill="url(#paint1_linear)"/><path d="M116 13.31c1.101 1.38 1.321 2.483 1.101 4.69 1.761-.828 2.862-1.931 4.844-3.862.22-1.655-.22-2.759-1.321-4.138-1.541 1.931-2.863 3.034-4.624 3.31z" fill="url(#paint2_linear)"/><path d="M60 116.31c1.1 1.38 1.321 2.483 1.1 4.69 1.762-.828 2.863-1.931 4.845-3.862.22-1.655-.22-2.759-1.321-4.138-1.541 1.931-2.862 3.034-4.624 3.31z" fill="url(#paint3_linear)"/><path d="M91.318 164c1.48-2.943 2.22-4.66 1.233-7.849-5.18-1.472-8.139-2.698-13.071-5.151-.247 1.962-.74 3.189-1.48 4.17 5.672 2.453 8.632 4.66 13.318 8.83z" fill="url(#paint4_linear)"/><path d="M68.55 204c-.46 3.143-.69 5.429-.46 8 1.84-.286 2.76-1.143 3.68-2-.46-1.714-.23-2.857.23-4.857-1.61.286-2.3 0-3.45-1.143z" fill="url(#paint5_linear)"/><path d="M184 204.361c1.475 1.967 2.213 3.934 2.951 6.639 4.672-3.934 7.869-6.148 12.049-8.115 0-3.196-.738-4.672-1.967-6.885-3.197 1.475-7.869 4.426-13.033 8.361z" fill="url(#paint6_linear)"/><path d="M199.633 74c2.918-1.023 4.51-2.302 6.367-5.116-3.449-1.791-4.776-3.582-6.102-5.884-2.653.767-4.51 1.79-6.898 3.837 2.653 2.047 4.51 4.093 6.633 7.163z" fill="url(#paint7_linear)"/><path d="M230 127.375c-.957-1.583-2.391-1.847-4.543-2.375-.957 5.278-3.348 10.292-6.457 16.097 1.674.528 2.63 1.32 3.826 2.903 3.826-5.806 5.5-9.5 7.174-16.625z" fill="url(#paint8_linear)"/><path d="M8 173.326c-1.212-.768-2.182-1.791-3.152-3.326-1.696 3.326-3.151 5.372-4.848 7.419.727 1.79 1.455 2.558 2.667 3.581 1.454-1.279 3.394-4.093 5.333-7.674z" fill="url(#paint9_linear)"/><path d="M217 105.224c-2-.25-4.25-.501-6.5.502-.75 1.506-1.25 2.761-2.5 4.015 1.5 0 2.5.502 3.75 2.259 1-2.259 2.75-4.266 5.25-6.776z" fill="url(#paint10_linear)"/><path d="M171.4 105c1.2-1.826 1.92-2.87 3.6-4.174-.48-.783-1.2-1.565-2.16-1.826-1.2.783-2.4 2.087-3.84 3.913 1.2.261 1.92.783 2.4 2.087z" fill="url(#paint11_linear)"/><path d="M122.4 196c1.2-1.826 1.92-2.87 3.6-4.174-.48-.783-1.2-1.565-2.16-1.826-1.2.783-2.4 2.087-3.84 3.913 1.2.261 1.92.783 2.4 2.087z" fill="url(#paint12_linear)"/><path d="M72 74.333c1.522 2.143 2.03 3.81 1.015 6.667 3.552-.714 5.836-1.667 9.642-4.048.762-2.38.254-3.571-1.522-5.952-3.299 2.143-5.836 3.333-9.135 3.333z" fill="url(#paint13_linear)"/><path d="M76.526 14.217c3.421 1.044 5.527 1.044 9.474 0-1.579-4.174-1.579-6.782-1.053-9.652C81.79 3.261 79.684 3 76 3c1.053 3.913 1.053 6.783.526 11.217z" fill="url(#paint14_linear)"/><path d="M272 89.161c.241 1.29.966 1.807 2.414 2.839 1.448-2.323 2.414-3.355 4.586-4.903-.966-.516-1.448-1.29-2.172-3.097-2.173 1.29-3.38 2.839-4.828 5.161z" fill="url(#paint15_linear)"/><path d="M164 186.161c.241 1.291.966 1.807 2.414 2.839 1.448-2.323 2.414-3.355 4.586-4.903-.966-.516-1.448-1.291-2.172-3.097-2.173 1.29-3.38 2.839-4.828 5.161z" fill="url(#paint16_linear)"/><path d="M106 244.176c-2.308-3.058-3.462-5.352-4.846-9.176-1.846.765-3.23 1.529-4.154 3.314.692 2.804 2.077 5.862 4.385 9.686 1.384-2.549 2.538-3.824 4.615-3.824z" fill="url(#paint17_linear)"/><path d="M229 9.176c-2.308-3.058-3.462-5.352-4.846-9.176-1.846.765-3.231 1.53-4.154 3.314.692 2.804 2.077 5.862 4.385 9.686 1.384-2.549 2.538-3.824 4.615-3.824z" fill="url(#paint18_linear)"/><path d="M2.797 112c0 1.963-.77 2.945-1.797 4.172 3.081.736 6.42.981 7.703.736.514-1.472.257-2.699 0-4.417-1.54.491-3.08.245-5.906-.491z" fill="url(#paint19_linear)"/><path d="M42.827 172.961c2.089-1.038 4.7-1.038 9.92 1.039.523-2.337.262-4.674-1.043-7.27-4.177-.779-6.788-1.039-10.704-.26 1.566 1.818 1.827 3.376 1.827 6.491z" fill="url(#paint20_linear)"/><path d="M157 11.765c0 1.882.778 3.058 2.593 4.235 2.074-.47 3.37-1.177 4.407-2.118-.778-1.882-.519-3.53 0-5.882-2.333 1.412-3.889 2.588-7 3.765z" fill="url(#paint21_linear)"/><path d="M126 149.818c1.548 1.364 2.065 2.727 1.806 5.182 2.323-1.091 3.871-2.182 6.194-4.636 0-1.909-.516-3-1.806-4.364-2.065 1.909-3.871 3.273-6.194 3.818z" fill="url(#paint22_linear)"/><path d="M167 141.957c-.5-2.087-1-3.653-2.25-4.957-1.25.261-2 .783-2.75 1.304 1.25 1.566 1.75 2.87 2 4.696 1-.783 1.75-1.304 3-1.043z" fill="url(#paint23_linear)"/><path d="M137.75 228c-.75 1-1.75 1.75-3.75 2 2 4.25 3.5 6.5 6.5 10 2.5-.75 3.75-1.75 4.5-2.5-3.75-3-5.25-5.5-7.25-9.5z" fill="url(#paint24_linear)"/><path d="M250.161 102.714c-.269 1.667-.269 2.619.539 4.286 1.888-.952 3.505-1.19 4.853-.952.54-1.429.54-2.619.27-4.048-1.618.476-3.235.714-5.662.714z" fill="url(#paint25_linear)"/><defs><linearGradient id="paint0_linear" x1="128.907" y1="95.205" x2="133.042" y2="94.047" gradientUnits="userSpaceOnUse"><stop stop-color="#FF5C5C"/><stop offset=".301" stop-color="#F44444"/><stop offset=".935" stop-color="#D60707"/><stop offset="1" stop-color="#D30000"/></linearGradient><linearGradient id="paint1_linear" x1="107.974" y1="51.725" x2="111.292" y2="56.708" gradientUnits="userSpaceOnUse"><stop stop-color="#FF5C5C"/><stop offset=".301" stop-color="#F44444"/><stop offset=".935" stop-color="#D60707"/><stop offset="1" stop-color="#D30000"/></linearGradient><linearGradient id="paint2_linear" x1="117.974" y1="11.725" x2="121.292" y2="16.708" gradientUnits="userSpaceOnUse"><stop stop-color="#FF5C5C"/><stop offset=".301" stop-color="#F44444"/><stop offset=".935" stop-color="#D60707"/><stop offset="1" stop-color="#D30000"/></linearGradient><linearGradient id="paint3_linear" x1="61.974" y1="114.725" x2="65.292" y2="119.708" gradientUnits="userSpaceOnUse"><stop stop-color="#FF5C5C"/><stop offset=".301" stop-color="#F44444"/><stop offset=".935" stop-color="#D60707"/><stop offset="1" stop-color="#D30000"/></linearGradient><linearGradient id="paint4_linear" x1="87.134" y1="153.073" x2="84.197" y2="161.48" gradientUnits="userSpaceOnUse"><stop stop-color="#FF5C5C"/><stop offset=".301" stop-color="#F44444"/><stop offset=".935" stop-color="#D60707"/><stop offset="1" stop-color="#D30000"/></linearGradient><linearGradient id="paint5_linear" x1="67.472" y1="208.082" x2="72.188" y2="208.001" gradientUnits="userSpaceOnUse"><stop stop-color="#4D8EFF"/><stop offset=".428" stop-color="#3F76FF"/><stop offset="1" stop-color="#2850FF"/></linearGradient><linearGradient id="paint6_linear" x1="195.222" y1="209.187" x2="189.193" y2="199.175" gradientUnits="userSpaceOnUse"><stop stop-color="#4D8EFF"/><stop offset=".428" stop-color="#3F76FF"/><stop offset="1" stop-color="#2850FF"/></linearGradient><linearGradient id="paint7_linear" x1="196.455" y1="70.809" x2="203.543" y2="64.465" gradientUnits="userSpaceOnUse"><stop stop-color="#4D8EFF"/><stop offset=".428" stop-color="#3F76FF"/><stop offset="1" stop-color="#2850FF"/></linearGradient><linearGradient id="paint8_linear" x1="228.614" y1="136.836" x2="221.206" y2="132.736" gradientUnits="userSpaceOnUse"><stop stop-color="#4D8EFF"/><stop offset=".428" stop-color="#3F76FF"/><stop offset="1" stop-color="#2850FF"/></linearGradient><linearGradient id="paint9_linear" x1=".818" y1="173.173" x2="6.591" y2="177.314" gradientUnits="userSpaceOnUse"><stop stop-color="#FC9512"/><stop offset=".007" stop-color="#FC9612"/><stop offset=".68" stop-color="#FED319"/><stop offset="1" stop-color="#FFEB1C"/></linearGradient><linearGradient id="paint10_linear" x1="214.719" y1="108.881" x2="209.179" y2="105.887" gradientUnits="userSpaceOnUse"><stop stop-color="#FC9512"/><stop offset=".007" stop-color="#FC9612"/><stop offset=".68" stop-color="#FED319"/><stop offset="1" stop-color="#FFEB1C"/></linearGradient><linearGradient id="paint11_linear" x1="173.122" y1="103.044" x2="170.109" y2="100.47" gradientUnits="userSpaceOnUse"><stop stop-color="#FC9512"/><stop offset=".007" stop-color="#FC9612"/><stop offset=".68" stop-color="#FED319"/><stop offset="1" stop-color="#FFEB1C"/></linearGradient><linearGradient id="paint12_linear" x1="124.122" y1="194.044" x2="121.109" y2="191.47" gradientUnits="userSpaceOnUse"><stop stop-color="#FC9512"/><stop offset=".007" stop-color="#FC9612"/><stop offset=".68" stop-color="#FED319"/><stop offset="1" stop-color="#FFEB1C"/></linearGradient><linearGradient id="paint13_linear" x1="75.995" y1="72.657" x2="78.757" y2="80.981" gradientUnits="userSpaceOnUse"><stop stop-color="#FC9512"/><stop offset=".007" stop-color="#FC9612"/><stop offset=".68" stop-color="#FED319"/><stop offset="1" stop-color="#FFEB1C"/></linearGradient><linearGradient id="paint14_linear" x1="76.339" y1="9.045" x2="87.265" y2="8.713" gradientUnits="userSpaceOnUse"><stop stop-color="#FC9512"/><stop offset=".007" stop-color="#FC9612"/><stop offset=".68" stop-color="#FED319"/><stop offset="1" stop-color="#FFEB1C"/></linearGradient><linearGradient id="paint15_linear" x1="277.286" y1="89.839" x2="273.145" y2="86.084" gradientUnits="userSpaceOnUse"><stop stop-color="#FF3EB9"/><stop offset=".043" stop-color="#FF44BC"/><stop offset=".701" stop-color="#FF98E3"/><stop offset="1" stop-color="#FFB9F2"/></linearGradient><linearGradient id="paint16_linear" x1="169.286" y1="186.839" x2="165.145" y2="183.084" gradientUnits="userSpaceOnUse"><stop stop-color="#FF3EB9"/><stop offset=".043" stop-color="#FF44BC"/><stop offset=".701" stop-color="#FF98E3"/><stop offset="1" stop-color="#FFB9F2"/></linearGradient><linearGradient id="paint17_linear" x1="103.815" y1="239.656" x2="97.424" y2="243.163" gradientUnits="userSpaceOnUse"><stop stop-color="#FF3EB9"/><stop offset=".043" stop-color="#FF44BC"/><stop offset=".701" stop-color="#FF98E3"/><stop offset="1" stop-color="#FFB9F2"/></linearGradient><linearGradient id="paint18_linear" x1="226.815" y1="4.656" x2="220.424" y2="8.163" gradientUnits="userSpaceOnUse"><stop stop-color="#FF3EB9"/><stop offset=".043" stop-color="#FF44BC"/><stop offset=".701" stop-color="#FF98E3"/><stop offset="1" stop-color="#FFB9F2"/></linearGradient><linearGradient id="paint19_linear" x1="5.657" y1="111.808" x2="4.79" y2="118.143" gradientUnits="userSpaceOnUse"><stop stop-color="#FF3EB9"/><stop offset=".043" stop-color="#FF44BC"/><stop offset=".701" stop-color="#FF98E3"/><stop offset="1" stop-color="#FFB9F2"/></linearGradient><linearGradient id="paint20_linear" x1="46.962" y1="175.049" x2="47.081" y2="163.747" gradientUnits="userSpaceOnUse"><stop stop-color="#FF3EB9"/><stop offset=".043" stop-color="#FF44BC"/><stop offset=".701" stop-color="#FF98E3"/><stop offset="1" stop-color="#FFB9F2"/></linearGradient><linearGradient id="paint21_linear" x1="159.967" y1="9.476" x2="163.094" y2="15.647" gradientUnits="userSpaceOnUse"><stop stop-color="#00EE98"/><stop offset=".28" stop-color="#00D685"/><stop offset=".868" stop-color="#095"/><stop offset="1" stop-color="#008A49"/></linearGradient><linearGradient id="paint22_linear" x1="128.665" y1="147.833" x2="132.397" y2="153.783" gradientUnits="userSpaceOnUse"><stop stop-color="#00EE98"/><stop offset=".28" stop-color="#00D685"/><stop offset=".868" stop-color="#095"/><stop offset="1" stop-color="#008A49"/></linearGradient><linearGradient id="paint23_linear" x1="166.163" y1="139.123" x2="162.893" y2="140.69" gradientUnits="userSpaceOnUse"><stop stop-color="#00EE98"/><stop offset=".28" stop-color="#00D685"/><stop offset=".868" stop-color="#095"/><stop offset="1" stop-color="#008A49"/></linearGradient><linearGradient id="paint24_linear" x1="141.548" y1="232.4" x2="135.759" y2="236.414" gradientUnits="userSpaceOnUse"><stop stop-color="#00EE98"/><stop offset=".28" stop-color="#00D685"/><stop offset=".868" stop-color="#095"/><stop offset="1" stop-color="#008A49"/></linearGradient><linearGradient id="paint25_linear" x1="252.912" y1="102.329" x2="253.613" y2="107.276" gradientUnits="userSpaceOnUse"><stop stop-color="#00EE98"/><stop offset=".28" stop-color="#00D685"/><stop offset=".868" stop-color="#095"/><stop offset="1" stop-color="#008A49"/></linearGradient></defs></svg>