<svg width="28" height="28" fill="none" xmlns="http://www.w3.org/2000/svg"><g filter="url(#filter0_d)"><path fill-rule="evenodd" clip-rule="evenodd" d="M22.13 21.614s-1.563-.962-2.095-1.506c-.531-.544 1.468.247 1.468.247l.627 1.259zm-8.516 3.243c-.24-.953-.38-1.817-.42-2.593-.001-.008.061.006.06-.002-.032-.558.256-.152.865 1.217l-.505 1.378z" fill="#535E84"/><path fill-rule="evenodd" clip-rule="evenodd" d="M5.326 21.116s.8-1.344 1.495-2.083c.005-.005.041.046.046.04.533-.645-.236 1.38-.236 1.38l-1.305.663zm-3.241-8.437c1.073-.29 1.96-.436 2.661-.435.007 0 .038.076.007.061-.256.521-.675.774-1.258.759l-1.41-.385z" fill="#E4E6EE"/><path fill-rule="evenodd" clip-rule="evenodd" d="M5.9 4.357c1 .488 1.563 1.048 2.091 1.511.006.005-.02.083-.034.05-.534.225-.773.018-1.203-.377L5.9 4.357z" fill="#fff"/><path fill-rule="evenodd" clip-rule="evenodd" d="M14.386 1.086c.334 1.103.397 1.934.425 2.68 0 .006-.756.222-.059.017-.555-.163-.315-.713-.4-1.292l.034-1.405z" fill="#E4E6EE"/><path fill-rule="evenodd" clip-rule="evenodd" d="M22.659 4.918s-.722 1.287-1.499 2.105c-.777.818.246-1.475.246-1.475l1.253-.63zm3.255 8.524a7.825 7.825 0 01-2.54.423c-.625 0-.152-.257 1.21-.868l1.33.445z" fill="#535E84"/><path fill-rule="evenodd" clip-rule="evenodd" d="M14.043 20.996c4.387 0 7.943-3.574 7.943-7.981 0-4.408-3.556-7.982-7.943-7.982S6.1 8.607 6.1 13.014c0 4.408 3.556 7.982 7.943 7.982z" fill="url(#paint0_linear)"/><mask id="a" maskUnits="userSpaceOnUse" x="6" y="5" width="16" height="16"><path fill-rule="evenodd" clip-rule="evenodd" d="M14.043 20.996c4.387 0 7.943-3.574 7.943-7.981 0-4.408-3.556-7.982-7.943-7.982S6.1 8.607 6.1 13.014c0 4.408 3.556 7.982 7.943 7.982z" fill="#fff"/></mask><g mask="url(#a)"><path fill-rule="evenodd" clip-rule="evenodd" d="M14.043 20.824c4.292 0 7.772-3.497 7.772-7.81s-3.48-7.809-7.772-7.809c-4.293 0-7.772 3.496-7.772 7.81 0 4.312 3.48 7.809 7.772 7.809z" fill="url(#paint1_linear)"/><path fill-rule="evenodd" clip-rule="evenodd" d="M14.043 19.794c3.726 0 6.747-3.035 6.747-6.78 0-3.744-3.02-6.78-6.747-6.78s-6.748 3.036-6.748 6.78c0 3.745 3.021 6.78 6.748 6.78z" fill="url(#paint2_linear)"/><path d="M20.576 13.014c0 3.626-2.925 6.565-6.533 6.565-3.608 0-6.534-2.939-6.534-6.565 0-3.626 2.925-6.565 6.534-6.565 3.608 0 6.533 2.94 6.533 6.565z" fill="url(#paint3_linear)" stroke="url(#paint4_linear)" stroke-width=".086"/><g filter="url(#filter1_f)"><path fill-rule="evenodd" clip-rule="evenodd" d="M14.48 2.734l-.094-.79-.508.61c-1.341 1.613-2.982 2.58-4.933 2.911-.694.118-1.279.382-1.753.788a30.21 30.21 0 00-.67-.545L5.9 5.215l.07.793c.187 2.093-.293 3.942-1.44 5.563-.398.564-.625 1.152-.681 1.762-.314.027-.64.06-.977.101l-.787.094.608.51c1.605 1.348 2.567 2.996 2.897 4.957.114.677.364 1.25.748 1.719-.166.2-.335.41-.507.63l-.49.625.79-.071a10.66 10.66 0 012.155.058 7.768 7.768 0 013.38 1.388c.564.403 1.152.63 1.762.686.025.288.056.587.093.895l.093.79.508-.61c1.341-1.612 2.982-2.58 4.933-2.91.694-.119 1.279-.383 1.753-.788.213.178.436.36.67.545l.622.492-.07-.793-.007-.07c-.169-2.064.313-3.89 1.446-5.493.361-.51.581-1.04.662-1.588.32-.027.652-.062.997-.103l.787-.094-.608-.51c-1.605-1.348-2.567-2.996-2.897-4.957-.117-.697-.38-1.284-.784-1.761.178-.214.359-.439.543-.673l.49-.625-.789.07c-2.083.188-3.924-.294-5.537-1.446-.561-.4-1.146-.628-1.753-.685-.027-.315-.06-.642-.1-.982zm-.436 18.747l.004-.051c.698.585 1.483.85 2.348.788-.83.662-1.606 1.031-2.335 1.116a15.648 15.648 0 01-.017-1.853zm-3.732-3.315a4.322 4.322 0 00-1.025.576c-.063 1.406.573 2.356 1.908 2.907l1.57.648-1.442.011a9.1 9.1 0 01.74.477c.42.3.856.482 1.313.544-.059-.98-.044-1.825.045-2.538a7.738 7.738 0 01-.962-1.543c-.531-1.096-1.211-1.428-2.147-1.082zm3.83 2.415c.07-.429.175-.79.31-1.086.42-.91 1.134-1.158 2.281-.76a7.619 7.619 0 001.8.41c.441.562 1.022 1.163 1.745 1.805a2.92 2.92 0 01-1.337.567c-.35.06-.693.139-1.025.236l1.148-1.17-1.566.656c-1.314.551-2.42.345-3.357-.658zm-5.525-1.293l-.013.011c-.417.375-.862.833-1.334 1.374a3.67 3.67 0 001.154.61c.359.12.692.198 1.103.25l.07.009.13.016c-.666-.58-1.036-1.34-1.11-2.27zm10.808-.143c.89-.088 1.621-.458 2.181-1.108-.119 1.043-.401 1.847-.846 2.424-.525-.465-.97-.904-1.335-1.316zM7.268 14.07l-.028.026c-.963.933-1.155 2.032-.614 3.335l.654 1.573-1.21-1.197a16.107 16.107 0 01-.078-.078c.115.372.205.756.272 1.152.084.5.26.933.53 1.297.655-.749 1.268-1.349 1.839-1.8a7.85 7.85 0 01.4-1.716c.396-1.153.148-1.87-.757-2.292a4.141 4.141 0 00-1.008-.3zm6.9-5.618c.084-.184.158-.387.22-.61.187.282.366.6.538.955.677 1.396 1.712 1.9 2.998 1.427a4.24 4.24 0 00.688-.333 8.23 8.23 0 01-.29 1.054c-.505 1.468-.128 2.56 1.115 3.138.132.062.274.118.426.168-.233.145-.49.287-.77.424-1.389.68-1.89 1.719-1.419 3.011.081.223.192.453.332.692a8.11 8.11 0 01-1.05-.293c-1.46-.506-2.548-.128-3.123 1.121a4.163 4.163 0 00-.238.67 8.26 8.26 0 01-.521-.929c-.677-1.395-1.712-1.9-2.998-1.426-.215.08-.438.186-.668.321.065-.302.156-.62.27-.957.505-1.467.128-2.56-1.115-3.138a4.085 4.085 0 00-.606-.222c.28-.188.596-.368.95-.54 1.389-.68 1.89-1.72 1.419-3.012a4.277 4.277 0 00-.331-.692c.329.066.678.164 1.05.292 1.46.507 2.547.128 3.122-1.12zm6.59 6.009l-.015.012a8.05 8.05 0 01-1.35.819c-1.091.533-1.421 1.217-1.078 2.158.116.317.308.662.576 1.033 1.352.032 2.269-.608 2.806-1.921l.645-1.577.012 1.6c.166-.306.352-.604.558-.895.26-.367.43-.746.512-1.14-1.044.056-1.931.028-2.665-.09zM4.54 13.97h.01a14.74 14.74 0 011.881-.002c-.579.7-.841 1.488-.78 2.354-.66-.836-1.027-1.617-1.111-2.352zm17.808-2.635c.067.934-.243 1.775-.92 2.515.587.05 1.27.053 2.046.008-.042-.784-.414-1.622-1.126-2.523zM21.159 7.62l.013-.014c.29.373.476.821.564 1.343.052.31.12.614.201.91l-.008-.008-1.208-1.197.653 1.574.023.055c.544 1.356.285 2.491-.82 3.446a3.922 3.922 0 01-.853-.27c-.905-.42-1.152-1.139-.757-2.29.224-.651.36-1.255.41-1.81.554-.44 1.148-1.02 1.782-1.74zM6.303 11.097l-.645 1.577-.012-1.6a9.031 9.031 0 01-.558.895c-.298.42-.479.858-.542 1.314.972-.054 1.81-.035 2.514.06a7.671 7.671 0 011.547-.976c1.09-.533 1.42-1.217 1.077-2.158a4.365 4.365 0 00-.575-1.033c-1.352-.033-2.27.608-2.806 1.921zm8.328-6.644l-.002-.036c.455.063.89.245 1.308.543.29.207.587.394.89.562l-1.591.011 1.569.648c1.307.54 1.944 1.462 1.911 2.82a4.332 4.332 0 01-1.028.578c-.936.345-1.616.014-2.147-1.082a7.716 7.716 0 00-.972-1.554c.094-.7.114-1.529.062-2.49zM7.24 7.198c-.445.577-.727 1.382-.846 2.424.56-.65 1.29-1.02 2.18-1.108A15.64 15.64 0 007.24 7.198zm2.935-1.32l.03-.008-.078.079-1.191 1.214 1.566-.657c1.308-.548 2.41-.346 3.344.645-.07.397-.17.735-.299 1.013-.419.91-1.133 1.158-2.28.76a7.62 7.62 0 00-1.8-.41c-.441-.562-1.023-1.162-1.745-1.804a2.92 2.92 0 011.337-.568 8.924 8.924 0 001.116-.263zm8.098.394c.647.563 1.015 1.297 1.103 2.192.41-.367.847-.814 1.31-1.342-.574-.446-1.375-.73-2.413-.85zm-4.365-1.857l.036-.005c.041.714.042 1.347.003 1.9-.697-.581-1.48-.845-2.343-.783.818-.652 1.584-1.02 2.304-1.112z" fill="#535E84"/></g></g><path fill-rule="evenodd" clip-rule="evenodd" d="M14.448 3.36l.205.029a3.1 3.1 0 011.383.574c.253.18.511.345.774.494l.667.373-1.392.01.785.325c1.377.569 2.052 1.558 2.017 2.982l-.002.085-.068.05c-.38.277-.737.478-1.07.6-1.03.38-1.795-.003-2.36-1.168a7.552 7.552 0 00-.949-1.52l-.048-.058.01-.074c.06-.443.089-.94.088-1.494v-.083a18.102 18.102 0 00-.022-.788l-.005-.093-.013-.244zM7.352 6.211l-.136-.12-.112.144c-.466.605-.758 1.44-.88 2.509l-.063.552.362-.42c.53-.615 1.22-.965 2.068-1.05l.334-.033-.223-.252c-.37-.418-.82-.862-1.35-1.33zm13.954.432l-.126-.162-.149.168-.06.07c-.163.181-.321.353-.477.516l-.135.14-.04.04c-.365.37-.715.688-1.049.952l-.058.046-.006.074a7.543 7.543 0 01-.4 1.768c-.421 1.225-.149 2.04.846 2.503.253.118.55.212.89.283l.082.017.064-.055c1.156-1 1.44-2.21.867-3.64l-.023-.057-.327-.788.604.598.007.007.453.456-.197-.733a8.97 8.97 0 01-.167-.782 3.119 3.119 0 00-.599-1.42zm.832 3.293l.344.436c.73.924 1.118 1.794 1.163 2.62l.01.17-.17.01c-.784.046-1.474.043-2.07-.008l-.347-.03.235-.257c.646-.707.938-1.503.875-2.386l-.04-.555zM6.775 12.963l-.332-.024c-.556-.04-1.19-.039-1.902.002h-.01l-.183.011.028.226c.098.758.478 1.553 1.142 2.393l.344.436-.04-.555c-.059-.82.188-1.564.74-2.232l.213-.257zm.523.08l-.086-.015-.09.085-.031.032c-.984.973-1.187 2.136-.623 3.493l.327.787-.604-.598-.04-.04-.038-.038-.486-.487.202.66c.112.364.2.74.266 1.129.089.528.276.986.561 1.371l.126.17.14-.16c.223-.255.442-.492.655-.712l.088-.09.027-.028c.365-.369.713-.684 1.046-.947l.057-.045.008-.072a7.682 7.682 0 01.391-1.679c.42-1.224.149-2.04-.846-2.503a4.31 4.31 0 00-1.05-.313zm14.541 3.604l-.063.552c-.122 1.07-.414 1.904-.88 2.51l-.112.144-.137-.12a15.809 15.809 0 01-1.35-1.331l-.222-.252.334-.033c.849-.085 1.538-.435 2.068-1.05l.362-.42zm-8.286 3.177a7.575 7.575 0 01-.94-1.509c-.565-1.165-1.33-1.548-2.36-1.168a4.488 4.488 0 00-1.067.598l-.066.048-.004.083c-.066 1.473.607 2.493 2.014 3.074l.785.324-1.217.01.633.37c.214.126.425.264.633.413a3.1 3.1 0 001.388.574l.207.028-.013-.208c-.016-.273-.033-.898-.033-.898v-.056c-.006-.576.02-1.093.077-1.553l.01-.073-.047-.057zm.604.616l-.26-.217-.023.389-.004.076a16.09 16.09 0 00.02 1.799l.011.18.18-.02c.765-.09 1.57-.474 2.421-1.153l.433-.346-.551.04c-.818.06-1.56-.19-2.227-.748zm.045.467c-.013.39-.008.814.013 1.273l.005.099c.524-.096 1.077-.344 1.662-.75a3.327 3.327 0 01-1.68-.622zm-2.286.71l1.255-.009c.004.211.01.43.022.656a2.844 2.844 0 01-1.031-.477 9.48 9.48 0 00-.246-.17zM10.37 17.47c-.28.103-.586.272-.916.505-.031 1.28.557 2.143 1.806 2.659l1.91.788a12.16 12.16 0 01.072-1.436 8.01 8.01 0 01-.936-1.52c-.493-1.016-1.083-1.31-1.936-.996zm8.179.648a7.453 7.453 0 01-1.76-.403c-1.22-.422-2.03-.149-2.491.851-.143.31-.251.687-.325 1.13l-.014.083.058.062c.982 1.052 2.162 1.28 3.547.7l.783-.329-1.008 1.028.735-.21c.29-.082.59-.149.896-.2a3.09 3.09 0 001.413-.602l.163-.127-.154-.137a19.234 19.234 0 01-.65-.603l-.076-.074-.043-.043c-.372-.37-.69-.724-.955-1.062l-.046-.058-.073-.006zm-9.79-.046l.028.345c.07.888.421 1.606 1.051 2.155l.419.363-.55-.063a8.133 8.133 0 01-.204-.026l-.012-.002-.013-.004a8.3 8.3 0 00-1.08-.245l-.014-.002-.014-.005a3.817 3.817 0 01-1.207-.638l-.139-.112.118-.135c.454-.521.885-.968 1.293-1.34l.055-.049.27-.242zm9.71 2.505l.992-1.012c.171.168.353.339.545.513a2.828 2.828 0 01-1.093.413 9.4 9.4 0 00-.445.086zm-3.861-1.867c-.12.261-.215.58-.284.958.87.891 1.88 1.07 3.108.555l1.893-.793c-.336-.338-.63-.664-.88-.978a7.894 7.894 0 01-1.768-.412c-1.063-.369-1.688-.158-2.07.67zM7.52 19.79c.337-.379.66-.715.967-1.007a3.37 3.37 0 00.717 1.626c-.231-.023-.5-.07-.739-.15a3.617 3.617 0 01-.945-.468zm13.843-2.124a3.32 3.32 0 01-1.592.747c.261.28.558.57.89.872l.072.065c.294-.436.504-.996.63-1.684zm-14.93.329a9.396 9.396 0 00-.112-.556l.839.83.193.191-.076.079a19.87 19.87 0 00-.466.503 2.886 2.886 0 01-.379-1.047zm.89-4.597c-.875.87-1.05 1.88-.54 3.11l.74 1.78c.328-.327.644-.613.948-.857a8.126 8.126 0 01.4-1.683c.367-1.068.158-1.695-.667-2.08a3.85 3.85 0 00-.881-.27zm13.462.037l-.073-.012-.073.057-.06.045a7.98 7.98 0 01-1.261.756c-1.16.567-1.54 1.337-1.163 2.371.122.334.322.692.598 1.075l.05.068.084.002c1.417.035 2.402-.642 2.968-2.027l.323-.788.01 1.399.371-.671c.149-.264.313-.523.493-.777a3.23 3.23 0 00.54-1.206l.044-.218-.221.012c-.296.016-.579.026-.849.028h-.239a10.395 10.395 0 01-1.542-.114zm.019.35l-.02.015a8.318 8.318 0 01-1.317.79c-1.01.494-1.304 1.087-.991 1.944.103.282.27.59.503.921 1.227.003 2.058-.588 2.56-1.815l.717-1.748a10.763 10.763 0 01-1.452-.107zm2.398.09c-.239.01-.47.016-.69.017l.008 1.218c.081-.127.165-.252.253-.376.198-.28.34-.566.429-.859zm-17.72 1.074c-.404-.588-.651-1.146-.746-1.673.495-.024.95-.028 1.364-.01a3.362 3.362 0 00-.617 1.683zm17.035-3.953c-.052.667-.3 1.286-.74 1.85.427.022.898.022 1.415-.001l.097-.005c-.068-.578-.324-1.192-.772-1.844zM19.54 8.591c.31-.25.63-.54.963-.874l.714 1.72.023.054c.508 1.268.28 2.305-.71 3.196a3.632 3.632 0 01-.733-.24c-.825-.384-1.034-1.012-.668-2.08a7.999 7.999 0 00.411-1.776zM9.113 8.147l.085.002.05.069c.275.382.475.74.597 1.074.378 1.035-.004 1.804-1.163 2.372a7.5 7.5 0 00-1.513.953l-.057.048-.074-.01a11.042 11.042 0 00-1.456-.088H5.42a18.31 18.31 0 00-.863.03l-.207.011.028-.206a3.14 3.14 0 01.571-1.39c.18-.255.344-.514.493-.778l.371-.67.01 1.398.323-.788c.566-1.384 1.55-2.062 2.968-2.027zm-2.652 2.157c.502-1.227 1.333-1.818 2.56-1.815.232.332.4.64.503.921.313.857.02 1.45-.992 1.945-.592.29-1.1.607-1.523.95a11.43 11.43 0 00-1.333-.081l.785-1.92zm-.981.53a9.151 9.151 0 01-.253.376 2.873 2.873 0 00-.474 1.033c.219-.01.43-.016.635-.019h.102l-.01-1.39zm9.268-4.801c.05-.405.078-.851.082-1.34l1.91.79c1.221.504 1.81 1.339 1.807 2.571a4.04 4.04 0 01-.918.506c-.853.315-1.442.02-1.935-.996a7.998 7.998 0 00-.946-1.531zm6.409.99a18.29 18.29 0 01-.468.503l.151.15.79.782a9.39 9.39 0 01-.062-.337 2.858 2.858 0 00-.411-1.098zm-10.831-1.89l.485-.49-.687.214-.097.029a8.786 8.786 0 01-.997.229 3.089 3.089 0 00-1.413.601l-.163.127.154.137c.255.226.491.447.71.662l.076.076.041.04c.347.35.646.684.897 1.004l.046.058.073.007a7.451 7.451 0 011.76.402c1.219.422 2.03.149 2.491-.85.135-.294.239-.645.312-1.056l.015-.085-.059-.063c-.98-1.04-2.155-1.264-3.534-.685l-.783.328.595-.607.04-.04.038-.038zm-3.06 1.461c-.293.436-.503.997-.629 1.684a3.33 3.33 0 011.592-.747c-.28-.299-.601-.611-.962-.937zm1.47-.019l1.831-.769c1.222-.512 2.228-.337 3.095.542a3.895 3.895 0 01-.27.886c-.382.828-1.006 1.039-2.07.67a7.89 7.89 0 00-1.767-.412c-.236-.295-.509-.6-.82-.917zm9.007-1.394l.55.063c1.064.123 1.895.416 2.497.885l.144.112-.12.137c-.467.532-.908.984-1.325 1.356l-.25.224-.033-.335c-.084-.853-.433-1.546-1.045-2.079l-.418-.363zM19.5 7.259a3.352 3.352 0 00-.744-1.6c.685.127 1.242.338 1.676.633a16.03 16.03 0 01-.932.967zM9.64 5.342a8.32 8.32 0 01-.553.111 2.85 2.85 0 00-1.051.387l-.041.026c.208.189.403.374.587.555l.232-.237.826-.842zm4.475-1.8l-.01-.182-.218.026c-.757.097-1.55.48-2.39 1.149l-.432.345.551-.04c.816-.058 1.557.19 2.222.745l.256.213.023-.333c.04-.562.04-1.204-.002-1.923zm-.331.207c-.526.095-1.08.344-1.666.75.599.048 1.16.255 1.676.62.017-.415.014-.872-.01-1.37zm1.046.758a18.103 18.103 0 00-.02-.741c.353.08.695.238 1.028.476.124.089.249.173.375.254l-1.383.01z" fill="url(#paint5_linear)"/><mask id="b" maskUnits="userSpaceOnUse" x="4" y="3" width="20" height="20"><path fill-rule="evenodd" clip-rule="evenodd" d="M14.448 3.36l.205.029a3.1 3.1 0 011.383.574c.253.18.511.345.774.494l.667.373-1.392.01.785.325c1.377.569 2.052 1.558 2.017 2.982l-.002.085-.068.05c-.38.277-.737.478-1.07.6-1.03.38-1.795-.003-2.36-1.168a7.552 7.552 0 00-.949-1.52l-.048-.058.01-.074c.06-.443.089-.94.088-1.494v-.083a18.102 18.102 0 00-.022-.788l-.005-.093-.013-.244zM7.352 6.211l-.136-.12-.112.144c-.466.605-.758 1.44-.88 2.509l-.063.552.362-.42c.53-.615 1.22-.965 2.068-1.05l.334-.033-.223-.252c-.37-.418-.82-.862-1.35-1.33zm13.954.432l-.126-.162-.149.168-.06.07c-.163.181-.321.353-.477.516l-.135.14-.04.04c-.365.37-.715.688-1.049.952l-.058.046-.006.074a7.543 7.543 0 01-.4 1.768c-.421 1.225-.149 2.04.846 2.503.253.118.55.212.89.283l.082.017.064-.055c1.156-1 1.44-2.21.867-3.64l-.023-.057-.327-.788.604.598.007.007.453.456-.197-.733a8.97 8.97 0 01-.167-.782 3.119 3.119 0 00-.599-1.42zm.832 3.293l.344.436c.73.924 1.118 1.794 1.163 2.62l.01.17-.17.01c-.784.046-1.474.043-2.07-.008l-.347-.03.235-.257c.646-.707.938-1.503.875-2.386l-.04-.555zM6.775 12.963l-.332-.024c-.556-.04-1.19-.039-1.902.002h-.01l-.183.011.028.226c.098.758.478 1.553 1.142 2.393l.344.436-.04-.555c-.059-.82.188-1.564.74-2.232l.213-.257zm.523.08l-.086-.015-.09.085-.031.032c-.984.973-1.187 2.136-.623 3.493l.327.787-.604-.598-.04-.04-.038-.038-.486-.487.202.66c.112.364.2.74.266 1.129.089.528.276.986.561 1.371l.126.17.14-.16c.223-.255.442-.492.655-.712l.088-.09.027-.028c.365-.369.713-.684 1.046-.947l.057-.045.008-.072a7.682 7.682 0 01.391-1.679c.42-1.224.149-2.04-.846-2.503a4.31 4.31 0 00-1.05-.313zm14.541 3.604l-.063.552c-.122 1.07-.414 1.904-.88 2.51l-.112.144-.137-.12a15.809 15.809 0 01-1.35-1.331l-.222-.252.334-.033c.849-.085 1.538-.435 2.068-1.05l.362-.42zm-8.286 3.177a7.575 7.575 0 01-.94-1.509c-.565-1.165-1.33-1.548-2.36-1.168a4.488 4.488 0 00-1.067.598l-.066.048-.004.083c-.066 1.473.607 2.493 2.014 3.074l.785.324-1.217.01.633.37c.214.126.425.264.633.413a3.1 3.1 0 001.388.574l.207.028-.013-.208c-.016-.273-.033-.898-.033-.898v-.056c-.006-.576.02-1.093.077-1.553l.01-.073-.047-.057zm.604.616l-.26-.217-.023.389-.004.076a16.09 16.09 0 00.02 1.799l.011.18.18-.02c.765-.09 1.57-.474 2.421-1.153l.433-.346-.551.04c-.818.06-1.56-.19-2.227-.748zm.045.467c-.013.39-.008.814.013 1.273l.005.099c.524-.096 1.077-.344 1.662-.75a3.327 3.327 0 01-1.68-.622zm-2.286.71l1.255-.009c.004.211.01.43.022.656a2.844 2.844 0 01-1.031-.477 9.48 9.48 0 00-.246-.17zM10.37 17.47c-.28.103-.586.272-.916.505-.031 1.28.557 2.143 1.806 2.659l1.91.788a12.16 12.16 0 01.072-1.436 8.01 8.01 0 01-.936-1.52c-.493-1.016-1.083-1.31-1.936-.996zm8.179.648a7.453 7.453 0 01-1.76-.403c-1.22-.422-2.03-.149-2.491.851-.143.31-.251.687-.325 1.13l-.014.083.058.062c.982 1.052 2.162 1.28 3.547.7l.783-.329-1.008 1.028.735-.21c.29-.082.59-.149.896-.2a3.09 3.09 0 001.413-.602l.163-.127-.154-.137a19.234 19.234 0 01-.65-.603l-.076-.074-.043-.043c-.372-.37-.69-.724-.955-1.062l-.046-.058-.073-.006zm-9.79-.046l.028.345c.07.888.421 1.606 1.051 2.155l.419.363-.55-.063a8.133 8.133 0 01-.204-.026l-.012-.002-.013-.004a8.3 8.3 0 00-1.08-.245l-.014-.002-.014-.005a3.817 3.817 0 01-1.207-.638l-.139-.112.118-.135c.454-.521.885-.968 1.293-1.34l.055-.049.27-.242zm9.71 2.505l.992-1.012c.171.168.353.339.545.513a2.828 2.828 0 01-1.093.413 9.4 9.4 0 00-.445.086zm-3.861-1.867c-.12.261-.215.58-.284.958.87.891 1.88 1.07 3.108.555l1.893-.793c-.336-.338-.63-.664-.88-.978a7.894 7.894 0 01-1.768-.412c-1.063-.369-1.688-.158-2.07.67zM7.52 19.79c.337-.379.66-.715.967-1.007a3.37 3.37 0 00.717 1.626c-.231-.023-.5-.07-.739-.15a3.617 3.617 0 01-.945-.468zm13.843-2.124a3.32 3.32 0 01-1.592.747c.261.28.558.57.89.872l.072.065c.294-.436.504-.996.63-1.684zm-14.93.329a9.396 9.396 0 00-.112-.556l.839.83.193.191-.076.079a19.87 19.87 0 00-.466.503 2.886 2.886 0 01-.379-1.047zm.89-4.597c-.875.87-1.05 1.88-.54 3.11l.74 1.78c.328-.327.644-.613.948-.857a8.126 8.126 0 01.4-1.683c.367-1.068.158-1.695-.667-2.08a3.85 3.85 0 00-.881-.27zm13.462.037l-.073-.012-.073.057-.06.045a7.98 7.98 0 01-1.261.756c-1.16.567-1.54 1.337-1.163 2.371.122.334.322.692.598 1.075l.05.068.084.002c1.417.035 2.402-.642 2.968-2.027l.323-.788.01 1.399.371-.671c.149-.264.313-.523.493-.777a3.23 3.23 0 00.54-1.206l.044-.218-.221.012c-.296.016-.579.026-.849.028h-.239a10.395 10.395 0 01-1.542-.114zm.019.35l-.02.015a8.318 8.318 0 01-1.317.79c-1.01.494-1.304 1.087-.991 1.944.103.282.27.59.503.921 1.227.003 2.058-.588 2.56-1.815l.717-1.748a10.763 10.763 0 01-1.452-.107zm2.398.09c-.239.01-.47.016-.69.017l.008 1.218c.081-.127.165-.252.253-.376.198-.28.34-.566.429-.859zm-17.72 1.074c-.404-.588-.651-1.146-.746-1.673.495-.024.95-.028 1.364-.01a3.362 3.362 0 00-.617 1.683zm17.035-3.953c-.052.667-.3 1.286-.74 1.85.427.022.898.022 1.415-.001l.097-.005c-.068-.578-.324-1.192-.772-1.844zM19.54 8.591c.31-.25.63-.54.963-.874l.714 1.72.023.054c.508 1.268.28 2.305-.71 3.196a3.632 3.632 0 01-.733-.24c-.825-.384-1.034-1.012-.668-2.08a7.999 7.999 0 00.411-1.776zM9.113 8.147l.085.002.05.069c.275.382.475.74.597 1.074.378 1.035-.004 1.804-1.163 2.372a7.5 7.5 0 00-1.513.953l-.057.048-.074-.01a11.042 11.042 0 00-1.456-.088H5.42a18.31 18.31 0 00-.863.03l-.207.011.028-.206a3.14 3.14 0 01.571-1.39c.18-.255.344-.514.493-.778l.371-.67.01 1.398.323-.788c.566-1.384 1.55-2.062 2.968-2.027zm-2.652 2.157c.502-1.227 1.333-1.818 2.56-1.815.232.332.4.64.503.921.313.857.02 1.45-.992 1.945-.592.29-1.1.607-1.523.95a11.43 11.43 0 00-1.333-.081l.785-1.92zm-.981.53a9.151 9.151 0 01-.253.376 2.873 2.873 0 00-.474 1.033c.219-.01.43-.016.635-.019h.102l-.01-1.39zm9.268-4.801c.05-.405.078-.851.082-1.34l1.91.79c1.221.504 1.81 1.339 1.807 2.571a4.04 4.04 0 01-.918.506c-.853.315-1.442.02-1.935-.996a7.998 7.998 0 00-.946-1.531zm6.409.99a18.29 18.29 0 01-.468.503l.151.15.79.782a9.39 9.39 0 01-.062-.337 2.858 2.858 0 00-.411-1.098zm-10.831-1.89l.485-.49-.687.214-.097.029a8.786 8.786 0 01-.997.229 3.089 3.089 0 00-1.413.601l-.163.127.154.137c.255.226.491.447.71.662l.076.076.041.04c.347.35.646.684.897 1.004l.046.058.073.007a7.451 7.451 0 011.76.402c1.219.422 2.03.149 2.491-.85.135-.294.239-.645.312-1.056l.015-.085-.059-.063c-.98-1.04-2.155-1.264-3.534-.685l-.783.328.595-.607.04-.04.038-.038zm-3.06 1.461c-.293.436-.503.997-.629 1.684a3.33 3.33 0 011.592-.747c-.28-.299-.601-.611-.962-.937zm1.47-.019l1.831-.769c1.222-.512 2.228-.337 3.095.542a3.895 3.895 0 01-.27.886c-.382.828-1.006 1.039-2.07.67a7.89 7.89 0 00-1.767-.412c-.236-.295-.509-.6-.82-.917zm9.007-1.394l.55.063c1.064.123 1.895.416 2.497.885l.144.112-.12.137c-.467.532-.908.984-1.325 1.356l-.25.224-.033-.335c-.084-.853-.433-1.546-1.045-2.079l-.418-.363zM19.5 7.259a3.352 3.352 0 00-.744-1.6c.685.127 1.242.338 1.676.633a16.03 16.03 0 01-.932.967zM9.64 5.342a8.32 8.32 0 01-.553.111 2.85 2.85 0 00-1.051.387l-.041.026c.208.189.403.374.587.555l.232-.237.826-.842zm4.475-1.8l-.01-.182-.218.026c-.757.097-1.55.48-2.39 1.149l-.432.345.551-.04c.816-.058 1.557.19 2.222.745l.256.213.023-.333c.04-.562.04-1.204-.002-1.923zm-.331.207c-.526.095-1.08.344-1.666.75.599.048 1.16.255 1.676.62.017-.415.014-.872-.01-1.37zm1.046.758a18.103 18.103 0 00-.02-.741c.353.08.695.238 1.028.476.124.089.249.173.375.254l-1.383.01z" fill="#fff"/></mask><g mask="url(#b)" fill-rule="evenodd" clip-rule="evenodd"><path d="M13.69 4.833l.405.453-.052.446-2.59-.862.058-.251.413-.214 1.038.097.728.33z" fill="#fff"/><path d="M13.662 3.832l.27-.432.163.206v1.72l-.148.127-.153-.334-.244-.685.112-.602z" fill="url(#paint6_linear)"/><path d="M13.784 3.75l.16-.198.202-.253-.781.061-1.886.826v.433l.125.05.514-.167.672-.211.994-.542z" fill="url(#paint7_linear)"/><path d="M13.91 6.09l-1.03.331-3.685 1.015.276.49 1.313.28 1.638.283 1.18-.377.544-1.58-.236-.442z" fill="url(#paint8_linear)"/><path d="M8.584 6.594l.265-.326.37-.137 1.716-.906h.782l.923-.043.418.305.747.449.041.357-.184.055h-.576l-3.271.184-1.23.062z" fill="url(#paint9_linear)"/><path d="M8.936 6.305l-.33.346-.124-.346.639-.595.727-.73.48-.122.024.349-1.416 1.098z" fill="url(#paint10_linear)"/><path d="M8.083 5.866l-.26-.172-.209.13.091.24 1.2 1.322.559.27.09-.164-.019-.341-.8-.576-.15-.154-.146-.244-.356-.31z" fill="url(#paint11_linear)"/><path d="M8.672 7.731l-.268-.493-.683.149-1.391.586-.17.7.13.314.89-.314 1.492-.942z" fill="url(#paint12_linear)"/><path d="M7.37 6.301l-.053.75-.68 1.227-.244.486H6.29V7.389l.414-1.014.613-.198.054.124z" fill="url(#paint13_linear)"/><path d="M9.195 8.278l-.135.63-3.345 3.637-.346-.152.496-1.666.898-1.935 1.32-.755h.796l.316.241z" fill="url(#paint14_linear)"/><path d="M5.675 10.149l.04.357-.297.797-.751 1.242h-.362l.27-1.09.944-1.354.156.048z" fill="url(#paint15_linear)"/><path d="M5.657 11.802v.421l-.024.02-.209.022-.03-.074-.025-.825.11-.532.167-.618.108-.067.027.61-.124 1.043z" fill="url(#paint16_linear)"/><path d="M7.058 12.209l.137.336-.069.103-2.513-.082-.067-.138.207-.185.34-.106.397.086h.186l.655-.033.727.019z" fill="#fff"/><path d="M4.475 13.028l.261.054.458.434.368 1.432.303.478-.38.363-1.27-2.087.26-.674z" fill="url(#paint17_linear)"/><path d="M6.456 13.058l-.658.26-.313 1.044-.002.586.169.517.217-.11.38-1.57s.315-.567.315-.583c0-.016-.108-.144-.108-.144z" fill="url(#paint18_linear)"/><path d="M6.1 13.264l.331-.153.068-.083-.507-.14-1.2.022-.252.203.196.162.458.242.525-.138.38-.115z" fill="url(#paint19_linear)"/><path d="M7.312 13.082c0 .041.194.664.194.664l.017 4.54-.05.046h-.25l-.412-.565-.766-2.181-.085-.979.687-1.21s.665-.357.665-.315z" fill="url(#paint20_linear)"/><path d="M6.412 17.595l-.056-.51-.465-.346v1.1l.465 1.418.437.063.018-.279-.152-.97-.247-.476z" fill="url(#paint21_linear)"/><path d="M5.992 16.871l.33.567.223.42.808.601.12-.126-.203-.199-.614-.812-.595-.482-.069.031z" fill="url(#paint22_linear)"/><path d="M12.434 21.422l.591.337.396-.235-.396-.629-3.394-3.03-.344-.171-.171.182.17 1.51 1.428 1.602 1.72.434z" fill="url(#paint23_linear)"/><path d="M13.48 19.958l-.28.14h-.137l-3.61-2.128-.166-.086v-.303l.722-.404 1.093-.337.44.237.427.32.326.37.579 1.252.457.674.15.265z" fill="url(#paint24_linear)"/><path d="M11.916 21.618l-.61-.172.495-.107.963.1.408-.017.07.28-.217.057-1.109-.141z" fill="url(#paint25_linear)"/><path d="M14.324 21.048l-.101-.633-.313-.032-.144.796.04 1.41.335.166-.08-.278.162-.198.309-.552-.208-.679z" fill="url(#paint26_linear)"/><path d="M18.468 20.119l1.014-.282.182-.634-.84-.076-4.398.314-.467.123-.05.402.951.686 1.091.136h.984l1.533-.669z" fill="url(#paint27_linear)"/><path d="M18.63 18.25l-.115.374-.23.125-3.214.27-.747.648-.183.056-.182-.428.66-1.633.492-.14 1.111-.144s1.33.316 1.37.316c.04 0 1.039.556 1.039.556z" fill="url(#paint28_linear)"/><path d="M19.863 20.12h.416l.178-.043-1.031-1.208-.892-.581-.089.164.089.417.806.572.163.412.36.266z" fill="url(#paint29_linear)"/><path d="M18.567 20.524l-.138.352s-.435.203-.49.181c-.055-.021-.244-.18-.244-.18l1.369-1.153.276-.283.12.123.043.16-.936.8z" fill="url(#paint30_linear)"/><path d="M18.468 20.577l-.553.318-.031.118s.724.084.747.084c.023 0 1.21-.378 1.225-.378.014 0 .559-.405.559-.43 0-.026-.137-.197-.137-.197l-.273-.015-.137.006-.845.237-.555.257z" fill="#fff"/><path d="M20.79 19.186l.073.472-.194.149-1.123-1.067-.221-.6.305-.101.827.701.333.446z" fill="url(#paint31_linear)"/><path d="M21.223 17.843l.173-.746.443-.065-.308 2.092-.77.48-.028-.255.027-.905.463-.6z" fill="url(#paint32_linear)"/><path d="M21.362 17.665l.244-.486-.492.095-1.436.624-.253.39.346.124.535.095.484-.257.572-.585z" fill="#556086"/><path d="M20.95 13.874l-.125-.452-.597.181-1.68.952-.465.691-.069.858.274.971s.265.434.435.59c.17.156.352.133.352.133l.407-.723.746-2.15.721-1.05z" fill="url(#paint33_linear)"/><path d="M22.332 14.34l.12-.398-.017-.158-.284.044-.373.6-1.5 2.219-1.299.807-.092.172s.208.171.252.171h.632c.053 0 1.425-.51 1.425-.51s.41-.322.41-.374c0-.051.726-2.574.726-2.574z" fill="url(#paint34_linear)"/><path d="M22.451 15.747l.21-1.046-.061-1.098-.258.057v.467l-.086.453-.047 1.039.123.286.12-.158z" fill="url(#paint35_linear)"/><path d="M23.504 13.692l-.395.318-.598-.119h-.255l-.644.054h-.564l-.258-.161-.054-.18.36-.182 2.013.108.395.162z" fill="#556086"/><path d="M23.289 12.84l.185.162v.184l-2.284-.128.168-.309.656-.062 1.275.152z" fill="#F0F1F5"/><path d="M22.533 10.995l-.172-.484h-.092l-.84 2.482.349-.148.448-.237.285-.623.09-.656-.068-.334z" fill="url(#paint36_linear)"/><path d="M20.53 12.63l.206.301-.103.127-.9-.127-.816-.643-.466-.956.381-1.733.544-1.141.253.053.158.17.744 3.95z" fill="url(#paint37_linear)"/><path d="M21.229 6.686l-.032.665-.512.175-.183.214-.544.688-.419.163-.163-.09.733-1.242 1.088-.749.032.176z" fill="url(#paint38_linear)"/><path d="M21.542 8.28s.414.368.444.4c.03.032.108.502.108.502l-.402-.086-.972-1.299-.16-.147.13-.124h.153l.699.753z" fill="url(#paint39_linear)"/><path d="M19.56 7.103v.566l-.251.225-.354-.725-.813-1.856.614-.054.583.946.222.898z" fill="url(#paint40_linear)"/><path d="M20.718 6.205h-.442L19.5 7.26l-.124.347.075.135 1.392-1.406s-.096-.13-.125-.13z" fill="url(#paint41_linear)"/><path d="M18.756 5.66l-.483-.245-.13-.266.852.032s1.135.6 1.184.6c.049 0 .507.484.507.484l-.254.027-.361-.027-1.315-.605z" fill="#535E84"/><path d="M14.538 6.205l.382-.013.054-1.787-.054-.934-.321-.043-.133.599.072 2.178z" fill="url(#paint42_linear)"/><path d="M14.83 4.619v.156l.183.133 1.905.932.952 1.253.677.961.17.09h.115v-.737s-.246-1.135-.631-1.51c-.386-.376-1.553-.885-1.553-.885l-1.404-.393h-.414z" fill="url(#paint43_linear)"/><path d="M16.046 4.429h.47s.435.102.435.12v.284l-1.716-.158-.405.018v-.186l.222-.102.994.024z" fill="#fff"/><path d="M14.81 3.766l-.272-.3.31-.106.938.461.981.26.533.612-.473-.03-.614-.16-.701-.169-.701-.568z" fill="#535E84"/><path d="M18.547 8.054l.17.09.068.17-.641.31-.745.471h-1.123l-.58-.52-.573-1.22-.554-1.27.18-.052h.472l3.326 2.02z" fill="#fff"/><path d="M21.157 7.023l.014-.274.609.224.236 1.452-.08.577-.306-.544-.332-.63-.141-.805z" fill="url(#paint44_linear)"/><path d="M20.56 7.65l-.058.067-.03.12.37 2.1-.314 2.75.048.186.115.142.56-.328.628-1.314.03-1.171-.265-.938-.924-1.466-.16-.148z" fill="url(#paint45_linear)"/><path d="M23.202 13.874l.222-.183h.164l-.686 1.965-.541.054.16-.6.26-.726.42-.51z" fill="url(#paint46_linear)"/><path d="M15.882 21.53l.514-.17.258-.12-.897-.284-1.616-.573-.098.19.152.322.322.373.548.325.817-.063z" fill="url(#paint47_linear)"/><path d="M13.376 22.471l-.183-.207-.056-.502.035-.154v-.187l-.11-.979.18-.457.179-.052.178.025v2.038l-.223.475z" fill="url(#paint48_linear)"/><path d="M8.716 18.333l-.278.853-.918.604-.25.025v-.4l1.168-1.082h.278z" fill="url(#paint49_linear)"/><path d="M8.617 18.43l-.13.352-.049.104.179 1.107.587.415s.076.058.523.292c.446.234-.274-.602-.274-.602l-.604-1.585-.232-.083z" fill="#5C668B"/><path d="M8.633 17.52l-.162-.09-.514-1.53-.634-2.503-.055-.185-.044-.088.368.012.75-.012.873.601.238.804-.166 1.585-.436 1.235-.218.171z" fill="url(#paint50_linear)"/><path d="M9.109 8.318l-.089.17-.065.51-1.894 3.157-.052.15.051.18.303.163 1.107-.793 1.156-.596.228-.388.276-.863-.118-.84-.465-.602-.367-.36-.071.112z" fill="url(#paint51_linear)"/><path d="M7.24 6.34l.027.254.04.256.762.62.16.061.345.125.06-.185s-.64-.987-.659-.987c-.018 0-.736-.307-.736-.307v.163z" fill="url(#paint52_linear)"/><path d="M9.64 5.342l.564-.33.09-.225-1.242.171-1.148.245-.362.345.18.304.272.014.64-.137 1.006-.387z" fill="url(#paint53_linear)"/></g><path fill-rule="evenodd" clip-rule="evenodd" d="M14.48 1.876l-.094-.79-.508.61c-1.341 1.613-2.982 2.58-4.933 2.911-.694.118-1.279.382-1.753.788-.213-.179-.437-.36-.67-.545L5.9 4.357l.07.793c.187 2.093-.293 3.942-1.44 5.563-.398.564-.625 1.152-.681 1.762-.314.027-.64.06-.977.101l-.787.094.608.51c1.605 1.348 2.567 2.996 2.897 4.957.114.677.364 1.25.748 1.718-.166.201-.335.411-.507.63l-.49.625.789-.07c.75-.068 1.736-.01 2.156.058a7.768 7.768 0 013.38 1.388c.564.403 1.152.63 1.762.686.025.288.056.587.093.895l.093.79.508-.61c1.341-1.612 2.982-2.58 4.933-2.911.694-.118 1.279-.382 1.753-.787.213.178.436.36.67.545l.622.492-.07-.793-.007-.07c-.169-2.065.313-3.89 1.446-5.493.361-.51.581-1.04.661-1.588.32-.027.653-.062.998-.103l.787-.094-.608-.51c-1.605-1.348-2.567-2.996-2.897-4.957-.117-.697-.38-1.284-.784-1.761.178-.214.359-.439.543-.673l.49-.625-.79.07c-2.082.188-3.923-.294-5.536-1.446-.561-.401-1.147-.629-1.753-.685-.027-.315-.06-.642-.1-.982zm-.436 18.747l.004-.051c.698.585 1.483.85 2.348.788-.83.662-1.606 1.031-2.335 1.116a15.646 15.646 0 01-.017-1.853zm-3.732-3.315a4.33 4.33 0 00-1.025.576c-.063 1.406.573 2.356 1.908 2.907l1.57.648-1.442.011a9.1 9.1 0 01.74.477c.42.3.856.482 1.313.544-.059-.98-.044-1.825.045-2.538a7.741 7.741 0 01-.962-1.543c-.531-1.096-1.211-1.428-2.147-1.082zm3.83 2.415c.07-.429.175-.79.31-1.086.42-.909 1.134-1.158 2.281-.76a7.619 7.619 0 001.8.41c.441.562 1.022 1.163 1.745 1.805a2.92 2.92 0 01-1.337.567c-.35.06-.693.139-1.025.236l1.148-1.17-1.566.656c-1.314.551-2.42.345-3.357-.658zM8.616 18.43l-.013.011c-.417.375-.862.833-1.334 1.374a3.65 3.65 0 001.154.61c.359.12.692.198 1.103.25l.07.009.13.016c-.666-.58-1.036-1.34-1.11-2.27zm10.808-.142c.89-.09 1.621-.459 2.181-1.108-.119 1.042-.401 1.846-.846 2.423-.525-.465-.97-.904-1.335-1.315zM7.268 13.212l-.028.026c-.963.933-1.155 2.033-.614 3.335l.654 1.573-1.21-1.197a12.602 12.602 0 01-.078-.078c.115.372.205.756.272 1.152.084.5.26.933.53 1.297.655-.749 1.268-1.349 1.839-1.8.056-.53.189-1.102.4-1.716.396-1.153.148-1.87-.757-2.292a4.137 4.137 0 00-1.008-.3zm6.9-5.617c.084-.184.158-.387.22-.61.187.281.366.6.538.955.677 1.395 1.712 1.9 2.998 1.426.221-.082.45-.193.688-.333-.066.33-.163.682-.29 1.054-.505 1.468-.128 2.56 1.115 3.139.132.061.274.117.426.167-.233.146-.49.287-.77.424-1.389.68-1.89 1.72-1.419 3.011.081.223.192.454.332.692a8.127 8.127 0 01-1.05-.292c-1.46-.507-2.548-.128-3.123 1.12a4.23 4.23 0 00-.238.67 8.25 8.25 0 01-.521-.928c-.677-1.396-1.712-1.9-2.998-1.427-.215.08-.438.187-.668.321.065-.302.156-.62.27-.956.505-1.468.128-2.56-1.115-3.139a4.108 4.108 0 00-.606-.222c.28-.187.596-.367.95-.54 1.389-.68 1.89-1.72 1.419-3.012a4.277 4.277 0 00-.331-.692 8.22 8.22 0 011.05.293c1.46.506 2.547.128 3.122-1.121zm6.59 6.008l-.015.012a8.037 8.037 0 01-1.35.819c-1.091.534-1.421 1.217-1.078 2.158.116.318.308.662.576 1.033 1.351.033 2.269-.608 2.806-1.92l.645-1.578.012 1.6c.166-.306.352-.604.558-.895.26-.367.43-.746.512-1.14-1.044.056-1.932.028-2.666-.089zm-16.218-.49h.01a14.74 14.74 0 011.881-.002c-.579.7-.841 1.488-.78 2.354-.66-.836-1.027-1.617-1.111-2.352zm17.808-2.635c.067.934-.243 1.775-.92 2.515.587.05 1.27.053 2.046.008-.042-.784-.414-1.622-1.126-2.523zm-1.189-3.715l.013-.014c.29.373.476.821.564 1.343.052.31.12.614.201.91l-.008-.008-1.208-1.196.653 1.573.023.055c.544 1.357.285 2.491-.82 3.447a3.922 3.922 0 01-.853-.27c-.905-.422-1.152-1.14-.757-2.292.224-.65.36-1.254.41-1.81.554-.439 1.148-1.018 1.782-1.738zM6.303 10.239l-.645 1.577-.012-1.6a9.044 9.044 0 01-.558.895 2.96 2.96 0 00-.542 1.314c.972-.055 1.81-.035 2.514.06a7.671 7.671 0 011.547-.976c1.09-.533 1.42-1.217 1.077-2.158a4.364 4.364 0 00-.575-1.033c-1.352-.032-2.27.608-2.806 1.921zm8.328-6.644l-.002-.036c.455.063.89.245 1.308.543.29.207.587.394.89.562l-1.591.011 1.569.648c1.307.54 1.944 1.462 1.911 2.82a4.331 4.331 0 01-1.028.578c-.936.346-1.616.014-2.147-1.082a7.715 7.715 0 00-.972-1.554c.094-.7.114-1.529.062-2.49zM7.24 6.34c-.445.577-.727 1.382-.846 2.424.56-.65 1.29-1.02 2.18-1.108A15.62 15.62 0 007.24 6.34zm2.935-1.319l.03-.01a12.39 12.39 0 00-.078.08L8.936 6.305l1.566-.657c1.308-.548 2.41-.346 3.344.645-.07.397-.17.735-.299 1.013-.419.91-1.133 1.158-2.28.76a7.62 7.62 0 00-1.8-.41c-.441-.561-1.023-1.162-1.745-1.804a2.92 2.92 0 011.337-.568 8.924 8.924 0 001.116-.263zm8.098.394c.647.562 1.015 1.297 1.103 2.19.41-.366.847-.813 1.31-1.34-.575-.447-1.375-.73-2.413-.85zm-4.365-1.858l.036-.005c.041.714.042 1.347.003 1.9-.697-.581-1.48-.845-2.343-.783.818-.652 1.584-1.02 2.304-1.112z" fill="url(#paint54_linear)"/><mask id="c" maskUnits="userSpaceOnUse" x="2" y="1" width="24" height="24"><path fill-rule="evenodd" clip-rule="evenodd" d="M14.48 1.876l-.094-.79-.508.61c-1.341 1.613-2.982 2.58-4.933 2.911-.694.118-1.279.382-1.753.788-.213-.179-.437-.36-.67-.545L5.9 4.357l.07.793c.187 2.093-.293 3.942-1.44 5.563-.398.564-.625 1.152-.681 1.762-.314.027-.64.06-.977.101l-.787.094.608.51c1.605 1.348 2.567 2.996 2.897 4.957.114.677.364 1.25.748 1.718-.166.201-.335.411-.507.63l-.49.625.789-.07c.75-.068 1.736-.01 2.156.058a7.768 7.768 0 013.38 1.388c.564.403 1.152.63 1.762.686.025.288.056.587.093.895l.093.79.508-.61c1.341-1.612 2.982-2.58 4.933-2.911.694-.118 1.279-.382 1.753-.787.213.178.436.36.67.545l.622.492-.07-.793-.007-.07c-.169-2.065.313-3.89 1.446-5.493.361-.51.581-1.04.661-1.588.32-.027.653-.062.998-.103l.787-.094-.608-.51c-1.605-1.348-2.567-2.996-2.897-4.957-.117-.697-.38-1.284-.784-1.761.178-.214.359-.439.543-.673l.49-.625-.79.07c-2.082.188-3.923-.294-5.536-1.446-.561-.401-1.147-.629-1.753-.685-.027-.315-.06-.642-.1-.982zm-.436 18.747l.004-.051c.698.585 1.483.85 2.348.788-.83.662-1.606 1.031-2.335 1.116a15.646 15.646 0 01-.017-1.853zm-3.732-3.315a4.33 4.33 0 00-1.025.576c-.063 1.406.573 2.356 1.908 2.907l1.57.648-1.442.011a9.1 9.1 0 01.74.477c.42.3.856.482 1.313.544-.059-.98-.044-1.825.045-2.538a7.741 7.741 0 01-.962-1.543c-.531-1.096-1.211-1.428-2.147-1.082zm3.83 2.415c.07-.429.175-.79.31-1.086.42-.909 1.134-1.158 2.281-.76a7.619 7.619 0 001.8.41c.441.562 1.022 1.163 1.745 1.805a2.92 2.92 0 01-1.337.567c-.35.06-.693.139-1.025.236l1.148-1.17-1.566.656c-1.314.551-2.42.345-3.357-.658zM8.616 18.43l-.013.011c-.417.375-.862.833-1.334 1.374a3.65 3.65 0 001.154.61c.359.12.692.198 1.103.25l.07.009.13.016c-.666-.58-1.036-1.34-1.11-2.27zm10.808-.142c.89-.09 1.621-.459 2.181-1.108-.119 1.042-.401 1.846-.846 2.423-.525-.465-.97-.904-1.335-1.315zM7.268 13.212l-.028.026c-.963.933-1.155 2.033-.614 3.335l.654 1.573-1.21-1.197a12.602 12.602 0 01-.078-.078c.115.372.205.756.272 1.152.084.5.26.933.53 1.297.655-.749 1.268-1.349 1.839-1.8.056-.53.189-1.102.4-1.716.396-1.153.148-1.87-.757-2.292a4.137 4.137 0 00-1.008-.3zm6.9-5.617c.084-.184.158-.387.22-.61.187.281.366.6.538.955.677 1.395 1.712 1.9 2.998 1.426.221-.082.45-.193.688-.333-.066.33-.163.682-.29 1.054-.505 1.468-.128 2.56 1.115 3.139.132.061.274.117.426.167-.233.146-.49.287-.77.424-1.389.68-1.89 1.72-1.419 3.011.081.223.192.454.332.692a8.127 8.127 0 01-1.05-.292c-1.46-.507-2.548-.128-3.123 1.12a4.23 4.23 0 00-.238.67 8.25 8.25 0 01-.521-.928c-.677-1.396-1.712-1.9-2.998-1.427-.215.08-.438.187-.668.321.065-.302.156-.62.27-.956.505-1.468.128-2.56-1.115-3.139a4.108 4.108 0 00-.606-.222c.28-.187.596-.367.95-.54 1.389-.68 1.89-1.72 1.419-3.012a4.277 4.277 0 00-.331-.692 8.22 8.22 0 011.05.293c1.46.506 2.547.128 3.122-1.121zm6.59 6.008l-.015.012a8.037 8.037 0 01-1.35.819c-1.091.534-1.421 1.217-1.078 2.158.116.318.308.662.576 1.033 1.351.033 2.269-.608 2.806-1.92l.645-1.578.012 1.6c.166-.306.352-.604.558-.895.26-.367.43-.746.512-1.14-1.044.056-1.932.028-2.666-.089zm-16.218-.49h.01a14.74 14.74 0 011.881-.002c-.579.7-.841 1.488-.78 2.354-.66-.836-1.027-1.617-1.111-2.352zm17.808-2.635c.067.934-.243 1.775-.92 2.515.587.05 1.27.053 2.046.008-.042-.784-.414-1.622-1.126-2.523zm-1.189-3.715l.013-.014c.29.373.476.821.564 1.343.052.31.12.614.201.91l-.008-.008-1.208-1.196.653 1.573.023.055c.544 1.357.285 2.491-.82 3.447a3.922 3.922 0 01-.853-.27c-.905-.422-1.152-1.14-.757-2.292.224-.65.36-1.254.41-1.81.554-.439 1.148-1.018 1.782-1.738zM6.303 10.239l-.645 1.577-.012-1.6a9.044 9.044 0 01-.558.895 2.96 2.96 0 00-.542 1.314c.972-.055 1.81-.035 2.514.06a7.671 7.671 0 011.547-.976c1.09-.533 1.42-1.217 1.077-2.158a4.364 4.364 0 00-.575-1.033c-1.352-.032-2.27.608-2.806 1.921zm8.328-6.644l-.002-.036c.455.063.89.245 1.308.543.29.207.587.394.89.562l-1.591.011 1.569.648c1.307.54 1.944 1.462 1.911 2.82a4.331 4.331 0 01-1.028.578c-.936.346-1.616.014-2.147-1.082a7.715 7.715 0 00-.972-1.554c.094-.7.114-1.529.062-2.49zM7.24 6.34c-.445.577-.727 1.382-.846 2.424.56-.65 1.29-1.02 2.18-1.108A15.62 15.62 0 007.24 6.34zm2.935-1.319l.03-.01a12.39 12.39 0 00-.078.08L8.936 6.305l1.566-.657c1.308-.548 2.41-.346 3.344.645-.07.397-.17.735-.299 1.013-.419.91-1.133 1.158-2.28.76a7.62 7.62 0 00-1.8-.41c-.441-.561-1.023-1.162-1.745-1.804a2.92 2.92 0 011.337-.568 8.924 8.924 0 001.116-.263zm8.098.394c.647.562 1.015 1.297 1.103 2.19.41-.366.847-.813 1.31-1.34-.575-.447-1.375-.73-2.413-.85zm-4.365-1.858l.036-.005c.041.714.042 1.347.003 1.9-.697-.581-1.48-.845-2.343-.783.818-.652 1.584-1.02 2.304-1.112z" fill="#fff"/></mask><g mask="url(#c)"><g filter="url(#filter2_f)"><path fill-rule="evenodd" clip-rule="evenodd" d="M2.639 19.65c1.978-1.496 3.815-1.924 5.509-1.281 1.694.643 3.53 1.07 5.509 1.281-2.238 3.217-4.074 3.9-5.51 2.05-1.434-1.85-3.27-2.534-5.508-2.05zm22.078-.002c-2.237-.483-4.074.2-5.509 2.05-1.435 1.85-3.27 1.168-5.508-2.05 1.978-.211 3.814-.638 5.508-1.28 1.695-.643 3.531-.216 5.51 1.28z" fill="#626F8F"/></g><g filter="url(#filter3_f)"><path fill-rule="evenodd" clip-rule="evenodd" d="M14.043 19.794c3.49 0 6.32-2.843 6.32-6.35 0-3.508-2.83-6.351-6.32-6.351s-6.32 2.843-6.32 6.35c0 3.508 2.83 6.351 6.32 6.351z" fill="#556086"/></g></g><path fill-rule="evenodd" clip-rule="evenodd" d="M13.99 19.398c3.49 0 6.32-2.843 6.32-6.35 0-3.508-2.83-6.351-6.32-6.351s-6.32 2.843-6.32 6.35c0 3.508 2.83 6.351 6.32 6.351z" fill="url(#paint55_linear)"/><path fill-rule="evenodd" clip-rule="evenodd" d="M13.99 19.227c3.396 0 6.15-2.767 6.15-6.18 0-3.412-2.754-6.178-6.15-6.178-3.396 0-6.15 2.766-6.15 6.179 0 3.412 2.754 6.179 6.15 6.179z" fill="url(#paint56_linear)"/><path fill-rule="evenodd" clip-rule="evenodd" d="M13.99 18.54c3.019 0 5.466-2.46 5.466-5.492 0-3.034-2.447-5.493-5.466-5.493s-5.466 2.46-5.466 5.492c0 3.034 2.447 5.493 5.466 5.493z" fill="url(#paint57_linear)"/><g filter="url(#filter4_d)"><path d="M14.015 12.985h-4.82l4.82 4.82v-4.82z" fill="url(#paint58_linear)"/><path d="M14.015 12.985v-4.82l4.82 4.82h-4.82z" fill="url(#paint59_linear)"/><path d="M14.015 12.985v4.82l4.82-4.82h-4.82z" fill="url(#paint60_linear)"/><path d="M14.015 13.045v-4.82l-4.82 4.82h4.82z" fill="url(#paint61_linear)"/><path transform="rotate(-45 11.605 12.985)" fill="url(#paint62_radial)" d="M11.605 12.985h3.409v3.409h-3.409z"/><g filter="url(#filter5_f)"><path stroke="#fff" stroke-width=".039" d="M11.605 12.985l2.41-2.41 2.41 2.41-2.41 2.41z"/></g></g></g><defs><linearGradient id="paint0_linear" x1="8.289" y1="9.415" x2="8.289" y2="20.978" gradientUnits="userSpaceOnUse"><stop stop-color="#fff"/><stop offset="1" stop-color="#8790B1"/></linearGradient><linearGradient id="paint1_linear" x1="6.271" y1="5.205" x2="6.271" y2="20.824" gradientUnits="userSpaceOnUse"><stop stop-color="#E2E4EF"/><stop offset="1" stop-color="#687591"/></linearGradient><linearGradient id="paint2_linear" x1="8.471" y1="6.235" x2="8.471" y2="17.431" gradientUnits="userSpaceOnUse"><stop stop-color="#5A658A"/><stop offset=".907" stop-color="#fff"/><stop offset="1" stop-color="#fff"/></linearGradient><linearGradient id="paint3_linear" x1="7.466" y1="6.406" x2="7.466" y2="19.622" gradientUnits="userSpaceOnUse"><stop stop-color="#E2E4EF"/><stop offset="1" stop-color="#6C7796"/></linearGradient><linearGradient id="paint4_linear" x1="7.466" y1="6.406" x2="7.466" y2="19.622" gradientUnits="userSpaceOnUse"><stop stop-color="#FAE8C3"/><stop offset="1" stop-color="#F3CD90"/></linearGradient><linearGradient id="paint5_linear" x1="4.348" y1="3.36" x2="4.348" y2="22.669" gradientUnits="userSpaceOnUse"><stop stop-color="#8992B3"/><stop offset="1" stop-color="#F9F9FB"/></linearGradient><linearGradient id="paint6_linear" x1="13.931" y1="3.802" x2="13.757" y2="3.802" gradientUnits="userSpaceOnUse"><stop stop-color="#BFC7DD"/><stop offset="1" stop-color="#8B96B9"/></linearGradient><linearGradient id="paint7_linear" x1="12.908" y1="4.9" x2="13.399" y2="3.664" gradientUnits="userSpaceOnUse"><stop stop-color="#8B97BA"/><stop offset="1" stop-color="#535E84"/></linearGradient><linearGradient id="paint8_linear" x1="10.868" y1="8.587" x2="13.111" y2="5.771" gradientUnits="userSpaceOnUse"><stop stop-color="#D8DDEA"/><stop offset=".276" stop-color="#fff"/><stop offset=".8" stop-color="#fff"/><stop offset="1" stop-color="#D8DDEA"/></linearGradient><linearGradient id="paint9_linear" x1="12.971" y1="5.507" x2="10.497" y2="7.99" gradientUnits="userSpaceOnUse"><stop stop-color="#818DB0"/><stop offset=".379" stop-color="#535E84"/><stop offset="1" stop-color="#818DB0"/></linearGradient><linearGradient id="paint10_linear" x1="9.282" y1="4.496" x2="8.049" y2="5.828" gradientUnits="userSpaceOnUse"><stop stop-color="#D3D9E8"/><stop offset="1" stop-color="#F0F2F7"/></linearGradient><linearGradient id="paint11_linear" x1="6.864" y1="6.616" x2="8.481" y2="8.239" gradientUnits="userSpaceOnUse"><stop stop-color="#BBC4DB"/><stop offset="1" stop-color="#fff"/></linearGradient><linearGradient id="paint12_linear" x1="6.74" y1="7.446" x2="6.35" y2="8.445" gradientUnits="userSpaceOnUse"><stop stop-color="#fff"/><stop offset="1" stop-color="#DCE2F5"/></linearGradient><linearGradient id="paint13_linear" x1="6.973" y1="5.778" x2="5.864" y2="6.151" gradientUnits="userSpaceOnUse"><stop stop-color="#535E84"/><stop offset="1" stop-color="#C2C9DF"/></linearGradient><linearGradient id="paint14_linear" x1="7.431" y1="6.36" x2="3.481" y2="9.556" gradientUnits="userSpaceOnUse"><stop offset="0" stop-color="#757FA0"/><stop offset=".287" stop-color="#535E84"/><stop offset="1" stop-color="#D2D9ED"/></linearGradient><linearGradient id="paint15_linear" x1="4.511" y1="10.591" x2="3.711" y2="11.632" gradientUnits="userSpaceOnUse"><stop stop-color="#B9C2D9"/><stop offset="1" stop-color="#838FB2"/></linearGradient><linearGradient id="paint16_linear" x1="5.656" y1="10.819" x2="5.474" y2="10.819" gradientUnits="userSpaceOnUse"><stop stop-color="#8B97BA"/><stop offset="1" stop-color="#535E84"/></linearGradient><linearGradient id="paint17_linear" x1="3.913" y1="14.115" x2="5.656" y2="15.389" gradientUnits="userSpaceOnUse"><stop stop-color="#A2ABC9"/><stop offset=".571" stop-color="#fff"/><stop offset="1" stop-color="#DEE1EB"/></linearGradient><linearGradient id="paint18_linear" x1="5.778" y1="12.523" x2="4.287" y2="13.573" gradientUnits="userSpaceOnUse"><stop stop-color="#fff"/><stop offset="1" stop-color="#929CBC"/></linearGradient><linearGradient id="paint19_linear" x1="5.251" y1="13.084" x2="5.251" y2="13.256" gradientUnits="userSpaceOnUse"><stop stop-color="#959FBF"/><stop offset="1" stop-color="#5C668B"/></linearGradient><linearGradient id="paint20_linear" x1="6.007" y1="14.067" x2="8.751" y2="16.104" gradientUnits="userSpaceOnUse"><stop stop-color="#9198B4"/><stop offset="1" stop-color="#D9DDEC"/></linearGradient><linearGradient id="paint21_linear" x1="6.351" y1="19.043" x2="6.667" y2="19.043" gradientUnits="userSpaceOnUse"><stop stop-color="#D8DCEA"/><stop offset="1" stop-color="#95A0BF"/></linearGradient><linearGradient id="paint22_linear" x1="5.992" y1="16.84" x2="5.992" y2="18.459" gradientUnits="userSpaceOnUse"><stop stop-color="#959FBF"/><stop offset="1" stop-color="#5C668B"/></linearGradient><linearGradient id="paint23_linear" x1="8.116" y1="20.188" x2="11.055" y2="22.872" gradientUnits="userSpaceOnUse"><stop stop-color="#D9DCE6"/><stop offset="1" stop-color="#fff"/></linearGradient><linearGradient id="paint24_linear" x1="8.983" y1="18.633" x2="11.018" y2="21.53" gradientUnits="userSpaceOnUse"><stop stop-color="#5C668B"/><stop offset="1" stop-color="#959DB7"/></linearGradient><linearGradient id="paint25_linear" x1="11.853" y1="21.43" x2="11.853" y2="21.613" gradientUnits="userSpaceOnUse"><stop stop-color="#919CBE"/><stop offset="1" stop-color="#586389"/></linearGradient><linearGradient id="paint26_linear" x1="14.478" y1="22.198" x2="13.924" y2="20.747" gradientUnits="userSpaceOnUse"><stop stop-color="#B2BBD4"/><stop offset="1" stop-color="#7A86A9"/><stop offset="1" stop-color="#7A86A9"/></linearGradient><linearGradient id="paint27_linear" x1="16.641" y1="21.198" x2="16.864" y2="19.762" gradientUnits="userSpaceOnUse"><stop stop-color="#D3D9E7"/><stop offset="1" stop-color="#fff"/></linearGradient><linearGradient id="paint28_linear" x1="15.287" y1="20.908" x2="18.452" y2="18.099" gradientUnits="userSpaceOnUse"><stop stop-color="#CDD4E5"/><stop offset=".227" stop-color="#556086"/><stop offset=".637" stop-color="#697395"/><stop offset="1" stop-color="#CCD3E4"/></linearGradient><linearGradient id="paint29_linear" x1="17.845" y1="19.139" x2="19.061" y2="20.613" gradientUnits="userSpaceOnUse"><stop stop-color="#848FB2"/><stop offset="1" stop-color="#556086"/></linearGradient><linearGradient id="paint30_linear" x1="17.695" y1="19.441" x2="17.695" y2="21.06" gradientUnits="userSpaceOnUse"><stop stop-color="#8E99BB"/><stop offset="1" stop-color="#556086"/></linearGradient><linearGradient id="paint31_linear" x1="19.666" y1="19.152" x2="20.502" y2="19.733" gradientUnits="userSpaceOnUse"><stop stop-color="#E8ECF3"/><stop offset="1" stop-color="#CDD4E4"/></linearGradient><linearGradient id="paint32_linear" x1="21.526" y1="19.069" x2="22.279" y2="18.263" gradientUnits="userSpaceOnUse"><stop stop-color="#F3F4F7"/><stop offset="1" stop-color="#E4E5ED"/></linearGradient><linearGradient id="paint33_linear" x1="18.574" y1="13.643" x2="17.035" y2="16.265" gradientUnits="userSpaceOnUse"><stop stop-color="#9EA9C6"/><stop offset="1" stop-color="#CDD4E5"/></linearGradient><linearGradient id="paint34_linear" x1="20.383" y1="13.067" x2="18.13" y2="16.165" gradientUnits="userSpaceOnUse"><stop stop-color="#9EA9C6"/><stop offset="1" stop-color="#fff"/></linearGradient><linearGradient id="paint35_linear" x1="22.209" y1="13.603" x2="22.209" y2="15.905" gradientUnits="userSpaceOnUse"><stop stop-color="#7480A4"/><stop offset="1" stop-color="#ACB7D1"/></linearGradient><linearGradient id="paint36_linear" x1="21.98" y1="10.645" x2="20.866" y2="11.424" gradientUnits="userSpaceOnUse"><stop stop-color="#8B97BA"/><stop offset="1" stop-color="#535E84"/></linearGradient><linearGradient id="paint37_linear" x1="18.565" y1="9.023" x2="19.519" y2="11.909" gradientUnits="userSpaceOnUse"><stop stop-color="#fff"/><stop offset=".662" stop-color="#BDC2D8"/><stop offset="1" stop-color="#F0F2F6"/></linearGradient><linearGradient id="paint38_linear" x1="19.999" y1="6.929" x2="18.967" y2="7.878" gradientUnits="userSpaceOnUse"><stop stop-color="#535E84"/><stop offset="1" stop-color="#98A0BD"/></linearGradient><linearGradient id="paint39_linear" x1="20.519" y1="8.277" x2="21.406" y2="9.117" gradientUnits="userSpaceOnUse"><stop stop-color="#fff"/><stop offset="1" stop-color="#9FA6C1"/></linearGradient><linearGradient id="paint40_linear" x1="18.35" y1="6.391" x2="19.56" y2="7.234" gradientUnits="userSpaceOnUse"><stop stop-color="#fff"/><stop offset="1" stop-color="#979FBC"/></linearGradient><linearGradient id="paint41_linear" x1="19.566" y1="6.053" x2="19.048" y2="7.057" gradientUnits="userSpaceOnUse"><stop stop-color="#979FBC"/><stop offset="1" stop-color="#fff"/></linearGradient><linearGradient id="paint42_linear" x1="14.466" y1="3.428" x2="14.466" y2="6.205" gradientUnits="userSpaceOnUse"><stop stop-color="#C6CBDE"/><stop offset="1" stop-color="#949CBA"/></linearGradient><linearGradient id="paint43_linear" x1="16.043" y1="5.902" x2="16.917" y2="8.624" gradientUnits="userSpaceOnUse"><stop stop-color="#535E84"/><stop offset="1" stop-color="#A6ADC6"/></linearGradient><linearGradient id="paint44_linear" x1="21.157" y1="6.749" x2="21.157" y2="9.002" gradientUnits="userSpaceOnUse"><stop stop-color="#B5BACF"/><stop offset="1" stop-color="#C0C5D6"/></linearGradient><linearGradient id="paint45_linear" x1="20.659" y1="8.163" x2="22.771" y2="10.348" gradientUnits="userSpaceOnUse"><stop stop-color="#7780A2"/><stop offset="1" stop-color="#F0F1F5"/></linearGradient><linearGradient id="paint46_linear" x1="23.088" y1="15.902" x2="24.325" y2="14.993" gradientUnits="userSpaceOnUse"><stop stop-color="#fff"/><stop offset="1" stop-color="#BDC2D5"/></linearGradient><linearGradient id="paint47_linear" x1="16.232" y1="21.113" x2="15.705" y2="20.288" gradientUnits="userSpaceOnUse"><stop stop-color="#919CBE"/><stop offset="1" stop-color="#586389"/></linearGradient><linearGradient id="paint48_linear" x1="13.068" y1="19.981" x2="13.068" y2="22.471" gradientUnits="userSpaceOnUse"><stop stop-color="#E1E3EC"/><stop offset="1" stop-color="#8890AE"/></linearGradient><linearGradient id="paint49_linear" x1="7.807" y1="19.179" x2="8.017" y2="19.399" gradientUnits="userSpaceOnUse"><stop stop-color="#959FBF"/><stop offset="1" stop-color="#5C668B"/></linearGradient><linearGradient id="paint50_linear" x1="9.497" y1="16.914" x2="7.845" y2="13.691" gradientUnits="userSpaceOnUse"><stop stop-color="#959FBF"/><stop offset=".451" stop-color="#DBDFED"/><stop offset="1" stop-color="#5C668B"/></linearGradient><linearGradient id="paint51_linear" x1="7.759" y1="7.043" x2="4.708" y2="9.895" gradientUnits="userSpaceOnUse"><stop stop-color="#535E84"/><stop offset=".545" stop-color="#E9EEFF"/><stop offset=".763" stop-color="#fff"/><stop offset="1" stop-color="#BFC8E0"/></linearGradient><linearGradient id="paint52_linear" x1="7.91" y1="6.909" x2="7.775" y2="7.03" gradientUnits="userSpaceOnUse"><stop stop-color="#8B97BA"/><stop offset="1" stop-color="#535E84"/></linearGradient><linearGradient id="paint53_linear" x1="8.618" y1="6.153" x2="9.22" y2="4.922" gradientUnits="userSpaceOnUse"><stop stop-color="#8B97BA"/><stop offset="1" stop-color="#535E84"/></linearGradient><linearGradient id="paint54_linear" x1="3.012" y1="2.936" x2="3.012" y2="24.857" gradientUnits="userSpaceOnUse"><stop stop-color="#FDFDFE"/><stop offset="1" stop-color="#A4ABC3"/></linearGradient><linearGradient id="paint55_linear" x1="7.924" y1="7.207" x2="7.924" y2="19.398" gradientUnits="userSpaceOnUse"><stop stop-color="#FBFBFC"/><stop offset="1" stop-color="#EBBA68"/></linearGradient><linearGradient id="paint56_linear" x1="7.841" y1="6.869" x2="7.841" y2="19.227" gradientUnits="userSpaceOnUse"><stop stop-color="#FFFCF0"/><stop offset="1" stop-color="#F6DDB1"/></linearGradient><linearGradient id="paint57_linear" x1="8.524" y1="7.555" x2="8.524" y2="18.54" gradientUnits="userSpaceOnUse"><stop stop-color="#EEE"/><stop offset="1" stop-color="#A7AEC5"/></linearGradient><linearGradient id="paint58_linear" x1="14.886" y1="17.874" x2="7.738" y2="16.142" gradientUnits="userSpaceOnUse"><stop stop-color="#F9F9F9"/><stop offset="1" stop-color="#D4D6DC"/></linearGradient><linearGradient id="paint59_linear" x1="18.904" y1="13.856" x2="17.172" y2="6.708" gradientUnits="userSpaceOnUse"><stop stop-color="#E9EAED"/><stop offset="1" stop-color="#C5C7CF"/></linearGradient><linearGradient id="paint60_linear" x1="18.456" y1="12.617" x2="16.811" y2="19.206" gradientUnits="userSpaceOnUse"><stop stop-color="#C5C7D0"/><stop offset="1" stop-color="#CFD0D7"/></linearGradient><linearGradient id="paint61_linear" x1="9.574" y1="13.413" x2="11.22" y2="6.824" gradientUnits="userSpaceOnUse"><stop stop-color="#E6E7EA"/><stop offset="1" stop-color="#F3F3F4"/></linearGradient><filter id="filter0_d" x=".416" y=".05" width="27.167" height="27.167" filterUnits="userSpaceOnUse" color-interpolation-filters="sRGB"><feFlood flood-opacity="0" result="BackgroundImageFix"/><feColorMatrix in="SourceAlpha" values="0 0 0 0 0 0 0 0 0 0 0 0 0 0 0 0 0 0 127 0" result="hardAlpha"/><feOffset dy=".633"/><feGaussianBlur stdDeviation=".792"/><feColorMatrix values="0 0 0 0 0.327691 0 0 0 0 0.416536 0 0 0 0 0.520833 0 0 0 0.4 0"/><feBlend in2="BackgroundImageFix" result="effect1_dropShadow"/><feBlend in="SourceGraphic" in2="effect1_dropShadow" result="shape"/></filter><filter id="filter1_f" x="1.152" y="1.011" width="25.695" height="25.638" filterUnits="userSpaceOnUse" color-interpolation-filters="sRGB"><feFlood flood-opacity="0" result="BackgroundImageFix"/><feBlend in="SourceGraphic" in2="BackgroundImageFix" result="shape"/><feGaussianBlur stdDeviation=".467" result="effect1_foregroundBlur"/></filter><filter id="filter2_f" x="1.473" y="16.911" width="24.411" height="6.969" filterUnits="userSpaceOnUse" color-interpolation-filters="sRGB"><feFlood flood-opacity="0" result="BackgroundImageFix"/><feBlend in="SourceGraphic" in2="BackgroundImageFix" result="shape"/><feGaussianBlur stdDeviation=".583" result="effect1_foregroundBlur"/></filter><filter id="filter3_f" x="5.39" y="4.76" width="17.306" height="17.367" filterUnits="userSpaceOnUse" color-interpolation-filters="sRGB"><feFlood flood-opacity="0" result="BackgroundImageFix"/><feBlend in="SourceGraphic" in2="BackgroundImageFix" result="shape"/><feGaussianBlur stdDeviation="1.166" result="effect1_foregroundBlur"/></filter><filter id="filter4_d" x="7.767" y="6.994" width="12.466" height="12.466" filterUnits="userSpaceOnUse" color-interpolation-filters="sRGB"><feFlood flood-opacity="0" result="BackgroundImageFix"/><feColorMatrix in="SourceAlpha" values="0 0 0 0 0 0 0 0 0 0 0 0 0 0 0 0 0 0 127 0" result="hardAlpha"/><feOffset dy=".227"/><feGaussianBlur stdDeviation=".699"/><feColorMatrix values="0 0 0 0 0 0 0 0 0 0 0 0 0 0 0 0 0 0 0.19 0"/><feBlend in2="BackgroundImageFix" result="effect1_dropShadow"/><feBlend in="SourceGraphic" in2="effect1_dropShadow" result="shape"/></filter><filter id="filter5_f" x="11.32" y="10.291" width="5.389" height="5.389" filterUnits="userSpaceOnUse" color-interpolation-filters="sRGB"><feFlood flood-opacity="0" result="BackgroundImageFix"/><feBlend in="SourceGraphic" in2="BackgroundImageFix" result="shape"/><feGaussianBlur stdDeviation=".128" result="effect1_foregroundBlur"/></filter><radialGradient id="paint62_radial" cx="0" cy="0" r="1" gradientUnits="userSpaceOnUse" gradientTransform="rotate(67.922 -3.714 16.556) scale(2.28849 2.69955)"><stop stop-color="#D7D8DE"/><stop offset="1" stop-color="#F4F4FA"/></radialGradient></defs></svg>