<svg width="133" height="226" fill="none" xmlns="http://www.w3.org/2000/svg"><mask id="a" fill="#fff"><path fill-rule="evenodd" clip-rule="evenodd" d="M22.337 0h87.414c12.336 0 22.336 10 22.336 22.337v137.866a22.336 22.336 0 01-16.474 21.553l-13.546 3.685v18.59l-.001.056-.002.029c-.027.456-.28.87-.679 1.101l-19.549 11.308-.71.411v-.102l-14.86 8.524a1.364 1.364 0 01-1.362-.002l-13.945-8.067v.002l-.71-.41v-.003L30.7 205.57a1.363 1.363 0 01-.681-1.181v-18.948l-13.546-3.685A22.336 22.336 0 010 160.203V22.336C0 10 10 0 22.337 0z"/></mask><path fill-rule="evenodd" clip-rule="evenodd" d="M22.337 0h87.414c12.336 0 22.336 10 22.336 22.337v137.866a22.336 22.336 0 01-16.474 21.553l-13.546 3.685v18.59l-.001.056-.002.029c-.027.456-.28.87-.679 1.101l-19.549 11.308-.71.411v-.102l-14.86 8.524a1.364 1.364 0 01-1.362-.002l-13.945-8.067v.002l-.71-.41v-.003L30.7 205.57a1.363 1.363 0 01-.681-1.181v-18.948l-13.546-3.685A22.336 22.336 0 010 160.203V22.336C0 10 10 0 22.337 0z" fill="url(#paint0_linear)" fill-opacity=".3"/><path d="M132.088 22.337h1-1zm0 137.866h-1 1zm-16.474 21.553l.262.965-.262-.965zm-13.546 3.685l-.263-.965-.737.2v.765h1zm-.001 18.646l-.999-.041v.001l.999.04zm-.002.029l-.998-.062v.003l.998.059zm-.679 1.101l.501.865-.501-.865zm-19.549 11.308l-.5-.866-.5.289v.577h1zm0 0l.501.866.5-.289v-.577h-1zm-.71.411l-.998.057.093 1.622 1.406-.814-.5-.865zm0-.001h-1v.029l.002.028.998-.057zm0-.101h1v-1.727l-1.497.859.498.868zm-14.86 8.524l-.497-.867.497.867zm-1.362-.002l.5-.866-.5.866zm-13.945-8.067l.5-.865-.01-.006-.49.871zm0 0l.49-.871-1.49-.84v1.711h1zm0 .002l-.501.866 1.5.868v-1.734h-1zm-.71-.41h-1v.576l.499.289.5-.865zm0-.003h1v-.576l-.5-.289-.5.865zM30.7 205.57l.5-.865-.5.865zm-.681-20.129h1v-.765l-.738-.2-.262.965zm-13.546-3.685l-.262.965.262-.965zM0 160.203h-1 1zM0 22.336h1-1zM66.044-1h-2.732v2h2.732v-2zM57.85-1h-5.463v2h5.463v-2zM46.922-1h-5.463v2h5.463v-2zM35.995-1h-5.463v2h5.463v-2zM25.068-1h-2.732v2h2.732v-2zm-2.732 0c-.77 0-1.534.037-2.287.11l.194 1.991A21.605 21.605 0 0122.337 1v-2zM15.56 0a23.202 23.202 0 00-4.227 1.752l.944 1.763a21.197 21.197 0 013.863-1.602L15.56 0zM7.531 4.296A23.473 23.473 0 004.297 7.53L5.842 8.8a21.472 21.472 0 012.959-2.959l-1.27-1.545zm-5.779 7.036A23.199 23.199 0 00-.001 15.56l1.914.58a21.2 21.2 0 011.602-3.863l-1.763-.944zM-.889 20.05A23.35 23.35 0 00-1 22.337h2c0-.707.034-1.405.101-2.094l-1.99-.194zM-1 22.337v2.461h2v-2.461h-2zm0 7.385v4.924h2v-4.924h-2zm0 9.848v4.924h2V39.57h-2zm0 9.847v4.924h2v-4.924h-2zm0 9.848v4.924h2v-4.924h-2zm0 9.848v4.923h2v-4.923h-2zm0 9.847v4.924h2V78.96h-2zm0 9.848v4.924h2v-4.924h-2zm0 9.847v4.924h2v-4.924h-2zm0 9.848v4.924h2v-4.924h-2zm0 9.848v4.923h2v-4.923h-2zm0 9.847v4.924h2v-4.924h-2zm0 9.848v4.924h2v-4.924h-2zm0 9.847v4.924h2v-4.924h-2zm0 9.848v2.462h2v-2.462h-2zm0 2.462c0 .854.046 1.699.137 2.534l1.988-.217A21.423 21.423 0 011 160.203h-2zm1.23 7.481a23.307 23.307 0 002.137 4.594l1.71-1.035a21.324 21.324 0 01-1.953-4.2l-1.894.641zm5.213 8.619a23.312 23.312 0 003.872 3.268l1.117-1.659a21.328 21.328 0 01-3.54-2.988l-1.449 1.379zm8.36 5.621a23.29 23.29 0 002.409.797l.525-1.93a21.473 21.473 0 01-2.204-.729l-.73 1.862zm2.409.797l3.386.921.525-1.929-3.386-.922-.525 1.93zm10.159 2.764l3.386.921.525-1.93-3.386-.921-.525 1.93zm2.649-.044v2.368h2v-2.368h-2zm0 7.105v4.738h2v-4.738h-2zm0 9.475v2.368h2v-2.368h-2zm0 2.368c0 .209.027.415.08.612l1.932-.517a.375.375 0 01-.012-.095h-2zm.691 1.671c.144.145.308.271.49.376l1-1.731a.357.357 0 01-.075-.058l-1.415 1.413zm.49.376l2.443 1.414 1.001-1.732-2.443-1.413-1.002 1.731zm7.33 4.241l4.887 2.827 1.002-1.732-4.888-2.827-1 1.732zm9.774 5.654l2.444 1.413 1.002-1.731-2.444-1.414-1.002 1.732zm1.945.547v.001h2v-.001h-2zm0 .002v.001h2v-.001h-2zm.499.866l.177.103 1.002-1.731-.177-.103-1.002 1.731zm.532.308l.178.103 1.001-1.732-.177-.102-1.002 1.731zm1.679-.763h-2 2zm0-.001v-.001h-2v.001h2zm-1.491.87l.981-1.742-.981 1.742zm0 0l.982-1.742-.982 1.742zm-.01-.005l1.743 1.008 1.002-1.731-1.743-1.008-1.002 1.731zm5.23 3.025l3.486 2.017 1.001-1.732-3.486-2.016-1.001 1.731zm6.972 4.033l1.743 1.009 1.002-1.732-1.743-1.008-1.002 1.731zm1.743 1.009c.181.104.373.183.57.236l.52-1.931a.334.334 0 01-.088-.037l-1.002 1.732zm1.791.238c.197-.052.389-.13.57-.234l-.995-1.735a.37.37 0 01-.088.036l.513 1.933zm.57-.234l1.857-1.066-.995-1.735-1.857 1.066.995 1.735zm5.573-3.197l3.715-2.131-.996-1.735-3.715 2.131.996 1.735zm7.43-4.262l1.857-1.066-.995-1.735-1.858 1.066.996 1.735zm.36-1.933v.025h2v-.025h-2zm0 .076v.025h2v-.025h-2zm.001.082v.001l1.997-.115-1.997.114zm0 .001l1.997-.114-1.997.114zm1.5.808l.177-.102-1.002-1.731-.177.102 1.001 1.731zm.532-.307l.177-.103-1.001-1.731-.178.102 1.002 1.732zm.676-.969h-2 2zm0 0h-2 2zm-.499.865l2.444-1.413-1.002-1.731-2.443 1.413 1.001 1.731zm7.331-4.24l4.887-2.827-1.001-1.731-4.887 2.827 1.001 1.731zm9.775-5.654l2.443-1.414-1.001-1.731-2.444 1.413 1.002 1.732zm2.443-1.414c.171-.099.326-.217.464-.351l-1.394-1.434a.38.38 0 01-.071.054l1.001 1.731zm1.071-1.334c.058-.184.094-.377.106-.573l-1.997-.118a.37.37 0 01-.016.088l1.907.603zm.105-.57l.001-.013-1.997-.113v.002l1.996.124zm.002-.037l.001-.013-1.998-.081-.001.002 1.998.092zm.001-.012l.001-.025-1.999-.061v.003l1.998.083zm.002-.073v-.025h-2v.004l2 .021zm0-.025v-2.323h-2v2.323h2zm0-6.971v-4.648h-2v4.648h2zm0-9.295v-2.324h-2v2.324h2zm-.738-1.359l3.387-.921-.525-1.93-3.387.921.525 1.93zm10.16-2.764l3.386-.921-.525-1.93-3.386.922.525 1.929zm3.386-.921c.824-.224 1.628-.49 2.409-.797l-.73-1.862c-.714.28-1.45.524-2.204.729l.525 1.93zm6.897-3.15a23.309 23.309 0 003.872-3.268l-1.448-1.379a21.364 21.364 0 01-3.54 2.988l1.116 1.659zm6.948-7.293a23.257 23.257 0 002.137-4.594l-1.894-.641a21.294 21.294 0 01-1.954 4.2l1.711 1.035zm3.23-9.541c.091-.835.137-1.68.137-2.534h-2c0 .781-.042 1.555-.125 2.317l1.988.217zm.137-2.534v-2.462h-2v2.462h2zm0-7.386v-4.924h-2v4.924h2zm0-9.847v-4.924h-2v4.924h2zm0-9.848v-4.924h-2v4.924h2zm0-9.848v-4.923h-2v4.923h2zm0-9.847v-4.924h-2v4.924h2zm0-9.848v-4.924h-2v4.924h2zm0-9.847v-4.924h-2v4.924h2zm0-9.848V78.96h-2v4.924h2zm0-9.848v-4.923h-2v4.923h2zm0-9.847v-4.924h-2v4.924h2zm0-9.848v-4.924h-2v4.924h2zm0-9.847V39.57h-2v4.924h2zm0-9.848v-4.924h-2v4.924h2zm0-9.848v-2.461h-2v2.461h2zm0-2.461c0-.772-.037-1.535-.111-2.288l-1.99.194c.067.689.101 1.387.101 2.094h2zm-.999-6.777a23.167 23.167 0 00-1.753-4.227l-1.763.944a21.24 21.24 0 011.602 3.863l1.914-.58zm-4.298-8.029a23.448 23.448 0 00-3.234-3.234l-1.27 1.545a21.454 21.454 0 012.959 2.959l1.545-1.27zm-7.036-5.779a23.196 23.196 0 00-4.227-1.753l-.58 1.914c1.349.409 2.641.948 3.863 1.602l.944-1.763zm-8.716-2.641A23.615 23.615 0 00109.752-1v2c.706 0 1.405.034 2.093.101l.194-1.99zM109.752-1h-2.732v2h2.732v-2zm-8.196 0h-5.463v2h5.463v-2zM90.63-1h-5.464v2h5.464v-2zM79.703-1h-5.464v2h5.464v-2zM68.776-1h-2.732v2h2.732v-2zm63.312 23.337h2-2zm0 137.866h-2 2zm-16.474 21.553l.525 1.93-.525-1.93zm-13.546 3.685l-.525-1.93-1.475.401v1.529h2zm-.001 18.646l-1.999-.082v.001l1.999.081zm-.002.029l-1.996-.124v.006l1.996.118zm-.679 1.101l1.002 1.731-1.002-1.731zm-19.549 11.308l-1.001-1.731-.999.577v1.154h2zm0 0l1.002 1.732.998-.578v-1.154h-2zm-.71.411l-1.996.114.185 3.244 2.813-1.627-1.001-1.731zm0-.001h-2v.057l.004.057 1.996-.114zm0-.101h2v-3.453l-2.995 1.718.995 1.735zm-14.86 8.524l-.995-1.734.995 1.734zm-1.362-.002l1.002-1.731-1.002 1.731zm-13.945-8.067l1.001-1.731-.01-.006-.01-.005-.981 1.742zm0 0l.981-1.742-2.981-1.68v3.422h2zm0 .002l-1.002 1.731 3.002 1.736v-3.467h-2zm-.71-.41h-2v1.153l.998.578 1.002-1.731zm0-.003h2v-1.153l-.999-.578-1.001 1.731zM30.7 205.57l1.001-1.731-1.001 1.731zm-.681-20.129h2v-1.529l-1.475-.401-.525 1.93zm-13.546-3.685l-.525 1.93.525-1.93zM0 160.203h-2 2zM0 22.336h2-2zM66.044-2h-2.732v4h2.732v-4zM57.85-2h-5.463v4h5.463v-4zM46.922-2h-5.463v4h5.463v-4zM35.995-2h-5.463v4h5.463v-4zM25.068-2h-2.732v4h2.732v-4zm-2.732 0c-.803 0-1.598.039-2.383.115l.387 3.982A20.606 20.606 0 0122.337 2v-4zM15.271-.958A24.195 24.195 0 0010.86.87l1.889 3.527a20.2 20.2 0 013.68-1.527L15.27-.958zM6.896 3.524a24.473 24.473 0 00-3.373 3.372l3.09 2.54a20.473 20.473 0 012.822-2.821l-2.54-3.09zM.87 10.861a24.195 24.195 0 00-1.828 4.41l3.828 1.16c.39-1.286.903-2.517 1.527-3.681L.87 10.86zm-2.755 9.092A24.73 24.73 0 00-2 22.337h4c0-.675.033-1.34.097-1.997l-3.982-.387zM-2 22.337v2.461h4v-2.461h-4zm0 7.385v4.924h4v-4.924h-4zm0 9.848v4.924h4V39.57h-4zm0 9.847v4.924h4v-4.924h-4zm0 9.848v4.924h4v-4.924h-4zm0 9.848v4.923h4v-4.923h-4zm0 9.847v4.924h4V78.96h-4zm0 9.848v4.924h4v-4.924h-4zm0 9.847v4.924h4v-4.924h-4zm0 9.848v4.924h4v-4.924h-4zm0 9.848v4.923h4v-4.923h-4zm0 9.847v4.924h4v-4.924h-4zm0 9.848v4.924h4v-4.924h-4zm0 9.847v4.924h4v-4.924h-4zm0 9.848v2.462h4v-2.462h-4zm0 2.462c0 .89.048 1.772.143 2.642l3.977-.433a20.43 20.43 0 01-.12-2.209h-4zm1.283 7.802a24.326 24.326 0 002.228 4.791l3.422-2.071a20.306 20.306 0 01-1.862-4.003l-3.788 1.283zm5.436 8.988a24.327 24.327 0 004.038 3.408l2.233-3.319a20.315 20.315 0 01-3.375-2.848l-2.896 2.759zm8.719 5.862c.814.32 1.652.598 2.511.831l1.05-3.859a20.56 20.56 0 01-2.1-.696l-1.461 3.724zm2.511.831l3.387.921 1.05-3.859-3.387-.921-1.05 3.859zm10.16 2.763l3.386.922 1.05-3.86-3.387-.921-1.05 3.859zm1.91-1.008v2.368h4v-2.368h-4zm0 7.105v4.738h4v-4.738h-4zm0 9.475v2.368h4v-2.368h-4zm0 2.368c0 .298.04.59.115.871l3.864-1.035a.634.634 0 01.022.164h-4zm.985 2.378c.205.205.438.386.696.535l2.002-3.463a.64.64 0 01.132.101l-2.83 2.827zm.696.535l2.443 1.413 2.003-3.462-2.444-1.414-2.002 3.463zm7.33 4.24l4.887 2.827 2.003-3.462-4.887-2.827-2.003 3.462zm9.775 5.654l2.443 1.414 2.003-3.463-2.443-1.413-2.003 3.462zm1.445-.318v.001h4v-.001h-4zm0 .002v.001h4v-.001h-4zm.998 1.732l.178.102 2.003-3.462-.178-.103-2.003 3.463zm.533.308l.177.102 2.003-3.462-.177-.103-2.003 3.463zm3.179-1.629h-4 4zm0-.001v-.001h-4v.001h4zm-2.982 1.742l1.963-3.485-1.963 3.485zm0 0l1.963-3.485-1.963 3.485zm-.02-.012l1.744 1.009 2.003-3.463-1.744-1.008-2.003 3.462zm5.23 3.025l3.486 2.017 2.003-3.462-3.486-2.017-2.003 3.462zm6.973 4.034l1.743 1.008 2.003-3.462-1.744-1.009-2.002 3.463zm1.743 1.008c.257.149.53.261.81.337l1.04-3.863a.66.66 0 01.153.064l-2.003 3.462zm2.548.34a3.38 3.38 0 00.81-.334l-1.99-3.469a.62.62 0 01.153-.063l1.027 3.866zm.81-.334l1.858-1.065-1.99-3.47-1.858 1.066 1.99 3.469zm5.573-3.196l3.715-2.132-1.99-3.469-3.715 2.131 1.99 3.47zm7.43-4.263l1.858-1.065-1.99-3.47-1.858 1.066 1.99 3.469zm-1.138-2.8v.025h4v-.025h-4zm0 .076v.025h4v-.025h-4zm.004.139v.001l3.993-.229-3.993.228zm0 .001l3.993-.228-3.993.228zm2.998 1.617l.177-.103-2.002-3.462-.178.103 2.003 3.462zm.532-.308l.178-.102-2.003-3.463-.177.103 2.002 3.462zm1.176-1.834h-4 4zm0 0h-4 4zm-.998 1.731l2.444-1.414-2.003-3.462-2.444 1.414 2.003 3.462zm7.33-4.241l4.888-2.827-2.003-3.462-4.887 2.827 2.003 3.462zm9.775-5.654l2.444-1.413-2.003-3.463-2.444 1.414 2.003 3.462zm2.444-1.413c.242-.141.464-.309.66-.5l-2.788-2.868a.687.687 0 01.125-.095l2.003 3.463zm1.523-1.899a3.38 3.38 0 00.151-.815l-3.993-.236a.664.664 0 01.028-.154l3.814 1.205zm.15-.81l.001-.017-3.993-.226v-.004l3.992.247zm.003-.052l.001-.018-3.997-.163.001-.004 3.995.185zm.001-.017l.001-.035-3.998-.123v-.007l3.997.165zm.003-.104v-.035h-4v-.006l4 .041zm0-.035v-2.323h-4v2.323h4zm0-6.971v-4.648h-4v4.648h4zm0-9.295v-2.324h-4v2.324h4zm-1.475-.394l3.386-.921-1.05-3.86-3.386.921 1.05 3.86zm10.159-2.764l3.387-.921-1.05-3.859-3.387.921 1.05 3.859zm3.387-.921a24.124 24.124 0 002.511-.831l-1.46-3.724c-.681.267-1.382.5-2.101.696l1.05 3.859zm7.192-3.285a24.325 24.325 0 004.038-3.408l-2.896-2.759a20.347 20.347 0 01-3.374 2.848l2.232 3.319zm7.246-7.605a24.324 24.324 0 002.229-4.791l-3.789-1.283a20.341 20.341 0 01-1.862 4.003l3.422 2.071zm3.368-9.951c.095-.87.143-1.752.143-2.642h-4c0 .745-.04 1.482-.119 2.209l3.976.433zm.143-2.642v-2.462h-4v2.462h4zm0-7.386v-4.924h-4v4.924h4zm0-9.847v-4.924h-4v4.924h4zm0-9.848v-4.924h-4v4.924h4zm0-9.848v-4.923h-4v4.923h4zm0-9.847v-4.924h-4v4.924h4zm0-9.848v-4.924h-4v4.924h4zm0-9.847v-4.924h-4v4.924h4zm0-9.848V78.96h-4v4.924h4zm0-9.848v-4.923h-4v4.923h4zm0-9.847v-4.924h-4v4.924h4zm0-9.848v-4.924h-4v4.924h4zm0-9.847V39.57h-4v4.924h4zm0-9.848v-4.924h-4v4.924h4zm0-9.848v-2.461h-4v2.461h4zm0-2.461c0-.804-.039-1.6-.115-2.384l-3.981.387c.063.656.096 1.322.096 1.997h4zm-1.042-7.066a24.262 24.262 0 00-1.828-4.41l-3.526 1.889a20.286 20.286 0 011.526 3.68l3.828-1.16zm-4.482-8.374a24.447 24.447 0 00-3.372-3.373l-2.54 3.09a20.455 20.455 0 012.821 2.822l3.091-2.54zM121.227.87a24.205 24.205 0 00-4.409-1.828l-1.16 3.828c1.285.39 2.516.903 3.681 1.527L121.227.87zm-9.091-2.755A24.624 24.624 0 00109.752-2v4c.674 0 1.34.033 1.996.097l.388-3.982zM109.752-2h-2.732v4h2.732v-4zm-8.196 0h-5.463v4h5.463v-4zM90.63-2h-5.464v4h5.464v-4zM79.703-2h-5.464v4h5.464v-4zM68.776-2h-2.732v4h2.732v-4z" fill="#fff" mask="url(#a)"/><defs><linearGradient id="paint0_linear" x1="132.249" y1="0" x2="-28.79" y2="219.873" gradientUnits="userSpaceOnUse"><stop stop-color="#35355E"/><stop offset=".5" stop-color="#181829"/><stop offset=".958" stop-color="#181829"/></linearGradient></defs></svg>