<svg width="16" height="16" fill="none" xmlns="http://www.w3.org/2000/svg"><g filter="url(#filter0_i)"><path d="M7.14 1.687a.966.966 0 011.72 0l1.315 2.574c.14.276.403.467.709.516l2.854.453a.966.966 0 01.532 1.638l-2.043 2.045a.966.966 0 00-.27.833l.45 2.855a.966.966 0 01-1.393 1.012l-2.576-1.31a.966.966 0 00-.876 0l-2.576 1.31a.966.966 0 01-1.393-1.012l.45-2.855a.966.966 0 00-.27-.833L1.73 6.868a.966.966 0 01.532-1.638l2.854-.453a.966.966 0 00.71-.516l1.313-2.574z" fill="#43628F"/></g><path d="M7.14 1.687a.966.966 0 011.72 0l1.315 2.574c.14.276.403.467.709.516l2.854.453a.966.966 0 01.532 1.638l-2.043 2.045a.966.966 0 00-.27.833l.45 2.855a.966.966 0 01-1.393 1.012l-2.576-1.31a.966.966 0 00-.876 0l-2.576 1.31a.966.966 0 01-1.393-1.012l.45-2.855a.966.966 0 00-.27-.833L1.73 6.868a.966.966 0 01.532-1.638l2.854-.453a.966.966 0 00.71-.516l1.313-2.574z" fill="url(#paint0_linear)"/><path d="M7.426 1.125a.644.644 0 011.148 0l1.675 3.282c.094.184.27.311.473.344l3.64.579c.52.082.726.719.354 1.091L12.112 9.03a.644.644 0 00-.18.555l.574 3.64a.644.644 0 01-.929.675l-3.285-1.67a.644.644 0 00-.584 0L4.423 13.9a.644.644 0 01-.928-.674l.574-3.64a.644.644 0 00-.18-.556L1.283 6.42a.644.644 0 01.355-1.091l3.64-.58a.644.644 0 00.472-.343l1.675-3.282z" fill="url(#paint1_linear)"/><path d="M7.426 1.125a.644.644 0 011.148 0l1.675 3.282c.094.184.27.311.473.344l3.64.579c.52.082.726.719.354 1.091L12.112 9.03a.644.644 0 00-.18.555l.574 3.64a.644.644 0 01-.929.675l-3.285-1.67a.644.644 0 00-.584 0L4.423 13.9a.644.644 0 01-.928-.674l.574-3.64a.644.644 0 00-.18-.556L1.283 6.42a.644.644 0 01.355-1.091l3.64-.58a.644.644 0 00.472-.343l1.675-3.282z" fill="url(#paint2_radial)"/><path fill-rule="evenodd" clip-rule="evenodd" d="M10.058 4.505L8.383 1.222a.43.43 0 00-.765 0L5.942 4.505a.859.859 0 01-.63.458l-3.64.579a.43.43 0 00-.236.727L4.04 8.877c.194.194.284.47.241.74l-.574 3.641a.43.43 0 00.619.45l3.285-1.671a.86.86 0 01.779 0l3.284 1.671a.43.43 0 00.62-.45l-.575-3.64a.86.86 0 01.24-.741l2.605-2.608a.43.43 0 00-.236-.727l-3.64-.58a.859.859 0 01-.63-.457zm-1.484-3.38a.644.644 0 00-1.148 0L5.751 4.407a.644.644 0 01-.473.344l-3.64.579a.644.644 0 00-.354 1.091L3.888 9.03a.644.644 0 01.181.555l-.574 3.64c-.082.52.46.914.928.675l3.285-1.67a.644.644 0 01.584 0l3.285 1.67a.644.644 0 00.929-.674l-.575-3.64a.644.644 0 01.18-.556l2.605-2.608a.644.644 0 00-.354-1.091l-3.64-.58a.644.644 0 01-.473-.343L8.574 1.125z" fill="url(#paint3_linear)"/><path d="M7.582 4.589a.483.483 0 01.836 0l.806 1.392a.483.483 0 00.317.231l1.574.336c.363.078.507.52.258.796L10.299 8.54a.483.483 0 00-.121.373l.166 1.6a.483.483 0 01-.676.493l-1.471-.654a.484.484 0 00-.392 0l-1.47.654a.483.483 0 01-.678-.492l.167-1.6a.483.483 0 00-.121-.374L4.626 7.344a.483.483 0 01.259-.796l1.573-.336a.483.483 0 00.318-.23l.806-1.393z" fill="url(#paint4_linear)"/><path d="M12.09 6.872c-3.887 3.672-7.358 2.048-8.608.777-1.901-2.826 2.27-.565 5.967-1.554 2.958-.791 2.993.188 2.64.777z" fill="url(#paint5_linear)"/><path fill-rule="evenodd" clip-rule="evenodd" d="M7.56 1.856a.16.16 0 01.07.216l-.455.9a.161.161 0 11-.287-.145l.455-.9a.161.161 0 01.217-.071z" fill="#93D6F6"/><circle cx="1.987" cy="5.745" r=".161" fill="#93D6F6"/><circle cx="6.819" cy="3.275" r=".161" fill="#93D6F6"/><path d="M6.462 4.938c-1.222 1.73-.786 2.673-.415 2.928 1.127.508 3.18-2.493 3.32-3.287.139-.794-1.378-1.804-2.905.359z" fill="url(#paint6_linear)" fill-opacity=".6"/><defs><linearGradient id="paint0_linear" x1="8" y1="0" x2="11.597" y2="13.906" gradientUnits="userSpaceOnUse"><stop stop-color="#708FBE" stop-opacity="0"/><stop offset="1" stop-color="#72DDFF" stop-opacity=".63"/></linearGradient><linearGradient id="paint1_linear" x1="8" y1="0" x2="11.598" y2="13.906" gradientUnits="userSpaceOnUse"><stop stop-color="#708FBE" stop-opacity="0"/><stop offset="1" stop-color="#72DDFF" stop-opacity=".63"/></linearGradient><linearGradient id="paint3_linear" x1="12.51" y1="10.738" x2="5.101" y2="4.027" gradientUnits="userSpaceOnUse"><stop stop-color="#D8F6FF" stop-opacity=".63"/><stop offset=".219" stop-color="#A0D2FF" stop-opacity="0"/><stop offset=".491" stop-color="#8DC8FF" stop-opacity=".56"/><stop offset=".733" stop-color="#9ADBF8"/><stop offset="1" stop-color="#fff" stop-opacity="0"/><stop offset="1" stop-color="#BAEAFF" stop-opacity="0"/></linearGradient><linearGradient id="paint4_linear" x1="8" y1="3.866" x2="7.893" y2="11.007" gradientUnits="userSpaceOnUse"><stop stop-color="#9BE1FF"/><stop offset=".277" stop-color="#9BE1FF" stop-opacity=".51"/><stop offset="1" stop-color="#CDDEE6" stop-opacity=".15"/></linearGradient><linearGradient id="paint5_linear" x1="7.654" y1="6.589" x2="7.601" y2="9.127" gradientUnits="userSpaceOnUse"><stop stop-color="#C4C4C4" stop-opacity="0"/><stop offset=".732" stop-color="#DBF6FF" stop-opacity=".46"/></linearGradient><linearGradient id="paint6_linear" x1="6.942" y1="5.17" x2="8.368" y2="6.515" gradientUnits="userSpaceOnUse"><stop offset=".224" stop-color="#DBF6FF" stop-opacity=".35"/><stop offset="1" stop-color="#C4C4C4" stop-opacity="0"/></linearGradient><radialGradient id="paint2_radial" cx="0" cy="0" r="1" gradientUnits="userSpaceOnUse" gradientTransform="rotate(52.671 -2.96 9.163) scale(9.38554)"><stop offset=".739" stop-color="#9CB6DD" stop-opacity="0"/><stop offset=".898" stop-color="#C6F1FF" stop-opacity=".37"/><stop offset="1" stop-color="#EFFBFF" stop-opacity=".7"/></radialGradient><filter id="filter0_i" x="1.446" y="-.451" width="13.107" height="14.171" filterUnits="userSpaceOnUse" color-interpolation-filters="sRGB"><feFlood flood-opacity="0" result="BackgroundImageFix"/><feBlend in="SourceGraphic" in2="BackgroundImageFix" result="shape"/><feColorMatrix in="SourceAlpha" values="0 0 0 0 0 0 0 0 0 0 0 0 0 0 0 0 0 0 127 0" result="hardAlpha"/><feOffset dy="-1.611"/><feGaussianBlur stdDeviation="2.013"/><feComposite in2="hardAlpha" operator="arithmetic" k2="-1" k3="1"/><feColorMatrix values="0 0 0 0 0.595833 0 0 0 0 0.83025 0 0 0 0 1 0 0 0 1 0"/><feBlend in2="shape" result="effect1_innerShadow"/></filter></defs></svg>