<svg width="133" height="229" fill="none" xmlns="http://www.w3.org/2000/svg"><mask id="a" fill="#fff"><path fill-rule="evenodd" clip-rule="evenodd" d="M20.373 1.85C27.613 1.307 35.585.783 42.116.535c18.749-.713 29.295-.713 48.044 0 6.527.248 14.496.772 21.732 1.314 11.503.862 20.284 10.51 20.284 22.045v147.678c0 10.419-7.169 19.308-17.053 21.705v34.143a1.42 1.42 0 01-1.949 1.318l-40.558-16.272v-14.393l-4.078.442c-1.6.173-3.212.173-4.812 0l-3.118-.338v14.289L20.05 228.738a1.42 1.42 0 01-1.95-1.319v-33.932C7.725 191.449.088 182.325.088 171.572V23.894C.088 12.36 8.87 2.711 20.373 1.85z"/></mask><path fill-rule="evenodd" clip-rule="evenodd" d="M20.373 1.85C27.613 1.307 35.585.783 42.116.535c18.749-.713 29.295-.713 48.044 0 6.527.248 14.496.772 21.732 1.314 11.503.862 20.284 10.51 20.284 22.045v147.678c0 10.419-7.169 19.308-17.053 21.705v34.143a1.42 1.42 0 01-1.949 1.318l-40.558-16.272v-14.393l-4.078.442c-1.6.173-3.212.173-4.812 0l-3.118-.338v14.289L20.05 228.738a1.42 1.42 0 01-1.95-1.319v-33.932C7.725 191.449.088 182.325.088 171.572V23.894C.088 12.36 8.87 2.711 20.373 1.85z" fill="url(#paint0_linear)" fill-opacity=".3"/><path d="M42.116.535l.038.999-.038-1zM20.373 1.85l.074.997-.074-.997zM90.16.535l-.038.999.038-1zm21.732 1.314l-.075.998.075-.998zm20.284 22.045h1-1zm0 147.678h-1 1zm-17.053 21.705l-.236-.972-.764.185v.787h1zm-1.949 35.461l-.373.928.373-.928zm-40.558-16.272h-1v.676l.627.252.373-.928zm0-14.393h1v-1.114l-1.108.12.108.994zm-4.078.442l.108.994-.108-.994zm-4.812 0l-.108.994.108-.994zm-3.118-.338l.108-.994-1.108-.12v1.114h1zm0 14.289l.372.928.628-.252v-.676h-1zM20.05 228.738l.372.928-.372-.928zm-1.95-35.251h1v-.822l-.807-.159-.193.981zM.088 171.572h1-1zm0-147.678h1-1zM42.078-.465c-1.732.066-3.563.151-5.454.25l.105 1.998c1.883-.1 3.705-.184 5.425-.25l-.076-1.998zM25.735.46c-1.835.127-3.658.26-5.437.393l.15 1.994c1.775-.133 3.594-.265 5.426-.392L25.735.46zm-5.437.393c-2.959.221-5.748 1-8.27 2.227l.875 1.798a20.74 20.74 0 017.544-2.031L20.298.853zM.654 15.48a23.266 23.266 0 00-1.566 8.414h2c0-2.707.506-5.303 1.431-7.692L.654 15.48zm-1.566 8.414v5.274h2v-5.274h-2zm0 15.823v10.548h2V39.717h-2zm0 21.097v10.548h2V60.814h-2zm0 21.097v10.548h2V81.911h-2zm0 21.096v10.549h2v-10.549h-2zm0 21.097v10.549h2v-10.549h-2zm0 21.097v10.549h2v-10.549h-2zm0 21.097v5.274h2v-5.274h-2zm0 5.274c0 2.753.48 5.406 1.364 7.872l1.882-.675a21.29 21.29 0 01-1.246-7.197h-2zm11.36 20.033a23.245 23.245 0 007.46 2.864l.385-1.963a21.242 21.242 0 01-6.817-2.617l-1.028 1.716zm6.652 1.882v4.242h2v-4.242h-2zm0 12.725v8.483h2v-8.483h-2zm0 16.966v4.241h2v-4.241h-2zm0 4.241c0 .412.102.799.282 1.137l1.766-.94a.41.41 0 01-.048-.197h-2zm2.162 2.408c.381.042.778-.008 1.16-.161l-.745-1.856a.405.405 0 01-.2.029l-.215 1.988zm1.16-.161l5.07-2.034-.745-1.856-5.07 2.034.745 1.856zm15.21-6.102l10.139-4.068-.745-1.856-10.14 4.068.745 1.856zm20.278-8.136l5.07-2.034-.744-1.856-5.07 2.034.744 1.856zm5.698-2.962v-3.572h-2v3.572h2zm0-10.717v-3.572h-2v3.572h2zm-1.108-2.578l.78.084.215-1.988-.78-.084-.215 1.988zm2.339.253l.78.085.215-1.988-.78-.085-.215 1.988zm.78.085c.417.045.835.079 1.255.102l.107-1.997a22.059 22.059 0 01-1.147-.093l-.216 1.988zm3.772.102a23.99 23.99 0 001.255-.102l-.215-1.988c-.382.041-.765.072-1.148.093l.108 1.997zm1.255-.102l1.02-.111-.216-1.988-1.02.111.216 1.988zm3.058-.331l1.02-.111-.216-1.988-1.02.11.216 1.989zm-.088-1.105v3.598h2v-3.598h-2zm0 10.795v3.598h2v-3.598h-2zm.627 4.526l5.07 2.034.745-1.856-5.07-2.034-.745 1.856zm15.21 6.102l10.14 4.068.744-1.856-10.14-4.068-.744 1.856zm20.279 8.136l5.069 2.034.745-1.856-5.07-2.034-.744 1.856zm5.069 2.034c.382.153.779.203 1.16.161l-.215-1.988a.405.405 0 01-.2-.029l-.745 1.856zm3.04-1.11a2.41 2.41 0 00.282-1.136h-2a.408.408 0 01-.047.196l1.765.94zm.282-1.136v-4.268h-2v4.268h2zm0-12.804v-8.536h-2v8.536h2zm0-17.071v-4.268h-2v4.268h2zm-.764-3.296a23.236 23.236 0 007.111-3.05l-1.084-1.681a21.212 21.212 0 01-6.499 2.787l.472 1.944zm16.539-15.047a23.292 23.292 0 001.278-7.63h-2c0 2.438-.41 4.786-1.168 6.976l1.89.654zm1.278-7.63v-5.274h-2v5.274h2zm0-15.822v-10.549h-2v10.549h2zm0-21.097v-10.549h-2v10.549h2zm0-21.097v-10.549h-2v10.549h2zm0-21.097V81.91h-2v10.55h2zm0-21.097V60.813h-2v10.549h2zm0-21.097V39.716h-2v10.549h2zm0-21.097v-5.274h-2v5.274h2zm0-5.274c0-2.958-.553-5.799-1.566-8.415l-1.865.723a21.268 21.268 0 011.431 7.692h2zM120.237 3.08a22.733 22.733 0 00-8.27-2.228l-.15 1.995a20.74 20.74 0 017.545 2.031l.875-1.798zm-8.27-2.228a981.37 981.37 0 00-5.435-.392l-.138 1.995c1.83.127 3.649.259 5.423.392l.15-1.995zM95.649-.214c-1.89-.1-3.72-.185-5.451-.25l-.076 1.998c1.72.065 3.54.15 5.422.25l.105-1.998zm-5.451-.25c-2.1-.08-4.096-.151-6.014-.213l-.065 1.999c1.914.061 3.907.132 6.003.212l.076-1.999zM72.157-.962c-4.067-.052-7.97-.052-12.038 0l.026 2c4.05-.052 7.936-.052 11.986 0l.026-2zm-24.065.284c-1.917.062-3.914.133-6.014.212l.076 1.999c2.096-.08 4.09-.15 6.003-.212l-.065-2zM42.116.535l.076 1.998-.076-1.998zM20.373 1.85l.15 1.994-.15-1.994zM90.16.535l-.076 1.998.076-1.998zm21.732 1.314l-.149 1.995.149-1.995zm20.284 22.045h2-2zm0 147.678h-2 2zm-17.053 21.705l-.471-1.944-1.529.371v1.573h2zm-1.949 35.461l-.745 1.856.745-1.856zm-40.558-16.272h-2v1.352l1.255.504.745-1.856zm0-14.393h2v-2.228l-2.216.24.216 1.988zm-4.078.442l.216 1.988-.216-1.988zm-4.812 0l-.215 1.988.215-1.988zm-3.118-.338l.215-1.989-2.215-.24v2.229h2zm0 14.289l.745 1.856 1.255-.504v-1.352h-2zM20.05 228.738l.744 1.856-.744-1.856zm-1.95-35.251h2v-1.645l-1.614-.317-.386 1.962zM.088 171.572h2-2zm0-147.678h2-2zM42.04-1.464c-1.737.066-3.574.151-5.469.251l.21 3.995c1.88-.1 3.697-.184 5.411-.249l-.152-3.997zm-16.374.926c-1.837.128-3.662.26-5.443.393l.3 3.99c1.773-.134 3.59-.266 5.42-.392l-.277-3.99zm-5.443.393a23.739 23.739 0 00-8.633 2.326l1.75 3.596a19.74 19.74 0 017.182-1.933l-.299-3.989zM-.278 15.12a24.265 24.265 0 00-1.634 8.775h4c0-2.582.482-5.055 1.364-7.331l-3.73-1.444zm-1.634 8.775v5.274h4v-5.274h-4zm0 15.823v10.548h4V39.717h-4zm0 21.097v10.548h4V60.814h-4zm0 21.097V92.46h4V81.911h-4zm0 21.096v10.549h4v-10.549h-4zm0 21.097v10.549h4v-10.549h-4zm0 21.097v10.549h4v-10.549h-4zm0 21.097v5.274h4v-5.274h-4zm0 5.274c0 2.87.5 5.636 1.422 8.21l3.766-1.35a20.296 20.296 0 01-1.188-6.86h-4zm11.847 20.891a24.236 24.236 0 007.78 2.987l.77-3.925a20.228 20.228 0 01-6.496-2.494l-2.054 3.432zm6.165 1.024v4.242h4v-4.242h-4zm0 12.725v8.483h4v-8.483h-4zm0 16.966v4.241h4v-4.241h-4zm0 4.241c0 .579.144 1.127.4 1.607l3.53-1.88a.59.59 0 01.07.273h-4zm3.055 3.403a3.42 3.42 0 001.64-.228l-1.49-3.712a.575.575 0 01.28-.037l-.43 3.977zm1.64-.228l5.07-2.034-1.49-3.712-5.07 2.034 1.49 3.712zm15.209-6.102l10.14-4.068-1.49-3.712-10.14 4.068 1.49 3.712zm20.279-8.136l5.07-2.034-1.49-3.712-5.07 2.034 1.49 3.712zm6.325-3.89v-3.572h-4v3.572h4zm0-10.717v-3.572h-4v3.572h4zm-2.216-1.584l.78.085.43-3.977-.779-.085-.43 3.977zm2.34.254l.779.084.43-3.977-.779-.084-.43 3.977zm.779.084c.435.047.872.083 1.309.106l.215-3.994a19.95 19.95 0 01-1.093-.089l-.431 3.977zm3.934.106a23.92 23.92 0 001.309-.106l-.431-3.977c-.364.04-.729.069-1.094.089l.216 3.994zm1.309-.106l1.02-.11-.432-3.977-1.02.11.432 3.977zm3.058-.331l1.019-.111-.43-3.976-1.02.11.43 3.977zm-1.196-2.099v3.598h4v-3.598h-4zm0 10.795v3.598h4v-3.598h-4zm1.255 5.454l5.07 2.034 1.489-3.712-5.07-2.034-1.49 3.712zm15.21 6.102l10.139 4.068 1.49-3.712-10.14-4.068-1.49 3.712zm20.278 8.136l5.07 2.034 1.489-3.712-5.069-2.034-1.49 3.712zm5.07 2.034a3.423 3.423 0 001.64.228l-.43-3.977a.584.584 0 01.279.037l-1.489 3.712zm4.295-1.568c.256-.48.399-1.028.399-1.606h-4a.59.59 0 01.07-.274l3.531 1.88zm.399-1.606v-4.268h-4v4.268h4zm0-12.804v-8.536h-4v8.536h4zm0-17.071v-4.268h-4v4.268h4zm-1.529-2.324a24.234 24.234 0 007.417-3.181l-2.166-3.363a20.204 20.204 0 01-6.193 2.656l.942 3.888zm17.249-15.692a24.312 24.312 0 001.333-7.957h-4a20.3 20.3 0 01-1.113 6.649l3.78 1.308zm1.333-7.957v-5.274h-4v5.274h4zm0-15.822v-10.549h-4v10.549h4zm0-21.097v-10.549h-4v10.549h4zm0-21.097v-10.549h-4v10.549h4zm0-21.097V81.91h-4v10.55h4zm0-21.097v-10.55h-4v10.549h4zm0-21.097v-10.55h-4v10.549h4zm0-21.097v-5.274h-4v5.274h4zm0-5.274c0-3.083-.576-6.046-1.633-8.776l-3.73 1.445a20.269 20.269 0 011.363 7.33h4zM120.675 2.18a23.74 23.74 0 00-8.633-2.326l-.299 3.989c2.574.193 4.994.869 7.181 1.933l1.751-3.596zm-8.633-2.326c-1.78-.133-3.604-.266-5.44-.393l-.277 3.99c1.828.127 3.645.259 5.418.392l.299-3.989zm-16.34-1.068c-1.894-.1-3.73-.185-5.466-.251l-.152 3.997c1.713.065 3.529.15 5.407.249l.211-3.995zm-5.466-.251c-2.101-.08-4.1-.15-6.02-.213l-.129 3.998c1.911.062 3.902.132 5.997.212l.152-3.997zM72.17-1.96a459.75 459.75 0 00-12.064 0l.052 4c4.041-.053 7.919-.053 11.96 0l.052-4zm-24.11.283c-1.92.062-3.919.133-6.02.213l.152 3.997c2.095-.08 4.086-.15 5.997-.212l-.13-3.998z" fill="#fff" mask="url(#a)"/><defs><linearGradient id="paint0_linear" x1="132.337" y1="0" x2="-31.762" y2="220.818" gradientUnits="userSpaceOnUse"><stop stop-color="#35355E"/><stop offset=".5" stop-color="#181829"/><stop offset=".958" stop-color="#181829"/></linearGradient></defs></svg>