<svg width="24" height="24" fill="none" xmlns="http://www.w3.org/2000/svg"><path d="M17.577 1.658c-.775-.095-1.231-1.003-2.052-1.122-1.003-.167-2.052-.263-3.033-.382C10.6-.061 7.567-.3 6.153 1.324c-.205.239-.524.74-.89.74-.182 0-.204-.215-.41-.215-.136-.023-.547.168-.661.24-.912.596-1.733 1.767-2.463 2.603-.273.31-.66.716-.365 1.027.16.143.343-.096.41.286.024.192-.227.478-.318.645C1.068 7.367.635 7.94.43 8.728c-.251.98-.502 1.935-.41 2.986.113 1.218.797 2.532.546 3.774-.136.597-.273.62.092 1.122.364.526.615 1.051.843 1.649.365.955.776 1.528 1.574 2.078.365.262.661.19 1.026.382.365.167.615.62.89.907A7.334 7.334 0 006.86 23.06c1.847 1.004 3.945.86 5.974.86.935 0 2.714.31 3.466-.286.342-.263.547-.574 1.026-.645.48-.096.912-.12 1.391-.287-.775-.501 1.118-.74 1.437-.884.866-.382 1.71-1.218 2.326-1.958.661-.788.638-1.505.73-2.484.045-.43.045-.788.25-1.17.274-.502.48-.454.297-1.028-.206-.692-.365-1.146-.183-1.863.16-.55.502-1.17.41-1.767-.204.048-.57.31-.752.167-.182-.143-.068-.645-.045-.836.068-.621.25-1.48.114-2.102-.137-.693-.753-1.075-.958-1.743-.114-.359-.182-.98-.456-1.243-.297-.31-.297-.023-.547.24-.32-.24-.274-.67-.32-1.028-.045-.55-.205-.454-.57-.764-.934-.788-.934-2.508-2.234-2.962-.114.143-.48.191-.639.382z" fill="#8A4825"/><path d="M18.945 3.975c-.022-.024-.045-.072-.09-.144-.024-.071-.092-.095-.138-.167a2.193 2.193 0 00-.228-.19c-.182-.144-.456-.288-.775-.455-.16-.071-.342-.167-.524-.262-.183-.096-.388-.192-.593-.311-.41-.191-.89-.406-1.414-.55-.547-.143-1.14-.286-1.779-.453-.638-.167-1.3-.287-2.03-.358-.341-.024-.706-.048-1.07-.072-.183.024-.388.024-.57.048-.183.024-.366.071-.548.095-.753.191-1.482.55-2.235.98-.387.214-.775.453-1.163.668-.182.096-.387.24-.57.335-.182.12-.365.239-.547.382-.365.263-.684.597-.98.931-.115.191-.274.359-.365.574-.046.095-.114.19-.16.31l-.114.31c-.32.956-.639 1.935-.958 2.938l-.479 1.505c-.068.263-.16.526-.228.765-.022.119-.068.262-.09.382l-.07.358c-.022.12-.022.239-.022.358v.288c0-.048 0 0 0 0v.07l.046.406c.022.143.068.239.09.358.138.478.366 1.003.502 1.552.069.31.092.598.137.86.046.263.069.526.16.74.023.12.091.216.137.311.068.12.136.24.205.358l.433.717.41.74.183.359.091.19c.023.049.069.096.091.144.274.382.707.693 1.14 1.075l.593.55c.206.167.388.334.616.477.205.143.433.31.661.43l.16.096.046.023.022.024c-.022-.024 0 0 0 0l.092.048.364.167a.979.979 0 00.342.12c.115.024.229.095.343.095.25.048.501.12.752.144.524.071 1.049.143 1.573.238.525.096 1.027.168 1.528.168h.388l.387-.024c.251-.024.502-.072.73-.096.98-.167 1.961-.454 2.896-.788.479-.167.935-.334 1.414-.502.456-.167.912-.334 1.345-.525.867-.382 1.665-.884 2.19-1.576.068-.096.136-.168.182-.263l.16-.287c.045-.095.09-.215.136-.287l.114-.334c.091-.215.137-.43.183-.645.068-.19.068-.43.114-.645.114-.86.114-1.743.114-2.58v-.62c0-.191 0-.406-.023-.597-.023-.191-.023-.383-.046-.574l-.068-.573c-.114-.74-.274-1.457-.41-2.126-.07-.334-.138-.668-.206-.955-.023-.167-.091-.287-.137-.406a2.907 2.907 0 00-.182-.382c-.25-.502-.547-.98-.707-1.457-.182-.478-.296-.884-.456-1.218a2.318 2.318 0 00-.456-.717c-.137-.12-.365-.167-.502-.287-.114-.167-.137-.286-.137-.262zm.365-.144c0 .024.023.024.046.048l.182.096c.046.024.091.047.16.071a.495.495 0 00.114.072c.023.024.046.048.068.048a2.9 2.9 0 01.57.86c.16.358.297.788.48 1.218.182.43.455.884.729 1.409l.205.43c.069.167.114.334.16.478.091.334.137.645.228.979.137.669.32 1.361.456 2.15.023.19.068.382.091.597l.069.62c0 .216.022.407.022.622v.62c0 .837.023 1.744-.114 2.652-.045.239-.068.454-.136.693-.069.239-.115.477-.206.692l-.114.335c-.045.143-.114.239-.16.358-.068.12-.113.215-.182.334-.068.096-.137.215-.228.31-.616.813-1.505 1.362-2.394 1.768-.456.215-.912.383-1.391.55-.456.167-.935.358-1.414.525-.958.335-1.938.669-3.01.836-.273.024-.547.096-.798.096l-.388.024-.205.024h-.228c-.547 0-1.094-.096-1.619-.168a16.704 16.704 0 00-1.573-.215c-.274-.024-.547-.095-.821-.143-.137-.024-.274-.096-.41-.12-.137-.047-.297-.095-.411-.143l-.365-.167-.091-.048-.046-.024-.022-.023-.046-.024-.182-.12a7.283 7.283 0 01-.707-.477c-.228-.168-.456-.359-.662-.526l-.592-.55c-.365-.358-.844-.668-1.232-1.194a1.23 1.23 0 00-.137-.19l-.09-.192-.206-.382-.388-.716-.433-.693-.205-.358c-.069-.144-.16-.287-.205-.43-.206-.597-.228-1.195-.32-1.672-.114-.502-.342-.98-.501-1.553a4.136 4.136 0 01-.114-.43l-.046-.406v-.454c0-.143 0-.31.046-.453l.09-.43c.024-.144.07-.263.115-.406.068-.263.16-.526.228-.765.16-.501.342-1.003.502-1.504.342-1.004.66-1.96.98-2.914.16-.526.456-1.004.775-1.41A7.46 7.46 0 014.33 3.02c.182-.143.41-.262.593-.406.205-.12.387-.215.593-.334l1.163-.645c.775-.43 1.55-.812 2.394-.98.205-.023.433-.095.616-.095.205 0 .387-.024.592-.024.388.024.776.048 1.163.096.73.12 1.437.239 2.075.406.639.167 1.232.31 1.779.454.57.143 1.049.382 1.482.597.205.12.41.215.593.31.183.096.365.191.524.263.342.167.616.334.821.502.206.143.388.358.457.477.068.12.09.167.09.167l.046.024z" fill="#190000"/><path d="M20.61 6.793c-.137-.573-.707-1.648-1.163-2.054-.342-.287-.798-.406-1.163-.669-.387-.262-.752-.573-1.163-.788a13.521 13.521 0 00-5.267-1.672c-1.642-.167-3.626-.048-5.13.669-1.415.669-2.692 2.126-3.49 3.487-.364.645-.66 1.529-.889 2.245-.228.812-.502 1.529-.798 2.341-.274.764-.274 1.6-.274 2.436 0 .765.365 1.338.548 2.054.09.383.022.789.228 1.123.205.334.501.43.615.836.228.788.297 1.505.844 2.198.41.525 1.186 1.098 1.756 1.457.387.238.775.501 1.163.788.41.286.82.788 1.277.979.82.358 2.006.143 2.896.215 1.026.096 2.075.334 3.1.239 1.711-.143 3.307-1.266 4.903-1.959 1.597-.669 2.691-1.648 3.033-3.415.274-1.41.502-3.153.228-4.634-.205-1.123-.479-2.174-.752-3.272-.137-.526.045-1.051-.091-1.529-.115-.382-.137-.788-.411-1.075z" fill="#DCAA79"/><path d="M20.245 5.073c-.57.31-1.003.789-1.596 1.075-.41.191-.844.406-1.231.669.98-.143 2.143-.43 3.055-.836-.137-.287-.137-.573-.228-.908zM9.323.822c-.205.406-.183 1.027-.16 1.505.023.406.228.764.183 1.146-.525-.167-.798-1.266-.958-1.791-.114-.382-.183-.478.16-.717.296-.167.456-.048.775-.143zM2.984 18.377c.934-.43 1.755-1.218 2.713-1.552-.616.477-1.254 1.098-1.779 1.672-.114.143-.387.597-.57.597-.296-.024-.387-.502-.364-.717zm9.668 4.491c.524-.812 1.231-2.054 1.254-3.057 0 .597-.182 1.17-.16 1.767.023.406.16.812.251 1.194-.25-.024-1.231.287-1.345.096zm6.568-2.007c-.366-.286-.776-.597-1.118-.955-.251-.263-.502-.86-.821-1.003.137.406.296.836.456 1.218.137.358.388.74.456 1.099.274.071.98-.167 1.026-.358zm3.351-7.858c-.707.287-1.505.478-2.28.454v.095c.661.168 1.55.359 2.234.311.069-.358 0-.502.046-.86zM2.026 8.155c.365.406.775.597 1.254.836.25.119.684.19.866.358-.82.12-1.71-.12-2.53-.12.022-.382.273-.74.41-1.074z" fill="#190000"/><path d="M18.353 6.817c-.274-.191-.57-.382-.89-.502-.456-.501-1.14-.836-1.733-1.146-.593-.31-1.254-.86-1.892-.908-.639-.525-2.144-.788-2.965-.836-1.368-.071-2.987.215-4.218.86-.958.502-2.235 1.696-2.326 2.842-.046.55.205 1.027.16 1.577-.046.597-.32 1.099-.616 1.6-.753 1.314-.73 2.604-.046 3.965.342.693.867 1.218 1.163 1.91.251.622.502 1.219.821 1.816.616 1.099 1.87 1.672 2.987 2.078 1.756.645 4.014 1.003 5.815.454.912-.287 1.528-.955 2.372-1.41.752-.405 1.345-1.002 1.983-1.552 1.255-1.075 1.825-2.699 1.505-4.37-.25-1.362-.592-2.795-1.185-4.037-.388-.836-.73-1.911-1.277-2.532 0-.048.342.19.342.19z" fill="#D39456"/><path d="M15.822 6.865c-2.463-1.481-6.203-3.464-8.757-.86-.479.477-.593 1.242-.89 1.839-.295.597-.546 1.122-.66 1.791-.183 1.147-.137 2.102.16 3.249.273 1.122.455 2.412.911 3.44.502 1.146 2.121 1.719 3.147 2.196 2.782 1.29 5.86-.238 8.027-2.125 1.026-.884 1.527-1.744 1.527-3.153 0-1.027-.456-2.03-.866-2.938-.365-.812-.752-1.624-1.368-2.245-.547-.502-.593-.812-1.232-1.194z" fill="#DCAA79"/><path d="M15.935 8.608c-1.049-.716-2.211-1.075-3.397-1.48-1.026-.359-2.144-.908-3.238-.645-.958.238-1.62 1.457-2.007 2.316-.25.574-.273.956-.182 1.577.091.669.068 1.337.068 2.03 0 .955-.114 1.982.502 2.77.32.407.73.86 1.14 1.147.912.669 1.984 1.338 3.147 1.386 1.231.071 2.485-.454 3.443-1.219.433-.334.867-.716 1.208-1.17.388-.502.958-1.075 1.095-1.72.183-.836.228-2.46-.25-3.129-.274-.382-.662-.645-.981-.979-.274-.239-.251-.669-.548-.884z" fill="#D39456"/><path d="M16.437 11.522c.16-1.075-1.39-2.245-2.189-2.58-1.208-.525-2.85-.93-4.15-.644-1.208.263-2.143 2.173-2.28 3.392-.137 1.337.41 2.34 1.368 3.152.661.55 1.209 1.29 2.075 1.553 1.049.31 2.144-.12 3.056-.645.866-.525 1.801-1.314 2.234-2.27.41-.955-.25-1.05-.114-1.958z" fill="#DCAA79"/><path d="M14.613 10.352C12.81 9.3 9.528 9.182 8.889 11.737c-.57 2.27 2.44 3.75 4.219 3.01.843-.358 1.619-1.027 1.915-1.959.251-.836.456-1.934-.41-2.436z" fill="#D39456"/><path d="M12.72 11.307c.274-1.552.502-3.152.707-4.729.091-.716.365-1.433.41-2.15.024-.406-.068-1.886.57-1.671 0 .334-.159.668-.227 1.027-.046.382-.046.74-.137 1.122-.182.74-.16 1.553-.365 2.293a24.785 24.785 0 00-.524 2.054c-.069.335-.069.693-.137 1.027-.023.359-.297.67-.297 1.027zm-2.326.884c-2.166.573-4.332 1.314-6.521 1.744-.365.071-.73.12-1.072.215-.274.095-.638.358-.16.43.32.047.753-.215 1.05-.31a7.62 7.62 0 011.003-.287c1.026-.263 2.052-.454 3.055-.74.48-.144.958-.311 1.414-.502.296-.12 1.049-.287 1.231-.55zm2.053 1.099c-.434.55-.48 1.696-.73 2.388-.251.765-.57 1.505-.867 2.246a29.092 29.092 0 00-.73 2.078c-.113.382-.455 1.337-.319 1.672.525-.263.799-1.362.981-1.911.205-.621.479-1.266.57-1.911.114-.717.32-1.41.456-2.102.137-.597.433-1.887.639-2.46zm1.208.263c1.14.525 2.075 1.648 3.124 2.34.593.382 1.163.693 1.756 1.051.41.24.82.693 1.3.597-.502-1.05-1.916-1.6-2.896-2.125-.57-.311-1.14-.454-1.688-.86a7.006 7.006 0 00-1.596-1.003zm.32-1.959c1.094-.597 2.257-1.17 3.443-1.553.41-.143 2.371-1.003 2.668-.549-.98.645-2.372 1.099-3.49 1.457-.774.263-1.8.74-2.621.645zm-3.261-1.123c-1.277 0-2.486-.62-3.58-1.313C6.837 8.967 3.69 7.27 3.85 8.13c1.163.19 2.417.883 3.466 1.409.524.263 1.049.55 1.596.788.707.31 1.095.215 1.802.143z" fill="#592611"/><path d="M11.877 9.611c.068.74.16.884-.57 1.17-.57.24-1.232.359-1.756.622.524.047 1.071.047 1.596.071.365.024.844-.167.73.383-.069.31-.639.764-.821 1.003-.228.286-.456.597-.684.883 1.003-.406 1.596-1.266 2.713-.836.684.263 1.345.55 2.12.55-.364-.096-.66-.526-1.003-.74-.296-.192-.775-.311-.98-.622-.547-.86.98-1.958 1.414-2.484-.593.287-1.072 1.051-1.756 1.099-.707 0-.502-.812-1.004-1.099z" fill="#592611"/></svg>